# Blender 5.1.1
# www.blender.org
mtllib puzzlebot_wheel.mtl
o puzzlebot_wheel
v 0.003198 -0.006000 0.043756
v 0.002944 -0.006000 0.046166
v 0.000838 -0.006000 0.043735
v 0.004148 -0.006000 0.047611
v 0.001608 -0.006000 0.049091
v 0.001515 -0.006000 0.050584
v -0.000873 -0.006000 0.049563
v -0.002427 -0.006000 0.050105
v -0.002706 -0.006000 0.047825
v -0.004272 -0.006000 0.047642
v -0.003783 -0.006000 0.044604
v -0.002248 -0.006000 0.044641
v -0.001560 -0.006000 0.042475
v 0.000530 -0.006000 0.042221
v 0.003896 -0.014571 0.048634
v 0.002499 -0.014571 0.050210
v 0.000530 -0.014571 0.050957
v -0.001560 -0.014571 0.050703
v -0.003293 -0.014571 0.049507
v -0.004272 -0.014571 0.047642
v -0.004272 -0.014571 0.045536
v -0.003293 -0.014571 0.043671
v -0.001560 -0.014571 0.042475
v 0.000530 -0.014571 0.042221
v 0.002499 -0.014571 0.042968
v 0.003896 -0.014571 0.044544
v 0.004400 -0.014571 0.046589
v -0.002879 -0.009000 0.045439
v -0.001800 -0.009000 0.044065
v -0.003044 -0.009000 0.047178
v -0.002242 -0.009000 0.048730
v -0.000728 -0.009000 0.049602
v 0.001016 -0.009000 0.049518
v 0.002438 -0.009000 0.048503
v 0.003086 -0.009000 0.046881
v 0.002754 -0.009000 0.045166
v 0.001548 -0.009000 0.043903
v -0.000150 -0.009000 0.043493
v -0.001676 0.003000 0.043981
v -0.002820 -0.003000 0.045301
v -0.001676 -0.003000 0.043981
v -0.002820 0.003000 0.045301
v -0.003068 -0.003000 0.047030
v -0.003068 0.003000 0.047030
v -0.002343 -0.003000 0.048619
v -0.002343 0.003000 0.048619
v -0.000873 -0.003000 0.049563
v -0.000873 0.003000 0.049563
v 0.000873 -0.003000 0.049563
v 0.000873 0.003000 0.049563
v 0.002343 -0.003000 0.048619
v 0.002343 0.003000 0.048619
v 0.003068 -0.003000 0.047030
v 0.003068 0.003000 0.047030
v 0.002820 -0.003000 0.045301
v 0.002820 0.003000 0.045301
v 0.001676 -0.003000 0.043981
v 0.001676 0.003000 0.043981
v 0.000000 -0.003000 0.043489
v 0.000000 0.003000 0.043489
v -0.000664 -0.003000 0.044546
v -0.002148 -0.003000 0.046589
v -0.000664 -0.003000 0.048632
v 0.001328 -0.003000 0.048416
v 0.002148 -0.003000 0.046589
v 0.001328 -0.003000 0.044762
v -0.002267 0.017000 0.048554
v 0.002618 0.017000 0.047785
v 0.000000 0.017000 0.049467
v -0.002849 0.017000 0.046179
v 0.002175 0.017000 0.044704
v -0.000811 0.017000 0.043827
v 0.002729 0.003000 0.045343
v 0.001622 0.003000 0.044065
v 0.002969 0.003000 0.047016
v 0.002267 0.003000 0.048554
v 0.000845 0.003000 0.049467
v -0.000845 0.003000 0.049467
v -0.002267 0.003000 0.048554
v -0.002969 0.003000 0.047016
v -0.002729 0.003000 0.045343
v -0.001622 0.003000 0.044065
v 0.000000 0.003000 0.043589
v 0.002148 0.012000 0.046589
v 0.000664 0.012000 0.048632
v -0.001738 0.012000 0.047852
v -0.002148 0.012000 0.045891
v -0.001328 0.012000 0.044762
v 0.000664 0.012000 0.044546
v 0.006984 0.003000 0.043856
v 0.007146 0.003000 0.046589
v 0.006721 0.003000 0.044007
v 0.007442 0.003000 0.046589
v 0.006984 0.003000 0.049322
v 0.006721 0.003000 0.049170
v 0.005859 0.003000 0.051271
v 0.003573 0.003000 0.052778
v 0.005596 0.003000 0.051119
v 0.003721 0.003000 0.053034
v 0.001125 0.003000 0.053701
v 0.001125 0.003000 0.054004
v 0.003573 0.003000 0.040400
v 0.005859 0.003000 0.041907
v 0.005596 0.003000 0.042059
v 0.003721 0.003000 0.040144
v 0.001125 0.003000 0.039477
v 0.001125 0.003000 0.039174
v -0.003721 0.003000 0.053034
v -0.001125 0.003000 0.053701
v -0.001125 0.003000 0.054004
v -0.003573 0.003000 0.052778
v -0.005859 0.003000 0.051271
v -0.005596 0.003000 0.051119
v -0.001125 0.003000 0.039477
v -0.003721 0.003000 0.040144
v -0.001125 0.003000 0.039174
v -0.003573 0.003000 0.040400
v -0.005859 0.003000 0.041907
v -0.005596 0.003000 0.042059
v 0.006155 0.005000 0.047813
v 0.005543 0.005000 0.051642
v 0.006994 0.005000 0.049298
v 0.004524 0.005000 0.051113
v 0.003343 0.005000 0.053303
v 0.001224 0.005000 0.052744
v 0.000692 0.005000 0.054057
v -0.002052 0.005000 0.053803
v -0.002449 0.005000 0.052500
v -0.004520 0.005000 0.052574
v -0.005218 0.005000 0.050075
v -0.006377 0.005000 0.050537
v -0.007372 0.005000 0.047967
v -0.006155 0.005000 0.045365
v -0.007372 0.005000 0.045211
v -0.006377 0.005000 0.042641
v -0.003486 0.005000 0.041371
v -0.004520 0.005000 0.040604
v -0.002052 0.005000 0.039375
v 0.001224 0.005000 0.040434
v 0.000692 0.005000 0.039121
v 0.003343 0.005000 0.039875
v 0.005218 0.005000 0.043103
v 0.005543 0.005000 0.041536
v 0.006994 0.005000 0.043880
v 0.007500 0.005000 0.046589
v 0.006487 0.003000 0.050334
v 0.000000 0.003000 0.054080
v -0.006487 0.003000 0.050334
v -0.006984 0.003000 0.049322
v -0.007442 0.003000 0.046589
v -0.006984 0.003000 0.043856
v -0.006487 0.003000 0.042844
v 0.000000 0.003000 0.039098
v 0.006487 0.003000 0.042844
v -0.004136 0.015504 0.047412
v -0.005468 0.010366 0.044324
v -0.005918 0.010366 0.046589
v -0.003506 0.015504 0.044246
v -0.004185 0.010366 0.042404
v -0.002265 0.010366 0.041121
v 0.000823 0.015504 0.042453
v 0.002265 0.010366 0.041121
v 0.000000 0.010366 0.040671
v 0.003506 0.015504 0.044246
v 0.005468 0.010366 0.044324
v 0.004185 0.010366 0.042404
v 0.005918 0.010366 0.046589
v 0.004136 0.015504 0.047412
v 0.005468 0.010366 0.048854
v 0.004185 0.010366 0.050774
v 0.000000 0.015504 0.050888
v 0.000000 0.010366 0.052507
v 0.002343 0.015504 0.050095
v -0.002265 0.010366 0.052057
v -0.002343 0.015504 0.050095
v -0.004185 0.010366 0.050774
v -0.001039 0.020177 0.045350
v 0.000520 0.020177 0.045161
v -0.001645 0.015504 0.042617
v -0.001497 0.020177 0.046853
v -0.005468 0.010366 0.048854
v -0.000553 0.020177 0.048109
v 0.000553 0.020177 0.048109
v 0.002265 0.010366 0.052057
v 0.001497 0.020177 0.046853
v 0.000146 0.020891 0.046188
v 0.000840 0.020782 0.046737
v -0.007146 0.003000 0.046589
v -0.006721 0.003000 0.044007
v -0.006721 0.003000 0.049170
v 0.031041 0.003000 0.015688
v 0.030001 0.003000 0.014677
v 0.018490 0.003000 0.034615
v 0.019801 0.003000 0.035157
v 0.019615 0.003000 0.036563
v 0.042282 0.003000 0.035157
v 0.042637 0.003000 0.036563
v -0.011203 0.003000 0.004321
v -0.011238 0.003000 0.004255
v -0.012636 0.003000 0.004651
v -0.000866 0.003000 0.022225
v -0.001125 0.003000 0.024589
v 0.011203 0.003000 0.004321
v 0.012636 0.003000 0.004651
v 0.011238 0.003000 0.004255
v 0.000866 0.003000 0.022225
v 0.001125 0.003000 0.024589
v 0.042637 0.003000 0.056615
v 0.042207 0.003000 0.058021
v 0.042281 0.003000 0.058024
v 0.019615 0.003000 0.056615
v 0.031041 0.003000 0.077490
v 0.019801 0.003000 0.058021
v 0.018490 0.003000 0.058563
v 0.030001 0.003000 0.078501
v -0.019615 0.003000 0.036563
v -0.042282 0.003000 0.035157
v -0.042637 0.003000 0.036563
v -0.031041 0.003000 0.015688
v -0.019801 0.003000 0.035157
v -0.018490 0.003000 0.034615
v -0.030001 0.003000 0.014677
v 0.011241 0.003000 0.088922
v 0.012636 0.003000 0.088527
v 0.001125 0.003000 0.068589
v -0.000000 0.003000 0.069453
v -0.001125 0.003000 0.068589
v -0.011241 0.003000 0.088922
v -0.012636 0.003000 0.088527
v -0.004087 -0.006000 0.050269
v -0.004659 -0.015000 0.049279
v -0.002237 -0.015000 0.051613
v -0.005231 -0.006000 0.048289
v -0.005470 -0.006000 0.046014
v -0.005117 -0.015000 0.044927
v -0.004763 -0.006000 0.043839
v -0.003233 -0.006000 0.042139
v -0.002188 -0.015000 0.041674
v -0.001144 -0.006000 0.041209
v 0.001144 -0.006000 0.041209
v 0.002188 -0.015000 0.041674
v 0.003233 -0.006000 0.042139
v 0.004763 -0.006000 0.043839
v 0.005117 -0.015000 0.044927
v 0.005470 -0.006000 0.046014
v 0.005231 -0.006000 0.048289
v 0.004659 -0.015000 0.049279
v 0.004087 -0.006000 0.050269
v 0.002237 -0.006000 0.051613
v 0.001119 -0.015000 0.051851
v -0.002237 -0.006000 0.051613
v 0.000000 -0.006000 0.052089
v -0.002487 -0.005000 0.052594
v -0.004596 -0.005000 0.051185
v -0.006005 -0.005000 0.049076
v -0.006500 -0.005000 0.046589
v -0.006005 -0.005000 0.044102
v -0.004596 -0.005000 0.041993
v -0.002487 -0.005000 0.040584
v 0.000000 -0.005000 0.040089
v 0.002487 -0.005000 0.040584
v 0.004596 -0.005000 0.041993
v 0.006005 -0.005000 0.044102
v 0.006500 -0.005000 0.046589
v 0.006005 -0.005000 0.049076
v 0.004596 -0.005000 0.051185
v 0.002487 -0.005000 0.052594
v 0.000000 -0.005000 0.053089
v 0.004596 -0.003000 0.051185
v 0.002487 -0.003000 0.052594
v 0.006005 -0.003000 0.049076
v 0.006500 -0.003000 0.046589
v 0.006005 -0.003000 0.044102
v 0.004596 -0.003000 0.041993
v 0.002487 -0.003000 0.040584
v 0.000000 -0.003000 0.040089
v -0.002487 -0.003000 0.040584
v -0.004596 -0.003000 0.041993
v -0.006005 -0.003000 0.044102
v -0.006500 -0.003000 0.046589
v -0.006005 -0.003000 0.049076
v -0.004596 -0.003000 0.051185
v -0.002487 -0.003000 0.052594
v 0.000000 -0.003000 0.053089
v 0.006852 0.007000 0.089850
v 0.013535 0.007000 0.088245
v 0.012636 -0.003000 0.088527
v 0.018918 -0.003000 0.086093
v 0.019885 0.007000 0.085615
v 0.024752 -0.003000 0.082724
v 0.025745 0.007000 0.082024
v 0.030001 -0.003000 0.078501
v 0.030971 0.007000 0.077560
v 0.034779 -0.003000 0.073214
v 0.031041 -0.003000 0.077490
v 0.035435 0.007000 0.072334
v 0.039189 -0.003000 0.065944
v 0.039026 0.007000 0.066474
v 0.041656 0.007000 0.060124
v 0.042281 -0.003000 0.058024
v 0.043261 0.007000 0.053441
v 0.042637 -0.003000 0.056615
v 0.043670 -0.003000 0.046589
v 0.043800 0.007000 0.046589
v 0.043261 0.007000 0.039737
v 0.042637 -0.003000 0.036563
v 0.041656 0.007000 0.033054
v 0.042281 0.002806 0.035154
v 0.042282 0.002881 0.035157
v 0.042281 -0.003000 0.035154
v 0.039189 -0.003000 0.027235
v 0.039026 0.007000 0.026704
v 0.035435 0.007000 0.020844
v 0.034780 -0.003000 0.019966
v 0.031041 0.002880 0.015688
v 0.031043 0.002806 0.015690
v 0.031043 -0.003000 0.015690
v 0.030971 0.007000 0.015618
v 0.025745 0.007000 0.011154
v 0.030001 -0.003000 0.014677
v 0.024752 -0.003000 0.010454
v 0.019885 0.007000 0.007563
v 0.018918 -0.003000 0.007085
v 0.013535 0.007000 0.004933
v 0.012636 -0.003000 0.004651
v 0.006852 0.007000 0.003328
v 0.011238 -0.003000 0.004255
v 0.002833 -0.003000 0.002973
v -0.000000 0.007000 0.002789
v -0.005667 -0.003000 0.003157
v -0.006852 0.007000 0.003328
v -0.011238 -0.003000 0.004255
v -0.013535 0.007000 0.004933
v -0.012636 -0.003000 0.004651
v -0.018918 -0.003000 0.007085
v -0.019885 0.007000 0.007563
v -0.024752 -0.003000 0.010454
v -0.025745 0.007000 0.011154
v -0.030001 -0.003000 0.014677
v -0.030971 0.007000 0.015618
v -0.036355 -0.003000 0.022326
v -0.031041 -0.003000 0.015688
v -0.035435 0.007000 0.020844
v -0.039026 0.007000 0.026704
v -0.040446 -0.003000 0.029780
v -0.041656 0.007000 0.033054
v -0.042282 0.002880 0.035157
v -0.042281 0.002806 0.035154
v -0.042281 -0.003000 0.035154
v -0.043261 0.007000 0.039737
v -0.042637 -0.003000 0.036563
v -0.043670 -0.003000 0.046589
v -0.043800 0.007000 0.046589
v -0.043261 0.007000 0.053441
v -0.042637 -0.003000 0.056615
v -0.042637 0.003000 0.056615
v -0.041656 0.007000 0.060124
v -0.042281 0.003000 0.058024
v -0.042281 -0.003000 0.058024
v -0.039189 -0.003000 0.065943
v -0.039026 0.007000 0.066474
v -0.035435 0.007000 0.072334
v -0.031043 0.003000 0.077488
v -0.031043 -0.003000 0.077488
v -0.034780 -0.003000 0.073212
v -0.030971 0.007000 0.077560
v -0.030001 0.003000 0.078501
v -0.025745 0.007000 0.082024
v -0.030001 -0.003000 0.078501
v -0.024752 -0.003000 0.082724
v -0.019885 0.007000 0.085615
v -0.018918 -0.003000 0.086093
v -0.013535 0.007000 0.088245
v -0.012636 -0.003000 0.088527
v -0.006852 0.007000 0.089850
v -0.011241 -0.003000 0.088922
v -0.005669 -0.003000 0.090021
v -0.000000 0.007000 0.090389
v 0.002832 -0.003000 0.090205
v 0.011238 -0.003000 0.088923
v 0.011238 -0.000000 0.088923
v 0.011241 -0.000000 0.088922
v 0.011203 -0.000072 0.088857
v -0.000000 -0.003000 0.069453
v 0.011203 -0.003000 0.088857
v 0.001125 -0.003000 0.068589
v -0.001125 -0.003000 0.068589
v -0.001125 -0.003000 0.053701
v -0.019615 -0.003000 0.056615
v -0.019615 0.003000 0.056615
v -0.006721 -0.003000 0.049170
v -0.019615 -0.003000 0.036563
v -0.006721 -0.003000 0.044007
v -0.005596 -0.003000 0.051119
v -0.003573 -0.003000 0.052778
v 0.018490 -0.003000 0.058563
v 0.005596 -0.003000 0.051119
v 0.001125 -0.003000 0.053701
v 0.019801 -0.003000 0.058021
v 0.042207 -0.003000 0.058021
v 0.019615 -0.003000 0.056615
v 0.007146 -0.003000 0.046589
v 0.006721 -0.003000 0.044007
v 0.006721 -0.003000 0.049170
v 0.019615 -0.003000 0.036563
v 0.042207 -0.003000 0.035157
v 0.042207 0.002731 0.035157
v 0.031004 0.002731 0.015752
v 0.031004 -0.003000 0.015752
v 0.019801 -0.003000 0.035157
v 0.018490 -0.003000 0.034615
v 0.005596 -0.003000 0.042059
v 0.003573 -0.003000 0.040400
v 0.001125 -0.003000 0.039477
v 0.001125 -0.003000 0.024589
v -0.018490 -0.003000 0.034615
v -0.042207 0.002731 0.035157
v -0.019801 -0.003000 0.035157
v -0.042207 -0.003000 0.035157
v -0.005596 -0.003000 0.042059
v -0.001125 -0.003000 0.039477
v -0.003573 -0.003000 0.040400
v -0.001125 -0.003000 0.024589
v 0.011203 -0.003000 0.004321
v 0.000866 -0.003000 0.022225
v -0.000866 -0.003000 0.022225
v -0.011203 -0.003000 0.004321
v -0.031004 0.003000 0.077425
v -0.018490 0.003000 0.058563
v -0.019801 0.003000 0.058021
v -0.042207 0.003000 0.058021
v -0.031004 -0.003000 0.077425
v -0.019801 -0.003000 0.058021
v -0.042207 -0.003000 0.058021
v -0.018490 -0.003000 0.058563
v -0.007146 -0.003000 0.046589
v 0.003573 -0.003000 0.052778
v -0.046717 0.002000 0.046589
v -0.045786 -0.000612 0.039517
v -0.046329 -0.000612 0.046589
v -0.046169 0.002000 0.039458
v -0.044170 -0.000612 0.032611
v -0.044540 0.002000 0.032494
v -0.041519 -0.000612 0.026032
v -0.041866 0.002000 0.025860
v -0.037894 -0.000612 0.019935
v -0.038211 0.002000 0.019712
v -0.033381 -0.000612 0.014463
v -0.033660 0.002000 0.014194
v -0.028086 -0.000612 0.009744
v -0.028321 0.002000 0.009436
v -0.022132 -0.000612 0.005888
v -0.022317 0.002000 0.005548
v -0.015660 -0.000612 0.002987
v -0.015791 0.002000 0.002622
v -0.008821 -0.000612 0.001107
v -0.008894 0.002000 0.000727
v -0.001775 -0.000612 0.000294
v -0.001789 0.002000 -0.000093
v 0.005313 -0.000612 0.000565
v 0.005358 0.002000 0.000181
v 0.012276 -0.000612 0.001916
v 0.012379 0.002000 0.001542
v 0.018952 -0.000612 0.004313
v 0.019110 0.002000 0.003960
v 0.025183 -0.000612 0.007702
v 0.025394 0.002000 0.007377
v 0.030824 -0.000612 0.012002
v 0.031082 0.002000 0.011712
v 0.035742 -0.000612 0.017112
v 0.036041 0.002000 0.016866
v 0.039823 -0.000612 0.022914
v 0.040156 0.002000 0.022716
v 0.042970 -0.000612 0.029270
v 0.043330 0.002000 0.029125
v 0.045111 -0.000612 0.036033
v 0.045488 0.002000 0.035944
v 0.046193 -0.000612 0.043043
v 0.046580 0.002000 0.043013
v 0.046193 -0.000612 0.050135
v 0.046580 0.002000 0.050165
v 0.045111 -0.000612 0.057145
v 0.045488 0.002000 0.057234
v 0.042970 -0.000612 0.063908
v 0.043330 0.002000 0.064052
v 0.039823 -0.000612 0.070264
v 0.040156 0.002000 0.070462
v 0.035742 -0.000612 0.076066
v 0.036041 0.002000 0.076312
v 0.030824 -0.000612 0.081176
v 0.031082 0.002000 0.081465
v 0.025183 -0.000612 0.085476
v 0.025394 0.002000 0.085801
v 0.018952 -0.000612 0.088865
v 0.019110 0.002000 0.089218
v 0.012276 -0.000612 0.091262
v 0.012379 0.002000 0.091636
v 0.005313 -0.000612 0.092612
v 0.005358 0.002000 0.092997
v -0.001775 -0.000612 0.092884
v -0.001789 0.002000 0.093271
v -0.008821 -0.000612 0.092071
v -0.008894 0.002000 0.092451
v -0.015660 -0.000612 0.090191
v -0.015791 0.002000 0.090556
v -0.022132 -0.000612 0.087290
v -0.022317 0.002000 0.087630
v -0.028086 -0.000612 0.083434
v -0.028321 0.002000 0.083742
v -0.033381 -0.000612 0.078715
v -0.033660 0.002000 0.078984
v -0.037894 -0.000612 0.073243
v -0.038211 0.002000 0.073466
v -0.041519 -0.000612 0.067146
v -0.041866 0.002000 0.067318
v -0.044170 -0.000612 0.060567
v -0.044540 0.002000 0.060684
v -0.045786 -0.000612 0.053661
v -0.046169 0.002000 0.053720
v -0.046329 0.004612 0.046589
v -0.045786 0.004612 0.039517
v -0.044170 0.004612 0.032611
v -0.041519 0.004612 0.026032
v -0.037894 0.004612 0.019935
v -0.033381 0.004612 0.014463
v -0.028086 0.004612 0.009744
v -0.022132 0.004612 0.005888
v -0.015660 0.004612 0.002987
v -0.008821 0.004612 0.001107
v -0.001775 0.004612 0.000294
v 0.005313 0.004612 0.000565
v 0.012276 0.004612 0.001916
v 0.018952 0.004612 0.004313
v 0.025183 0.004612 0.007702
v 0.030824 0.004612 0.012002
v 0.035742 0.004612 0.017112
v 0.039823 0.004612 0.022914
v 0.042970 0.004612 0.029270
v 0.045111 0.004612 0.036033
v 0.046193 0.004612 0.043043
v 0.046193 0.004612 0.050135
v 0.045111 0.004612 0.057145
v 0.042970 0.004612 0.063908
v 0.039823 0.004612 0.070264
v 0.035742 0.004612 0.076066
v 0.030824 0.004612 0.081176
v 0.025183 0.004612 0.085476
v 0.018952 0.004612 0.088865
v 0.012276 0.004612 0.091262
v 0.005313 0.004612 0.092612
v -0.001775 0.004612 0.092884
v -0.008821 0.004612 0.092071
v -0.015660 0.004612 0.090191
v -0.022132 0.004612 0.087290
v -0.028086 0.004612 0.083434
v -0.033381 0.004612 0.078715
v -0.037894 0.004612 0.073243
v -0.041519 0.004612 0.067146
v -0.044170 0.004612 0.060567
v -0.045786 0.004612 0.053661
v -0.044935 -0.003000 0.050039
v -0.043094 -0.003000 0.060227
v -0.040507 -0.003000 0.066645
v -0.034769 -0.003000 0.075263
v -0.027401 -0.003000 0.082536
v -0.021593 -0.003000 0.086298
v -0.011942 -0.003000 0.090045
v -0.001731 -0.003000 0.091756
v 0.008580 -0.003000 0.090832
v 0.018490 -0.003000 0.087834
v 0.027321 -0.003000 0.082431
v 0.034871 -0.003000 0.075347
v 0.040388 -0.003000 0.066586
v 0.044011 -0.003000 0.056888
v 0.045067 -0.003000 0.050049
v 0.045067 -0.003000 0.043129
v 0.042967 -0.003000 0.032991
v 0.038853 -0.003000 0.023491
v 0.034871 -0.003000 0.017831
v 0.030073 -0.003000 0.012845
v 0.024569 -0.003000 0.008650
v 0.015234 -0.003000 0.004174
v 0.005184 -0.003000 0.001687
v -0.001731 -0.003000 0.001422
v -0.008606 -0.003000 0.002216
v -0.018436 -0.003000 0.005465
v -0.029984 -0.003000 0.012944
v -0.036970 -0.003000 0.020585
v -0.040507 -0.003000 0.026533
v -0.043882 -0.003000 0.036320
v -0.044670 0.007000 0.039689
v -0.043094 0.007000 0.032951
v -0.040507 0.007000 0.026533
v -0.036970 0.007000 0.020585
v -0.029984 0.007000 0.012944
v -0.021593 0.007000 0.006880
v -0.011942 0.007000 0.003133
v 0.001726 0.007000 0.001555
v 0.011977 0.007000 0.003005
v 0.018490 0.007000 0.005344
v 0.024569 0.007000 0.008650
v 0.032472 0.007000 0.015338
v 0.038853 0.007000 0.023491
v 0.041923 0.007000 0.029692
v 0.044539 0.007000 0.039709
v 0.044539 0.007000 0.053468
v 0.041923 0.007000 0.063486
v 0.038853 0.007000 0.069687
v 0.032472 0.007000 0.077840
v 0.024569 0.007000 0.084528
v 0.015234 0.007000 0.089004
v 0.005184 0.007000 0.091491
v -0.001731 0.007000 0.091756
v -0.008606 0.007000 0.090962
v -0.015278 0.007000 0.089129
v -0.021593 0.007000 0.086298
v -0.027401 0.007000 0.082536
v -0.032568 0.007000 0.077932
v -0.036970 0.007000 0.072593
v -0.040507 0.007000 0.066645
v -0.043094 0.007000 0.060227
v -0.044670 0.007000 0.053489
v -0.045200 0.007000 0.046589
vn -0.0000 -1.0000 -0.0000
vn -0.7473 -0.0570 -0.6620
vn -0.3546 -0.0000 -0.9350
vn 0.1203 -0.0570 -0.9911
vn 0.5681 -0.0000 -0.8230
vn 0.7997 -0.0390 -0.5991
vn 0.8855 -0.0000 -0.4647
vn 0.9873 -0.0000 0.1590
vn 0.9984 -0.0570 -0.0000
vn 0.8855 -0.0000 0.4647
vn 0.6912 -0.0390 0.7216
vn 0.5681 -0.0000 0.8230
vn 0.1205 -0.0000 0.9927
vn -0.4988 -0.0000 0.8667
vn -0.3540 -0.0570 0.9335
vn -0.7485 -0.0000 0.6631
vn -0.9694 -0.0570 0.2389
vn -0.9709 -0.0000 -0.2393
vn -0.7866 0.0012 -0.6175
vn -0.9758 0.1679 -0.1403
vn -0.9869 0.1313 -0.0934
vn -0.8885 0.0012 0.4589
vn -0.6840 0.1118 0.7208
vn -0.4993 -0.0129 0.8664
vn 0.1869 0.0217 0.9821
vn 0.0480 0.1313 0.9902
vn 0.5807 0.0012 0.8141
vn 0.8967 0.1679 0.4095
vn 0.9206 0.1313 0.3677
vn 0.9818 0.0012 -0.1900
vn 0.7450 0.1679 -0.6456
vn 0.7169 0.1313 -0.6847
vn 0.2350 0.0012 -0.9720
vn -0.2777 0.1679 -0.9459
vn -0.3250 0.1313 -0.9366
vn -0.4849 0.2386 0.8414
vn -0.1179 0.2094 0.9707
vn 0.0469 0.2460 0.9681
vn 0.3470 0.2061 0.9149
vn 0.5626 0.2478 0.7887
vn 0.7323 0.2068 0.6488
vn 0.9006 0.2441 0.3597
vn 0.9490 0.2115 0.2339
vn 0.9543 0.2347 -0.1847
vn 0.9471 0.2202 -0.2334
vn 0.7299 0.2218 -0.6466
vn 0.7033 0.2329 -0.6717
vn 0.3465 0.2125 -0.9137
vn -0.5546 0.2167 0.8034
vn -0.8626 0.2259 0.4527
vn -0.8651 0.2280 0.4469
vn -0.9765 0.2154 -0.0000
vn -0.9664 0.2401 -0.0915
vn -0.8660 0.2087 -0.4545
vn -0.7623 0.2466 -0.5985
vn -0.5559 0.2059 -0.8053
vn -0.3176 0.2476 -0.9153
vn -0.1179 0.2072 -0.9712
vn 0.2279 0.2430 -0.9429
vn 0.7557 -0.0000 0.6549
vn 0.9898 -0.0000 0.1423
vn 0.9096 -0.0000 -0.4154
vn 0.5406 -0.0000 -0.8413
vn -0.0000 -0.0000 -1.0000
vn -0.5406 -0.0000 -0.8413
vn -0.9096 -0.0000 -0.4154
vn -0.9898 -0.0000 0.1423
vn -0.7557 -0.0000 0.6549
vn -0.2817 -0.0000 0.9595
vn 0.2817 -0.0000 0.9595
vn -0.0000 1.0000 -0.0000
vn -0.9893 -0.0326 0.1422
vn -0.5404 -0.0326 -0.8408
vn 0.3738 -0.0226 -0.9273
vn 0.9713 -0.0000 -0.2381
vn 0.9091 -0.0326 -0.4152
vn 0.7553 -0.0326 0.6545
vn -0.2816 -0.0326 0.9590
vn 0.9123 -0.0000 -0.4096
vn 0.8090 -0.0000 0.5878
vn 0.9117 0.0345 0.4094
vn 0.1077 -0.0095 0.9941
vn -0.3089 0.0273 0.9507
vn -0.8087 -0.0273 0.5876
vn -0.9788 0.0095 0.2048
vn -0.8087 -0.0273 -0.5876
vn 0.8087 0.0273 -0.5876
vn 0.1077 -0.0095 -0.9941
vn -0.1077 0.0095 -0.9941
vn 0.8488 0.0573 0.5256
vn 0.8303 0.0282 0.5566
vn 0.6356 -0.0423 0.7708
vn 0.6026 0.0067 0.7980
vn 0.2728 -0.0773 0.9590
vn 0.3496 0.0510 0.9355
vn 0.0669 -0.0119 0.9977
vn -0.0922 0.0431 0.9948
vn -0.0667 0.0693 0.9954
vn -0.3492 -0.0678 0.9346
vn -0.4456 0.0278 0.8948
vn -0.6344 -0.0764 0.7693
vn -0.7379 0.0558 0.6726
vn -0.8306 -0.0107 0.5568
vn -0.8975 0.0048 0.4410
vn -0.9306 0.0637 0.3605
vn -0.9832 -0.0792 0.1647
vn -0.9994 0.0349 -0.0000
vn -0.9832 -0.0792 -0.1647
vn -0.9306 0.0637 -0.3605
vn -0.8975 0.0048 -0.4410
vn -0.8306 -0.0107 -0.5568
vn -0.7379 0.0558 -0.6726
vn -0.6344 -0.0764 -0.7693
vn -0.4456 0.0278 -0.8948
vn -0.3492 -0.0678 -0.9346
vn -0.0667 0.0693 -0.9954
vn -0.0922 0.0431 -0.9948
vn 0.0669 -0.0119 -0.9977
vn 0.3496 0.0510 -0.9355
vn 0.2728 -0.0773 -0.9590
vn 0.6026 0.0067 -0.7980
vn 0.6356 -0.0423 -0.7708
vn 0.8303 0.0282 -0.5566
vn 0.8488 0.0573 -0.5256
vn 0.8975 0.0011 -0.4410
vn 0.9863 -0.0026 -0.1652
vn 0.9826 -0.0284 -0.1837
vn 0.9826 -0.0284 0.1837
vn 0.9863 -0.0026 0.1652
vn 0.8975 0.0011 0.4410
vn -0.9194 0.3482 -0.1829
vn -0.7944 0.2952 -0.5308
vn -0.5208 0.3482 -0.7794
vn 0.1864 0.2952 -0.9371
vn 0.7944 0.2952 -0.5308
vn 0.9194 0.3482 -0.1829
vn 0.9371 0.2952 0.1864
vn 0.7794 0.3482 0.5208
vn 0.3073 0.2859 0.9076
vn -0.5308 0.2952 0.7944
vn -0.3021 0.3360 0.8921
vn -0.1864 0.2952 0.9371
vn -0.1034 0.5122 -0.8526
vn -0.6313 0.2859 -0.7209
vn -0.5832 0.4652 -0.6660
vn -0.8298 0.4977 -0.2524
vn -0.8664 0.4687 -0.1723
vn -0.9371 0.2952 0.1864
vn -0.7794 0.3482 0.5208
vn -0.7328 0.4725 0.4897
vn -0.6971 0.4896 0.5237
vn -0.2839 0.4652 0.8384
vn -0.0000 0.5113 0.8594
vn 0.2839 0.4652 0.8384
vn 0.1829 0.3482 0.9194
vn 0.6971 0.4896 0.5237
vn 0.5308 0.2952 0.7944
vn 0.7328 0.4725 0.4897
vn 0.8664 0.4687 -0.1723
vn 0.5208 0.3482 -0.7794
vn 0.4933 0.4598 -0.7383
vn 0.7257 0.5458 -0.4190
vn -0.1864 0.2952 -0.9371
vn -0.0623 0.3360 -0.9398
vn -0.0574 0.4978 -0.8654
vn 0.5556 -0.0012 0.8315
vn 0.4414 0.0845 0.8933
vn 0.8283 0.0875 0.5534
vn 0.8962 0.0289 0.4428
vn 0.9770 0.0875 0.1943
vn 0.9808 -0.0012 -0.1951
vn 0.8283 0.0875 -0.5534
vn 0.5556 -0.0012 -0.8315
vn 0.1943 0.0875 -0.9770
vn -0.1951 -0.0012 -0.9808
vn -0.5534 0.0875 -0.8283
vn -0.8315 -0.0012 -0.5556
vn -0.9770 0.0875 -0.1943
vn -0.9808 -0.0012 0.1951
vn -0.8283 0.0875 0.5534
vn -0.5556 -0.0012 0.8315
vn -0.6564 0.0845 0.7496
vn -0.1943 0.0875 0.9770
vn -0.0661 0.0289 0.9974
vn 0.1943 0.0875 0.9770
vn -0.5643 0.8195 0.0995
vn -0.1511 0.9156 0.3727
vn -0.0000 0.9372 0.3487
vn 0.5704 0.7007 0.4285
vn 0.5815 0.5094 -0.6343
vn 0.5620 0.7608 -0.3245
vn -0.0712 0.8066 -0.5868
vn -0.6936 -0.0351 0.7195
vn -0.8660 -0.0000 0.5000
vn -0.9932 -0.0516 0.1044
vn -0.9511 -0.0000 -0.3090
vn -0.7422 -0.0516 -0.6682
vn -0.4067 -0.0000 -0.9135
vn -0.0000 -0.0516 -0.9987
vn 0.4067 -0.0000 -0.9135
vn 0.7422 -0.0516 -0.6682
vn 0.9511 -0.0000 -0.3090
vn 0.9932 -0.0516 0.1044
vn 0.8660 -0.0000 0.5000
vn 0.5870 -0.0516 0.8079
vn -0.5878 -0.0000 0.8090
vn -0.2079 -0.0000 0.9781
vn -0.0706 -0.0351 0.9969
vn 0.2079 -0.0000 0.9781
vn -0.1462 -0.7111 0.6877
vn -0.4019 -0.6905 0.6014
vn -0.4074 -0.7209 0.5607
vn -0.6082 -0.6818 0.4064
vn -0.5929 -0.7289 0.3423
vn -0.7242 -0.6743 0.1441
vn -0.6741 -0.7352 0.0709
vn -0.7297 -0.6682 -0.1451
vn -0.6397 -0.7400 -0.2079
vn -0.6221 -0.6635 -0.4157
vn -0.4971 -0.7433 -0.4476
vn -0.4172 -0.6604 -0.6244
vn -0.2712 -0.7453 -0.6091
vn -0.1468 -0.6587 -0.7379
vn -0.0000 -0.7460 -0.6660
vn 0.1468 -0.6587 -0.7379
vn 0.2712 -0.7453 -0.6091
vn 0.4172 -0.6604 -0.6244
vn 0.4971 -0.7433 -0.4476
vn 0.6221 -0.6635 -0.4157
vn 0.6397 -0.7400 -0.2079
vn 0.7297 -0.6682 -0.1451
vn 0.6741 -0.7352 0.0709
vn 0.7242 -0.6743 0.1441
vn 0.5929 -0.7289 0.3423
vn 0.6082 -0.6818 0.4064
vn 0.4074 -0.7209 0.5607
vn 0.4019 -0.6905 0.6014
vn -0.1393 -0.7002 0.7002
vn 0.1393 -0.7002 0.7002
vn 0.1462 -0.7111 0.6877
vn 0.5556 -0.0000 0.8315
vn 0.8315 -0.0000 0.5556
vn 0.9808 -0.0000 0.1951
vn 0.9808 -0.0000 -0.1951
vn 0.8315 -0.0000 -0.5556
vn 0.5556 -0.0000 -0.8315
vn 0.1951 -0.0000 -0.9808
vn -0.1951 -0.0000 -0.9808
vn -0.5556 -0.0000 -0.8315
vn -0.8315 -0.0000 -0.5556
vn -0.9808 -0.0000 -0.1951
vn -0.9808 -0.0000 0.1951
vn -0.8315 -0.0000 0.5556
vn -0.5556 -0.0000 0.8315
vn -0.1951 -0.0000 0.9808
vn 0.1951 -0.0000 0.9808
vn -0.2333 -0.0306 -0.9719
vn -0.2726 -0.0064 -0.9621
vn -0.2988 -0.0000 -0.9543
vn -0.3613 0.0062 -0.9324
vn -0.3827 -0.0071 -0.9239
vn -0.5000 0.0070 -0.8660
vn -0.5225 -0.0079 -0.8526
vn -0.6269 0.0077 -0.7791
vn -0.6376 -0.0000 -0.7703
vn -0.6493 -0.0213 -0.7602
vn -0.7530 -0.0000 -0.6581
vn -0.6969 0.0004 -0.7171
vn -0.7541 -0.0017 -0.6567
vn -0.7604 -0.0072 -0.6494
vn -0.8549 0.0105 -0.5186
vn -0.8526 0.0138 -0.5224
vn -0.9239 0.0052 -0.3827
vn -0.9314 0.0182 -0.3636
vn -0.9585 -0.0000 -0.2851
vn -0.9693 -0.0228 -0.2449
vn -0.9718 -0.0336 -0.2333
vn -0.9812 -0.0000 -0.1928
vn -0.9943 0.0295 -0.1025
vn -0.9968 0.0129 -0.0785
vn -0.9968 0.0129 0.0785
vn -0.9943 0.0295 0.1025
vn -0.9812 -0.0000 0.1928
vn -0.9718 -0.0336 0.2333
vn -0.9693 -0.0228 0.2449
vn -0.9585 -0.0000 0.2850
vn -0.9595 -0.0000 0.2817
vn -0.9585 -0.0000 0.2851
vn -0.9314 0.0182 0.3636
vn -0.9239 0.0052 0.3827
vn -0.8526 0.0138 0.5224
vn -0.8550 0.0105 0.5186
vn -0.7252 -0.0000 0.6885
vn -0.7530 -0.0000 0.6580
vn -0.7581 -0.0076 0.6521
vn -0.7608 -0.0008 0.6489
vn -0.7604 -0.0019 0.6494
vn -0.6969 0.0004 0.7171
vn -0.6493 -0.0213 0.7602
vn -0.6376 -0.0000 0.7703
vn -0.6269 0.0077 0.7791
vn -0.5225 -0.0079 0.8526
vn -0.5000 0.0070 0.8660
vn -0.3827 -0.0071 0.9239
vn -0.3613 0.0062 0.9324
vn -0.2988 -0.0000 0.9543
vn -0.2726 -0.0064 0.9621
vn -0.2333 -0.0306 0.9719
vn -0.2068 -0.0000 0.9784
vn -0.1508 0.0255 0.9882
vn -0.0785 -0.0039 0.9969
vn 0.0216 0.0245 0.9995
vn 0.0785 -0.0078 0.9969
vn 0.1934 0.0061 0.9811
vn 0.2068 -0.0000 0.9784
vn 0.2333 -0.0306 0.9719
vn 0.2726 -0.0064 0.9621
vn 0.2988 -0.0000 0.9543
vn 0.3613 0.0062 0.9324
vn 0.3827 -0.0071 0.9239
vn 0.5000 0.0070 0.8660
vn 0.5225 -0.0079 0.8526
vn 0.6269 0.0077 0.7791
vn 0.6376 -0.0000 0.7703
vn 0.6493 -0.0213 0.7602
vn 0.7807 -0.0000 0.6249
vn 0.6969 0.0004 0.7171
vn 0.7819 -0.0027 0.6234
vn 0.7601 0.0263 0.6492
vn 0.8526 -0.0010 0.5225
vn 0.8764 0.0235 0.4810
vn 0.9238 -0.0135 0.3826
vn 0.9590 -0.0000 0.2834
vn 0.9464 -0.0000 0.3231
vn 0.9507 0.0136 0.3099
vn 0.9585 -0.0000 0.2850
vn 0.9693 -0.0228 0.2449
vn 0.9718 -0.0336 0.2333
vn 0.9812 -0.0000 0.1928
vn 0.9943 0.0295 0.1025
vn 0.9968 0.0129 0.0785
vn 0.9968 0.0129 -0.0785
vn 0.9943 0.0295 -0.1025
vn 0.9812 -0.0000 -0.1928
vn 0.9718 -0.0336 -0.2333
vn 0.9693 -0.0228 -0.2449
vn 0.9585 -0.0000 -0.2851
vn 0.9314 0.0182 -0.3636
vn 0.9239 0.0052 -0.3827
vn 0.8526 0.0138 -0.5224
vn 0.7530 -0.0000 -0.6580
vn 0.8550 0.0105 -0.5186
vn 0.7582 -0.0076 -0.6520
vn 0.7604 -0.0020 -0.6494
vn 0.6969 0.0004 -0.7171
vn 0.6493 -0.0213 -0.7602
vn 0.6376 -0.0000 -0.7703
vn 0.6269 0.0077 -0.7791
vn 0.5225 -0.0079 -0.8526
vn 0.5000 0.0070 -0.8660
vn 0.3827 -0.0071 -0.9239
vn 0.3613 0.0062 -0.9324
vn 0.2988 -0.0000 -0.9543
vn 0.2726 -0.0064 -0.9621
vn 0.2333 -0.0306 -0.9719
vn 0.2068 -0.0000 -0.9784
vn 0.1934 0.0061 -0.9811
vn 0.0785 -0.0078 -0.9969
vn 0.0217 0.0245 -0.9995
vn -0.0785 -0.0039 -0.9969
vn -0.1507 0.0255 -0.9882
vn -0.2564 -0.0000 -0.9666
vn -0.2068 -0.0000 -0.9784
vn -0.8660 0.0001 0.5000
vn 0.8660 -0.0000 -0.5000
vn -0.8660 -0.0000 -0.5000
vn -1.0000 -0.0000 -0.0000
vn -0.5000 -0.0000 -0.8660
vn -0.5000 -0.0000 0.8660
vn -0.6340 -0.0000 0.7733
vn -0.3527 -0.0000 0.9357
vn 1.0000 -0.0000 -0.0000
vn -0.0370 -0.0000 0.9993
vn -0.0000 -0.0000 1.0000
vn 0.9867 -0.0000 -0.1624
vn 0.9867 -0.0000 0.1624
vn 0.5000 -0.0000 0.8660
vn -0.0375 -0.0000 -0.9993
vn -0.0370 -0.0000 -0.9993
vn 0.8469 -0.0000 0.5317
vn 0.8467 -0.0000 0.5321
vn 0.3527 -0.0000 -0.9357
vn 0.6340 -0.0000 -0.7733
vn 0.5000 -0.0000 -0.8660
vn -0.3527 -0.0000 -0.9357
vn -0.6340 -0.0000 -0.7733
vn -0.8839 -0.0000 -0.4677
vn 0.0762 0.0381 -0.9964
vn 0.0370 -0.0000 -0.9993
vn 0.0375 -0.0000 -0.9993
vn 0.8839 -0.0000 -0.4677
vn 0.8247 0.0381 0.5643
vn -0.0758 0.0377 -0.9964
vn -0.8469 -0.0000 -0.5317
vn 0.0370 -0.0000 0.9993
vn -0.8839 -0.0000 0.4677
vn -0.9867 -0.0000 -0.1624
vn -0.9867 -0.0000 0.1624
vn 0.3527 -0.0000 0.9357
vn 0.6340 -0.0000 0.7733
vn -0.1813 0.7077 -0.6829
vn -0.9863 -0.1463 -0.0757
vn -0.9632 -0.1463 -0.2254
vn -0.9175 -0.1463 -0.3698
vn -0.8503 -0.1463 -0.5055
vn -0.7632 -0.1463 -0.6294
vn -0.6582 -0.1463 -0.7385
vn -0.5377 -0.1463 -0.8303
vn -0.4047 -0.1463 -0.9027
vn -0.2621 -0.1463 -0.9539
vn -0.1134 -0.1463 -0.9827
vn 0.0379 -0.1463 -0.9885
vn 0.1883 -0.1463 -0.9711
vn 0.3344 -0.1463 -0.9310
vn 0.4726 -0.1463 -0.8691
vn 0.5997 -0.1463 -0.7867
vn 0.7128 -0.1463 -0.6860
vn 0.8091 -0.1463 -0.5691
vn 0.8865 -0.1463 -0.4389
vn 0.9431 -0.1463 -0.2985
vn 0.9776 -0.1463 -0.1510
vn 0.9892 -0.1463 -0.0000
vn 0.9776 -0.1463 0.1510
vn 0.9431 -0.1463 0.2985
vn 0.8865 -0.1463 0.4389
vn 0.8091 -0.1463 0.5691
vn 0.7128 -0.1463 0.6860
vn 0.5997 -0.1463 0.7867
vn 0.4726 -0.1463 0.8691
vn 0.3344 -0.1463 0.9310
vn 0.1883 -0.1463 0.9711
vn 0.0379 -0.1463 0.9885
vn -0.1134 -0.1463 0.9827
vn -0.2621 -0.1463 0.9539
vn -0.4047 -0.1463 0.9027
vn -0.5377 -0.1463 0.8303
vn -0.6582 -0.1463 0.7385
vn -0.7632 -0.1463 0.6294
vn -0.8503 -0.1463 0.5055
vn -0.9175 -0.1463 0.3698
vn -0.9632 -0.1463 0.2254
vn -0.9863 -0.1463 0.0757
vn -0.9863 0.1463 -0.0757
vn -0.9632 0.1463 -0.2254
vn -0.9175 0.1463 -0.3698
vn -0.8503 0.1463 -0.5055
vn -0.7632 0.1463 -0.6294
vn -0.6582 0.1463 -0.7385
vn -0.5377 0.1463 -0.8303
vn -0.4047 0.1463 -0.9027
vn -0.2621 0.1463 -0.9539
vn -0.1134 0.1463 -0.9827
vn 0.0379 0.1463 -0.9885
vn 0.1883 0.1463 -0.9711
vn 0.3344 0.1463 -0.9310
vn 0.4726 0.1463 -0.8691
vn 0.5997 0.1463 -0.7867
vn 0.7128 0.1463 -0.6860
vn 0.8091 0.1463 -0.5691
vn 0.8865 0.1463 -0.4389
vn 0.9431 0.1463 -0.2985
vn 0.9776 0.1463 -0.1510
vn 0.9892 0.1463 -0.0000
vn 0.9776 0.1463 0.1510
vn 0.9431 0.1463 0.2985
vn 0.8865 0.1463 0.4389
vn 0.8091 0.1463 0.5691
vn 0.7128 0.1463 0.6860
vn 0.5997 0.1463 0.7867
vn 0.4726 0.1463 0.8691
vn 0.3344 0.1463 0.9310
vn 0.1883 0.1463 0.9711
vn 0.0379 0.1463 0.9885
vn -0.1134 0.1463 0.9827
vn -0.2621 0.1463 0.9539
vn -0.4047 0.1463 0.9027
vn -0.5377 0.1463 0.8303
vn -0.6582 0.1463 0.7385
vn -0.7632 0.1463 0.6294
vn -0.8503 0.1463 0.5055
vn -0.9175 0.1463 0.3698
vn -0.9632 0.1463 0.2254
vn -0.9863 0.1463 0.0757
vn -0.8004 -0.5695 0.1873
vn -0.8909 -0.4247 0.1610
vn -0.8389 -0.4265 0.3381
vn -0.7775 -0.4265 0.4622
vn -0.7072 -0.5273 0.4709
vn -0.6978 -0.4265 0.5755
vn -0.5469 -0.5695 0.6137
vn -0.6360 -0.4247 0.6443
vn -0.4916 -0.4265 0.7592
vn -0.3700 -0.4265 0.8253
vn -0.3076 -0.5273 0.7920
vn -0.2397 -0.4265 0.8721
vn -0.0943 -0.5695 0.8166
vn -0.1496 -0.4247 0.8929
vn 0.0346 -0.4265 0.9038
vn 0.0758 -0.5273 0.8463
vn 0.1722 -0.4265 0.8879
vn 0.2779 -0.5695 0.7736
vn 0.2622 -0.4247 0.8666
vn 0.4321 -0.4265 0.7946
vn 0.4434 -0.5273 0.7248
vn 0.5483 -0.4265 0.7193
vn 0.5923 -0.5695 0.5700
vn 0.6194 -0.4247 0.6603
vn 0.7398 -0.4265 0.5204
vn 0.7190 -0.5273 0.4527
vn 0.8106 -0.4265 0.4013
vn 0.7837 -0.5695 0.2480
vn 0.8481 -0.4247 0.3168
vn 0.8939 -0.4265 0.1381
vn 0.9045 -0.4265 -0.0000
vn 0.8939 -0.4265 -0.1381
vn 0.8320 -0.5273 -0.1724
vn 0.8623 -0.4265 -0.2729
vn 0.7367 -0.5695 -0.3647
vn 0.8308 -0.4247 -0.3598
vn 0.7398 -0.4265 -0.5204
vn 0.6517 -0.4265 -0.6272
vn 0.5483 -0.4265 -0.7193
vn 0.4321 -0.4265 -0.7946
vn 0.3673 -0.5273 -0.7662
vn 0.3057 -0.4265 -0.8512
vn 0.1565 -0.5695 -0.8070
vn 0.2175 -0.4247 -0.8788
vn 0.0346 -0.4265 -0.9038
vn -0.1037 -0.4265 -0.8985
vn -0.2397 -0.4265 -0.8721
vn -0.2666 -0.5273 -0.8067
vn -0.3700 -0.4265 -0.8253
vn -0.4468 -0.5695 -0.6900
vn -0.6018 -0.4265 -0.6752
vn -0.6342 -0.5695 -0.5230
vn -0.6682 -0.4247 -0.6109
vn -0.7775 -0.4265 -0.4622
vn -0.8389 -0.4265 -0.3381
vn -0.8032 -0.5273 -0.2770
vn -0.8807 -0.4265 -0.2061
vn -0.8196 -0.5695 -0.0629
vn -0.9018 -0.4265 0.0692
vn -0.8807 0.4265 -0.2061
vn -0.8389 0.4265 -0.3381
vn -0.7775 0.4265 -0.4622
vn -0.6978 0.4265 -0.5755
vn -0.6271 0.5273 -0.5733
vn -0.6018 0.4265 -0.6752
vn -0.4468 0.5695 -0.6900
vn -0.5302 0.4247 -0.7338
vn -0.3700 0.4265 -0.8253
vn -0.3076 0.5273 -0.7920
vn -0.2397 0.4265 -0.8721
vn -0.0943 0.5695 -0.8166
vn 0.0346 0.4265 -0.9038
vn 0.1565 0.5695 -0.8070
vn 0.1268 0.4247 -0.8964
vn 0.3057 0.4265 -0.8512
vn 0.4321 0.4265 -0.7946
vn 0.5483 0.4265 -0.7193
vn 0.5489 0.5273 -0.6486
vn 0.6517 0.4265 -0.6272
vn 0.6723 0.5695 -0.4729
vn 0.7130 0.4247 -0.5580
vn 0.8106 0.4265 -0.4013
vn 0.8623 0.4265 -0.2729
vn 0.8221 0.5273 -0.2147
vn 0.8939 0.4265 -0.1381
vn 0.8220 0.5695 -0.0000
vn 0.8939 0.4265 0.1381
vn 0.7837 0.5695 0.2480
vn 0.8760 0.4247 0.2288
vn 0.8106 0.4265 0.4013
vn 0.7398 0.4265 0.5204
vn 0.6691 0.5273 0.5236
vn 0.6517 0.4265 0.6272
vn 0.4983 0.5695 0.6537
vn 0.5849 0.4247 0.6911
vn 0.4321 0.4265 0.7946
vn 0.3673 0.5273 0.7662
vn 0.3057 0.4265 0.8512
vn 0.1565 0.5695 0.8070
vn 0.2175 0.4247 0.8788
vn 0.0346 0.4265 0.9038
vn -0.1037 0.4265 0.8985
vn -0.2397 0.4265 0.8721
vn -0.3700 0.4265 0.8253
vn -0.4916 0.4265 0.7592
vn -0.6018 0.4265 0.6752
vn -0.6978 0.4265 0.5755
vn -0.7775 0.4265 0.4622
vn -0.8389 0.4265 0.3381
vn -0.8807 0.4265 0.2061
vn -0.9018 0.4265 0.0692
vn -0.9018 0.4265 -0.0692
s 0
f 1//1 2//1 3//1
f 4//1 2//1 1//1
f 4//1 5//1 2//1
f 6//1 5//1 4//1
f 6//1 7//1 5//1
f 8//1 7//1 6//1
f 8//1 9//1 7//1
f 10//1 9//1 8//1
f 11//1 9//1 10//1
f 11//1 12//1 9//1
f 13//1 12//1 11//1
f 3//1 14//1 1//1
f 3//1 13//1 14//1
f 12//1 13//1 3//1
f 15//2 6//2 4//2
f 16//2 6//2 15//2
f 17//3 6//3 16//3
f 17//4 8//4 6//4
f 18//4 8//4 17//4
f 19//5 8//5 18//5
f 19//6 10//6 8//6
f 20//7 10//7 19//7
f 20//8 11//8 10//8
f 21//9 11//9 20//9
f 22//10 11//10 21//10
f 22//11 13//11 11//11
f 23//12 13//12 22//12
f 23//13 14//13 13//13
f 24//13 14//13 23//13
f 24//14 1//14 14//14
f 25//15 1//15 24//15
f 26//16 1//16 25//16
f 26//17 4//17 1//17
f 27//17 4//17 26//17
f 15//18 4//18 27//18
f 28//19 12//19 29//19
f 28//20 9//20 12//20
f 30//21 9//21 28//21
f 31//22 9//22 30//22
f 31//23 7//23 9//23
f 32//24 7//24 31//24
f 32//25 5//25 7//25
f 33//26 5//26 32//26
f 34//27 5//27 33//27
f 34//28 2//28 5//28
f 35//29 2//29 34//29
f 36//30 2//30 35//30
f 36//31 3//31 2//31
f 37//32 3//32 36//32
f 38//33 3//33 37//33
f 38//34 12//34 3//34
f 29//35 12//35 38//35
f 18//36 32//36 31//36
f 17//37 32//37 18//37
f 17//38 33//38 32//38
f 16//39 33//39 17//39
f 16//40 34//40 33//40
f 15//41 34//41 16//41
f 15//42 35//42 34//42
f 27//43 35//43 15//43
f 27//44 36//44 35//44
f 26//45 36//45 27//45
f 25//46 36//46 26//46
f 25//47 37//47 36//47
f 24//48 37//48 25//48
f 31//49 19//49 18//49
f 31//50 20//50 19//50
f 30//51 20//51 31//51
f 30//52 21//52 20//52
f 28//53 21//53 30//53
f 28//54 22//54 21//54
f 29//55 22//55 28//55
f 29//56 23//56 22//56
f 38//57 23//57 29//57
f 38//58 24//58 23//58
f 37//59 24//59 38//59
f 39//60 40//60 41//60
f 42//60 40//60 39//60
f 42//61 43//61 40//61
f 44//61 43//61 42//61
f 44//62 45//62 43//62
f 46//62 45//62 44//62
f 46//63 47//63 45//63
f 48//63 47//63 46//63
f 48//64 49//64 47//64
f 50//64 49//64 48//64
f 50//65 51//65 49//65
f 52//65 51//65 50//65
f 52//66 53//66 51//66
f 54//66 53//66 52//66
f 54//67 55//67 53//67
f 56//67 55//67 54//67
f 56//68 57//68 55//68
f 58//68 57//68 56//68
f 58//69 59//69 57//69
f 60//69 59//69 58//69
f 60//70 41//70 59//70
f 39//70 41//70 60//70
f 40//71 61//71 41//71
f 40//71 62//71 61//71
f 43//71 62//71 40//71
f 45//71 62//71 43//71
f 45//71 63//71 62//71
f 47//71 63//71 45//71
f 49//71 63//71 47//71
f 49//71 64//71 63//71
f 51//71 64//71 49//71
f 51//71 65//71 64//71
f 53//71 65//71 51//71
f 55//71 65//71 53//71
f 55//71 66//71 65//71
f 57//71 66//71 55//71
f 61//71 59//71 41//71
f 61//71 57//71 59//71
f 66//71 57//71 61//71
f 67//1 68//1 69//1
f 70//1 68//1 67//1
f 70//1 71//1 68//1
f 72//1 71//1 70//1
f 73//68 71//68 74//68
f 73//72 68//72 71//72
f 75//72 68//72 73//72
f 76//66 68//66 75//66
f 76//73 69//73 68//73
f 77//73 69//73 76//73
f 78//64 69//64 77//64
f 78//74 67//74 69//74
f 79//63 67//63 78//63
f 79//75 70//75 67//75
f 80//76 70//76 79//76
f 81//61 70//61 80//61
f 81//77 72//77 70//77
f 82//77 72//77 81//77
f 83//70 72//70 82//70
f 83//78 71//78 72//78
f 74//78 71//78 83//78
f 82//1 39//1 83//1
f 82//1 42//1 39//1
f 81//1 42//1 82//1
f 81//1 44//1 42//1
f 80//1 44//1 81//1
f 79//1 44//1 80//1
f 79//1 46//1 44//1
f 78//1 46//1 79//1
f 78//1 48//1 46//1
f 78//1 50//1 48//1
f 77//1 50//1 78//1
f 77//1 52//1 50//1
f 76//1 52//1 77//1
f 76//1 54//1 52//1
f 75//1 54//1 76//1
f 73//1 54//1 75//1
f 73//1 56//1 54//1
f 74//1 56//1 73//1
f 74//1 58//1 56//1
f 83//1 58//1 74//1
f 83//1 60//1 58//1
f 39//1 60//1 83//1
f 84//79 65//79 66//79
f 85//80 65//80 84//80
f 85//81 64//81 65//81
f 85//82 63//82 64//82
f 86//83 63//83 85//83
f 86//84 62//84 63//84
f 87//85 62//85 86//85
f 88//86 62//86 87//86
f 61//86 62//86 88//86
f 66//87 89//87 84//87
f 61//88 89//88 66//88
f 61//89 88//89 89//89
f 86//71 88//71 87//71
f 85//71 88//71 86//71
f 89//71 85//71 84//71
f 88//71 85//71 89//71
f 90//1 91//1 92//1
f 93//1 91//1 90//1
f 94//1 91//1 93//1
f 95//1 91//1 94//1
f 96//1 97//1 98//1
f 99//1 97//1 96//1
f 99//1 100//1 97//1
f 101//1 100//1 99//1
f 102//1 103//1 104//1
f 102//1 105//1 103//1
f 106//1 105//1 102//1
f 107//1 105//1 106//1
f 108//1 109//1 110//1
f 108//1 111//1 109//1
f 112//1 111//1 108//1
f 113//1 111//1 112//1
f 114//1 115//1 116//1
f 117//1 115//1 114//1
f 117//1 118//1 115//1
f 119//1 118//1 117//1
f 120//71 121//71 122//71
f 123//71 121//71 120//71
f 123//71 124//71 121//71
f 125//71 124//71 123//71
f 125//71 126//71 124//71
f 125//71 127//71 126//71
f 128//71 127//71 125//71
f 128//71 129//71 127//71
f 130//71 129//71 128//71
f 130//71 131//71 129//71
f 130//71 132//71 131//71
f 133//71 132//71 130//71
f 133//71 134//71 132//71
f 133//71 135//71 134//71
f 136//71 135//71 133//71
f 136//71 137//71 135//71
f 136//71 138//71 137//71
f 139//71 138//71 136//71
f 139//71 140//71 138//71
f 139//71 141//71 140//71
f 142//71 141//71 139//71
f 142//71 143//71 141//71
f 142//71 144//71 143//71
f 120//71 144//71 142//71
f 120//71 145//71 144//71
f 122//71 145//71 120//71
f 121//90 146//90 122//90
f 121//91 96//91 146//91
f 121//92 99//92 96//92
f 124//93 99//93 121//93
f 126//94 99//94 124//94
f 101//95 99//95 126//95
f 126//96 147//96 101//96
f 127//97 147//97 126//97
f 127//98 110//98 147//98
f 127//99 108//99 110//99
f 129//100 108//100 127//100
f 129//101 112//101 108//101
f 131//102 112//102 129//102
f 148//103 112//103 131//103
f 131//104 149//104 148//104
f 132//105 149//105 131//105
f 132//106 150//106 149//106
f 134//107 150//107 132//107
f 134//108 151//108 150//108
f 135//109 151//109 134//109
f 152//110 151//110 135//110
f 135//111 118//111 152//111
f 137//112 118//112 135//112
f 137//113 115//113 118//113
f 138//114 115//114 137//114
f 138//115 116//115 115//115
f 138//116 153//116 116//116
f 140//117 153//117 138//117
f 140//118 107//118 153//118
f 140//119 105//119 107//119
f 141//120 105//120 140//120
f 143//121 105//121 141//121
f 143//122 103//122 105//122
f 143//123 154//123 103//123
f 144//124 154//124 143//124
f 144//125 90//125 154//125
f 144//126 93//126 90//126
f 145//127 93//127 144//127
f 122//128 93//128 145//128
f 122//129 94//129 93//129
f 146//130 94//130 122//130
f 155//131 156//131 157//131
f 155//131 158//131 156//131
f 158//132 159//132 156//132
f 158//133 160//133 159//133
f 161//134 162//134 163//134
f 164//135 165//135 166//135
f 164//136 167//136 165//136
f 164//136 168//136 167//136
f 168//137 169//137 167//137
f 168//138 170//138 169//138
f 171//139 172//139 173//139
f 174//140 175//140 176//140
f 174//141 171//141 175//141
f 172//142 171//142 174//142
f 177//143 178//143 179//143
f 158//144 179//144 160//144
f 158//145 177//145 179//145
f 158//146 180//146 177//146
f 155//147 180//147 158//147
f 181//148 155//148 157//148
f 175//149 155//149 181//149
f 175//150 180//150 155//150
f 182//151 180//151 175//151
f 176//149 175//149 181//149
f 171//152 182//152 175//152
f 171//153 183//153 182//153
f 173//154 183//154 171//154
f 184//155 173//155 172//155
f 185//156 183//156 173//156
f 170//157 173//157 184//157
f 168//138 173//138 170//138
f 168//158 185//158 173//158
f 164//159 185//159 168//159
f 161//160 166//160 162//160
f 161//160 164//160 166//160
f 178//161 164//161 161//161
f 185//162 164//162 178//162
f 179//163 163//163 160//163
f 179//164 161//164 163//164
f 178//165 161//165 179//165
f 125//166 170//166 184//166
f 123//167 170//167 125//167
f 123//168 169//168 170//168
f 120//169 169//169 123//169
f 120//170 167//170 169//170
f 120//171 165//171 167//171
f 142//171 165//171 120//171
f 142//172 166//172 165//172
f 142//173 162//173 166//173
f 139//173 162//173 142//173
f 139//174 163//174 162//174
f 139//175 160//175 163//175
f 136//175 160//175 139//175
f 136//176 159//176 160//176
f 136//177 156//177 159//177
f 133//177 156//177 136//177
f 133//178 157//178 156//178
f 133//179 181//179 157//179
f 130//179 181//179 133//179
f 130//180 176//180 181//180
f 130//181 174//181 176//181
f 128//182 174//182 130//182
f 128//183 172//183 174//183
f 125//184 172//184 128//184
f 125//185 184//185 172//185
f 182//186 186//186 177//186
f 187//187 186//187 183//187
f 183//188 186//188 182//188
f 180//71 182//71 177//71
f 185//189 187//189 183//189
f 185//190 186//190 187//190
f 178//191 186//191 185//191
f 178//192 177//192 186//192
f 188//1 151//1 189//1
f 188//1 150//1 151//1
f 188//1 149//1 150//1
f 190//1 149//1 188//1
f 191//71 192//71 193//71
f 194//71 191//71 193//71
f 195//71 194//71 193//71
f 196//71 194//71 195//71
f 195//71 197//71 196//71
f 154//71 90//71 195//71
f 195//71 103//71 154//71
f 193//71 103//71 195//71
f 198//71 199//71 200//71
f 201//71 200//71 202//71
f 198//71 200//71 201//71
f 203//71 204//71 205//71
f 206//71 204//71 203//71
f 202//71 206//71 201//71
f 207//71 206//71 202//71
f 204//71 206//71 207//71
f 207//71 153//71 107//71
f 202//71 153//71 207//71
f 116//71 153//71 202//71
f 208//71 209//71 210//71
f 209//71 208//71 211//71
f 212//71 213//71 214//71
f 214//71 215//71 212//71
f 211//71 213//71 209//71
f 211//71 214//71 213//71
f 96//71 214//71 211//71
f 211//71 146//71 96//71
f 94//71 146//71 211//71
f 216//71 217//71 218//71
f 219//71 220//71 221//71
f 221//71 222//71 219//71
f 216//71 220//71 217//71
f 216//71 221//71 220//71
f 118//71 221//71 216//71
f 216//71 152//71 118//71
f 151//71 152//71 216//71
f 223//71 224//71 225//71
f 226//71 223//71 225//71
f 227//71 147//71 110//71
f 228//71 227//71 229//71
f 226//71 227//71 228//71
f 225//71 227//71 226//71
f 225//71 147//71 227//71
f 101//71 147//71 225//71
f 230//193 231//193 232//193
f 233//194 231//194 230//194
f 234//195 231//195 233//195
f 234//195 235//195 231//195
f 236//196 235//196 234//196
f 237//197 235//197 236//197
f 237//197 238//197 235//197
f 239//198 238//198 237//198
f 240//199 238//199 239//199
f 240//199 241//199 238//199
f 242//200 241//200 240//200
f 243//201 241//201 242//201
f 243//201 244//201 241//201
f 245//202 244//202 243//202
f 246//203 244//203 245//203
f 246//203 247//203 244//203
f 248//204 247//204 246//204
f 249//205 247//205 248//205
f 250//205 247//205 249//205
f 232//206 251//206 230//206
f 232//207 252//207 251//207
f 250//208 252//208 232//208
f 250//209 249//209 252//209
f 253//210 251//210 252//210
f 254//211 251//211 253//211
f 254//212 230//212 251//212
f 255//213 230//213 254//213
f 255//214 233//214 230//214
f 256//215 233//215 255//215
f 256//216 234//216 233//216
f 257//217 234//217 256//217
f 257//218 236//218 234//218
f 258//219 236//219 257//219
f 258//220 237//220 236//220
f 259//221 237//221 258//221
f 259//222 239//222 237//222
f 260//223 239//223 259//223
f 260//224 240//224 239//224
f 261//225 240//225 260//225
f 261//226 242//226 240//226
f 262//227 242//227 261//227
f 262//228 243//228 242//228
f 263//229 243//229 262//229
f 263//230 245//230 243//230
f 264//231 245//231 263//231
f 264//232 246//232 245//232
f 265//233 246//233 264//233
f 265//234 248//234 246//234
f 266//235 248//235 265//235
f 266//236 249//236 248//236
f 267//237 249//237 266//237
f 252//238 268//238 253//238
f 252//239 267//239 268//239
f 249//240 267//240 252//240
f 267//241 269//241 270//241
f 266//241 269//241 267//241
f 266//242 271//242 269//242
f 265//242 271//242 266//242
f 265//243 272//243 271//243
f 264//243 272//243 265//243
f 264//244 273//244 272//244
f 263//244 273//244 264//244
f 263//245 274//245 273//245
f 262//245 274//245 263//245
f 262//246 275//246 274//246
f 261//246 275//246 262//246
f 261//247 276//247 275//247
f 260//247 276//247 261//247
f 260//248 277//248 276//248
f 259//248 277//248 260//248
f 259//249 278//249 277//249
f 258//249 278//249 259//249
f 258//250 279//250 278//250
f 257//250 279//250 258//250
f 257//251 280//251 279//251
f 256//251 280//251 257//251
f 256//252 281//252 280//252
f 255//252 281//252 256//252
f 255//253 282//253 281//253
f 254//253 282//253 255//253
f 254//254 283//254 282//254
f 253//254 283//254 254//254
f 253//255 284//255 283//255
f 268//255 284//255 253//255
f 268//256 270//256 284//256
f 267//256 270//256 268//256
f 241//1 235//1 238//1
f 244//1 235//1 241//1
f 244//1 231//1 235//1
f 247//1 231//1 244//1
f 247//1 232//1 231//1
f 250//1 232//1 247//1
f 285//257 286//257 223//257
f 224//258 223//258 286//258
f 286//259 287//259 224//259
f 286//260 288//260 287//260
f 289//261 288//261 286//261
f 289//262 290//262 288//262
f 291//263 290//263 289//263
f 291//264 292//264 290//264
f 291//265 215//265 292//265
f 293//266 215//266 291//266
f 294//267 295//267 212//267
f 293//268 212//268 215//268
f 293//269 294//269 212//269
f 296//270 294//270 293//270
f 296//271 297//271 294//271
f 298//272 297//272 296//272
f 299//273 297//273 298//273
f 299//274 300//274 297//274
f 299//275 210//275 300//275
f 208//276 210//276 299//276
f 301//277 208//277 299//277
f 301//278 302//278 208//278
f 301//279 303//279 302//279
f 304//280 303//280 301//280
f 305//281 303//281 304//281
f 305//282 306//282 303//282
f 305//283 197//283 306//283
f 307//284 197//284 305//284
f 196//285 197//285 307//285
f 308//286 196//286 307//286
f 309//287 196//287 308//287
f 307//288 310//288 308//288
f 307//289 311//289 310//289
f 312//290 311//290 307//290
f 313//291 311//291 312//291
f 314//292 311//292 313//292
f 191//293 315//293 316//293
f 314//294 316//294 317//294
f 313//295 316//295 314//295
f 313//296 191//296 316//296
f 318//297 191//297 313//297
f 318//298 192//298 191//298
f 319//299 192//299 318//299
f 319//300 320//300 192//300
f 319//301 321//301 320//301
f 322//302 321//302 319//302
f 322//303 323//303 321//303
f 324//304 323//304 322//304
f 324//305 325//305 323//305
f 324//306 204//306 325//306
f 324//307 205//307 204//307
f 326//308 205//308 324//308
f 326//309 327//309 205//309
f 326//310 328//310 327//310
f 329//311 328//311 326//311
f 329//312 330//312 328//312
f 331//313 330//313 329//313
f 331//314 332//314 330//314
f 331//315 199//315 332//315
f 333//316 199//316 331//316
f 333//317 200//317 199//317
f 333//318 334//318 200//318
f 333//319 335//319 334//319
f 336//320 335//320 333//320
f 336//321 337//321 335//321
f 338//322 337//322 336//322
f 338//323 339//323 337//323
f 338//324 222//324 339//324
f 340//325 222//325 338//325
f 341//326 342//326 219//326
f 340//327 219//327 222//327
f 340//328 341//328 219//328
f 343//329 341//329 340//329
f 344//330 341//330 343//330
f 344//331 345//331 341//331
f 346//332 345//332 344//332
f 217//333 347//333 348//333
f 345//334 348//334 349//334
f 346//335 348//335 345//335
f 346//336 217//336 348//336
f 346//337 218//337 217//337
f 350//338 218//338 346//338
f 350//339 351//339 218//339
f 350//340 352//340 351//340
f 353//341 352//341 350//341
f 354//342 352//342 353//342
f 354//343 355//343 352//343
f 354//344 356//344 355//344
f 357//345 356//345 354//345
f 358//346 356//346 357//346
f 357//347 359//347 358//347
f 357//348 360//348 359//348
f 361//349 360//349 357//349
f 362//350 360//350 361//350
f 363//351 364//351 365//351
f 362//352 365//352 360//352
f 362//353 363//353 365//353
f 366//354 363//354 362//354
f 367//355 363//355 366//355
f 368//356 367//356 366//356
f 368//357 369//357 367//357
f 368//358 370//358 369//358
f 371//359 370//359 368//359
f 371//360 372//360 370//360
f 373//361 372//361 371//361
f 373//362 374//362 372//362
f 373//363 229//363 374//363
f 373//364 228//364 229//364
f 375//365 228//365 373//365
f 375//366 376//366 228//366
f 375//367 377//367 376//367
f 378//368 377//368 375//368
f 378//369 379//369 377//369
f 285//370 379//370 378//370
f 380//371 379//371 285//371
f 381//372 223//372 382//372
f 381//373 285//373 223//373
f 380//373 285//373 381//373
f 382//194 223//194 226//194
f 383//194 384//194 385//194
f 383//194 226//194 384//194
f 382//374 226//374 383//374
f 224//375 386//375 225//375
f 287//375 386//375 224//375
f 227//376 374//376 229//376
f 387//376 374//376 227//376
f 388//377 110//377 109//377
f 387//377 110//377 388//377
f 227//377 110//377 387//377
f 149//378 389//378 390//378
f 149//378 391//378 389//378
f 190//378 391//378 149//378
f 392//379 151//379 216//379
f 393//379 151//379 392//379
f 189//379 151//379 393//379
f 111//380 394//380 395//380
f 113//380 394//380 111//380
f 395//381 109//381 111//381
f 388//381 109//381 395//381
f 292//194 214//194 396//194
f 215//194 214//194 292//194
f 96//379 396//379 214//379
f 96//379 397//379 396//379
f 98//379 397//379 96//379
f 386//382 101//382 225//382
f 398//382 101//382 386//382
f 100//382 101//382 398//382
f 212//375 399//375 213//375
f 295//375 399//375 212//375
f 400//383 210//383 209//383
f 300//383 210//383 400//383
f 213//384 400//384 209//384
f 399//384 400//384 213//384
f 208//64 401//64 211//64
f 302//64 401//64 208//64
f 402//385 92//385 91//385
f 403//385 92//385 402//385
f 91//386 404//386 402//386
f 95//386 404//386 91//386
f 90//387 405//387 195//387
f 90//387 403//387 405//387
f 92//387 403//387 90//387
f 195//384 306//384 197//384
f 405//384 306//384 195//384
f 308//388 406//388 407//388
f 310//389 406//389 308//389
f 317//390 408//390 409//390
f 317//391 316//391 408//391
f 410//204 409//204 408//204
f 408//204 194//204 410//204
f 408//204 191//204 194//204
f 315//204 191//204 408//204
f 192//376 411//376 193//376
f 320//376 411//376 192//376
f 103//378 412//378 104//378
f 103//378 411//378 412//378
f 193//378 411//378 103//378
f 413//392 106//392 102//392
f 414//392 106//392 413//392
f 102//393 412//393 413//393
f 104//393 412//393 102//393
f 107//382 415//382 207//382
f 107//382 414//382 415//382
f 106//382 414//382 107//382
f 218//384 392//384 216//384
f 351//384 392//384 218//384
f 339//375 221//375 416//375
f 222//375 221//375 339//375
f 217//64 417//64 347//64
f 220//64 417//64 217//64
f 418//64 417//64 220//64
f 419//64 417//64 418//64
f 418//194 219//194 342//194
f 220//194 219//194 418//194
f 420//394 118//394 119//394
f 416//394 118//394 420//394
f 221//394 118//394 416//394
f 117//395 421//395 422//395
f 114//395 421//395 117//395
f 422//396 119//396 117//396
f 420//396 119//396 422//396
f 423//377 116//377 202//377
f 421//377 116//377 423//377
f 114//377 116//377 421//377
f 415//204 204//204 207//204
f 325//204 204//204 415//204
f 203//397 327//397 424//397
f 205//397 327//397 203//397
f 203//376 425//376 206//376
f 424//376 425//376 203//376
f 201//64 425//64 426//64
f 206//64 425//64 201//64
f 201//375 427//375 198//375
f 426//375 427//375 201//375
f 423//194 200//194 334//194
f 202//194 200//194 423//194
f 367//71 428//71 363//71
f 429//71 428//71 367//71
f 429//71 430//71 428//71
f 390//71 430//71 429//71
f 431//71 356//71 358//71
f 390//71 431//71 430//71
f 390//71 356//71 431//71
f 148//71 149//71 390//71
f 390//71 112//71 148//71
f 429//71 112//71 390//71
f 347//398 417//398 348//398
f 348//399 419//399 349//399
f 417//400 419//400 348//400
f 199//401 427//401 332//401
f 198//401 427//401 199//401
f 407//64 406//64 410//64
f 407//64 196//64 309//64
f 407//64 194//64 196//64
f 410//64 194//64 407//64
f 315//402 408//402 316//402
f 309//403 308//403 407//403
f 384//204 228//204 376//204
f 226//204 228//204 384//204
f 432//404 363//404 428//404
f 364//404 363//404 432//404
f 430//376 432//376 428//376
f 433//376 432//376 430//376
f 433//384 431//384 434//384
f 430//384 431//384 433//384
f 431//405 359//405 434//405
f 358//405 359//405 431//405
f 367//204 435//204 429//204
f 369//204 435//204 367//204
f 385//406 381//406 383//406
f 380//406 381//406 385//406
f 435//387 112//387 429//387
f 394//387 112//387 435//387
f 113//387 112//387 394//387
f 188//407 393//407 436//407
f 189//407 393//407 188//407
f 436//408 190//408 188//408
f 391//408 190//408 436//408
f 401//394 94//394 211//394
f 404//394 94//394 401//394
f 95//394 94//394 404//394
f 97//409 398//409 437//409
f 100//409 398//409 97//409
f 437//410 98//410 97//410
f 397//410 98//410 437//410
f 390//64 355//64 356//64
f 389//64 355//64 390//64
f 382//411 383//411 381//411
f 438//412 439//412 440//412
f 441//412 439//412 438//412
f 441//413 442//413 439//413
f 443//413 442//413 441//413
f 443//414 444//414 442//414
f 445//414 444//414 443//414
f 445//415 446//415 444//415
f 447//415 446//415 445//415
f 447//416 448//416 446//416
f 449//416 448//416 447//416
f 449//417 450//417 448//417
f 451//417 450//417 449//417
f 451//418 452//418 450//418
f 453//418 452//418 451//418
f 453//419 454//419 452//419
f 455//419 454//419 453//419
f 455//420 456//420 454//420
f 457//420 456//420 455//420
f 457//421 458//421 456//421
f 459//421 458//421 457//421
f 459//422 460//422 458//422
f 461//422 460//422 459//422
f 461//423 462//423 460//423
f 463//423 462//423 461//423
f 463//424 464//424 462//424
f 465//424 464//424 463//424
f 465//425 466//425 464//425
f 467//425 466//425 465//425
f 467//426 468//426 466//426
f 469//426 468//426 467//426
f 469//427 470//427 468//427
f 471//427 470//427 469//427
f 471//428 472//428 470//428
f 473//428 472//428 471//428
f 473//429 474//429 472//429
f 475//429 474//429 473//429
f 475//430 476//430 474//430
f 477//430 476//430 475//430
f 477//431 478//431 476//431
f 479//431 478//431 477//431
f 479//432 480//432 478//432
f 481//432 480//432 479//432
f 481//433 482//433 480//433
f 483//433 482//433 481//433
f 483//434 484//434 482//434
f 485//434 484//434 483//434
f 485//435 486//435 484//435
f 487//435 486//435 485//435
f 487//436 488//436 486//436
f 489//436 488//436 487//436
f 489//437 490//437 488//437
f 491//437 490//437 489//437
f 491//438 492//438 490//438
f 493//438 492//438 491//438
f 493//439 494//439 492//439
f 495//439 494//439 493//439
f 495//440 496//440 494//440
f 497//440 496//440 495//440
f 497//441 498//441 496//441
f 499//441 498//441 497//441
f 499//442 500//442 498//442
f 501//442 500//442 499//442
f 501//443 502//443 500//443
f 503//443 502//443 501//443
f 503//444 504//444 502//444
f 505//444 504//444 503//444
f 505//445 506//445 504//445
f 507//445 506//445 505//445
f 507//446 508//446 506//446
f 509//446 508//446 507//446
f 509//447 510//447 508//447
f 511//447 510//447 509//447
f 511//448 512//448 510//448
f 513//448 512//448 511//448
f 513//449 514//449 512//449
f 515//449 514//449 513//449
f 515//450 516//450 514//450
f 517//450 516//450 515//450
f 517//451 518//451 516//451
f 519//451 518//451 517//451
f 519//452 440//452 518//452
f 438//452 440//452 519//452
f 520//453 441//453 438//453
f 521//453 441//453 520//453
f 521//454 443//454 441//454
f 522//454 443//454 521//454
f 522//455 445//455 443//455
f 523//455 445//455 522//455
f 523//456 447//456 445//456
f 524//456 447//456 523//456
f 524//457 449//457 447//457
f 525//457 449//457 524//457
f 525//458 451//458 449//458
f 526//458 451//458 525//458
f 526//459 453//459 451//459
f 527//459 453//459 526//459
f 527//460 455//460 453//460
f 528//460 455//460 527//460
f 528//461 457//461 455//461
f 529//461 457//461 528//461
f 529//462 459//462 457//462
f 530//462 459//462 529//462
f 530//463 461//463 459//463
f 531//463 461//463 530//463
f 531//464 463//464 461//464
f 532//464 463//464 531//464
f 532//465 465//465 463//465
f 533//465 465//465 532//465
f 533//466 467//466 465//466
f 534//466 467//466 533//466
f 534//467 469//467 467//467
f 535//467 469//467 534//467
f 535//468 471//468 469//468
f 536//468 471//468 535//468
f 536//469 473//469 471//469
f 537//469 473//469 536//469
f 537//470 475//470 473//470
f 538//470 475//470 537//470
f 538//471 477//471 475//471
f 539//471 477//471 538//471
f 539//472 479//472 477//472
f 540//472 479//472 539//472
f 540//473 481//473 479//473
f 541//473 481//473 540//473
f 541//474 483//474 481//474
f 542//474 483//474 541//474
f 542//475 485//475 483//475
f 543//475 485//475 542//475
f 543//476 487//476 485//476
f 544//476 487//476 543//476
f 544//477 489//477 487//477
f 545//477 489//477 544//477
f 545//478 491//478 489//478
f 546//478 491//478 545//478
f 546//479 493//479 491//479
f 547//479 493//479 546//479
f 547//480 495//480 493//480
f 548//480 495//480 547//480
f 548//481 497//481 495//481
f 549//481 497//481 548//481
f 549//482 499//482 497//482
f 550//482 499//482 549//482
f 550//483 501//483 499//483
f 551//483 501//483 550//483
f 551//484 503//484 501//484
f 552//484 503//484 551//484
f 552//485 505//485 503//485
f 553//485 505//485 552//485
f 553//486 507//486 505//486
f 554//486 507//486 553//486
f 554//487 509//487 507//487
f 555//487 509//487 554//487
f 555//488 511//488 509//488
f 556//488 511//488 555//488
f 556//489 513//489 511//489
f 557//489 513//489 556//489
f 557//490 515//490 513//490
f 558//490 515//490 557//490
f 558//491 517//491 515//491
f 559//491 517//491 558//491
f 559//492 519//492 517//492
f 560//492 519//492 559//492
f 560//493 438//493 519//493
f 520//493 438//493 560//493
f 561//494 516//494 518//494
f 562//495 516//495 561//495
f 562//496 514//496 516//496
f 563//496 514//496 562//496
f 563//497 512//497 514//497
f 564//498 512//498 563//498
f 564//499 510//499 512//499
f 564//500 508//500 510//500
f 565//501 508//501 564//501
f 565//502 506//502 508//502
f 566//502 506//502 565//502
f 566//503 504//503 506//503
f 567//504 504//504 566//504
f 567//505 502//505 504//505
f 567//506 500//506 502//506
f 568//507 500//507 567//507
f 568//508 498//508 500//508
f 569//509 498//509 568//509
f 569//510 496//510 498//510
f 569//511 494//511 496//511
f 570//512 494//512 569//512
f 570//513 492//513 494//513
f 571//514 492//514 570//514
f 571//515 490//515 492//515
f 571//516 488//516 490//516
f 572//517 488//517 571//517
f 572//518 486//518 488//518
f 573//519 486//519 572//519
f 573//520 484//520 486//520
f 573//521 482//521 484//521
f 574//522 482//522 573//522
f 574//523 480//523 482//523
f 575//523 480//523 574//523
f 575//524 478//524 480//524
f 576//524 478//524 575//524
f 576//525 476//525 478//525
f 577//526 476//526 576//526
f 577//527 474//527 476//527
f 577//528 472//528 474//528
f 578//529 472//529 577//529
f 578//530 470//530 472//530
f 579//530 470//530 578//530
f 579//531 468//531 470//531
f 580//531 468//531 579//531
f 580//532 466//532 468//532
f 581//532 466//532 580//532
f 581//533 464//533 466//533
f 582//534 464//534 581//534
f 582//535 462//535 464//535
f 582//536 460//536 462//536
f 583//537 460//537 582//537
f 583//538 458//538 460//538
f 584//538 458//538 583//538
f 584//539 456//539 458//539
f 585//539 456//539 584//539
f 585//540 454//540 456//540
f 586//541 454//541 585//541
f 586//542 452//542 454//542
f 586//543 450//543 452//543
f 587//543 450//543 586//543
f 587//544 448//544 450//544
f 587//545 446//545 448//545
f 588//546 446//546 587//546
f 588//547 444//547 446//547
f 589//547 444//547 588//547
f 589//548 442//548 444//548
f 590//549 442//549 589//549
f 590//550 439//550 442//550
f 590//551 440//551 439//551
f 561//551 440//551 590//551
f 561//552 518//552 440//552
f 591//553 522//553 521//553
f 592//553 522//553 591//553
f 592//554 523//554 522//554
f 593//554 523//554 592//554
f 593//555 524//555 523//555
f 594//555 524//555 593//555
f 594//556 525//556 524//556
f 595//557 525//557 594//557
f 595//558 526//558 525//558
f 595//559 527//559 526//559
f 596//560 527//560 595//560
f 596//561 528//561 527//561
f 597//562 528//562 596//562
f 597//563 529//563 528//563
f 597//564 530//564 529//564
f 598//564 530//564 597//564
f 598//565 531//565 530//565
f 598//566 532//566 531//566
f 599//567 532//567 598//567
f 599//568 533//568 532//568
f 600//568 533//568 599//568
f 600//569 534//569 533//569
f 601//569 534//569 600//569
f 601//570 535//570 534//570
f 602//571 535//571 601//571
f 602//572 536//572 535//572
f 602//573 537//573 536//573
f 603//574 537//574 602//574
f 603//575 538//575 537//575
f 604//575 538//575 603//575
f 604//576 539//576 538//576
f 605//577 539//577 604//577
f 605//578 540//578 539//578
f 605//579 541//579 540//579
f 606//579 541//579 605//579
f 606//580 542//580 541//580
f 606//581 543//581 542//581
f 607//582 543//582 606//582
f 607//583 544//583 543//583
f 608//583 544//583 607//583
f 608//584 545//584 544//584
f 609//585 545//585 608//585
f 609//586 546//586 545//586
f 609//587 547//587 546//587
f 610//588 547//588 609//588
f 610//589 548//589 547//589
f 611//590 548//590 610//590
f 611//591 549//591 548//591
f 611//592 550//592 549//592
f 612//593 550//593 611//593
f 612//594 551//594 550//594
f 613//594 551//594 612//594
f 613//595 552//595 551//595
f 614//595 552//595 613//595
f 614//596 553//596 552//596
f 615//596 553//596 614//596
f 615//597 554//597 553//597
f 616//597 554//597 615//597
f 616//598 555//598 554//598
f 617//598 555//598 616//598
f 617//599 556//599 555//599
f 618//599 556//599 617//599
f 618//600 557//600 556//600
f 619//600 557//600 618//600
f 619//601 558//601 557//601
f 620//601 558//601 619//601
f 620//602 559//602 558//602
f 621//602 559//602 620//602
f 621//603 560//603 559//603
f 622//603 560//603 621//603
f 622//604 520//604 560//604
f 623//604 520//604 622//604
f 623//605 521//605 520//605
f 591//605 521//605 623//605
f 573//1 297//1 300//1
f 573//1 294//1 297//1
f 572//1 294//1 573//1
f 572//1 295//1 294//1
f 571//1 295//1 572//1
f 287//1 570//1 569//1
f 288//1 570//1 287//1
f 288//1 571//1 570//1
f 290//1 571//1 288//1
f 292//1 571//1 290//1
f 292//1 295//1 571//1
f 396//1 295//1 292//1
f 399//1 295//1 396//1
f 302//1 303//1 574//1
f 300//1 574//1 573//1
f 300//1 302//1 574//1
f 400//1 302//1 300//1
f 400//1 401//1 302//1
f 399//1 401//1 400//1
f 396//1 401//1 399//1
f 396//1 404//1 401//1
f 397//1 404//1 396//1
f 405//1 403//1 411//1
f 579//1 317//1 580//1
f 579//1 314//1 317//1
f 578//1 314//1 579//1
f 578//1 311//1 314//1
f 577//1 311//1 578//1
f 577//1 310//1 311//1
f 303//1 575//1 574//1
f 303//1 576//1 575//1
f 303//1 577//1 576//1
f 306//1 577//1 303//1
f 306//1 310//1 577//1
f 406//1 310//1 306//1
f 317//1 409//1 320//1
f 582//1 323//1 325//1
f 581//1 323//1 582//1
f 581//1 321//1 323//1
f 580//1 321//1 581//1
f 320//1 580//1 317//1
f 321//1 580//1 320//1
f 405//1 406//1 306//1
f 405//1 410//1 406//1
f 411//1 410//1 405//1
f 411//1 409//1 410//1
f 320//1 409//1 411//1
f 585//1 330//1 332//1
f 584//1 330//1 585//1
f 584//1 328//1 330//1
f 583//1 328//1 584//1
f 582//1 328//1 583//1
f 582//1 327//1 328//1
f 325//1 327//1 582//1
f 325//1 424//1 327//1
f 325//1 425//1 424//1
f 415//1 425//1 325//1
f 587//1 337//1 339//1
f 586//1 337//1 587//1
f 586//1 335//1 337//1
f 334//1 335//1 586//1
f 332//1 586//1 585//1
f 332//1 334//1 586//1
f 427//1 334//1 332//1
f 426//1 334//1 427//1
f 426//1 423//1 334//1
f 425//1 423//1 426//1
f 415//1 423//1 425//1
f 415//1 421//1 423//1
f 414//1 421//1 415//1
f 418//1 342//1 416//1
f 561//1 355//1 562//1
f 561//1 352//1 355//1
f 590//1 352//1 561//1
f 590//1 351//1 352//1
f 342//1 339//1 416//1
f 342//1 587//1 339//1
f 341//1 587//1 342//1
f 341//1 588//1 587//1
f 341//1 589//1 588//1
f 345//1 589//1 341//1
f 345//1 590//1 589//1
f 349//1 590//1 345//1
f 349//1 351//1 590//1
f 419//1 351//1 349//1
f 419//1 392//1 351//1
f 418//1 392//1 419//1
f 416//1 392//1 418//1
f 416//1 393//1 392//1
f 420//1 393//1 416//1
f 389//1 391//1 435//1
f 398//1 387//1 388//1
f 386//1 387//1 398//1
f 387//1 376//1 374//1
f 387//1 384//1 376//1
f 386//1 384//1 387//1
f 386//1 385//1 384//1
f 287//1 385//1 386//1
f 287//1 380//1 385//1
f 569//1 380//1 287//1
f 569//1 379//1 380//1
f 568//1 379//1 569//1
f 568//1 377//1 379//1
f 567//1 377//1 568//1
f 432//1 369//1 364//1
f 432//1 435//1 369//1
f 433//1 435//1 432//1
f 433//1 389//1 435//1
f 434//1 389//1 433//1
f 434//1 355//1 389//1
f 359//1 355//1 434//1
f 359//1 562//1 355//1
f 360//1 562//1 359//1
f 360//1 563//1 562//1
f 360//1 564//1 563//1
f 365//1 564//1 360//1
f 364//1 564//1 365//1
f 369//1 564//1 364//1
f 369//1 565//1 564//1
f 370//1 565//1 369//1
f 370//1 566//1 565//1
f 372//1 566//1 370//1
f 372//1 567//1 566//1
f 374//1 567//1 372//1
f 376//1 567//1 374//1
f 377//1 567//1 376//1
f 395//1 282//1 283//1
f 394//1 282//1 395//1
f 281//1 282//1 394//1
f 391//1 394//1 435//1
f 391//1 281//1 394//1
f 436//1 281//1 391//1
f 436//1 280//1 281//1
f 436//1 279//1 280//1
f 393//1 279//1 436//1
f 420//1 279//1 393//1
f 420//1 278//1 279//1
f 422//1 278//1 420//1
f 422//1 277//1 278//1
f 421//1 277//1 422//1
f 421//1 276//1 277//1
f 414//1 276//1 421//1
f 414//1 275//1 276//1
f 413//1 275//1 414//1
f 413//1 274//1 275//1
f 412//1 274//1 413//1
f 273//1 274//1 412//1
f 403//1 412//1 411//1
f 403//1 273//1 412//1
f 402//1 273//1 403//1
f 402//1 272//1 273//1
f 402//1 271//1 272//1
f 404//1 271//1 402//1
f 397//1 271//1 404//1
f 397//1 269//1 271//1
f 437//1 269//1 397//1
f 270//1 437//1 398//1
f 269//1 437//1 270//1
f 283//1 388//1 395//1
f 284//1 388//1 283//1
f 284//1 398//1 388//1
f 270//1 398//1 284//1
f 622//71 354//71 353//71
f 621//71 354//71 622//71
f 621//71 357//71 354//71
f 620//71 357//71 621//71
f 620//71 361//71 357//71
f 619//71 361//71 620//71
f 619//71 362//71 361//71
f 618//71 362//71 619//71
f 618//71 366//71 362//71
f 617//71 366//71 618//71
f 617//71 368//71 366//71
f 616//71 368//71 617//71
f 616//71 371//71 368//71
f 615//71 371//71 616//71
f 615//71 373//71 371//71
f 614//71 373//71 615//71
f 614//71 375//71 373//71
f 613//71 375//71 614//71
f 353//71 623//71 622//71
f 353//71 591//71 623//71
f 350//71 591//71 353//71
f 350//71 592//71 591//71
f 346//71 592//71 350//71
f 346//71 593//71 592//71
f 344//71 593//71 346//71
f 344//71 594//71 593//71
f 343//71 594//71 344//71
f 343//71 595//71 594//71
f 340//71 595//71 343//71
f 338//71 595//71 340//71
f 338//71 596//71 595//71
f 336//71 596//71 338//71
f 336//71 597//71 596//71
f 333//71 597//71 336//71
f 331//71 597//71 333//71
f 331//71 598//71 597//71
f 329//71 598//71 331//71
f 326//71 598//71 329//71
f 326//71 599//71 598//71
f 324//71 599//71 326//71
f 324//71 600//71 599//71
f 322//71 600//71 324//71
f 322//71 601//71 600//71
f 319//71 601//71 322//71
f 319//71 602//71 601//71
f 318//71 602//71 319//71
f 313//71 602//71 318//71
f 313//71 603//71 602//71
f 312//71 603//71 313//71
f 312//71 604//71 603//71
f 307//71 604//71 312//71
f 307//71 605//71 604//71
f 305//71 605//71 307//71
f 304//71 605//71 305//71
f 304//71 606//71 605//71
f 301//71 606//71 304//71
f 299//71 606//71 301//71
f 299//71 607//71 606//71
f 298//71 607//71 299//71
f 298//71 608//71 607//71
f 296//71 608//71 298//71
f 296//71 609//71 608//71
f 293//71 609//71 296//71
f 291//71 609//71 293//71
f 291//71 610//71 609//71
f 289//71 610//71 291//71
f 289//71 611//71 610//71
f 286//71 611//71 289//71
f 285//71 611//71 286//71
f 285//71 612//71 611//71
f 378//71 612//71 285//71
f 378//71 613//71 612//71
f 375//71 613//71 378//71
