# Blender 5.1.1
# www.blender.org
mtllib forks.mtl
o forks
v 0.006181 -0.012472 0.110065
v 0.011231 -0.012472 0.110065
v 0.006181 0.013247 0.110065
v 0.011231 0.013247 0.110065
v 0.006181 -0.008339 0.089169
v 0.006181 -0.008339 0.108836
v 0.011231 -0.008339 0.089169
v 0.011231 -0.008339 0.108836
v 0.006181 0.007276 0.089169
v 0.011231 0.007276 0.089169
v 0.006181 0.007276 0.108836
v 0.011231 0.007276 0.108836
v 0.011231 -0.011103 0.095102
v 0.006181 -0.011103 0.095102
v 0.011231 -0.011135 0.095322
v 0.006181 -0.011135 0.095322
v 0.011231 -0.011103 0.095542
v 0.006181 -0.011103 0.095542
v 0.011231 -0.011007 0.095747
v 0.006181 -0.011007 0.095747
v 0.011231 -0.010856 0.095923
v 0.006181 -0.010856 0.095923
v 0.011231 -0.010658 0.096059
v 0.006181 -0.010658 0.096059
v 0.011231 -0.010429 0.096144
v 0.006181 -0.010429 0.096144
v 0.011231 -0.010182 0.096172
v 0.006181 -0.010182 0.096172
v 0.011231 -0.009935 0.096144
v 0.006181 -0.009935 0.096144
v 0.011231 -0.009705 0.096059
v 0.006181 -0.009705 0.096059
v 0.011231 -0.009508 0.095923
v 0.006181 -0.009508 0.095923
v 0.011231 -0.009356 0.095747
v 0.006181 -0.009356 0.095747
v 0.011231 -0.009261 0.095542
v 0.006181 -0.009261 0.095542
v 0.011231 -0.009229 0.095322
v 0.006181 -0.009229 0.095322
v 0.011231 -0.009261 0.095102
v 0.006181 -0.009261 0.095102
v 0.011231 -0.009356 0.094897
v 0.006181 -0.009356 0.094897
v 0.011231 -0.009508 0.094721
v 0.006181 -0.009508 0.094721
v 0.011231 -0.009705 0.094586
v 0.006181 -0.009705 0.094586
v 0.011231 -0.009935 0.094501
v 0.006181 -0.009935 0.094501
v 0.011231 -0.010182 0.094472
v 0.006181 -0.010182 0.094472
v 0.011231 -0.010429 0.094501
v 0.006181 -0.010429 0.094501
v 0.011231 -0.010658 0.094586
v 0.006181 -0.010658 0.094586
v 0.011231 -0.010856 0.094721
v 0.006181 -0.010856 0.094721
v 0.011231 -0.011007 0.094897
v 0.006181 -0.011007 0.094897
v 0.011231 0.008196 0.095102
v 0.006181 0.008196 0.095102
v 0.011231 0.008164 0.095322
v 0.006181 0.008164 0.095322
v 0.011231 0.008196 0.095542
v 0.006181 0.008196 0.095542
v 0.011231 0.008292 0.095747
v 0.006181 0.008292 0.095747
v 0.011231 0.008443 0.095923
v 0.006181 0.008443 0.095923
v 0.011231 0.008641 0.096059
v 0.006181 0.008641 0.096059
v 0.011231 0.008870 0.096144
v 0.006181 0.008870 0.096144
v 0.011231 0.009117 0.096172
v 0.006181 0.009117 0.096172
v 0.011231 0.009364 0.096144
v 0.006181 0.009364 0.096144
v 0.011231 0.009594 0.096059
v 0.006181 0.009594 0.096059
v 0.011231 0.009791 0.095923
v 0.006181 0.009791 0.095923
v 0.011231 0.009943 0.095747
v 0.006181 0.009943 0.095747
v 0.011231 0.010038 0.095542
v 0.006181 0.010038 0.095542
v 0.011231 0.010070 0.095322
v 0.006181 0.010070 0.095322
v 0.011231 0.010038 0.095102
v 0.006181 0.010038 0.095102
v 0.011231 0.009943 0.094897
v 0.006181 0.009943 0.094897
v 0.011231 0.009791 0.094721
v 0.006181 0.009791 0.094721
v 0.011231 0.009594 0.094586
v 0.006181 0.009594 0.094586
v 0.011231 0.009364 0.094501
v 0.006181 0.009364 0.094501
v 0.011231 0.009117 0.094472
v 0.006181 0.009117 0.094472
v 0.011231 0.008870 0.094501
v 0.006181 0.008870 0.094501
v 0.011231 0.008641 0.094586
v 0.006181 0.008641 0.094586
v 0.011231 0.008443 0.094721
v 0.006181 0.008443 0.094721
v 0.011231 0.008292 0.094897
v 0.006181 0.008292 0.094897
v 0.011231 -0.011103 0.105413
v 0.006181 -0.011103 0.105413
v 0.011231 -0.011135 0.105633
v 0.006181 -0.011135 0.105633
v 0.011231 -0.011103 0.105853
v 0.006181 -0.011103 0.105853
v 0.011231 -0.011007 0.106058
v 0.006181 -0.011007 0.106058
v 0.011231 -0.010856 0.106234
v 0.006181 -0.010856 0.106234
v 0.011231 -0.010658 0.106370
v 0.006181 -0.010658 0.106370
v 0.011231 -0.010429 0.106455
v 0.006181 -0.010429 0.106455
v 0.011231 -0.010182 0.106484
v 0.006181 -0.010182 0.106484
v 0.011231 -0.009935 0.106455
v 0.006181 -0.009935 0.106455
v 0.011231 -0.009705 0.106370
v 0.006181 -0.009705 0.106370
v 0.011231 -0.009508 0.106234
v 0.006181 -0.009508 0.106234
v 0.011231 -0.009356 0.106058
v 0.006181 -0.009356 0.106058
v 0.011231 -0.009261 0.105853
v 0.006181 -0.009261 0.105853
v 0.011231 -0.009229 0.105633
v 0.006181 -0.009229 0.105633
v 0.011231 -0.009261 0.105413
v 0.006181 -0.009261 0.105413
v 0.011231 -0.009356 0.105208
v 0.006181 -0.009356 0.105208
v 0.011231 -0.009508 0.105032
v 0.006181 -0.009508 0.105032
v 0.011231 -0.009705 0.104897
v 0.006181 -0.009705 0.104897
v 0.011231 -0.009935 0.104812
v 0.006181 -0.009935 0.104812
v 0.011231 -0.010182 0.104783
v 0.006181 -0.010182 0.104783
v 0.011231 -0.010429 0.104812
v 0.006181 -0.010429 0.104812
v 0.011231 -0.010658 0.104897
v 0.006181 -0.010658 0.104897
v 0.011231 -0.010856 0.105032
v 0.006181 -0.010856 0.105032
v 0.011231 -0.011007 0.105208
v 0.006181 -0.011007 0.105208
v 0.011231 0.008192 0.105404
v 0.006181 0.008192 0.105404
v 0.011231 0.008159 0.105624
v 0.006181 0.008159 0.105624
v 0.011231 0.008192 0.105844
v 0.006181 0.008192 0.105844
v 0.011231 0.008287 0.106050
v 0.006181 0.008287 0.106050
v 0.011231 0.008439 0.106226
v 0.006181 0.008439 0.106226
v 0.011231 0.008636 0.106361
v 0.006181 0.008636 0.106361
v 0.011231 0.008866 0.106446
v 0.006181 0.008866 0.106446
v 0.011231 0.009113 0.106475
v 0.006181 0.009113 0.106475
v 0.011231 0.009359 0.106446
v 0.006181 0.009359 0.106446
v 0.011231 0.009589 0.106361
v 0.006181 0.009589 0.106361
v 0.011231 0.009787 0.106226
v 0.006181 0.009787 0.106226
v 0.011231 0.009938 0.106050
v 0.006181 0.009938 0.106050
v 0.011231 0.010033 0.105844
v 0.006181 0.010033 0.105844
v 0.011231 0.010066 0.105624
v 0.006181 0.010066 0.105624
v 0.011231 0.010033 0.105404
v 0.006181 0.010033 0.105404
v 0.011231 0.009938 0.105199
v 0.006181 0.009938 0.105199
v 0.011231 0.009787 0.105023
v 0.006181 0.009787 0.105023
v 0.011231 0.009589 0.104888
v 0.006181 0.009589 0.104888
v 0.011231 0.009359 0.104803
v 0.006181 0.009359 0.104803
v 0.011231 0.009113 0.104774
v 0.006181 0.009113 0.104774
v 0.011231 0.008866 0.104803
v 0.006181 0.008866 0.104803
v 0.011231 0.008636 0.104888
v 0.006181 0.008636 0.104888
v 0.011231 0.008439 0.105023
v 0.006181 0.008439 0.105023
v 0.011231 0.008287 0.105199
v 0.006181 0.008287 0.105199
v 0.006181 -0.012472 0.045900
v 0.006181 -0.012472 0.045900
v 0.006181 0.013247 0.045900
v 0.006181 0.013247 0.045900
v 0.011231 0.013247 0.045900
v 0.006181 0.017162 0.045900
v 0.011232 0.035152 0.045900
v 0.004424 0.035152 0.045900
v 0.011231 -0.012472 0.045900
v 0.011232 -0.035704 0.045900
v 0.006181 -0.017713 0.045900
v 0.004625 -0.035704 0.045900
v 0.004424 -0.021450 0.045900
v 0.004424 -0.035704 0.045900
v -0.000407 -0.021450 0.045900
v -0.009630 -0.017713 0.045900
v -0.003262 -0.024356 0.045900
v -0.009630 -0.024356 0.045900
v -0.000407 -0.021657 0.045900
v 0.004424 0.020898 0.045900
v -0.000407 0.020898 0.045900
v -0.009630 0.017162 0.045900
v -0.003262 0.023805 0.045900
v -0.009630 0.023805 0.045900
v -0.000407 0.021106 0.045900
v 0.011232 0.041208 0.001758
v 0.004424 0.041208 0.001758
v 0.005741 0.041208 0.015634
v 0.004424 0.041208 0.041120
v 0.005741 0.041208 0.040410
v 0.011232 0.041208 0.041120
v 0.010792 0.041208 0.040410
v 0.010792 0.041208 0.015634
v -0.009630 -0.020723 0.002905
v -0.009630 -0.024356 0.002905
v -0.009630 -0.020723 0.032898
v -0.009630 -0.017713 0.032898
v -0.000407 -0.017713 0.032898
v 0.006181 -0.017713 0.029620
v -0.000407 -0.017713 0.029620
v 0.006181 0.017162 0.029620
v -0.000407 0.017162 0.029620
v -0.000407 0.017162 0.032898
v -0.009630 0.017162 0.032898
v -0.009630 0.020172 0.032898
v -0.009630 0.023805 0.002905
v -0.009630 0.020172 0.002905
v -0.003262 0.023805 0.002905
v -0.000407 0.021106 0.002905
v -0.000407 0.020898 0.029620
v -0.000407 0.020172 0.002905
v -0.000407 0.020172 0.029620
v 0.004424 0.020898 0.043551
v 0.004424 0.020898 0.031259
v 0.004424 0.020898 0.029620
v 0.011232 0.020898 0.043551
v 0.011232 0.020898 0.031259
v 0.004424 0.038128 0.029620
v 0.004424 0.038128 0.031259
v 0.004424 0.038128 0.040074
v 0.004424 0.038128 0.001758
v 0.004424 0.038128 0.004216
v 0.004424 0.031441 0.031259
v 0.004424 0.033725 0.031259
v 0.004424 0.031441 0.043551
v 0.004424 0.033725 0.043551
v 0.011232 -0.038680 0.040074
v 0.011232 -0.038680 0.031259
v 0.004424 -0.038680 0.040074
v 0.004424 -0.038680 0.031259
v 0.011232 0.038128 0.031259
v 0.011232 0.038128 0.040074
v 0.011232 -0.038680 0.017737
v 0.011232 -0.038680 0.004216
v 0.008157 -0.038680 0.017737
v 0.004424 -0.038680 0.004216
v 0.004424 -0.038680 0.029620
v 0.008157 -0.038680 0.022654
v 0.011232 -0.038680 0.029620
v 0.011232 -0.038680 0.022654
v 0.008157 0.038128 0.017737
v 0.008157 0.038128 0.022654
v 0.011232 0.038128 0.029620
v 0.011232 0.038128 0.022654
v 0.011232 0.038128 0.004216
v 0.011232 0.038128 0.017737
v -0.003262 -0.024356 0.002905
v -0.000407 -0.021450 0.029620
v -0.000407 -0.021657 0.002905
v -0.000407 -0.020723 0.002905
v -0.000407 -0.020723 0.029620
v 0.011232 -0.021450 0.031259
v 0.011232 -0.021450 0.043551
v 0.004424 -0.021450 0.031259
v 0.004424 -0.021450 0.043551
v 0.004424 -0.021450 0.029620
v 0.009914 0.033725 0.043551
v 0.011232 0.033725 0.043551
v 0.009914 0.031441 0.043551
v 0.009914 0.031441 0.031259
v 0.009914 0.033725 0.031259
v 0.009914 -0.005006 0.043551
v 0.011232 -0.018336 0.043551
v 0.009914 -0.007289 0.043551
v 0.006840 -0.018336 0.043551
v 0.006840 -0.007289 0.043551
v 0.009914 0.004455 0.043551
v 0.006840 -0.005006 0.043551
v 0.006840 0.004455 0.043551
v 0.011232 0.017785 0.043551
v 0.009914 0.006738 0.043551
v 0.006840 0.017785 0.043551
v 0.006840 0.006738 0.043551
v 0.006840 -0.005006 0.031259
v 0.009914 -0.005006 0.031259
v 0.006840 0.004455 0.031259
v 0.009914 0.004455 0.031259
v 0.011232 -0.018336 0.031259
v 0.011232 0.017785 0.031259
v 0.009914 -0.007289 0.031259
v 0.006840 -0.018336 0.031259
v 0.006840 -0.007289 0.031259
v 0.009914 0.006738 0.031259
v 0.006840 0.017785 0.031259
v 0.006840 0.006738 0.031259
v 0.004424 -0.031992 0.043551
v 0.009914 -0.031992 0.043551
v 0.011232 -0.034276 0.043551
v 0.009914 -0.034276 0.043551
v 0.009914 -0.031992 0.031259
v 0.009914 -0.034276 0.031259
v 0.004424 -0.034276 0.031259
v 0.004424 -0.031992 0.031259
v 0.004424 -0.034276 0.043551
v 0.011232 -0.040237 0.042322
v 0.004424 -0.041793 0.041092
v 0.011232 -0.041793 0.041092
v 0.011232 -0.041793 0.001758
v 0.004424 -0.041793 0.001758
v 0.004424 -0.038680 0.001758
v 0.011232 0.013882 0.001758
v 0.011232 -0.013215 0.001758
v 0.009973 0.013882 0.001758
v 0.009857 -0.013215 0.001758
v 0.007279 0.035430 0.001758
v 0.007279 -0.035981 0.001758
v 0.009857 -0.031586 0.001758
v 0.011232 -0.031586 0.001758
v 0.009973 0.032252 0.001758
v 0.011232 0.032252 0.001758
v -0.000407 -0.020723 0.032898
v -0.000407 0.020172 0.032898
v 0.007279 0.035430 0.004216
v 0.007279 -0.035981 0.004216
v 0.008157 0.000968 0.020144
v 0.011232 0.000968 0.020144
v 0.011232 0.000970 0.020196
v 0.008157 0.000968 0.020248
v 0.011232 0.000968 0.020248
v 0.011232 0.000954 0.020352
v 0.008157 0.000954 0.020352
v 0.011232 0.000926 0.020455
v 0.008157 0.000926 0.020455
v 0.011232 0.000884 0.020554
v 0.008157 0.000884 0.020554
v 0.011232 0.000830 0.020649
v 0.008157 0.000830 0.020649
v 0.011232 0.000762 0.020739
v 0.008157 0.000762 0.020739
v 0.011232 0.000683 0.020823
v 0.008157 0.000683 0.020823
v 0.011232 0.000593 0.020900
v 0.008157 0.000593 0.020900
v 0.011232 0.000494 0.020969
v 0.008157 0.000494 0.020969
v 0.011232 0.000385 0.021029
v 0.008157 0.000385 0.021029
v 0.011232 0.000269 0.021080
v 0.008157 0.000269 0.021080
v 0.011232 0.000147 0.021121
v 0.008157 0.000147 0.021121
v 0.011232 0.000020 0.021151
v 0.008157 0.000020 0.021151
v 0.011232 -0.000110 0.021171
v 0.008157 -0.000110 0.021171
v 0.011232 -0.000242 0.021179
v 0.008157 -0.000242 0.021179
v 0.011232 -0.000375 0.021176
v 0.008157 -0.000375 0.021176
v 0.011232 -0.000506 0.021162
v 0.008157 -0.000506 0.021162
v 0.011232 -0.000635 0.021137
v 0.008157 -0.000635 0.021137
v 0.011232 -0.000760 0.021102
v 0.008157 -0.000760 0.021102
v 0.011232 -0.000879 0.021056
v 0.008157 -0.000879 0.021056
v 0.011232 -0.000992 0.021001
v 0.008157 -0.000992 0.021001
v 0.011232 -0.001096 0.020936
v 0.008157 -0.001096 0.020936
v 0.011232 -0.001191 0.020863
v 0.008157 -0.001191 0.020863
v 0.011232 -0.001275 0.020782
v 0.008157 -0.001275 0.020782
v 0.011232 -0.001349 0.020695
v 0.008157 -0.001349 0.020695
v 0.011232 -0.001410 0.020602
v 0.008157 -0.001410 0.020602
v 0.011232 -0.001458 0.020505
v 0.008157 -0.001458 0.020505
v 0.011232 -0.001493 0.020404
v 0.008157 -0.001493 0.020404
v 0.011232 -0.001514 0.020300
v 0.008157 -0.001514 0.020300
v 0.011232 -0.001521 0.020196
v 0.008157 -0.001521 0.020196
v 0.011232 -0.001514 0.020091
v 0.008157 -0.001514 0.020091
v 0.011232 -0.001493 0.019988
v 0.008157 -0.001493 0.019988
v 0.011232 -0.001458 0.019887
v 0.008157 -0.001458 0.019887
v 0.011232 -0.001410 0.019790
v 0.008157 -0.001410 0.019790
v 0.011232 -0.001349 0.019697
v 0.008157 -0.001349 0.019697
v 0.011232 -0.001275 0.019609
v 0.008157 -0.001275 0.019609
v 0.011232 -0.001191 0.019529
v 0.008157 -0.001191 0.019529
v 0.011232 -0.001096 0.019456
v 0.008157 -0.001096 0.019456
v 0.011232 -0.000992 0.019391
v 0.008157 -0.000992 0.019391
v 0.011232 -0.000879 0.019336
v 0.008157 -0.000879 0.019336
v 0.011232 -0.000760 0.019290
v 0.008157 -0.000760 0.019290
v 0.011232 -0.000635 0.019254
v 0.008157 -0.000635 0.019254
v 0.011232 -0.000506 0.019230
v 0.008157 -0.000506 0.019230
v 0.011232 -0.000375 0.019216
v 0.008157 -0.000375 0.019216
v 0.011232 -0.000242 0.019213
v 0.008157 -0.000242 0.019213
v 0.011232 -0.000110 0.019221
v 0.008157 -0.000110 0.019221
v 0.011232 0.000020 0.019241
v 0.008157 0.000020 0.019241
v 0.011232 0.000147 0.019271
v 0.008157 0.000147 0.019271
v 0.011232 0.000269 0.019312
v 0.008157 0.000269 0.019312
v 0.011232 0.000385 0.019362
v 0.008157 0.000385 0.019362
v 0.011232 0.000494 0.019422
v 0.008157 0.000494 0.019422
v 0.011232 0.000593 0.019491
v 0.008157 0.000593 0.019491
v 0.011232 0.000683 0.019568
v 0.008157 0.000683 0.019568
v 0.011232 0.000762 0.019652
v 0.008157 0.000762 0.019652
v 0.011232 0.000830 0.019742
v 0.008157 0.000830 0.019742
v 0.011232 0.000884 0.019838
v 0.008157 0.000884 0.019838
v 0.011232 0.000926 0.019937
v 0.008157 0.000926 0.019937
v 0.011232 0.000954 0.020039
v 0.008157 0.000954 0.020039
v 0.011232 -0.022845 0.020943
v 0.011232 -0.022977 0.020693
v 0.008157 -0.022845 0.020943
v 0.008157 -0.022977 0.020693
v 0.008157 -0.022637 0.021158
v 0.011232 -0.022637 0.021158
v 0.008157 -0.022365 0.021322
v 0.011232 -0.022365 0.021322
v 0.008157 -0.022049 0.021426
v 0.011232 -0.022049 0.021426
v 0.008157 -0.021709 0.021461
v 0.011232 -0.021709 0.021461
v 0.008157 -0.021369 0.021426
v 0.011232 -0.021369 0.021426
v 0.008157 -0.021053 0.021322
v 0.011232 -0.021053 0.021322
v 0.008157 -0.020781 0.021158
v 0.011232 -0.020781 0.021158
v 0.008157 -0.020572 0.020943
v 0.011232 -0.020572 0.020943
v 0.011232 -0.020441 0.020693
v 0.008157 -0.020441 0.020693
v 0.011232 -0.020396 0.020425
v 0.008157 -0.020396 0.020425
v 0.011232 -0.020441 0.020157
v 0.008157 -0.020441 0.020157
v 0.011232 -0.020572 0.019907
v 0.008157 -0.020572 0.019907
v 0.008157 -0.020781 0.019692
v 0.011232 -0.020781 0.019692
v 0.008157 -0.021053 0.019528
v 0.011232 -0.021053 0.019528
v 0.008157 -0.021369 0.019424
v 0.011232 -0.021369 0.019424
v 0.008157 -0.021709 0.019389
v 0.011232 -0.021709 0.019389
v 0.008157 -0.022049 0.019424
v 0.011232 -0.022049 0.019424
v 0.008157 -0.022365 0.019528
v 0.011232 -0.022365 0.019528
v 0.008157 -0.022637 0.019692
v 0.011232 -0.022637 0.019692
v 0.008157 -0.022845 0.019907
v 0.011232 -0.022845 0.019907
v 0.011232 -0.022977 0.020157
v 0.008157 -0.022977 0.020157
v 0.011232 -0.023021 0.020425
v 0.008157 -0.023021 0.020425
v 0.008157 0.021113 0.019980
v 0.008157 0.020955 0.020219
v 0.008157 0.021344 0.019781
v 0.008157 0.021632 0.019635
v 0.008157 0.021958 0.019554
v 0.008157 0.022300 0.019541
v 0.008157 0.022634 0.019599
v 0.008157 0.022938 0.019723
v 0.008157 0.023191 0.019905
v 0.008157 0.023375 0.020133
v 0.008157 0.023480 0.020390
v 0.008157 0.023496 0.020660
v 0.008157 0.023423 0.020924
v 0.008157 0.023267 0.021164
v 0.008157 0.023037 0.021364
v 0.008157 0.022750 0.021510
v 0.008157 0.022424 0.021593
v 0.008157 0.022192 0.021610
v 0.008157 0.021961 0.021594
v 0.008157 0.021736 0.021547
v 0.008157 0.021433 0.021421
v 0.008157 0.021181 0.021239
v 0.008157 0.020998 0.021011
v 0.008157 0.020895 0.020753
v 0.008157 0.020881 0.020483
v 0.011232 0.021424 0.021417
v 0.011232 0.021722 0.021543
v 0.011232 0.021177 0.021235
v 0.011232 0.020997 0.021009
v 0.011232 0.020896 0.020754
v 0.011232 0.020880 0.020488
v 0.011232 0.020951 0.020227
v 0.011232 0.021104 0.019989
v 0.011232 0.021330 0.019790
v 0.011232 0.021611 0.019643
v 0.011232 0.021932 0.019558
v 0.011232 0.022269 0.019540
v 0.011232 0.022601 0.019590
v 0.011232 0.022905 0.019706
v 0.011232 0.023162 0.019879
v 0.011232 0.023354 0.020099
v 0.011232 0.023469 0.020350
v 0.011232 0.023499 0.020616
v 0.011232 0.023442 0.020879
v 0.011232 0.023302 0.021121
v 0.011232 0.023088 0.021328
v 0.011232 0.022854 0.021467
v 0.011232 0.022586 0.021561
v 0.011232 0.022299 0.021606
v 0.011232 0.022006 0.021600
v 0.005741 0.066927 0.015634
v 0.010792 0.066927 0.015634
v 0.010792 0.047178 0.039181
v 0.010792 0.046291 0.025667
v 0.010792 0.047178 0.019513
v 0.010792 0.046258 0.025447
v 0.010792 0.046163 0.025241
v 0.010792 0.062793 0.039181
v 0.010792 0.066927 0.040410
v 0.010792 0.045095 0.036790
v 0.010792 0.044865 0.036705
v 0.010792 0.044668 0.036570
v 0.010792 0.044516 0.036394
v 0.010792 0.044421 0.036189
v 0.010792 0.044389 0.035969
v 0.010792 0.044421 0.035749
v 0.010792 0.044417 0.025887
v 0.010792 0.044512 0.026092
v 0.010792 0.062793 0.019513
v 0.010792 0.063683 0.025667
v 0.010792 0.063716 0.025887
v 0.010792 0.063716 0.035758
v 0.010792 0.063811 0.035553
v 0.010792 0.063811 0.026092
v 0.010792 0.063962 0.035376
v 0.010792 0.063962 0.026268
v 0.010792 0.064160 0.035241
v 0.010792 0.064160 0.026403
v 0.010792 0.064390 0.035156
v 0.010792 0.064390 0.026488
v 0.010792 0.064636 0.035127
v 0.010792 0.064636 0.026517
v 0.010792 0.064883 0.035156
v 0.010792 0.064883 0.026488
v 0.010792 0.065113 0.035241
v 0.010792 0.065113 0.026403
v 0.010792 0.065310 0.035376
v 0.010792 0.065310 0.026268
v 0.010792 0.065462 0.035553
v 0.010792 0.065462 0.026092
v 0.010792 0.065557 0.035758
v 0.010792 0.065557 0.025887
v 0.010792 0.065590 0.025667
v 0.010792 0.065557 0.025447
v 0.010792 0.065462 0.025241
v 0.010792 0.065113 0.024930
v 0.010792 0.064883 0.024845
v 0.010792 0.046263 0.036189
v 0.010792 0.046295 0.035969
v 0.010792 0.046263 0.035749
v 0.010792 0.046258 0.025887
v 0.010792 0.046167 0.035544
v 0.010792 0.046163 0.026092
v 0.010792 0.046016 0.035368
v 0.010792 0.046011 0.026268
v 0.010792 0.045818 0.035232
v 0.010792 0.045814 0.026403
v 0.010792 0.045589 0.035147
v 0.010792 0.045584 0.026488
v 0.010792 0.045342 0.035119
v 0.010792 0.045337 0.026517
v 0.010792 0.045095 0.035147
v 0.010792 0.045091 0.026488
v 0.010792 0.044865 0.035232
v 0.010792 0.044861 0.026403
v 0.010792 0.044668 0.035368
v 0.010792 0.044663 0.026268
v 0.010792 0.044516 0.035544
v 0.010792 0.045342 0.036819
v 0.010792 0.045589 0.036790
v 0.010792 0.045818 0.036705
v 0.010792 0.046016 0.036570
v 0.010792 0.046167 0.036394
v 0.010792 0.065557 0.036198
v 0.010792 0.065590 0.035978
v 0.010792 0.063683 0.035978
v 0.010792 0.063716 0.036198
v 0.010792 0.063811 0.036403
v 0.010792 0.063962 0.036579
v 0.010792 0.064160 0.036714
v 0.010792 0.064390 0.036799
v 0.010792 0.064636 0.036828
v 0.010792 0.064883 0.036799
v 0.010792 0.065113 0.036714
v 0.010792 0.065310 0.036579
v 0.010792 0.065462 0.036403
v 0.010792 0.046011 0.025065
v 0.010792 0.045814 0.024930
v 0.010792 0.045584 0.024845
v 0.010792 0.045337 0.024816
v 0.010792 0.045091 0.024845
v 0.010792 0.044861 0.024930
v 0.010792 0.044663 0.025065
v 0.010792 0.044512 0.025241
v 0.010792 0.044417 0.025447
v 0.010792 0.044384 0.025667
v 0.010792 0.065310 0.025065
v 0.010792 0.064636 0.024816
v 0.010792 0.064390 0.024845
v 0.010792 0.064160 0.024930
v 0.010792 0.063962 0.025065
v 0.010792 0.063811 0.025241
v 0.010792 0.063716 0.025447
v 0.005741 0.066927 0.040410
v 0.005741 0.047178 0.019513
v 0.005741 0.062793 0.019513
v 0.005741 0.065113 0.024930
v 0.005741 0.064883 0.024845
v 0.005741 0.064636 0.024816
v 0.005741 0.064390 0.024845
v 0.005741 0.064160 0.024930
v 0.005741 0.063962 0.025065
v 0.005741 0.063811 0.025241
v 0.005741 0.063716 0.025447
v 0.005741 0.063683 0.025667
v 0.005741 0.062793 0.039181
v 0.005741 0.063716 0.025887
v 0.005741 0.063716 0.035758
v 0.005741 0.063811 0.035553
v 0.005741 0.044384 0.025667
v 0.005741 0.044417 0.025447
v 0.005741 0.044512 0.025241
v 0.005741 0.047178 0.039181
v 0.005741 0.045095 0.036790
v 0.005741 0.044865 0.036705
v 0.005741 0.065590 0.025667
v 0.005741 0.065557 0.025887
v 0.005741 0.065557 0.035758
v 0.005741 0.065462 0.026092
v 0.005741 0.065462 0.035553
v 0.005741 0.065310 0.026268
v 0.005741 0.065310 0.035376
v 0.005741 0.065113 0.026403
v 0.005741 0.065113 0.035241
v 0.005741 0.064883 0.026488
v 0.005741 0.064883 0.035156
v 0.005741 0.064636 0.026517
v 0.005741 0.064636 0.035127
v 0.005741 0.064390 0.026488
v 0.005741 0.064390 0.035156
v 0.005741 0.064160 0.026403
v 0.005741 0.064160 0.035241
v 0.005741 0.063962 0.026268
v 0.005741 0.063962 0.035376
v 0.005741 0.063811 0.026092
v 0.005741 0.046263 0.035749
v 0.005741 0.046295 0.035969
v 0.005741 0.046263 0.036189
v 0.005741 0.046167 0.036394
v 0.005741 0.046016 0.036570
v 0.005741 0.045818 0.036705
v 0.005741 0.045589 0.036790
v 0.005741 0.045342 0.036819
v 0.005741 0.044668 0.036570
v 0.005741 0.044516 0.036394
v 0.005741 0.044421 0.036189
v 0.005741 0.044389 0.035969
v 0.005741 0.044421 0.035749
v 0.005741 0.044417 0.025887
v 0.005741 0.044512 0.026092
v 0.005741 0.044516 0.035544
v 0.005741 0.044663 0.026268
v 0.005741 0.044668 0.035368
v 0.005741 0.044861 0.026403
v 0.005741 0.044865 0.035232
v 0.005741 0.045091 0.026488
v 0.005741 0.045095 0.035147
v 0.005741 0.045337 0.026517
v 0.005741 0.045342 0.035119
v 0.005741 0.045584 0.026488
v 0.005741 0.045589 0.035147
v 0.005741 0.045814 0.026403
v 0.005741 0.045818 0.035232
v 0.005741 0.046011 0.026268
v 0.005741 0.046016 0.035368
v 0.005741 0.046163 0.026092
v 0.005741 0.046167 0.035544
v 0.005741 0.046258 0.025887
v 0.005741 0.065590 0.035978
v 0.005741 0.065557 0.036198
v 0.005741 0.065462 0.036403
v 0.005741 0.065310 0.036579
v 0.005741 0.065113 0.036714
v 0.005741 0.064883 0.036799
v 0.005741 0.064636 0.036828
v 0.005741 0.064390 0.036799
v 0.005741 0.064160 0.036714
v 0.005741 0.063962 0.036579
v 0.005741 0.063811 0.036403
v 0.005741 0.063716 0.036198
v 0.005741 0.063683 0.035978
v 0.005741 0.046291 0.025667
v 0.005741 0.046258 0.025447
v 0.005741 0.046163 0.025241
v 0.005741 0.046011 0.025065
v 0.005741 0.045814 0.024930
v 0.005741 0.045584 0.024845
v 0.005741 0.045337 0.024816
v 0.005741 0.045091 0.024845
v 0.005741 0.044861 0.024930
v 0.005741 0.044663 0.025065
v 0.005741 0.065310 0.025065
v 0.005741 0.065462 0.025241
v 0.005741 0.065557 0.025447
v 0.007477 -0.031586 0.017230
v 0.007477 -0.023130 0.020360
v 0.007477 -0.031586 0.022967
v 0.007477 -0.023170 0.020628
v 0.007477 -0.023130 0.020897
v 0.007477 -0.013215 0.017230
v 0.007477 -0.022008 0.019592
v 0.007477 -0.022309 0.019627
v 0.007477 -0.022589 0.019731
v 0.007477 -0.013215 0.022967
v 0.007477 -0.020886 0.020360
v 0.007477 -0.021002 0.020110
v 0.007477 -0.021187 0.019896
v 0.007477 -0.022008 0.021665
v 0.007477 -0.021707 0.021629
v 0.007477 -0.021427 0.021526
v 0.007477 -0.022829 0.019896
v 0.007477 -0.023014 0.020110
v 0.007477 -0.023014 0.021146
v 0.007477 -0.022829 0.021361
v 0.007477 -0.022589 0.021526
v 0.007477 -0.022309 0.021629
v 0.007477 -0.021187 0.021361
v 0.007477 -0.021002 0.021146
v 0.007477 -0.020886 0.020897
v 0.007477 -0.020847 0.020628
v 0.007477 -0.021427 0.019731
v 0.007477 -0.021707 0.019627
v 0.005335 -0.013215 0.017230
v 0.005335 -0.013215 0.024933
v 0.011374 -0.013215 0.022967
v 0.014888 -0.013215 0.024933
v 0.011374 -0.013215 0.017230
v 0.014888 -0.013215 0.003709
v 0.011232 -0.013215 0.004216
v 0.093724 -0.013215 0.003709
v 0.009727 -0.013215 0.000431
v 0.110194 -0.013215 0.000431
v 0.010099 -0.013215 0.004216
v 0.005335 -0.022008 0.021665
v 0.005335 -0.031586 0.024933
v 0.005335 -0.022309 0.021629
v 0.005335 -0.022589 0.021526
v 0.005335 -0.020886 0.020897
v 0.005335 -0.021002 0.021146
v 0.005335 -0.021187 0.021361
v 0.005335 -0.031586 0.017230
v 0.005335 -0.022008 0.019592
v 0.005335 -0.021707 0.019627
v 0.005335 -0.021427 0.019731
v 0.005335 -0.023130 0.020897
v 0.005335 -0.023170 0.020628
v 0.005335 -0.023130 0.020360
v 0.005335 -0.023014 0.020110
v 0.005335 -0.022829 0.019896
v 0.005335 -0.022589 0.019731
v 0.005335 -0.022309 0.019627
v 0.005335 -0.021187 0.019896
v 0.005335 -0.021002 0.020110
v 0.005335 -0.020886 0.020360
v 0.005335 -0.020847 0.020628
v 0.005335 -0.021427 0.021526
v 0.005335 -0.021707 0.021629
v 0.005335 -0.022829 0.021361
v 0.005335 -0.023014 0.021146
v 0.011374 -0.020886 0.020897
v 0.011374 -0.020847 0.020628
v 0.014888 -0.020886 0.020897
v 0.014888 -0.020847 0.020628
v 0.011374 -0.020886 0.020360
v 0.014888 -0.020886 0.020360
v 0.011374 -0.021002 0.020110
v 0.014888 -0.021002 0.020110
v 0.014888 -0.021187 0.019896
v 0.011374 -0.021187 0.019896
v 0.014888 -0.021427 0.019731
v 0.011374 -0.021427 0.019731
v 0.014888 -0.021707 0.019627
v 0.011374 -0.021707 0.019627
v 0.014888 -0.022008 0.019592
v 0.011374 -0.022008 0.019592
v 0.014888 -0.022309 0.019627
v 0.011374 -0.022309 0.019627
v 0.014888 -0.022589 0.019731
v 0.011374 -0.022589 0.019731
v 0.014888 -0.022829 0.019896
v 0.011374 -0.022829 0.019896
v 0.014888 -0.023014 0.020110
v 0.011374 -0.023014 0.020110
v 0.011374 -0.023130 0.020360
v 0.014888 -0.023130 0.020360
v 0.011374 -0.023170 0.020628
v 0.014888 -0.023170 0.020628
v 0.011374 -0.023130 0.020897
v 0.014888 -0.023130 0.020897
v 0.011374 -0.023014 0.021146
v 0.014888 -0.023014 0.021146
v 0.014888 -0.022829 0.021361
v 0.011374 -0.022829 0.021361
v 0.014888 -0.022589 0.021526
v 0.011374 -0.022589 0.021526
v 0.014888 -0.022309 0.021629
v 0.011374 -0.022309 0.021629
v 0.014888 -0.022008 0.021665
v 0.011374 -0.022008 0.021665
v 0.014888 -0.021707 0.021629
v 0.011374 -0.021707 0.021629
v 0.014888 -0.021427 0.021526
v 0.011374 -0.021427 0.021526
v 0.014888 -0.021187 0.021361
v 0.011374 -0.021187 0.021361
v 0.014888 -0.021002 0.021146
v 0.011374 -0.021002 0.021146
v 0.011374 -0.031586 0.022967
v 0.014888 -0.031586 0.024933
v 0.014888 -0.031586 0.003709
v 0.110194 -0.031586 0.000431
v 0.093724 -0.031586 0.003709
v 0.009727 -0.031586 0.000431
v 0.011232 -0.031586 0.004216
v 0.011374 -0.031586 0.017230
v 0.010099 -0.031586 0.004216
v 0.011232 0.013882 0.004216
v 0.011232 0.032252 0.004216
v 0.010214 0.013882 0.004216
v 0.010214 0.032252 0.004216
v 0.040476 0.018244 0.003709
v 0.040476 0.018244 0.003545
v 0.040476 0.028348 0.003709
v 0.040476 0.028348 0.003545
v 0.043770 0.018244 0.003709
v 0.043770 0.018244 0.003545
v 0.043770 0.028348 0.003709
v 0.043770 0.028348 0.003545
v 0.007592 0.013882 0.017230
v 0.007592 0.021610 0.020211
v 0.007592 0.013882 0.022967
v 0.007592 0.021571 0.020479
v 0.007592 0.021610 0.020748
v 0.007592 0.032252 0.017230
v 0.007592 0.022732 0.019443
v 0.007592 0.022431 0.019478
v 0.007592 0.022151 0.019582
v 0.007592 0.032252 0.022967
v 0.007592 0.023854 0.020211
v 0.007592 0.023738 0.019961
v 0.007592 0.023553 0.019747
v 0.007592 0.022732 0.021516
v 0.007592 0.023033 0.021480
v 0.007592 0.023313 0.021377
v 0.007592 0.021911 0.019747
v 0.007592 0.021726 0.019961
v 0.007592 0.021726 0.020998
v 0.007592 0.021911 0.021212
v 0.007592 0.022151 0.021377
v 0.007592 0.022431 0.021480
v 0.007592 0.023553 0.021212
v 0.007592 0.023738 0.020998
v 0.007592 0.023854 0.020748
v 0.007592 0.023893 0.020479
v 0.007592 0.023313 0.019582
v 0.007592 0.023033 0.019478
v 0.005451 0.032252 0.017230
v 0.005451 0.032252 0.024933
v 0.011490 0.032252 0.022967
v 0.015003 0.032252 0.024933
v 0.011490 0.032252 0.017230
v 0.015003 0.032252 0.003709
v 0.093839 0.032252 0.003709
v 0.009843 0.032252 0.000431
v 0.110309 0.032252 0.000431
v 0.005451 0.022732 0.021516
v 0.005451 0.013882 0.024933
v 0.005451 0.022431 0.021480
v 0.005451 0.022151 0.021377
v 0.005451 0.023854 0.020748
v 0.005451 0.023738 0.020998
v 0.005451 0.023553 0.021212
v 0.005451 0.013882 0.017230
v 0.005451 0.022732 0.019443
v 0.005451 0.023033 0.019478
v 0.005451 0.023313 0.019582
v 0.005451 0.021610 0.020748
v 0.005451 0.021571 0.020479
v 0.005451 0.021610 0.020211
v 0.005451 0.021726 0.019961
v 0.005451 0.021911 0.019747
v 0.005451 0.022151 0.019582
v 0.005451 0.022431 0.019478
v 0.005451 0.023553 0.019747
v 0.005451 0.023738 0.019961
v 0.005451 0.023854 0.020211
v 0.005451 0.023893 0.020479
v 0.005451 0.023313 0.021377
v 0.005451 0.023033 0.021480
v 0.005451 0.021911 0.021212
v 0.005451 0.021726 0.020998
v 0.011490 0.023854 0.020748
v 0.011490 0.023893 0.020479
v 0.015003 0.023854 0.020748
v 0.015003 0.023893 0.020479
v 0.011490 0.023854 0.020211
v 0.015003 0.023854 0.020211
v 0.011490 0.023738 0.019961
v 0.015003 0.023738 0.019961
v 0.015003 0.023553 0.019747
v 0.011490 0.023553 0.019747
v 0.015003 0.023313 0.019582
v 0.011490 0.023313 0.019582
v 0.015003 0.023033 0.019478
v 0.011490 0.023033 0.019478
v 0.015003 0.022732 0.019443
v 0.011490 0.022732 0.019443
v 0.015003 0.022431 0.019478
v 0.011490 0.022431 0.019478
v 0.015003 0.022151 0.019582
v 0.011490 0.022151 0.019582
v 0.015003 0.021911 0.019747
v 0.011490 0.021911 0.019747
v 0.015003 0.021726 0.019961
v 0.011490 0.021726 0.019961
v 0.011490 0.021610 0.020211
v 0.015003 0.021610 0.020211
v 0.011490 0.021571 0.020479
v 0.015003 0.021571 0.020479
v 0.011490 0.021610 0.020748
v 0.015003 0.021610 0.020748
v 0.011490 0.021726 0.020998
v 0.015003 0.021726 0.020998
v 0.015003 0.021911 0.021212
v 0.011490 0.021911 0.021212
v 0.015003 0.022151 0.021377
v 0.011490 0.022151 0.021377
v 0.015003 0.022431 0.021480
v 0.011490 0.022431 0.021480
v 0.015003 0.022732 0.021516
v 0.011490 0.022732 0.021516
v 0.015003 0.023033 0.021480
v 0.011490 0.023033 0.021480
v 0.015003 0.023313 0.021377
v 0.011490 0.023313 0.021377
v 0.015003 0.023553 0.021212
v 0.011490 0.023553 0.021212
v 0.015003 0.023738 0.020998
v 0.011490 0.023738 0.020998
v 0.011490 0.013882 0.022967
v 0.015003 0.013882 0.024933
v 0.015003 0.013882 0.003709
v 0.110309 0.013882 0.000431
v 0.093839 0.013882 0.003709
v 0.009843 0.013882 0.000431
v 0.011490 0.013882 0.017230
vn -0.0000 -0.0000 1.0000
vn -0.0000 1.0000 -0.0000
vn -0.0000 -1.0000 -0.0000
vn -0.0000 -0.0000 -1.0000
vn -0.0000 0.9893 0.1460
vn -0.0000 0.9893 -0.1460
vn -0.0000 0.9070 -0.4211
vn -0.0000 0.7582 -0.6521
vn -0.0000 0.5649 -0.8252
vn -0.0000 0.3466 -0.9380
vn -0.0000 0.1167 -0.9932
vn -0.0000 -0.1167 -0.9932
vn -0.0000 -0.3466 -0.9380
vn -0.0000 -0.5649 -0.8252
vn -0.0000 -0.7582 -0.6521
vn -0.0000 -0.9070 -0.4211
vn -0.0000 -0.9893 -0.1460
vn -0.0000 -0.9893 0.1460
vn -0.0000 -0.9070 0.4211
vn -0.0000 -0.7581 0.6521
vn -0.0000 -0.5649 0.8251
vn -0.0000 -0.3466 0.9380
vn -0.0000 -0.1166 0.9932
vn -0.0000 0.1166 0.9932
vn -0.0000 0.3466 0.9380
vn -0.0000 0.5649 0.8252
vn -0.0000 0.7582 0.6521
vn -0.0000 0.9070 0.4211
vn -0.0000 0.1166 -0.9932
vn -0.0000 -0.1166 -0.9932
vn -0.0000 0.5649 0.8251
vn -0.0000 0.7581 0.6521
vn -0.0000 -0.7582 0.6521
vn -0.0000 -0.5649 0.8252
vn -0.0000 -0.1167 0.9932
vn -0.0000 0.1167 0.9932
vn -0.0000 0.9070 0.4212
vn -0.0000 -0.7581 -0.6521
vn -0.0000 -0.3467 0.9380
vn -0.0000 0.3467 0.9380
vn -0.0066 -0.0000 1.0000
vn -0.0000 0.6197 0.7849
vn -1.0000 -0.0000 -0.0000
vn 0.6870 0.7267 -0.0000
vn 1.0000 -0.0000 -0.0000
vn -0.0000 0.6197 -0.7849
vn -0.0000 -0.6197 -0.7849
vn -0.0000 -0.6197 0.7849
vn 0.6870 -0.7267 -0.0000
vn -0.6870 0.7267 -0.0000
vn -0.6870 -0.7267 -0.0000
vn -0.0000 -0.9994 0.0339
vn 0.0006 -1.0000 -0.0000
vn -0.0000 -0.9994 -0.0339
vn -0.0000 -0.9910 -0.1342
vn -0.0000 -0.9645 -0.2641
vn -0.0000 -0.9223 -0.3865
vn -0.0000 -0.8670 -0.4984
vn -0.0000 -0.8015 -0.5980
vn -0.0000 -0.7282 -0.6854
vn -0.0000 -0.6500 -0.7599
vn -0.0000 -0.5684 -0.8227
vn -0.0000 -0.4849 -0.8746
vn -0.0000 -0.4007 -0.9162
vn -0.0000 -0.3162 -0.9487
vn -0.0000 -0.2316 -0.9728
vn -0.0000 -0.1472 -0.9891
vn -0.0000 -0.0631 -0.9980
vn -0.0000 0.0210 -0.9998
vn -0.0000 0.1051 -0.9945
vn -0.0000 0.1894 -0.9819
vn -0.0000 0.2738 -0.9618
vn -0.0000 0.3584 -0.9336
vn -0.0000 0.4429 -0.8966
vn -0.0000 0.5268 -0.8500
vn -0.0000 0.6095 -0.7928
vn -0.0000 0.6896 -0.7242
vn -0.0000 0.7656 -0.6433
vn -0.0000 0.8354 -0.5497
vn -0.0000 0.8961 -0.4439
vn -0.0000 0.9452 -0.3265
vn -0.0000 0.9798 -0.1999
vn -0.0000 0.9977 -0.0674
vn -0.0000 0.9977 0.0674
vn -0.0000 0.9798 0.1999
vn -0.0000 0.9452 0.3265
vn -0.0000 0.8961 0.4438
vn -0.0000 0.8961 0.4439
vn -0.0000 0.8354 0.5497
vn -0.0000 0.7656 0.6433
vn -0.0000 0.6896 0.7242
vn -0.0000 0.6096 0.7927
vn -0.0000 0.5268 0.8500
vn -0.0000 0.4429 0.8966
vn -0.0000 0.3584 0.9336
vn -0.0000 0.2739 0.9618
vn -0.0000 0.1894 0.9819
vn -0.0000 0.1052 0.9945
vn -0.0000 0.0210 0.9998
vn -0.0000 -0.0631 0.9980
vn -0.0000 -0.1472 0.9891
vn -0.0000 -0.2315 0.9728
vn -0.0000 -0.3162 0.9487
vn -0.0000 -0.4007 0.9162
vn -0.0000 -0.4850 0.8745
vn -0.0000 -0.5684 0.8228
vn -0.0000 -0.6500 0.7599
vn -0.0000 -0.7282 0.6854
vn -0.0000 -0.8015 0.5980
vn -0.0000 -0.8670 0.4984
vn -0.0000 -0.9223 0.3865
vn -0.0000 -0.9645 0.2641
vn -0.0000 -0.9645 0.2642
vn -0.0000 -0.9910 0.1341
vn -0.0000 0.8855 -0.4646
vn -0.0000 0.7171 -0.6969
vn -0.0000 0.5181 -0.8553
vn -0.0000 0.3108 -0.9505
vn -0.0000 0.1034 -0.9946
vn -0.0000 -0.1034 -0.9946
vn -0.0000 -0.3108 -0.9505
vn -0.0000 -0.5182 -0.8553
vn -0.0000 -0.7171 -0.6970
vn -0.0000 -0.8855 -0.4646
vn -0.0000 -0.9864 -0.1644
vn -0.0000 -0.9864 -0.1645
vn -0.0000 -0.9864 0.1645
vn -0.0000 -0.9864 0.1644
vn -0.0000 -0.8855 0.4646
vn -0.0000 -0.7171 0.6970
vn -0.0000 -0.5182 0.8553
vn -0.0000 -0.3108 0.9505
vn -0.0000 -0.1034 0.9946
vn -0.0000 0.1034 0.9946
vn -0.0000 0.3108 0.9505
vn -0.0000 0.5181 0.8553
vn -0.0000 0.7171 0.6969
vn -0.0000 0.8855 0.4646
vn -0.0000 0.9864 0.1645
vn -0.0000 0.9864 -0.1645
vn -0.0004 0.3897 -0.9210
vn 0.0004 0.5877 -0.8091
vn -0.0002 0.5927 -0.8054
vn 0.0002 0.7793 -0.6266
vn -0.0001 0.7815 -0.6239
vn 0.0001 0.9292 -0.3696
vn 0.0001 0.9293 -0.3694
vn -0.0001 0.9983 -0.0581
vn 0.0003 0.9985 -0.0542
vn -0.0002 0.9647 0.2634
vn 0.0004 0.9627 0.2707
vn -0.0004 0.8407 0.5416
vn 0.0006 0.8349 0.5504
vn -0.0005 0.6625 0.7491
vn 0.0007 0.6531 0.7573
vn -0.0006 0.4625 0.8866
vn 0.0008 0.4500 0.8930
vn -0.0007 0.2576 0.9663
vn 0.0008 0.2426 0.9701
vn -0.0008 0.0532 0.9986
vn 0.0009 0.0358 0.9994
vn -0.0009 -0.1508 0.9886
vn 0.0011 -0.1707 0.9853
vn -0.0011 -0.3556 0.9346
vn 0.0012 -0.3782 0.9257
vn -0.0013 -0.5594 0.8289
vn 0.0014 -0.5839 0.8118
vn -0.0015 -0.7521 0.6591
vn 0.0016 -0.7760 0.6307
vn -0.0017 -0.9091 0.4165
vn 0.0018 -0.9270 0.3751
vn -0.0018 -0.9937 0.1121
vn 0.0020 -0.9982 0.0604
vn -0.0019 -0.9773 -0.2117
vn 0.0021 -0.9643 -0.2649
vn -0.0020 -0.8661 -0.4999
vn 0.0021 -0.8379 -0.5458
vn -0.0020 -0.6943 -0.7197
vn 0.0021 -0.6568 -0.7541
vn -0.0016 -0.5099 -0.8603
vn 0.0027 -0.4539 -0.8910
vn -0.0021 -0.3327 -0.9430
vn 0.0029 -0.2465 -0.9691
vn -0.0021 -0.1553 -0.9879
vn 0.0013 -0.0728 -0.9973
vn -0.0019 0.0215 -0.9998
vn 0.0008 0.0674 -0.9977
vn -0.0011 0.1984 -0.9801
vn -0.0004 0.2078 -0.9782
vn 0.0005 0.3820 -0.9241
vn 1.0000 0.0001 -0.0000
vn -1.0000 0.0001 -0.0000
vn -0.0000 0.7581 -0.6521
vn -0.0000 0.5649 -0.8251
vn -0.0000 -0.9893 -0.1459
vn -0.0000 -0.9893 0.1459
vn 0.1952 -0.0000 0.9808
vn -0.9952 -0.0000 0.0976
vn 1.0000 -0.0001 -0.0000
s 0
f 1//1 2//1 3//1
f 3//1 2//1 4//1
f 5//2 6//2 7//2
f 7//2 6//2 8//2
f 9//1 5//1 10//1
f 10//1 5//1 7//1
f 11//3 9//3 12//3
f 12//3 9//3 10//3
f 6//4 11//4 8//4
f 8//4 11//4 12//4
f 13//5 14//5 15//5
f 15//5 14//5 16//5
f 15//6 16//6 17//6
f 17//6 16//6 18//6
f 17//7 18//7 19//7
f 19//7 18//7 20//7
f 19//8 20//8 21//8
f 21//8 20//8 22//8
f 21//9 22//9 23//9
f 23//9 22//9 24//9
f 23//10 24//10 25//10
f 25//10 24//10 26//10
f 25//11 26//11 27//11
f 27//11 26//11 28//11
f 27//12 28//12 29//12
f 29//12 28//12 30//12
f 29//13 30//13 31//13
f 31//13 30//13 32//13
f 31//14 32//14 33//14
f 33//14 32//14 34//14
f 33//15 34//15 35//15
f 35//15 34//15 36//15
f 35//16 36//16 37//16
f 37//16 36//16 38//16
f 37//17 38//17 39//17
f 39//17 38//17 40//17
f 39//18 40//18 41//18
f 41//18 40//18 42//18
f 41//19 42//19 43//19
f 43//19 42//19 44//19
f 43//20 44//20 45//20
f 45//20 44//20 46//20
f 45//21 46//21 47//21
f 47//21 46//21 48//21
f 47//22 48//22 49//22
f 49//22 48//22 50//22
f 49//23 50//23 51//23
f 51//23 50//23 52//23
f 51//24 52//24 53//24
f 53//24 52//24 54//24
f 53//25 54//25 55//25
f 55//25 54//25 56//25
f 55//26 56//26 57//26
f 57//26 56//26 58//26
f 57//27 58//27 59//27
f 59//27 58//27 60//27
f 59//28 60//28 13//28
f 13//28 60//28 14//28
f 61//5 62//5 63//5
f 63//5 62//5 64//5
f 63//6 64//6 65//6
f 65//6 64//6 66//6
f 65//7 66//7 67//7
f 67//7 66//7 68//7
f 67//8 68//8 69//8
f 69//8 68//8 70//8
f 69//9 70//9 71//9
f 71//9 70//9 72//9
f 71//10 72//10 73//10
f 73//10 72//10 74//10
f 73//29 74//29 75//29
f 75//29 74//29 76//29
f 75//30 76//30 77//30
f 77//30 76//30 78//30
f 77//13 78//13 79//13
f 79//13 78//13 80//13
f 79//14 80//14 81//14
f 81//14 80//14 82//14
f 81//15 82//15 83//15
f 83//15 82//15 84//15
f 83//16 84//16 85//16
f 85//16 84//16 86//16
f 85//17 86//17 87//17
f 87//17 86//17 88//17
f 87//18 88//18 89//18
f 89//18 88//18 90//18
f 89//19 90//19 91//19
f 91//19 90//19 92//19
f 91//20 92//20 93//20
f 93//20 92//20 94//20
f 93//21 94//21 95//21
f 95//21 94//21 96//21
f 95//22 96//22 97//22
f 97//22 96//22 98//22
f 97//23 98//23 99//23
f 99//23 98//23 100//23
f 99//24 100//24 101//24
f 101//24 100//24 102//24
f 101//25 102//25 103//25
f 103//25 102//25 104//25
f 103//31 104//31 105//31
f 105//31 104//31 106//31
f 105//32 106//32 107//32
f 107//32 106//32 108//32
f 107//28 108//28 61//28
f 61//28 108//28 62//28
f 109//5 110//5 111//5
f 111//5 110//5 112//5
f 111//6 112//6 113//6
f 113//6 112//6 114//6
f 113//7 114//7 115//7
f 115//7 114//7 116//7
f 115//8 116//8 117//8
f 117//8 116//8 118//8
f 117//9 118//9 119//9
f 119//9 118//9 120//9
f 119//10 120//10 121//10
f 121//10 120//10 122//10
f 121//11 122//11 123//11
f 123//11 122//11 124//11
f 123//12 124//12 125//12
f 125//12 124//12 126//12
f 125//13 126//13 127//13
f 127//13 126//13 128//13
f 127//14 128//14 129//14
f 129//14 128//14 130//14
f 129//15 130//15 131//15
f 131//15 130//15 132//15
f 131//16 132//16 133//16
f 133//16 132//16 134//16
f 133//17 134//17 135//17
f 135//17 134//17 136//17
f 135//18 136//18 137//18
f 137//18 136//18 138//18
f 137//19 138//19 139//19
f 139//19 138//19 140//19
f 139//33 140//33 141//33
f 141//33 140//33 142//33
f 141//34 142//34 143//34
f 143//34 142//34 144//34
f 143//22 144//22 145//22
f 145//22 144//22 146//22
f 145//35 146//35 147//35
f 147//35 146//35 148//35
f 147//36 148//36 149//36
f 149//36 148//36 150//36
f 149//25 150//25 151//25
f 151//25 150//25 152//25
f 151//26 152//26 153//26
f 153//26 152//26 154//26
f 153//27 154//27 155//27
f 155//27 154//27 156//27
f 155//37 156//37 109//37
f 109//37 156//37 110//37
f 157//5 158//5 159//5
f 159//5 158//5 160//5
f 159//6 160//6 161//6
f 161//6 160//6 162//6
f 161//7 162//7 163//7
f 163//7 162//7 164//7
f 163//8 164//8 165//8
f 165//8 164//8 166//8
f 165//9 166//9 167//9
f 167//9 166//9 168//9
f 167//10 168//10 169//10
f 169//10 168//10 170//10
f 169//29 170//29 171//29
f 171//29 170//29 172//29
f 171//30 172//30 173//30
f 173//30 172//30 174//30
f 173//13 174//13 175//13
f 175//13 174//13 176//13
f 175//14 176//14 177//14
f 177//14 176//14 178//14
f 177//38 178//38 179//38
f 179//15 178//15 180//15
f 179//16 180//16 181//16
f 181//16 180//16 182//16
f 181//17 182//17 183//17
f 183//17 182//17 184//17
f 183//18 184//18 185//18
f 185//18 184//18 186//18
f 185//19 186//19 187//19
f 187//19 186//19 188//19
f 187//20 188//20 189//20
f 189//20 188//20 190//20
f 189//34 190//34 191//34
f 191//34 190//34 192//34
f 191//39 192//39 193//39
f 193//39 192//39 194//39
f 193//23 194//23 195//23
f 195//23 194//23 196//23
f 195//24 196//24 197//24
f 197//24 196//24 198//24
f 197//40 198//40 199//40
f 199//40 198//40 200//40
f 199//26 200//26 201//26
f 201//26 200//26 202//26
f 201//27 202//27 203//27
f 203//32 202//32 204//32
f 203//28 204//28 157//28
f 157//28 204//28 158//28
f 205//4 206//4 207//4
f 207//4 206//4 208//4
f 209//2 207//2 4//2
f 4//2 207//2 3//2
f 3//2 207//2 208//2
f 207//1 209//1 210//1
f 210//1 209//1 211//1
f 210//1 211//1 212//1
f 209//1 213//1 211//1
f 211//41 213//41 214//41
f 214//1 213//1 215//1
f 214//1 215//1 216//1
f 216//1 215//1 217//1
f 216//1 217//1 218//1
f 213//1 205//1 215//1
f 217//1 215//1 219//1
f 219//1 215//1 220//1
f 219//1 220//1 221//1
f 221//1 220//1 222//1
f 221//1 223//1 219//1
f 212//1 224//1 210//1
f 210//1 224//1 225//1
f 210//1 225//1 226//1
f 226//1 225//1 227//1
f 226//1 227//1 228//1
f 225//1 229//1 227//1
f 230//2 231//2 232//2
f 232//2 231//2 233//2
f 232//2 233//2 234//2
f 234//2 233//2 235//2
f 234//2 235//2 236//2
f 236//2 235//2 237//2
f 237//2 235//2 230//2
f 237//2 230//2 232//2
f 235//42 233//42 211//42
f 211//42 233//42 212//42
f 238//43 239//43 240//43
f 240//43 239//43 222//43
f 240//43 222//43 220//43
f 220//43 241//43 240//43
f 241//2 220//2 242//2
f 242//2 220//2 215//2
f 242//2 215//2 243//2
f 243//2 244//2 242//2
f 210//43 245//43 207//43
f 207//43 245//43 205//43
f 205//43 245//43 243//43
f 205//43 243//43 215//43
f 246//3 245//3 247//3
f 247//3 245//3 210//3
f 247//3 210//3 226//3
f 226//3 248//3 247//3
f 248//43 226//43 249//43
f 249//43 226//43 228//43
f 249//43 228//43 250//43
f 250//43 251//43 249//43
f 227//2 252//2 228//2
f 228//2 252//2 250//2
f 229//44 253//44 227//44
f 227//44 253//44 252//44
f 225//45 254//45 229//45
f 229//45 254//45 253//45
f 253//45 254//45 255//45
f 255//45 254//45 256//45
f 224//2 257//2 225//2
f 225//2 257//2 254//2
f 254//2 257//2 258//2
f 254//2 258//2 259//2
f 260//2 261//2 257//2
f 257//2 261//2 258//2
f 231//43 262//43 233//43
f 233//43 262//43 263//43
f 233//43 263//43 264//43
f 265//43 266//43 231//43
f 231//43 266//43 262//43
f 259//43 267//43 262//43
f 262//43 267//43 268//43
f 262//43 268//43 263//43
f 259//43 258//43 267//43
f 267//43 269//43 268//43
f 268//43 269//43 270//43
f 270//43 269//43 212//43
f 270//43 212//43 264//43
f 264//43 212//43 233//43
f 257//43 224//43 269//43
f 269//43 224//43 212//43
f 271//2 272//2 273//2
f 273//2 272//2 274//2
f 275//3 276//3 263//3
f 263//3 276//3 264//3
f 277//2 278//2 279//2
f 279//2 278//2 280//2
f 279//2 280//2 281//2
f 279//2 281//2 282//2
f 282//2 281//2 283//2
f 282//2 283//2 284//2
f 266//3 285//3 262//3
f 262//3 285//3 286//3
f 262//3 286//3 287//3
f 287//3 286//3 288//3
f 266//3 289//3 285//3
f 285//3 289//3 290//3
f 222//3 239//3 221//3
f 221//3 239//3 291//3
f 219//45 223//45 292//45
f 292//45 223//45 293//45
f 292//45 293//45 294//45
f 294//45 295//45 292//45
f 296//3 297//3 298//3
f 298//3 297//3 299//3
f 298//3 299//3 292//3
f 292//3 299//3 219//3
f 219//3 299//3 217//3
f 292//3 300//3 298//3
f 246//4 259//4 245//4
f 245//4 259//4 262//4
f 245//4 262//4 287//4
f 246//4 256//4 259//4
f 259//4 256//4 254//4
f 287//4 283//4 245//4
f 245//4 283//4 243//4
f 243//4 283//4 281//4
f 243//4 281//4 300//4
f 292//4 295//4 300//4
f 300//4 295//4 244//4
f 300//4 244//4 243//4
f 301//4 302//4 303//4
f 303//4 302//4 260//4
f 303//4 260//4 257//4
f 257//4 269//4 303//4
f 267//1 258//1 304//1
f 304//1 258//1 261//1
f 304//1 261//1 275//1
f 304//1 275//1 305//1
f 305//1 275//1 263//1
f 305//1 263//1 268//1
f 306//4 307//4 308//4
f 308//4 307//4 309//4
f 308//4 309//4 310//4
f 307//4 306//4 311//4
f 311//4 306//4 312//4
f 311//4 312//4 313//4
f 307//4 311//4 314//4
f 314//4 311//4 315//4
f 314//4 315//4 316//4
f 316//4 315//4 317//4
f 318//1 319//1 320//1
f 320//1 319//1 321//1
f 321//1 319//1 322//1
f 321//1 322//1 323//1
f 319//1 324//1 322//1
f 322//1 324//1 325//1
f 325//1 324//1 326//1
f 321//1 323//1 327//1
f 327//1 323//1 328//1
f 327//1 328//1 329//1
f 326//45 310//45 325//45
f 325//45 310//45 309//45
f 330//4 299//4 331//4
f 331//4 299//4 297//4
f 331//4 297//4 332//4
f 332//4 333//4 331//4
f 296//1 334//1 272//1
f 272//1 334//1 335//1
f 272//1 335//1 274//1
f 274//1 335//1 336//1
f 296//1 298//1 334//1
f 334//1 298//1 337//1
f 328//45 316//45 329//45
f 329//45 316//45 317//45
f 312//45 318//45 313//45
f 313//45 318//45 320//45
f 338//46 333//46 273//46
f 273//46 333//46 271//46
f 271//46 333//46 332//46
f 302//47 301//47 276//47
f 276//47 301//47 264//47
f 264//47 301//47 270//47
f 214//48 216//48 339//48
f 216//48 340//48 339//48
f 218//48 340//48 216//48
f 339//48 340//48 341//48
f 342//3 341//3 343//3
f 343//3 341//3 340//3
f 331//2 334//2 330//2
f 330//2 334//2 337//2
f 335//3 333//3 336//3
f 336//3 333//3 338//3
f 334//45 331//45 335//45
f 335//45 331//45 333//45
f 301//2 305//2 270//2
f 270//2 305//2 268//2
f 304//3 303//3 267//3
f 267//3 303//3 269//3
f 305//45 301//45 304//45
f 304//45 301//45 303//45
f 310//3 326//3 308//3
f 308//3 326//3 324//3
f 318//2 312//2 319//2
f 319//2 312//2 306//2
f 308//45 324//45 306//45
f 306//45 324//45 319//45
f 329//2 317//2 327//2
f 327//2 317//2 315//2
f 313//3 320//3 311//3
f 311//3 320//3 321//3
f 327//45 315//45 321//45
f 321//45 315//45 311//45
f 274//43 340//43 273//43
f 273//43 340//43 218//43
f 273//43 218//43 338//43
f 338//43 218//43 330//43
f 338//43 330//43 337//43
f 340//43 274//43 281//43
f 281//43 274//43 336//43
f 281//43 336//43 337//43
f 337//43 336//43 338//43
f 218//43 217//43 330//43
f 330//43 217//43 299//43
f 298//43 300//43 337//43
f 337//43 300//43 281//43
f 340//43 281//43 343//43
f 343//43 281//43 280//43
f 343//43 280//43 344//43
f 307//2 322//2 309//2
f 309//2 322//2 325//2
f 323//3 314//3 328//3
f 328//3 314//3 316//3
f 345//4 346//4 347//4
f 347//4 346//4 348//4
f 347//4 348//4 349//4
f 349//4 348//4 350//4
f 350//4 348//4 351//4
f 350//4 351//4 342//4
f 342//4 351//4 352//4
f 342//4 343//4 350//4
f 350//4 343//4 344//4
f 265//4 231//4 349//4
f 349//4 231//4 230//4
f 349//4 230//4 353//4
f 353//4 230//4 354//4
f 353//4 347//4 349//4
f 288//1 286//1 284//1
f 284//1 286//1 282//1
f 277//4 279//4 290//4
f 290//4 279//4 285//4
f 242//43 244//43 355//43
f 355//43 244//43 295//43
f 246//43 247//43 256//43
f 256//43 247//43 356//43
f 221//49 291//49 223//49
f 223//49 291//49 293//49
f 247//4 248//4 356//4
f 356//4 248//4 249//4
f 241//4 242//4 240//4
f 240//4 242//4 355//4
f 357//43 349//43 358//43
f 358//43 349//43 350//43
f 358//50 350//50 280//50
f 280//50 350//50 344//50
f 349//51 357//51 265//51
f 265//51 357//51 266//51
f 359//52 360//52 361//52
f 359//53 361//53 362//53
f 362//54 361//54 363//54
f 363//55 364//55 362//55
f 362//55 364//55 365//55
f 364//56 366//56 365//56
f 365//56 366//56 367//56
f 366//57 368//57 367//57
f 367//57 368//57 369//57
f 368//58 370//58 369//58
f 369//58 370//58 371//58
f 372//59 373//59 370//59
f 370//59 373//59 371//59
f 374//60 375//60 372//60
f 372//60 375//60 373//60
f 376//61 377//61 374//61
f 374//61 377//61 375//61
f 378//62 379//62 376//62
f 376//62 379//62 377//62
f 380//63 381//63 378//63
f 378//63 381//63 379//63
f 382//64 383//64 380//64
f 380//64 383//64 381//64
f 384//65 385//65 382//65
f 382//65 385//65 383//65
f 386//66 387//66 384//66
f 384//66 387//66 385//66
f 388//67 389//67 386//67
f 386//67 389//67 387//67
f 390//68 391//68 388//68
f 388//68 391//68 389//68
f 392//69 393//69 390//69
f 390//69 393//69 391//69
f 394//70 395//70 392//70
f 392//70 395//70 393//70
f 396//71 397//71 394//71
f 394//71 397//71 395//71
f 398//72 399//72 396//72
f 396//72 399//72 397//72
f 400//73 401//73 398//73
f 398//73 401//73 399//73
f 402//74 403//74 400//74
f 400//74 403//74 401//74
f 404//75 405//75 402//75
f 402//75 405//75 403//75
f 406//76 407//76 404//76
f 404//76 407//76 405//76
f 408//77 409//77 406//77
f 406//77 409//77 407//77
f 410//78 411//78 408//78
f 408//78 411//78 409//78
f 412//79 413//79 410//79
f 410//79 413//79 411//79
f 412//80 414//80 413//80
f 413//80 414//80 415//80
f 414//81 416//81 415//81
f 415//81 416//81 417//81
f 416//82 418//82 417//82
f 417//82 418//82 419//82
f 418//83 420//83 419//83
f 419//83 420//83 421//83
f 420//84 422//84 421//84
f 421//84 422//84 423//84
f 422//85 424//85 423//85
f 423//85 424//85 425//85
f 424//86 426//86 425//86
f 425//86 426//86 427//86
f 426//87 428//87 427//87
f 427//88 428//88 429//88
f 430//89 431//89 428//89
f 428//89 431//89 429//89
f 432//90 433//90 430//90
f 430//90 433//90 431//90
f 434//91 435//91 432//91
f 432//91 435//91 433//91
f 436//92 437//92 434//92
f 434//92 437//92 435//92
f 438//93 439//93 436//93
f 436//93 439//93 437//93
f 440//94 441//94 438//94
f 438//94 441//94 439//94
f 442//95 443//95 440//95
f 440//95 443//95 441//95
f 444//96 445//96 442//96
f 442//96 445//96 443//96
f 446//97 447//97 444//97
f 444//97 447//97 445//97
f 448//98 449//98 446//98
f 446//98 449//98 447//98
f 450//99 451//99 448//99
f 448//99 451//99 449//99
f 452//100 453//100 450//100
f 450//100 453//100 451//100
f 454//101 455//101 452//101
f 452//101 455//101 453//101
f 456//102 457//102 454//102
f 454//102 457//102 455//102
f 458//103 459//103 456//103
f 456//103 459//103 457//103
f 460//104 461//104 458//104
f 458//104 461//104 459//104
f 462//105 463//105 460//105
f 460//105 463//105 461//105
f 464//106 465//106 462//106
f 462//106 465//106 463//106
f 466//107 467//107 464//107
f 464//107 467//107 465//107
f 468//108 469//108 466//108
f 466//108 469//108 467//108
f 470//109 471//109 468//109
f 468//109 471//109 469//109
f 470//110 472//110 471//110
f 471//110 472//110 473//110
f 472//111 474//111 473//111
f 473//111 474//111 475//111
f 474//112 476//112 475//112
f 475//113 476//113 477//113
f 476//114 360//114 477//114
f 477//114 360//114 359//114
f 355//2 295//2 240//2
f 240//2 295//2 238//2
f 238//2 295//2 294//2
f 255//3 256//3 251//3
f 251//3 256//3 249//3
f 249//3 256//3 356//3
f 250//4 252//4 251//4
f 251//4 252//4 253//4
f 251//4 253//4 255//4
f 294//4 293//4 238//4
f 238//4 293//4 291//4
f 238//4 291//4 239//4
f 478//115 479//115 480//115
f 480//115 479//115 481//115
f 482//116 483//116 480//116
f 480//116 483//116 478//116
f 484//117 485//117 482//117
f 482//117 485//117 483//117
f 486//118 487//118 484//118
f 484//118 487//118 485//118
f 488//119 489//119 486//119
f 486//119 489//119 487//119
f 490//120 491//120 488//120
f 488//120 491//120 489//120
f 492//121 493//121 490//121
f 490//121 493//121 491//121
f 494//122 495//122 492//122
f 492//122 495//122 493//122
f 496//123 497//123 494//123
f 494//123 497//123 495//123
f 498//124 497//124 499//124
f 499//124 497//124 496//124
f 500//125 498//125 501//125
f 501//126 498//126 499//126
f 502//127 500//127 503//127
f 503//128 500//128 501//128
f 504//129 502//129 505//129
f 505//129 502//129 503//129
f 506//130 507//130 505//130
f 505//130 507//130 504//130
f 508//131 509//131 506//131
f 506//131 509//131 507//131
f 510//132 511//132 508//132
f 508//132 511//132 509//132
f 512//133 513//133 510//133
f 510//133 513//133 511//133
f 514//134 515//134 512//134
f 512//134 515//134 513//134
f 516//135 517//135 514//135
f 514//135 517//135 515//135
f 518//136 519//136 516//136
f 516//136 519//136 517//136
f 520//137 521//137 518//137
f 518//137 521//137 519//137
f 522//138 521//138 523//138
f 523//138 521//138 520//138
f 524//139 522//139 525//139
f 525//139 522//139 523//139
f 479//140 524//140 481//140
f 481//140 524//140 525//140
f 526//43 477//43 527//43
f 527//43 477//43 359//43
f 527//43 359//43 362//43
f 528//43 473//43 526//43
f 526//43 473//43 475//43
f 526//43 475//43 477//43
f 529//43 469//43 528//43
f 528//43 469//43 471//43
f 528//43 471//43 473//43
f 530//43 465//43 529//43
f 529//43 465//43 467//43
f 529//43 467//43 469//43
f 531//43 453//43 530//43
f 530//43 453//43 455//43
f 530//43 455//43 457//43
f 532//43 285//43 531//43
f 531//43 285//43 451//43
f 531//43 451//43 453//43
f 532//43 533//43 285//43
f 285//43 533//43 534//43
f 285//43 534//43 535//43
f 535//43 536//43 285//43
f 285//43 536//43 286//43
f 286//43 536//43 537//43
f 286//43 537//43 538//43
f 538//43 539//43 286//43
f 286//43 539//43 540//43
f 286//43 540//43 541//43
f 541//43 542//43 286//43
f 286//43 542//43 543//43
f 286//43 543//43 282//43
f 282//43 543//43 391//43
f 282//43 391//43 488//43
f 488//43 391//43 393//43
f 488//43 393//43 490//43
f 490//43 393//43 395//43
f 490//43 395//43 492//43
f 492//43 395//43 397//43
f 492//43 397//43 494//43
f 494//43 397//43 399//43
f 494//43 399//43 401//43
f 543//43 544//43 391//43
f 391//43 544//43 545//43
f 391//43 545//43 389//43
f 389//43 545//43 546//43
f 389//43 546//43 387//43
f 387//43 546//43 547//43
f 387//43 547//43 385//43
f 385//43 547//43 383//43
f 383//43 547//43 548//43
f 383//43 548//43 381//43
f 381//43 548//43 379//43
f 379//43 548//43 377//43
f 377//43 548//43 375//43
f 375//43 548//43 549//43
f 375//43 549//43 373//43
f 373//43 549//43 371//43
f 371//43 549//43 369//43
f 369//43 549//43 550//43
f 369//43 550//43 367//43
f 367//43 550//43 365//43
f 365//43 550//43 527//43
f 365//43 527//43 362//43
f 488//43 486//43 282//43
f 282//43 486//43 484//43
f 282//43 484//43 482//43
f 482//43 480//43 282//43
f 282//43 480//43 481//43
f 282//43 481//43 525//43
f 525//43 523//43 282//43
f 282//43 523//43 279//43
f 279//43 523//43 520//43
f 279//43 520//43 518//43
f 518//43 516//43 279//43
f 279//43 516//43 514//43
f 279//43 514//43 512//43
f 510//43 445//43 512//43
f 512//43 445//43 447//43
f 512//43 447//43 449//43
f 508//43 439//43 510//43
f 510//43 439//43 441//43
f 510//43 441//43 443//43
f 506//43 433//43 508//43
f 508//43 433//43 435//43
f 508//43 435//43 437//43
f 505//43 429//43 506//43
f 506//43 429//43 431//43
f 506//43 431//43 433//43
f 503//43 425//43 505//43
f 505//43 425//43 427//43
f 505//43 427//43 429//43
f 501//43 419//43 503//43
f 503//43 419//43 421//43
f 503//43 421//43 423//43
f 499//43 415//43 501//43
f 501//43 415//43 417//43
f 501//43 417//43 419//43
f 496//43 409//43 499//43
f 499//43 409//43 411//43
f 499//43 411//43 413//43
f 494//43 403//43 496//43
f 496//43 403//43 405//43
f 496//43 405//43 407//43
f 285//43 279//43 451//43
f 451//43 279//43 449//43
f 449//43 279//43 512//43
f 401//43 403//43 494//43
f 407//43 409//43 496//43
f 413//43 415//43 499//43
f 423//43 425//43 503//43
f 437//43 439//43 508//43
f 443//43 445//43 510//43
f 457//43 459//43 530//43
f 530//43 459//43 461//43
f 530//43 461//43 463//43
f 463//43 465//43 530//43
f 551//141 546//141 552//141
f 551//142 547//142 546//142
f 553//143 547//143 551//143
f 553//144 548//144 547//144
f 554//145 548//145 553//145
f 554//146 549//146 548//146
f 555//147 549//147 554//147
f 556//148 549//148 555//148
f 556//149 550//149 549//149
f 557//150 550//150 556//150
f 557//151 527//151 550//151
f 558//152 527//152 557//152
f 558//153 526//153 527//153
f 559//154 526//154 558//154
f 559//155 528//155 526//155
f 560//156 528//156 559//156
f 560//157 529//157 528//157
f 561//158 529//158 560//158
f 561//159 530//159 529//159
f 562//160 530//160 561//160
f 562//161 531//161 530//161
f 563//162 531//162 562//162
f 563//163 532//163 531//163
f 564//164 532//164 563//164
f 564//165 533//165 532//165
f 565//166 533//166 564//166
f 565//167 534//167 533//167
f 566//168 534//168 565//168
f 566//169 535//169 534//169
f 567//170 535//170 566//170
f 567//171 536//171 535//171
f 568//172 536//172 567//172
f 568//173 537//173 536//173
f 569//174 537//174 568//174
f 569//175 538//175 537//175
f 570//176 538//176 569//176
f 570//177 539//177 538//177
f 571//178 539//178 570//178
f 571//179 540//179 539//179
f 572//180 540//180 571//180
f 572//181 541//181 540//181
f 573//182 541//182 572//182
f 573//183 542//183 541//183
f 574//184 542//184 573//184
f 574//185 543//185 542//185
f 575//186 543//186 574//186
f 575//187 544//187 543//187
f 552//188 544//188 575//188
f 552//189 545//189 544//189
f 546//190 545//190 552//190
f 576//4 577//4 232//4
f 232//4 577//4 237//4
f 578//45 579//45 580//45
f 580//45 579//45 581//45
f 580//45 581//45 582//45
f 583//45 584//45 578//45
f 578//45 584//45 236//45
f 578//45 236//45 585//45
f 585//45 236//45 586//45
f 586//45 236//45 587//45
f 587//45 236//45 588//45
f 588//45 236//45 589//45
f 589//45 236//45 590//45
f 590//45 236//45 591//45
f 591//45 236//45 592//45
f 591//45 592//45 593//45
f 594//45 595//45 583//45
f 583//45 595//45 596//45
f 583//45 596//45 597//45
f 597//45 596//45 598//45
f 598//45 596//45 599//45
f 598//45 599//45 600//45
f 600//45 599//45 601//45
f 600//45 601//45 602//45
f 602//45 601//45 603//45
f 602//45 603//45 604//45
f 604//45 603//45 605//45
f 604//45 605//45 606//45
f 606//45 605//45 607//45
f 606//45 607//45 608//45
f 608//45 607//45 609//45
f 608//45 609//45 610//45
f 610//45 609//45 611//45
f 610//45 611//45 612//45
f 612//45 611//45 613//45
f 612//45 613//45 614//45
f 614//45 613//45 615//45
f 614//45 615//45 616//45
f 616//45 615//45 617//45
f 616//45 617//45 584//45
f 584//45 617//45 618//45
f 584//45 618//45 577//45
f 577//45 618//45 619//45
f 577//45 619//45 620//45
f 580//45 577//45 594//45
f 594//45 577//45 621//45
f 594//45 621//45 622//45
f 623//45 624//45 578//45
f 578//45 624//45 625//45
f 578//45 625//45 626//45
f 626//45 625//45 627//45
f 626//45 627//45 628//45
f 628//45 627//45 629//45
f 628//45 629//45 630//45
f 630//45 629//45 631//45
f 630//45 631//45 632//45
f 632//45 631//45 633//45
f 632//45 633//45 634//45
f 634//45 633//45 635//45
f 634//45 635//45 636//45
f 636//45 635//45 637//45
f 636//45 637//45 638//45
f 638//45 637//45 639//45
f 638//45 639//45 640//45
f 640//45 639//45 641//45
f 640//45 641//45 642//45
f 642//45 641//45 643//45
f 642//45 643//45 593//45
f 593//45 643//45 591//45
f 585//45 644//45 578//45
f 578//45 644//45 645//45
f 578//45 645//45 646//45
f 646//45 647//45 578//45
f 578//45 647//45 648//45
f 578//45 648//45 623//45
f 649//45 650//45 584//45
f 584//191 650//191 616//191
f 597//45 651//45 583//45
f 583//45 651//45 652//45
f 583//45 652//45 653//45
f 653//45 654//45 583//45
f 583//45 654//45 655//45
f 583//45 655//45 656//45
f 656//45 657//45 583//45
f 583//45 657//45 658//45
f 583//45 658//45 584//45
f 584//45 658//45 659//45
f 584//45 659//45 660//45
f 660//45 661//45 584//45
f 584//45 661//45 649//45
f 582//45 662//45 580//45
f 580//45 662//45 663//45
f 580//45 663//45 664//45
f 664//45 665//45 580//45
f 580//45 665//45 666//45
f 580//45 666//45 667//45
f 580//45 667//45 237//45
f 237//45 667//45 668//45
f 237//45 668//45 669//45
f 669//45 670//45 237//45
f 237//45 670//45 671//45
f 237//45 671//45 236//45
f 236//45 671//45 592//45
f 626//45 579//45 578//45
f 620//45 672//45 577//45
f 577//45 672//45 621//45
f 622//45 673//45 594//45
f 594//45 673//45 674//45
f 594//45 674//45 675//45
f 675//45 676//45 594//45
f 594//45 676//45 677//45
f 594//45 677//45 678//45
f 678//45 595//45 594//45
f 237//45 577//45 580//45
f 576//2 679//2 577//2
f 577//2 679//2 584//2
f 232//43 680//43 576//43
f 576//43 680//43 681//43
f 576//43 681//43 682//43
f 682//43 681//43 683//43
f 683//43 681//43 684//43
f 684//43 681//43 685//43
f 685//43 681//43 686//43
f 686//43 681//43 687//43
f 687//43 681//43 688//43
f 688//43 681//43 689//43
f 689//43 681//43 690//43
f 690//43 681//43 691//43
f 690//43 691//43 692//43
f 692//43 691//43 693//43
f 692//43 693//43 694//43
f 234//43 695//43 232//43
f 232//43 695//43 696//43
f 232//43 696//43 697//43
f 679//43 698//43 234//43
f 234//43 698//43 699//43
f 234//43 699//43 700//43
f 576//43 701//43 679//43
f 679//43 701//43 702//43
f 679//43 702//43 703//43
f 703//43 702//43 704//43
f 703//43 704//43 705//43
f 705//43 704//43 706//43
f 705//43 706//43 707//43
f 707//43 706//43 708//43
f 707//43 708//43 709//43
f 709//43 708//43 710//43
f 709//43 710//43 711//43
f 711//43 710//43 712//43
f 711//43 712//43 713//43
f 713//43 712//43 714//43
f 713//43 714//43 715//43
f 715//43 714//43 716//43
f 715//43 716//43 717//43
f 717//43 716//43 718//43
f 717//43 718//43 719//43
f 719//43 718//43 720//43
f 719//43 720//43 694//43
f 694//43 720//43 692//43
f 721//43 722//43 698//43
f 698//43 722//43 723//43
f 698//43 723//43 724//43
f 724//43 725//43 698//43
f 698//43 725//43 726//43
f 698//43 726//43 727//43
f 727//43 728//43 698//43
f 698//43 728//43 699//43
f 700//43 729//43 234//43
f 234//43 729//43 730//43
f 234//43 730//43 731//43
f 731//43 732//43 234//43
f 234//43 732//43 733//43
f 234//43 733//43 734//43
f 734//43 733//43 735//43
f 735//43 733//43 736//43
f 735//43 736//43 737//43
f 737//43 736//43 738//43
f 737//43 738//43 739//43
f 739//43 738//43 740//43
f 739//43 740//43 741//43
f 741//43 740//43 742//43
f 741//43 742//43 743//43
f 743//43 742//43 744//43
f 743//43 744//43 745//43
f 745//43 744//43 746//43
f 745//43 746//43 747//43
f 747//43 746//43 748//43
f 747//43 748//43 749//43
f 749//43 748//43 750//43
f 749//43 750//43 751//43
f 751//43 750//43 752//43
f 751//43 752//43 753//43
f 753//43 752//43 721//43
f 753//43 721//43 698//43
f 703//192 754//192 679//192
f 679//43 754//43 755//43
f 679//43 755//43 756//43
f 756//43 757//43 679//43
f 679//43 757//43 758//43
f 679//43 758//43 759//43
f 679//43 759//43 691//43
f 691//43 759//43 760//43
f 691//43 760//43 761//43
f 761//43 762//43 691//43
f 691//43 762//43 763//43
f 691//43 763//43 764//43
f 764//43 765//43 691//43
f 691//43 765//43 766//43
f 691//192 766//192 693//192
f 753//43 698//43 767//43
f 767//43 698//43 680//43
f 767//192 680//192 768//192
f 768//43 680//43 769//43
f 769//43 680//43 770//43
f 770//43 680//43 771//43
f 771//43 680//43 772//43
f 772//43 680//43 773//43
f 773//43 680//43 774//43
f 774//43 680//43 775//43
f 775//43 680//43 232//43
f 775//43 232//43 776//43
f 776//43 232//43 697//43
f 734//43 695//43 234//43
f 682//43 777//43 576//43
f 576//43 777//43 778//43
f 576//43 778//43 779//43
f 779//43 701//43 576//43
f 691//43 698//43 679//43
f 584//1 679//1 236//1
f 236//1 679//1 234//1
f 594//3 583//3 681//3
f 681//3 583//3 691//3
f 580//1 594//1 680//1
f 680//1 594//1 681//1
f 578//2 580//2 698//2
f 698//2 580//2 680//2
f 583//4 578//4 691//4
f 691//4 578//4 698//4
f 779//18 619//18 701//18
f 701//18 619//18 618//18
f 701//17 618//17 702//17
f 702//17 618//17 617//17
f 702//16 617//16 704//16
f 704//16 617//16 615//16
f 704//15 615//15 706//15
f 706//15 615//15 613//15
f 706//14 613//14 708//14
f 708//14 613//14 611//14
f 708//13 611//13 710//13
f 710//13 611//13 609//13
f 710//30 609//30 712//30
f 712//30 609//30 607//30
f 712//29 607//29 714//29
f 714//29 607//29 605//29
f 714//10 605//10 716//10
f 716//10 605//10 603//10
f 716//9 603//9 718//9
f 718//9 603//9 601//9
f 718//193 601//193 720//193
f 720//8 601//8 599//8
f 720//7 599//7 692//7
f 692//7 599//7 596//7
f 692//6 596//6 690//6
f 690//6 596//6 595//6
f 690//5 595//5 689//5
f 689//5 595//5 678//5
f 689//28 678//28 688//28
f 688//28 678//28 677//28
f 688//27 677//27 687//27
f 687//32 677//32 676//32
f 687//26 676//26 686//26
f 686//26 676//26 675//26
f 686//25 675//25 685//25
f 685//25 675//25 674//25
f 685//36 674//36 684//36
f 684//36 674//36 673//36
f 684//35 673//35 683//35
f 683//35 673//35 622//35
f 683//22 622//22 682//22
f 682//22 622//22 621//22
f 682//34 621//34 777//34
f 777//34 621//34 672//34
f 777//33 672//33 778//33
f 778//33 672//33 620//33
f 778//19 620//19 779//19
f 779//19 620//19 619//19
f 768//18 581//18 767//18
f 767//18 581//18 579//18
f 767//17 579//17 753//17
f 753//17 579//17 626//17
f 753//16 626//16 751//16
f 751//16 626//16 628//16
f 751//38 628//38 749//38
f 749//15 628//15 630//15
f 749//14 630//14 747//14
f 747//14 630//14 632//14
f 747//13 632//13 745//13
f 745//13 632//13 634//13
f 745//12 634//12 743//12
f 743//12 634//12 636//12
f 743//11 636//11 741//11
f 741//11 636//11 638//11
f 741//10 638//10 739//10
f 739//10 638//10 640//10
f 739//9 640//9 737//9
f 737//9 640//9 642//9
f 737//8 642//8 735//8
f 735//193 642//193 593//193
f 735//7 593//7 734//7
f 734//7 593//7 592//7
f 734//6 592//6 695//6
f 695//6 592//6 671//6
f 695//5 671//5 696//5
f 696//5 671//5 670//5
f 696//28 670//28 697//28
f 697//28 670//28 669//28
f 697//27 669//27 776//27
f 776//27 669//27 668//27
f 776//26 668//26 775//26
f 775//26 668//26 667//26
f 775//25 667//25 774//25
f 774//25 667//25 666//25
f 774//36 666//36 773//36
f 773//36 666//36 665//36
f 773//35 665//35 772//35
f 772//35 665//35 664//35
f 772//22 664//22 771//22
f 771//22 664//22 663//22
f 771//34 663//34 770//34
f 770//34 663//34 662//34
f 770//33 662//33 769//33
f 769//33 662//33 582//33
f 769//19 582//19 768//19
f 768//19 582//19 581//19
f 703//18 616//18 754//18
f 754//18 616//18 650//18
f 754//17 650//17 755//17
f 755//17 650//17 649//17
f 755//16 649//16 756//16
f 756//16 649//16 661//16
f 756//15 661//15 757//15
f 757//38 661//38 660//38
f 757//14 660//14 758//14
f 758//14 660//14 659//14
f 758//13 659//13 759//13
f 759//13 659//13 658//13
f 759//30 658//30 760//30
f 760//30 658//30 657//30
f 760//29 657//29 761//29
f 761//29 657//29 656//29
f 761//10 656//10 762//10
f 762//10 656//10 655//10
f 762//9 655//9 763//9
f 763//9 655//9 654//9
f 763//193 654//193 764//193
f 764//8 654//8 653//8
f 764//7 653//7 765//7
f 765//7 653//7 652//7
f 765//6 652//6 766//6
f 766//6 652//6 651//6
f 766//5 651//5 693//5
f 693//5 651//5 597//5
f 693//28 597//28 694//28
f 694//28 597//28 598//28
f 694//27 598//27 719//27
f 719//32 598//32 600//32
f 719//26 600//26 717//26
f 717//26 600//26 602//26
f 717//25 602//25 715//25
f 715//25 602//25 604//25
f 715//36 604//36 713//36
f 713//36 604//36 606//36
f 713//35 606//35 711//35
f 711//35 606//35 608//35
f 711//22 608//22 709//22
f 709//22 608//22 610//22
f 709//34 610//34 707//34
f 707//34 610//34 612//34
f 707//20 612//20 705//20
f 705//33 612//33 614//33
f 705//19 614//19 703//19
f 703//19 614//19 616//19
f 721//18 625//18 722//18
f 722//18 625//18 624//18
f 722//17 624//17 723//17
f 723//17 624//17 623//17
f 723//16 623//16 724//16
f 724//16 623//16 648//16
f 724//38 648//38 725//38
f 725//15 648//15 647//15
f 725//14 647//14 726//14
f 726//14 647//14 646//14
f 726//13 646//13 727//13
f 727//13 646//13 645//13
f 727//12 645//12 728//12
f 728//12 645//12 644//12
f 728//11 644//11 699//11
f 699//11 644//11 585//11
f 699//10 585//10 700//10
f 700//10 585//10 586//10
f 700//9 586//9 729//9
f 729//194 586//194 587//194
f 729//193 587//193 730//193
f 730//193 587//193 588//193
f 730//7 588//7 731//7
f 731//7 588//7 589//7
f 731//6 589//6 732//6
f 732//6 589//6 590//6
f 732//5 590//5 733//5
f 733//5 590//5 591//5
f 733//28 591//28 736//28
f 736//28 591//28 643//28
f 736//27 643//27 738//27
f 738//27 643//27 641//27
f 738//26 641//26 740//26
f 740//26 641//26 639//26
f 740//25 639//25 742//25
f 742//25 639//25 637//25
f 742//24 637//24 744//24
f 744//24 637//24 635//24
f 744//23 635//23 746//23
f 746//23 635//23 633//23
f 746//22 633//22 748//22
f 748//22 633//22 631//22
f 748//34 631//34 750//34
f 750//34 631//34 629//34
f 750//33 629//33 752//33
f 752//33 629//33 627//33
f 752//19 627//19 721//19
f 721//19 627//19 625//19
f 11//43 64//43 9//43
f 9//43 64//43 62//43
f 9//43 62//43 108//43
f 6//43 1//43 11//43
f 11//43 1//43 3//43
f 11//43 3//43 174//43
f 174//43 3//43 176//43
f 176//43 3//43 178//43
f 178//43 3//43 180//43
f 180//43 3//43 182//43
f 182//43 3//43 184//43
f 184//43 3//43 186//43
f 186//43 3//43 86//43
f 186//43 86//43 84//43
f 5//43 40//43 6//43
f 6//43 40//43 38//43
f 6//43 38//43 138//43
f 138//43 38//43 140//43
f 140//43 38//43 36//43
f 140//43 36//43 142//43
f 142//43 36//43 34//43
f 142//43 34//43 144//43
f 144//43 34//43 32//43
f 144//43 32//43 146//43
f 146//43 32//43 30//43
f 146//43 30//43 148//43
f 148//43 30//43 28//43
f 148//43 28//43 150//43
f 150//43 28//43 26//43
f 150//43 26//43 152//43
f 152//43 26//43 24//43
f 152//43 24//43 154//43
f 154//43 24//43 22//43
f 154//43 22//43 156//43
f 156//43 22//43 20//43
f 156//43 20//43 110//43
f 110//43 20//43 18//43
f 110//43 18//43 1//43
f 1//43 18//43 16//43
f 1//43 16//43 206//43
f 206//43 16//43 14//43
f 206//43 14//43 60//43
f 9//43 206//43 5//43
f 5//43 206//43 60//43
f 5//43 60//43 58//43
f 162//43 160//43 11//43
f 11//43 160//43 158//43
f 11//43 158//43 66//43
f 66//43 158//43 204//43
f 66//43 204//43 68//43
f 68//43 204//43 202//43
f 68//43 202//43 70//43
f 70//43 202//43 200//43
f 70//43 200//43 72//43
f 72//43 200//43 198//43
f 72//43 198//43 74//43
f 74//43 198//43 196//43
f 74//43 196//43 76//43
f 76//43 196//43 194//43
f 76//43 194//43 78//43
f 78//43 194//43 192//43
f 78//43 192//43 80//43
f 80//43 192//43 190//43
f 80//43 190//43 82//43
f 82//43 190//43 188//43
f 82//43 188//43 84//43
f 84//43 188//43 186//43
f 174//43 172//43 11//43
f 11//43 172//43 170//43
f 11//43 170//43 168//43
f 168//43 166//43 11//43
f 11//43 166//43 164//43
f 11//43 164//43 162//43
f 114//43 112//43 1//43
f 1//43 112//43 110//43
f 138//43 136//43 6//43
f 6//43 136//43 134//43
f 6//43 134//43 132//43
f 132//43 130//43 6//43
f 6//43 130//43 128//43
f 6//43 128//43 126//43
f 126//43 124//43 6//43
f 6//43 124//43 1//43
f 124//43 122//43 1//43
f 1//43 122//43 120//43
f 1//43 120//43 118//43
f 118//43 116//43 1//43
f 1//43 116//43 114//43
f 108//43 106//43 9//43
f 9//43 106//43 104//43
f 9//43 104//43 102//43
f 102//43 100//43 9//43
f 9//43 100//43 98//43
f 9//43 98//43 96//43
f 96//43 94//43 9//43
f 9//43 94//43 92//43
f 9//43 92//43 208//43
f 208//43 92//43 90//43
f 208//43 90//43 88//43
f 208//43 88//43 3//43
f 3//43 88//43 86//43
f 66//43 64//43 11//43
f 58//43 56//43 5//43
f 5//43 56//43 54//43
f 5//43 54//43 52//43
f 52//43 50//43 5//43
f 5//43 50//43 48//43
f 5//43 48//43 46//43
f 46//43 44//43 5//43
f 5//43 44//43 42//43
f 5//43 42//43 40//43
f 208//43 206//43 9//43
f 780//45 781//45 782//45
f 782//45 781//45 783//45
f 782//45 783//45 784//45
f 785//45 786//45 780//45
f 780//45 786//45 787//45
f 780//45 787//45 788//45
f 789//45 790//45 785//45
f 785//45 790//45 791//45
f 785//45 791//45 792//45
f 782//45 793//45 789//45
f 789//45 793//45 794//45
f 789//45 794//45 795//45
f 796//45 797//45 780//45
f 780//45 797//45 781//45
f 784//45 798//45 782//45
f 782//45 798//45 799//45
f 782//45 799//45 800//45
f 800//45 801//45 782//45
f 782//45 801//45 793//45
f 795//45 802//45 789//45
f 789//45 802//45 803//45
f 789//45 803//45 804//45
f 804//45 805//45 789//45
f 789//45 805//45 790//45
f 792//45 806//45 785//45
f 785//45 806//45 807//45
f 785//45 807//45 786//45
f 788//45 796//45 780//45
f 785//2 808//2 789//2
f 789//2 808//2 809//2
f 789//2 809//2 810//2
f 810//2 809//2 811//2
f 810//2 811//2 812//2
f 812//2 811//2 813//2
f 812//2 813//2 814//2
f 814//2 813//2 346//2
f 346//2 813//2 815//2
f 346//2 815//2 816//2
f 816//2 815//2 817//2
f 816//2 348//2 346//2
f 814//2 818//2 812//2
f 809//43 819//43 820//43
f 820//43 819//43 821//43
f 820//43 821//43 822//43
f 808//43 823//43 809//43
f 809//43 823//43 824//43
f 809//43 824//43 825//43
f 826//43 827//43 808//43
f 808//43 827//43 828//43
f 808//43 828//43 829//43
f 820//43 830//43 826//43
f 826//43 830//43 831//43
f 826//43 831//43 832//43
f 832//43 833//43 826//43
f 826//43 833//43 834//43
f 826//43 834//43 835//43
f 835//43 836//43 826//43
f 826//43 836//43 827//43
f 829//43 837//43 808//43
f 808//43 837//43 838//43
f 808//43 838//43 839//43
f 839//43 840//43 808//43
f 808//43 840//43 823//43
f 825//43 841//43 809//43
f 809//43 841//43 842//43
f 809//43 842//43 819//43
f 822//43 843//43 820//43
f 820//43 843//43 844//43
f 820//43 844//43 830//43
f 845//195 846//195 847//195
f 847//195 846//195 848//195
f 846//18 849//18 848//18
f 848//196 849//196 850//196
f 849//19 851//19 850//19
f 850//19 851//19 852//19
f 852//33 851//33 853//33
f 853//33 851//33 854//33
f 853//34 854//34 855//34
f 855//34 854//34 856//34
f 855//22 856//22 857//22
f 857//22 856//22 858//22
f 857//35 858//35 859//35
f 859//35 858//35 860//35
f 859//36 860//36 861//36
f 861//36 860//36 862//36
f 861//25 862//25 863//25
f 863//25 862//25 864//25
f 863//26 864//26 865//26
f 865//26 864//26 866//26
f 865//27 866//27 867//27
f 867//27 866//27 868//27
f 868//28 869//28 867//28
f 867//28 869//28 870//28
f 869//5 871//5 870//5
f 870//5 871//5 872//5
f 871//6 873//6 872//6
f 872//6 873//6 874//6
f 873//7 875//7 874//7
f 874//7 875//7 876//7
f 876//193 875//193 877//193
f 877//193 875//193 878//193
f 877//9 878//9 879//9
f 879//9 878//9 880//9
f 879//10 880//10 881//10
f 881//10 880//10 882//10
f 881//11 882//11 883//11
f 883//11 882//11 884//11
f 883//30 884//30 885//30
f 885//12 884//12 886//12
f 885//13 886//13 887//13
f 887//13 886//13 888//13
f 887//14 888//14 889//14
f 889//14 888//14 890//14
f 889//15 890//15 891//15
f 891//38 890//38 892//38
f 892//16 845//16 891//16
f 891//16 845//16 847//16
f 832//5 831//5 781//5
f 781//5 831//5 783//5
f 831//6 830//6 783//6
f 783//6 830//6 784//6
f 830//7 844//7 784//7
f 784//7 844//7 798//7
f 798//8 844//8 799//8
f 799//193 844//193 843//193
f 799//9 843//9 800//9
f 800//9 843//9 822//9
f 800//10 822//10 801//10
f 801//10 822//10 821//10
f 801//11 821//11 793//11
f 793//11 821//11 819//11
f 793//30 819//30 794//30
f 794//30 819//30 842//30
f 794//13 842//13 795//13
f 795//13 842//13 841//13
f 795//14 841//14 802//14
f 802//14 841//14 825//14
f 802//38 825//38 803//38
f 803//38 825//38 824//38
f 824//16 823//16 803//16
f 803//16 823//16 804//16
f 823//17 840//17 804//17
f 804//195 840//195 805//195
f 840//196 839//196 805//196
f 805//18 839//18 790//18
f 839//19 838//19 790//19
f 790//19 838//19 791//19
f 791//33 838//33 792//33
f 792//33 838//33 837//33
f 792//34 837//34 806//34
f 806//34 837//34 829//34
f 806//22 829//22 807//22
f 807//22 829//22 828//22
f 807//35 828//35 786//35
f 786//35 828//35 827//35
f 786//36 827//36 787//36
f 787//36 827//36 836//36
f 787//25 836//25 788//25
f 788//25 836//25 835//25
f 788//26 835//26 796//26
f 796//26 835//26 834//26
f 796//27 834//27 797//27
f 797//27 834//27 833//27
f 833//28 832//28 797//28
f 797//28 832//28 781//28
f 893//4 782//4 810//4
f 810//4 782//4 789//4
f 820//1 894//1 809//1
f 809//1 894//1 811//1
f 894//45 883//45 811//45
f 811//45 883//45 885//45
f 811//45 885//45 887//45
f 895//45 867//45 894//45
f 894//45 867//45 870//45
f 894//45 870//45 872//45
f 813//45 859//45 895//45
f 895//45 859//45 861//45
f 895//45 861//45 863//45
f 811//45 852//45 813//45
f 813//45 852//45 853//45
f 813//45 853//45 855//45
f 889//45 891//45 811//45
f 811//45 891//45 847//45
f 811//45 847//45 848//45
f 848//45 850//45 811//45
f 811//45 850//45 852//45
f 855//45 857//45 813//45
f 813//45 857//45 859//45
f 863//45 865//45 895//45
f 895//45 865//45 867//45
f 872//45 874//45 894//45
f 894//45 874//45 876//45
f 894//45 876//45 877//45
f 877//45 879//45 894//45
f 894//45 879//45 881//45
f 894//45 881//45 883//45
f 887//45 889//45 811//45
f 896//3 897//3 898//3
f 898//3 897//3 352//3
f 898//3 352//3 351//3
f 897//3 895//3 352//3
f 352//3 895//3 899//3
f 899//3 895//3 900//3
f 899//3 900//3 901//3
f 895//3 894//3 900//3
f 900//3 894//3 893//3
f 893//3 894//3 820//3
f 893//3 820//3 782//3
f 782//3 820//3 826//3
f 782//3 826//3 780//3
f 810//43 884//43 893//43
f 893//43 884//43 882//43
f 893//43 882//43 880//43
f 812//43 849//43 810//43
f 810//43 849//43 846//43
f 810//43 846//43 845//43
f 900//43 860//43 812//43
f 812//43 860//43 858//43
f 812//43 858//43 856//43
f 893//43 869//43 900//43
f 900//43 869//43 868//43
f 900//43 868//43 866//43
f 878//43 875//43 893//43
f 893//43 875//43 873//43
f 893//43 873//43 871//43
f 871//43 869//43 893//43
f 866//43 864//43 900//43
f 900//43 864//43 862//43
f 900//43 862//43 860//43
f 856//43 854//43 812//43
f 812//43 854//43 851//43
f 812//43 851//43 849//43
f 845//43 892//43 810//43
f 810//43 892//43 890//43
f 810//43 890//43 888//43
f 888//43 886//43 810//43
f 810//43 886//43 884//43
f 880//43 878//43 893//43
f 815//1 813//1 897//1
f 897//1 813//1 895//1
f 817//197 815//197 896//197
f 896//197 815//197 897//197
f 816//4 817//4 898//4
f 898//4 817//4 896//4
f 780//4 826//4 785//4
f 785//4 826//4 808//4
f 348//198 816//198 351//198
f 351//198 816//198 898//198
f 901//198 900//198 818//198
f 818//198 900//198 812//198
f 345//45 902//45 346//45
f 346//45 902//45 814//45
f 903//45 354//45 289//45
f 289//45 354//45 230//45
f 289//45 230//45 290//45
f 290//45 230//45 288//45
f 290//45 288//45 567//45
f 567//45 288//45 568//45
f 568//45 288//45 569//45
f 569//45 288//45 570//45
f 570//45 288//45 571//45
f 571//45 288//45 572//45
f 572//45 288//45 573//45
f 573//45 288//45 574//45
f 574//45 288//45 575//45
f 575//45 288//45 284//45
f 575//45 284//45 390//45
f 390//45 284//45 489//45
f 390//45 489//45 392//45
f 392//45 489//45 491//45
f 392//45 491//45 394//45
f 394//45 491//45 396//45
f 396//45 491//45 398//45
f 398//45 491//45 493//45
f 398//45 493//45 400//45
f 400//45 493//45 402//45
f 402//45 493//45 495//45
f 402//45 495//45 404//45
f 404//45 495//45 406//45
f 406//45 495//45 497//45
f 406//45 497//45 408//45
f 408//45 497//45 410//45
f 410//45 497//45 412//45
f 412//45 497//45 498//45
f 412//45 498//45 414//45
f 414//45 498//45 416//45
f 416//45 498//45 500//45
f 416//45 500//45 418//45
f 418//45 500//45 420//45
f 420//45 500//45 422//45
f 422//45 500//45 502//45
f 422//45 502//45 424//45
f 424//45 502//45 426//45
f 426//45 502//45 504//45
f 426//45 504//45 428//45
f 428//45 504//45 430//45
f 430//45 504//45 432//45
f 432//45 504//45 507//45
f 432//45 507//45 434//45
f 434//45 507//45 436//45
f 436//45 507//45 509//45
f 436//45 509//45 438//45
f 438//45 509//45 440//45
f 440//45 509//45 442//45
f 442//45 509//45 511//45
f 442//45 511//45 444//45
f 444//45 511//45 446//45
f 446//45 511//45 513//45
f 446//45 513//45 448//45
f 448//45 513//45 277//45
f 448//45 277//45 450//45
f 450//45 277//45 290//45
f 450//45 290//45 452//45
f 452//45 290//45 561//45
f 452//45 561//45 454//45
f 454//45 561//45 456//45
f 456//45 561//45 560//45
f 456//45 560//45 458//45
f 458//45 560//45 460//45
f 460//45 560//45 462//45
f 462//45 560//45 559//45
f 462//45 559//45 464//45
f 464//45 559//45 466//45
f 466//45 559//45 558//45
f 466//45 558//45 468//45
f 468//45 558//45 470//45
f 470//45 558//45 472//45
f 472//45 558//45 557//45
f 472//45 557//45 474//45
f 474//45 557//45 476//45
f 476//45 557//45 556//45
f 476//45 556//45 360//45
f 360//45 556//45 361//45
f 361//45 556//45 363//45
f 363//45 556//45 364//45
f 364//45 556//45 555//45
f 364//45 555//45 366//45
f 366//45 555//45 368//45
f 368//45 555//45 554//45
f 368//45 554//45 370//45
f 370//45 554//45 372//45
f 372//45 554//45 374//45
f 374//45 554//45 553//45
f 374//45 553//45 376//45
f 376//45 553//45 378//45
f 378//45 553//45 551//45
f 378//45 551//45 380//45
f 380//45 551//45 382//45
f 382//45 551//45 552//45
f 382//45 552//45 384//45
f 384//45 552//45 386//45
f 386//45 552//45 575//45
f 386//45 575//45 388//45
f 388//45 575//45 390//45
f 230//45 235//45 288//45
f 288//45 235//45 287//45
f 287//45 235//45 275//45
f 287//45 275//45 261//45
f 211//45 302//45 235//45
f 235//45 302//45 276//45
f 235//45 276//45 275//45
f 214//45 307//45 211//45
f 211//45 307//45 314//45
f 211//45 314//45 260//45
f 260//45 314//45 323//45
f 260//45 323//45 261//45
f 261//45 323//45 287//45
f 339//45 332//45 214//45
f 214//45 332//45 297//45
f 214//45 297//45 307//45
f 307//45 297//45 296//45
f 307//45 296//45 322//45
f 322//45 296//45 283//45
f 322//45 283//45 287//45
f 332//45 339//45 271//45
f 271//45 339//45 341//45
f 271//45 341//45 272//45
f 272//45 341//45 283//45
f 272//45 283//45 296//45
f 283//45 341//45 284//45
f 284//45 341//45 342//45
f 284//45 342//45 277//45
f 277//45 342//45 278//45
f 278//45 342//45 352//45
f 278//45 352//45 899//45
f 323//45 322//45 287//45
f 260//45 302//45 211//45
f 513//45 515//45 277//45
f 277//45 515//45 517//45
f 277//45 517//45 519//45
f 519//45 521//45 277//45
f 277//45 521//45 522//45
f 277//45 522//45 524//45
f 277//45 524//45 284//45
f 284//45 524//45 479//45
f 284//45 479//45 478//45
f 478//45 483//45 284//45
f 284//45 483//45 485//45
f 284//45 485//45 487//45
f 487//45 489//45 284//45
f 567//45 566//45 290//45
f 290//45 566//45 565//45
f 290//45 565//45 564//45
f 564//45 563//45 290//45
f 290//45 563//45 562//45
f 290//45 562//45 561//45
f 902//1 904//1 814//1
f 814//1 904//1 818//1
f 818//1 904//1 357//1
f 818//1 357//1 358//1
f 904//1 905//1 357//1
f 357//1 905//1 289//1
f 357//1 289//1 266//1
f 905//1 903//1 289//1
f 280//1 278//1 358//1
f 358//1 278//1 901//1
f 358//1 901//1 818//1
f 278//1 899//1 901//1
f 906//45 907//45 908//45
f 908//45 907//45 909//45
f 910//2 911//2 906//2
f 906//2 911//2 907//2
f 912//43 913//43 910//43
f 910//43 913//43 911//43
f 908//3 909//3 912//3
f 912//3 909//3 913//3
f 913//1 909//1 911//1
f 911//1 909//1 907//1
f 914//45 915//45 916//45
f 916//45 915//45 917//45
f 916//45 917//45 918//45
f 919//45 920//45 914//45
f 914//45 920//45 921//45
f 914//45 921//45 922//45
f 923//45 924//45 919//45
f 919//45 924//45 925//45
f 919//45 925//45 926//45
f 916//45 927//45 923//45
f 923//45 927//45 928//45
f 923//45 928//45 929//45
f 930//45 931//45 914//45
f 914//45 931//45 915//45
f 918//45 932//45 916//45
f 916//45 932//45 933//45
f 916//45 933//45 934//45
f 934//45 935//45 916//45
f 916//45 935//45 927//45
f 929//45 936//45 923//45
f 923//45 936//45 937//45
f 923//45 937//45 938//45
f 938//45 939//45 923//45
f 923//45 939//45 924//45
f 926//45 940//45 919//45
f 919//45 940//45 941//45
f 919//45 941//45 920//45
f 922//45 930//45 914//45
f 919//2 942//2 923//2
f 923//2 942//2 943//2
f 923//2 943//2 944//2
f 944//2 943//2 945//2
f 944//2 945//2 946//2
f 946//2 945//2 947//2
f 946//2 947//2 903//2
f 903//2 947//2 354//2
f 354//2 947//2 948//2
f 354//2 948//2 949//2
f 949//2 948//2 950//2
f 949//2 353//2 354//2
f 903//2 905//2 946//2
f 943//43 951//43 952//43
f 952//43 951//43 953//43
f 952//43 953//43 954//43
f 942//43 955//43 943//43
f 943//43 955//43 956//43
f 943//43 956//43 957//43
f 958//43 959//43 942//43
f 942//43 959//43 960//43
f 942//43 960//43 961//43
f 952//43 962//43 958//43
f 958//43 962//43 963//43
f 958//43 963//43 964//43
f 964//43 965//43 958//43
f 958//43 965//43 966//43
f 958//43 966//43 967//43
f 967//43 968//43 958//43
f 958//43 968//43 959//43
f 961//43 969//43 942//43
f 942//43 969//43 970//43
f 942//43 970//43 971//43
f 971//43 972//43 942//43
f 942//43 972//43 955//43
f 957//43 973//43 943//43
f 943//43 973//43 974//43
f 943//43 974//43 951//43
f 954//43 975//43 952//43
f 952//43 975//43 976//43
f 952//43 976//43 962//43
f 977//17 978//17 979//17
f 979//17 978//17 980//17
f 978//18 981//18 980//18
f 980//18 981//18 982//18
f 981//19 983//19 982//19
f 982//19 983//19 984//19
f 984//33 983//33 985//33
f 985//33 983//33 986//33
f 985//34 986//34 987//34
f 987//34 986//34 988//34
f 987//22 988//22 989//22
f 989//22 988//22 990//22
f 989//35 990//35 991//35
f 991//23 990//23 992//23
f 991//36 992//36 993//36
f 993//36 992//36 994//36
f 993//25 994//25 995//25
f 995//25 994//25 996//25
f 995//26 996//26 997//26
f 997//26 996//26 998//26
f 997//27 998//27 999//27
f 999//27 998//27 1000//27
f 1000//28 1001//28 999//28
f 999//28 1001//28 1002//28
f 1001//5 1003//5 1002//5
f 1002//5 1003//5 1004//5
f 1003//6 1005//6 1004//6
f 1004//6 1005//6 1006//6
f 1005//7 1007//7 1006//7
f 1006//7 1007//7 1008//7
f 1008//193 1007//193 1009//193
f 1009//193 1007//193 1010//193
f 1009//9 1010//9 1011//9
f 1011//9 1010//9 1012//9
f 1011//10 1012//10 1013//10
f 1013//10 1012//10 1014//10
f 1013//11 1014//11 1015//11
f 1015//11 1014//11 1016//11
f 1015//30 1016//30 1017//30
f 1017//12 1016//12 1018//12
f 1017//13 1018//13 1019//13
f 1019//13 1018//13 1020//13
f 1019//14 1020//14 1021//14
f 1021//14 1020//14 1022//14
f 1021//15 1022//15 1023//15
f 1023//15 1022//15 1024//15
f 1024//16 977//16 1023//16
f 1023//16 977//16 979//16
f 964//5 963//5 915//5
f 915//5 963//5 917//5
f 963//6 962//6 917//6
f 917//6 962//6 918//6
f 962//7 976//7 918//7
f 918//7 976//7 932//7
f 932//193 976//193 933//193
f 933//193 976//193 975//193
f 933//9 975//9 934//9
f 934//9 975//9 954//9
f 934//10 954//10 935//10
f 935//10 954//10 953//10
f 935//11 953//11 927//11
f 927//11 953//11 951//11
f 927//12 951//12 928//12
f 928//30 951//30 974//30
f 928//13 974//13 929//13
f 929//13 974//13 973//13
f 929//14 973//14 936//14
f 936//14 973//14 957//14
f 936//15 957//15 937//15
f 937//15 957//15 956//15
f 956//16 955//16 937//16
f 937//16 955//16 938//16
f 955//17 972//17 938//17
f 938//17 972//17 939//17
f 972//18 971//18 939//18
f 939//18 971//18 924//18
f 971//19 970//19 924//19
f 924//19 970//19 925//19
f 925//33 970//33 926//33
f 926//33 970//33 969//33
f 926//34 969//34 940//34
f 940//34 969//34 961//34
f 940//22 961//22 941//22
f 941//22 961//22 960//22
f 941//23 960//23 920//23
f 920//35 960//35 959//35
f 920//36 959//36 921//36
f 921//36 959//36 968//36
f 921//25 968//25 922//25
f 922//25 968//25 967//25
f 922//26 967//26 930//26
f 930//26 967//26 966//26
f 930//27 966//27 931//27
f 931//27 966//27 965//27
f 965//28 964//28 931//28
f 931//28 964//28 915//28
f 1025//4 916//4 944//4
f 944//4 916//4 923//4
f 952//1 1026//1 943//1
f 943//1 1026//1 945//1
f 1026//45 1015//45 945//45
f 945//45 1015//45 1017//45
f 945//45 1017//45 1019//45
f 1027//45 999//45 1026//45
f 1026//45 999//45 1002//45
f 1026//45 1002//45 1004//45
f 947//45 991//45 1027//45
f 1027//45 991//45 993//45
f 1027//45 993//45 995//45
f 945//45 984//45 947//45
f 947//45 984//45 985//45
f 947//45 985//45 987//45
f 1021//45 1023//45 945//45
f 945//45 1023//45 979//45
f 945//45 979//45 980//45
f 980//45 982//45 945//45
f 945//45 982//45 984//45
f 987//45 989//45 947//45
f 947//45 989//45 991//45
f 995//45 997//45 1027//45
f 1027//45 997//45 999//45
f 1004//45 1006//45 1026//45
f 1026//45 1006//45 1008//45
f 1026//45 1008//45 1009//45
f 1009//45 1011//45 1026//45
f 1026//45 1011//45 1013//45
f 1026//45 1013//45 1015//45
f 1019//45 1021//45 945//45
f 1028//3 1029//3 1030//3
f 1030//3 1029//3 345//3
f 1030//3 345//3 347//3
f 1029//3 1027//3 345//3
f 345//3 1027//3 902//3
f 902//3 1027//3 1031//3
f 902//3 1031//3 904//3
f 1027//3 1026//3 1031//3
f 1031//3 1026//3 1025//3
f 1025//3 1026//3 952//3
f 1025//3 952//3 916//3
f 916//3 952//3 958//3
f 916//3 958//3 914//3
f 944//43 1016//43 1025//43
f 1025//43 1016//43 1014//43
f 1025//43 1014//43 1012//43
f 946//43 981//43 944//43
f 944//43 981//43 978//43
f 944//43 978//43 977//43
f 1031//43 992//43 946//43
f 946//43 992//43 990//43
f 946//43 990//43 988//43
f 1025//43 1001//43 1031//43
f 1031//43 1001//43 1000//43
f 1031//43 1000//43 998//43
f 1010//43 1007//43 1025//43
f 1025//43 1007//43 1005//43
f 1025//43 1005//43 1003//43
f 1003//43 1001//43 1025//43
f 998//43 996//43 1031//43
f 1031//43 996//43 994//43
f 1031//43 994//43 992//43
f 988//43 986//43 946//43
f 946//43 986//43 983//43
f 946//43 983//43 981//43
f 977//43 1024//43 944//43
f 944//43 1024//43 1022//43
f 944//43 1022//43 1020//43
f 1020//43 1018//43 944//43
f 944//43 1018//43 1016//43
f 1012//43 1010//43 1025//43
f 910//1 948//1 912//1
f 912//1 948//1 947//1
f 912//1 947//1 908//1
f 908//1 947//1 906//1
f 906//1 947//1 1027//1
f 906//1 1027//1 910//1
f 910//1 1027//1 1029//1
f 910//1 1029//1 948//1
f 950//197 948//197 1028//197
f 1028//197 948//197 1029//197
f 949//4 950//4 1030//4
f 1030//4 950//4 1028//4
f 904//198 1031//198 905//198
f 905//198 1031//198 946//198
f 914//4 958//4 919//4
f 919//4 958//4 942//4
f 353//198 949//198 347//198
f 347//198 949//198 1030//198
f 206//3 205//3 1//3
f 1//3 205//3 2//3
f 2//3 205//3 213//3
f 157//45 159//45 12//45
f 12//45 159//45 161//45
f 12//45 161//45 163//45
f 163//45 165//45 12//45
f 12//45 165//45 167//45
f 12//45 167//45 169//45
f 169//45 171//45 12//45
f 12//45 171//45 173//45
f 12//45 173//45 4//45
f 4//45 173//45 175//45
f 4//45 175//45 177//45
f 177//45 179//45 4//45
f 4//45 179//45 181//45
f 4//45 181//45 183//45
f 183//45 185//45 4//45
f 4//45 185//45 85//45
f 4//45 85//45 87//45
f 85//45 185//45 83//45
f 83//45 185//45 187//45
f 83//45 187//45 81//45
f 81//45 187//45 189//45
f 81//45 189//45 79//45
f 79//45 189//45 191//45
f 79//45 191//45 77//45
f 77//45 191//45 193//45
f 77//45 193//45 75//45
f 75//45 193//45 195//45
f 75//45 195//45 73//45
f 73//45 195//45 197//45
f 73//45 197//45 71//45
f 71//45 197//45 199//45
f 71//45 199//45 69//45
f 69//45 199//45 201//45
f 69//45 201//45 67//45
f 67//45 201//45 203//45
f 67//45 203//45 65//45
f 65//45 203//45 157//45
f 65//45 157//45 12//45
f 109//45 111//45 2//45
f 2//45 111//45 113//45
f 2//45 113//45 115//45
f 115//45 117//45 2//45
f 2//45 117//45 119//45
f 2//45 119//45 121//45
f 121//45 123//45 2//45
f 2//45 123//45 8//45
f 2//45 8//45 12//45
f 123//45 125//45 8//45
f 8//45 125//45 127//45
f 8//45 127//45 129//45
f 129//45 131//45 8//45
f 8//45 131//45 133//45
f 8//45 133//45 135//45
f 135//199 137//199 8//199
f 8//45 137//45 37//45
f 8//45 37//45 39//45
f 137//45 139//45 37//45
f 37//45 139//45 35//45
f 35//45 139//45 141//45
f 35//45 141//45 33//45
f 33//45 141//45 143//45
f 33//45 143//45 31//45
f 31//45 143//45 145//45
f 31//45 145//45 29//45
f 29//45 145//45 147//45
f 29//45 147//45 27//45
f 27//45 147//45 149//45
f 27//45 149//45 25//45
f 25//45 149//45 151//45
f 25//45 151//45 23//45
f 23//45 151//45 153//45
f 23//45 153//45 21//45
f 21//45 153//45 155//45
f 21//45 155//45 19//45
f 19//45 155//45 109//45
f 19//45 109//45 17//45
f 17//45 109//45 2//45
f 17//45 2//45 15//45
f 15//45 2//45 213//45
f 15//45 213//45 13//45
f 13//45 213//45 59//45
f 59//45 213//45 7//45
f 59//45 7//45 57//45
f 57//45 7//45 55//45
f 55//45 7//45 53//45
f 53//45 7//45 51//45
f 51//45 7//45 49//45
f 49//45 7//45 47//45
f 47//45 7//45 45//45
f 45//45 7//45 43//45
f 43//45 7//45 41//45
f 41//45 7//45 39//45
f 39//45 7//45 8//45
f 65//45 12//45 63//45
f 63//45 12//45 10//45
f 63//45 10//45 61//45
f 61//45 10//45 107//45
f 107//45 10//45 105//45
f 105//45 10//45 103//45
f 103//45 10//45 101//45
f 101//45 10//45 99//45
f 99//45 10//45 97//45
f 97//45 10//45 95//45
f 95//45 10//45 93//45
f 93//45 10//45 91//45
f 91//45 10//45 209//45
f 91//45 209//45 89//45
f 89//45 209//45 87//45
f 87//45 209//45 4//45
f 209//45 10//45 213//45
f 213//45 10//45 7//45
f 4//45 2//45 12//45
