# Blender 5.1.1
# www.blender.org
mtllib inner_mast.mtl
o inner_mast
v -0.003800 0.010629 0.027503
v -0.008000 -0.021689 0.027503
v -0.008000 0.020799 0.027503
v -0.003400 0.023059 0.027503
v -0.001800 0.023059 0.027503
v -0.003400 0.020799 0.027503
v -0.001800 0.018539 0.027503
v -0.003800 0.016279 0.027503
v -0.001800 -0.023949 0.027503
v -0.003400 -0.023949 0.027503
v -0.001800 -0.019655 0.027503
v -0.003400 -0.021689 0.027503
v -0.003000 -0.018299 0.027503
v -0.003000 0.009725 0.027503
v -0.013800 -0.023949 0.009503
v -0.013800 -0.028469 0.009503
v -0.013800 -0.023949 0.167803
v -0.013800 -0.028469 0.169503
v -0.013800 0.023059 0.167803
v -0.013800 0.027579 0.169503
v -0.013800 0.023059 0.009503
v -0.013800 0.027579 0.009503
v -0.001800 -0.028469 0.169503
v -0.001800 0.027579 0.169503
v -0.012000 0.003623 0.167003
v -0.001800 0.003623 0.167003
v -0.012000 -0.004739 0.167003
v -0.001800 -0.004739 0.167003
v -0.003400 0.025997 0.167803
v -0.003400 0.025997 0.009503
v -0.003400 0.023059 0.009503
v -0.003400 0.019669 0.030503
v -0.003400 0.019669 0.167803
v -0.003400 0.020234 0.030503
v -0.003400 0.020799 0.029129
v -0.012200 0.023059 0.167803
v -0.012200 0.023059 0.009503
v -0.009451 0.013115 0.160332
v -0.009207 0.013115 0.160094
v -0.012000 0.013115 0.155503
v -0.008939 0.013115 0.159884
v -0.006014 0.013115 0.159492
v -0.001800 0.013115 0.155503
v -0.006341 0.013115 0.159394
v -0.006675 0.013115 0.159331
v -0.010282 0.013115 0.162162
v -0.010300 0.013115 0.162503
v -0.012000 0.013115 0.167803
v -0.010282 0.013115 0.162843
v -0.008651 0.013115 0.159703
v -0.008344 0.013115 0.159554
v -0.008024 0.013115 0.159439
v -0.007693 0.013115 0.159358
v -0.007355 0.013115 0.159313
v -0.007015 0.013115 0.159304
v -0.005701 0.013115 0.159625
v -0.005403 0.013115 0.159790
v -0.005124 0.013115 0.159986
v -0.004120 0.013115 0.163668
v -0.004260 0.013115 0.163978
v -0.001800 0.013115 0.167803
v -0.010228 0.013115 0.161826
v -0.010138 0.013115 0.161498
v -0.010014 0.013115 0.161180
v -0.009857 0.013115 0.160878
v -0.009669 0.013115 0.160594
v -0.009451 0.013115 0.164673
v -0.009669 0.013115 0.164411
v -0.009857 0.013115 0.164127
v -0.010014 0.013115 0.163825
v -0.003905 0.013115 0.162673
v -0.003941 0.013115 0.163012
v -0.004013 0.013115 0.163345
v -0.006341 0.013115 0.165611
v -0.006014 0.013115 0.165513
v -0.005701 0.013115 0.165380
v -0.010138 0.013115 0.163508
v -0.010228 0.013115 0.163179
v -0.004868 0.013115 0.160210
v -0.004637 0.013115 0.160460
v -0.004433 0.013115 0.160734
v -0.004260 0.013115 0.161027
v -0.004120 0.013115 0.161337
v -0.004013 0.013115 0.161661
v -0.004433 0.013115 0.164272
v -0.004637 0.013115 0.164545
v -0.004868 0.013115 0.164795
v -0.005124 0.013115 0.165020
v -0.005403 0.013115 0.165215
v -0.007693 0.013115 0.165647
v -0.008024 0.013115 0.165566
v -0.008344 0.013115 0.165451
v -0.008651 0.013115 0.165302
v -0.008939 0.013115 0.165121
v -0.009207 0.013115 0.164911
v -0.003941 0.013115 0.161994
v -0.003905 0.013115 0.162332
v -0.003900 0.013115 0.162503
v -0.006675 0.013115 0.165674
v -0.007015 0.013115 0.165701
v -0.007355 0.013115 0.165692
v -0.009600 0.025997 0.167803
v -0.009600 0.025997 0.164500
v -0.009451 0.025997 0.164673
v -0.009207 0.025997 0.164911
v -0.008939 0.025997 0.165121
v -0.008651 0.025997 0.165302
v -0.005556 0.025997 0.031054
v -0.005876 0.025997 0.030939
v -0.008344 0.025997 0.165451
v -0.008024 0.025997 0.165566
v -0.007693 0.025997 0.165647
v -0.008497 0.025997 0.031290
v -0.008776 0.025997 0.031486
v -0.009600 0.025997 0.009503
v -0.009032 0.025997 0.031710
v -0.006675 0.025997 0.165674
v -0.007015 0.025997 0.165701
v -0.007355 0.025997 0.165692
v -0.006341 0.025997 0.165611
v -0.006014 0.025997 0.165513
v -0.005701 0.025997 0.165380
v -0.007225 0.025997 0.030831
v -0.007559 0.025997 0.030894
v -0.005403 0.025997 0.165215
v -0.005124 0.025997 0.165020
v -0.004868 0.025997 0.164795
v -0.006014 0.025997 0.159492
v -0.006341 0.025997 0.159394
v -0.003600 0.025997 0.034003
v -0.009032 0.025997 0.036295
v -0.008776 0.025997 0.036520
v -0.009600 0.025997 0.160505
v -0.003618 0.025997 0.034343
v -0.008344 0.025997 0.159554
v -0.008651 0.025997 0.159703
v -0.007225 0.025997 0.037174
v -0.007886 0.025997 0.030992
v -0.008199 0.025997 0.031125
v -0.009263 0.025997 0.031960
v -0.009467 0.025997 0.032234
v -0.009600 0.025997 0.032453
v -0.007886 0.025997 0.037013
v -0.007559 0.025997 0.037111
v -0.009451 0.025997 0.160332
v -0.006207 0.025997 0.030858
v -0.006545 0.025997 0.030813
v -0.006885 0.025997 0.030804
v -0.005124 0.025997 0.159986
v -0.005403 0.025997 0.159790
v -0.005701 0.025997 0.159625
v -0.009600 0.025997 0.035552
v -0.009467 0.025997 0.035772
v -0.009263 0.025997 0.036045
v -0.008497 0.025997 0.036715
v -0.008199 0.025997 0.036880
v -0.006207 0.025997 0.037147
v -0.005876 0.025997 0.037066
v -0.007015 0.025997 0.159304
v -0.004449 0.025997 0.031832
v -0.004693 0.025997 0.031594
v -0.003672 0.025997 0.034679
v -0.006675 0.025997 0.159331
v -0.007355 0.025997 0.159313
v -0.007693 0.025997 0.159358
v -0.008024 0.025997 0.159439
v -0.004231 0.025997 0.035911
v -0.004043 0.025997 0.035627
v -0.008939 0.025997 0.159884
v -0.009207 0.025997 0.160094
v -0.004637 0.025997 0.164545
v -0.004433 0.025997 0.164272
v -0.004260 0.025997 0.163978
v -0.003762 0.025997 0.032998
v -0.003886 0.025997 0.032680
v -0.004961 0.025997 0.031384
v -0.005249 0.025997 0.031203
v -0.006545 0.025997 0.037192
v -0.005556 0.025997 0.036951
v -0.005249 0.025997 0.036802
v -0.004961 0.025997 0.036621
v -0.004693 0.025997 0.036411
v -0.004449 0.025997 0.036173
v -0.004013 0.025997 0.161661
v -0.004120 0.025997 0.161337
v -0.004260 0.025997 0.161027
v -0.004433 0.025997 0.160734
v -0.004120 0.025997 0.163668
v -0.004013 0.025997 0.163345
v -0.003941 0.025997 0.163012
v -0.003672 0.025997 0.033326
v -0.004637 0.025997 0.160460
v -0.004868 0.025997 0.160210
v -0.003886 0.025997 0.035325
v -0.003762 0.025997 0.035008
v -0.003905 0.025997 0.162673
v -0.003905 0.025997 0.162332
v -0.003941 0.025997 0.161994
v -0.003618 0.025997 0.033662
v -0.004043 0.025997 0.032378
v -0.004231 0.025997 0.032094
v -0.006885 0.025997 0.037202
v -0.008000 0.020234 0.030503
v -0.003000 0.008369 0.030503
v -0.003000 0.009725 0.030503
v -0.008000 0.008369 0.030503
v -0.003800 0.010629 0.030503
v -0.003800 0.016279 0.030503
v -0.001800 0.018539 0.030503
v -0.001800 0.019669 0.030503
v -0.005200 -0.004739 0.155503
v -0.001800 -0.004739 0.155503
v -0.001800 -0.014005 0.155503
v -0.001800 0.003623 0.155503
v -0.005200 0.003623 0.155503
v -0.012000 -0.014005 0.155503
v -0.012000 -0.004739 0.155503
v -0.008000 -0.004739 0.155503
v -0.012000 0.003623 0.155503
v -0.008000 0.003623 0.155503
v -0.008000 -0.013327 0.040503
v -0.008000 -0.002253 0.040503
v -0.008000 -0.013327 0.030503
v -0.008000 -0.002253 0.029503
v -0.008000 -0.021689 0.029129
v -0.008000 -0.021124 0.030503
v -0.008000 0.006109 0.040503
v -0.008000 0.008369 0.040503
v -0.008000 0.006109 0.029503
v -0.008000 0.020799 0.029129
v -0.001800 -0.014005 0.167803
v -0.001800 -0.028469 0.009503
v -0.001800 -0.023949 0.009503
v -0.001800 -0.004739 0.160803
v -0.001800 -0.007225 0.160803
v -0.001800 -0.007225 0.164203
v -0.001800 -0.019655 0.030503
v -0.001800 -0.020559 0.030503
v -0.001800 -0.020559 0.167803
v -0.001800 0.019669 0.167803
v -0.001800 -0.004739 0.164203
v -0.001800 0.023059 0.009503
v -0.001800 0.027579 0.009503
v -0.005100 -0.004739 0.032303
v -0.005100 -0.002253 0.032303
v -0.005278 -0.004739 0.032312
v -0.005278 -0.002253 0.032312
v -0.005453 -0.004739 0.032340
v -0.005453 -0.002253 0.032340
v -0.005625 -0.004739 0.032386
v -0.005625 -0.002253 0.032386
v -0.005791 -0.004739 0.032450
v -0.005791 -0.002253 0.032450
v -0.005950 -0.004739 0.032530
v -0.005950 -0.002253 0.032530
v -0.006099 -0.004739 0.032627
v -0.006099 -0.002253 0.032627
v -0.006238 -0.004739 0.032739
v -0.006238 -0.002253 0.032739
v -0.006363 -0.004739 0.032865
v -0.006363 -0.002253 0.032865
v -0.006475 -0.004739 0.033003
v -0.006475 -0.002253 0.033003
v -0.006572 -0.004739 0.033153
v -0.006572 -0.002253 0.033153
v -0.006653 -0.004739 0.033311
v -0.006653 -0.002253 0.033311
v -0.006717 -0.004739 0.033477
v -0.006717 -0.002253 0.033477
v -0.006763 -0.004739 0.033649
v -0.006763 -0.002253 0.033649
v -0.006791 -0.004739 0.033825
v -0.006791 -0.002253 0.033825
v -0.006800 -0.004739 0.034003
v -0.006800 -0.002253 0.034003
v -0.006791 -0.004739 0.034180
v -0.006791 -0.002253 0.034180
v -0.006763 -0.004739 0.034356
v -0.006763 -0.002253 0.034356
v -0.006717 -0.004739 0.034528
v -0.006717 -0.002253 0.034528
v -0.006653 -0.004739 0.034694
v -0.006653 -0.002253 0.034694
v -0.006572 -0.004739 0.034853
v -0.006572 -0.002253 0.034853
v -0.006475 -0.004739 0.035002
v -0.006475 -0.002253 0.035002
v -0.006363 -0.004739 0.035140
v -0.006363 -0.002253 0.035140
v -0.006238 -0.004739 0.035266
v -0.006238 -0.002253 0.035266
v -0.006099 -0.004739 0.035378
v -0.006099 -0.002253 0.035378
v -0.005950 -0.004739 0.035475
v -0.005950 -0.002253 0.035475
v -0.005791 -0.004739 0.035556
v -0.005791 -0.002253 0.035556
v -0.005625 -0.004739 0.035619
v -0.005625 -0.002253 0.035619
v -0.005453 -0.004739 0.035665
v -0.005453 -0.002253 0.035665
v -0.005278 -0.004739 0.035693
v -0.005278 -0.002253 0.035693
v -0.005100 -0.004739 0.035703
v -0.005100 -0.002253 0.035703
v -0.003000 -0.002253 0.032303
v -0.003000 -0.004739 0.032303
v -0.003000 -0.004739 0.035703
v -0.003000 -0.002253 0.035703
v -0.006200 -0.002253 0.040503
v -0.003000 0.008369 0.040503
v -0.006200 0.006109 0.040503
v -0.003000 -0.013327 0.040503
v -0.003000 -0.002253 0.040503
v -0.004000 -0.002253 0.040503
v -0.003000 0.006109 0.040503
v -0.004000 0.006109 0.040503
v -0.012000 -0.014005 0.167803
v -0.012200 -0.023949 0.167803
v -0.012200 -0.023949 0.009503
v -0.009669 0.027579 0.160594
v -0.009451 0.027579 0.160332
v -0.009207 0.027579 0.160094
v -0.008939 0.027579 0.159884
v -0.008651 0.027579 0.159703
v -0.008344 0.027579 0.159554
v -0.008024 0.027579 0.159439
v -0.007693 0.027579 0.159358
v -0.007355 0.027579 0.159313
v -0.007015 0.027579 0.159304
v -0.006675 0.027579 0.159331
v -0.006341 0.027579 0.159394
v -0.006014 0.027579 0.159492
v -0.005701 0.027579 0.159625
v -0.005403 0.027579 0.159790
v -0.005124 0.027579 0.159986
v -0.004868 0.027579 0.160210
v -0.004637 0.027579 0.160460
v -0.004433 0.027579 0.160734
v -0.004260 0.027579 0.161027
v -0.004120 0.027579 0.161337
v -0.004013 0.027579 0.161661
v -0.003941 0.027579 0.161994
v -0.003905 0.027579 0.162332
v -0.003905 0.027579 0.162673
v -0.003941 0.027579 0.163012
v -0.004013 0.027579 0.163345
v -0.004120 0.027579 0.163668
v -0.004260 0.027579 0.163978
v -0.004433 0.027579 0.164272
v -0.004637 0.027579 0.164545
v -0.004868 0.027579 0.164795
v -0.005124 0.027579 0.165020
v -0.005403 0.027579 0.165215
v -0.005701 0.027579 0.165380
v -0.006014 0.027579 0.165513
v -0.006341 0.027579 0.165611
v -0.006675 0.027579 0.165674
v -0.007015 0.027579 0.165701
v -0.007355 0.027579 0.165692
v -0.007693 0.027579 0.165647
v -0.008024 0.027579 0.165566
v -0.008344 0.027579 0.165451
v -0.008651 0.027579 0.165302
v -0.008939 0.027579 0.165121
v -0.009207 0.027579 0.164911
v -0.009451 0.027579 0.164673
v -0.009669 0.027579 0.164411
v -0.009669 0.025997 0.164411
v -0.009857 0.027579 0.164127
v -0.009857 0.025997 0.164127
v -0.010014 0.027579 0.163825
v -0.010014 0.025997 0.163825
v -0.010138 0.027579 0.163508
v -0.010138 0.025997 0.163508
v -0.010228 0.027579 0.163179
v -0.010228 0.025997 0.163179
v -0.010282 0.027579 0.162843
v -0.010282 0.025997 0.162843
v -0.010300 0.027579 0.162503
v -0.010300 0.025997 0.162503
v -0.010282 0.027579 0.162162
v -0.010282 0.025997 0.162162
v -0.010228 0.027579 0.161826
v -0.010228 0.025997 0.161826
v -0.010138 0.027579 0.161498
v -0.010138 0.025997 0.161498
v -0.010014 0.027579 0.161180
v -0.010014 0.025997 0.161180
v -0.009857 0.027579 0.160878
v -0.009857 0.025997 0.160878
v -0.009669 0.025997 0.160594
v -0.005600 0.005883 0.162503
v -0.005600 0.003623 0.162503
v -0.005608 0.005883 0.162662
v -0.005608 0.003623 0.162662
v -0.005634 0.005883 0.162820
v -0.005634 0.003623 0.162820
v -0.005676 0.005883 0.162974
v -0.005676 0.003623 0.162974
v -0.005734 0.005883 0.163122
v -0.005734 0.003623 0.163122
v -0.005808 0.005883 0.163264
v -0.005808 0.003623 0.163264
v -0.005896 0.005883 0.163397
v -0.005896 0.003623 0.163397
v -0.005998 0.005883 0.163520
v -0.005998 0.003623 0.163520
v -0.006112 0.005883 0.163631
v -0.006112 0.003623 0.163631
v -0.006238 0.005883 0.163730
v -0.006238 0.003623 0.163730
v -0.006373 0.005883 0.163815
v -0.006373 0.003623 0.163815
v -0.006517 0.005883 0.163885
v -0.006517 0.003623 0.163885
v -0.006667 0.005883 0.163939
v -0.006667 0.003623 0.163939
v -0.006822 0.005883 0.163977
v -0.006822 0.003623 0.163977
v -0.006980 0.005883 0.163998
v -0.006980 0.003623 0.163998
v -0.007140 0.005883 0.164002
v -0.007140 0.003623 0.164002
v -0.007299 0.005883 0.163989
v -0.007299 0.003623 0.163989
v -0.007456 0.005883 0.163960
v -0.007456 0.003623 0.163960
v -0.007609 0.005883 0.163914
v -0.007609 0.003623 0.163914
v -0.007756 0.005883 0.163852
v -0.007756 0.003623 0.163852
v -0.007896 0.005883 0.163774
v -0.007896 0.003623 0.163774
v -0.008026 0.005883 0.163682
v -0.008026 0.003623 0.163682
v -0.008146 0.005883 0.163577
v -0.008146 0.003623 0.163577
v -0.008255 0.005883 0.163460
v -0.008255 0.003623 0.163460
v -0.008350 0.005883 0.163332
v -0.008350 0.003623 0.163332
v -0.008431 0.005883 0.163194
v -0.008431 0.003623 0.163194
v -0.008497 0.005883 0.163049
v -0.008497 0.003623 0.163049
v -0.008547 0.005883 0.162897
v -0.008547 0.003623 0.162897
v -0.008581 0.005883 0.162741
v -0.008581 0.003623 0.162741
v -0.008598 0.005883 0.162582
v -0.008598 0.003623 0.162582
v -0.008600 0.005883 0.162503
v -0.008600 0.003623 0.162503
v -0.008598 0.005883 0.162423
v -0.008598 0.003623 0.162423
v -0.008581 0.005883 0.162264
v -0.008581 0.003623 0.162264
v -0.008547 0.005883 0.162108
v -0.008547 0.003623 0.162108
v -0.008497 0.005883 0.161956
v -0.008497 0.003623 0.161956
v -0.008431 0.005883 0.161811
v -0.008431 0.003623 0.161811
v -0.008350 0.005883 0.161673
v -0.008350 0.003623 0.161673
v -0.008255 0.005883 0.161545
v -0.008255 0.003623 0.161545
v -0.008146 0.005883 0.161428
v -0.008146 0.003623 0.161428
v -0.008026 0.005883 0.161323
v -0.008026 0.003623 0.161323
v -0.007896 0.005883 0.161231
v -0.007896 0.003623 0.161231
v -0.007756 0.005883 0.161154
v -0.007756 0.003623 0.161154
v -0.007609 0.005883 0.161092
v -0.007609 0.003623 0.161092
v -0.007456 0.005883 0.161045
v -0.007456 0.003623 0.161045
v -0.007299 0.005883 0.161016
v -0.007299 0.003623 0.161016
v -0.007140 0.005883 0.161003
v -0.007140 0.003623 0.161003
v -0.006980 0.005883 0.161007
v -0.006980 0.003623 0.161007
v -0.006822 0.005883 0.161029
v -0.006822 0.003623 0.161029
v -0.006667 0.005883 0.161067
v -0.006667 0.003623 0.161067
v -0.006517 0.005883 0.161121
v -0.006517 0.003623 0.161121
v -0.006373 0.005883 0.161190
v -0.006373 0.003623 0.161190
v -0.006238 0.005883 0.161275
v -0.006238 0.003623 0.161275
v -0.006112 0.005883 0.161374
v -0.006112 0.003623 0.161374
v -0.005998 0.005883 0.161485
v -0.005998 0.003623 0.161485
v -0.005896 0.005883 0.161608
v -0.005896 0.003623 0.161608
v -0.005808 0.005883 0.161741
v -0.005808 0.003623 0.161741
v -0.005734 0.005883 0.161883
v -0.005734 0.003623 0.161883
v -0.005676 0.005883 0.162032
v -0.005676 0.003623 0.162032
v -0.005634 0.005883 0.162186
v -0.005634 0.003623 0.162186
v -0.005608 0.005883 0.162343
v -0.005608 0.003623 0.162343
v -0.006581 0.008369 0.033764
v -0.006598 0.008369 0.033923
v -0.006598 0.006109 0.033923
v -0.006600 0.008369 0.034003
v -0.006598 0.006109 0.034082
v -0.006598 0.008369 0.034082
v -0.006581 0.006109 0.034241
v -0.006581 0.008369 0.034241
v -0.006547 0.006109 0.034397
v -0.006547 0.008369 0.034397
v -0.006497 0.006109 0.034549
v -0.006497 0.008369 0.034549
v -0.006431 0.006109 0.034694
v -0.006431 0.008369 0.034694
v -0.006350 0.006109 0.034832
v -0.006350 0.008369 0.034832
v -0.006255 0.006109 0.034960
v -0.006255 0.008369 0.034960
v -0.006146 0.006109 0.035077
v -0.006146 0.008369 0.035077
v -0.006026 0.006109 0.035182
v -0.006026 0.008369 0.035182
v -0.005896 0.006109 0.035274
v -0.005896 0.008369 0.035274
v -0.005756 0.006109 0.035352
v -0.005756 0.008369 0.035352
v -0.005609 0.006109 0.035414
v -0.005609 0.008369 0.035414
v -0.005456 0.006109 0.035460
v -0.005456 0.008369 0.035460
v -0.005299 0.006109 0.035489
v -0.005299 0.008369 0.035489
v -0.005140 0.006109 0.035502
v -0.005140 0.008369 0.035502
v -0.004980 0.006109 0.035498
v -0.004980 0.008369 0.035498
v -0.004822 0.006109 0.035477
v -0.004822 0.008369 0.035477
v -0.004667 0.006109 0.035439
v -0.004667 0.008369 0.035439
v -0.004517 0.006109 0.035385
v -0.004517 0.008369 0.035385
v -0.004373 0.006109 0.035315
v -0.004373 0.008369 0.035315
v -0.004238 0.006109 0.035230
v -0.004238 0.008369 0.035230
v -0.004112 0.006109 0.035131
v -0.004112 0.008369 0.035131
v -0.003998 0.006109 0.035020
v -0.003998 0.008369 0.035020
v -0.003896 0.006109 0.034897
v -0.003896 0.008369 0.034897
v -0.003808 0.006109 0.034764
v -0.003808 0.008369 0.034764
v -0.003734 0.006109 0.034622
v -0.003734 0.008369 0.034622
v -0.003676 0.006109 0.034474
v -0.003676 0.008369 0.034474
v -0.003634 0.006109 0.034320
v -0.003634 0.008369 0.034320
v -0.003608 0.006109 0.034162
v -0.003608 0.008369 0.034162
v -0.003600 0.006109 0.034003
v -0.003600 0.008369 0.034003
v -0.003608 0.006109 0.033843
v -0.003608 0.008369 0.033843
v -0.003634 0.006109 0.033686
v -0.003634 0.008369 0.033686
v -0.003676 0.006109 0.033532
v -0.003676 0.008369 0.033532
v -0.003734 0.006109 0.033383
v -0.003734 0.008369 0.033383
v -0.003808 0.006109 0.033241
v -0.003808 0.008369 0.033241
v -0.003896 0.006109 0.033108
v -0.003896 0.008369 0.033108
v -0.003998 0.006109 0.032985
v -0.003998 0.008369 0.032985
v -0.004112 0.006109 0.032874
v -0.004112 0.008369 0.032874
v -0.004238 0.006109 0.032775
v -0.004238 0.008369 0.032775
v -0.004373 0.006109 0.032690
v -0.004373 0.008369 0.032690
v -0.004517 0.006109 0.032621
v -0.004517 0.008369 0.032621
v -0.004667 0.006109 0.032566
v -0.004667 0.008369 0.032566
v -0.004822 0.006109 0.032529
v -0.004822 0.008369 0.032529
v -0.004980 0.006109 0.032507
v -0.004980 0.008369 0.032507
v -0.005140 0.006109 0.032503
v -0.005140 0.008369 0.032503
v -0.005299 0.006109 0.032516
v -0.005299 0.008369 0.032516
v -0.005456 0.006109 0.032545
v -0.005456 0.008369 0.032545
v -0.005609 0.006109 0.032592
v -0.005609 0.008369 0.032592
v -0.005756 0.006109 0.032654
v -0.005756 0.008369 0.032654
v -0.005896 0.006109 0.032731
v -0.005896 0.008369 0.032731
v -0.006026 0.006109 0.032823
v -0.006026 0.008369 0.032823
v -0.006146 0.006109 0.032928
v -0.006146 0.008369 0.032928
v -0.006255 0.006109 0.033045
v -0.006255 0.008369 0.033045
v -0.006350 0.006109 0.033173
v -0.006350 0.008369 0.033173
v -0.006431 0.006109 0.033311
v -0.006431 0.008369 0.033311
v -0.006497 0.006109 0.033456
v -0.006497 0.008369 0.033456
v -0.006547 0.006109 0.033608
v -0.006547 0.008369 0.033608
v -0.006581 0.006109 0.033764
v -0.005200 -0.004739 0.158003
v -0.005200 0.003623 0.158003
v -0.008000 -0.004739 0.158003
v -0.008000 0.003623 0.158003
v -0.004000 0.006109 0.038503
v -0.004000 -0.002253 0.038503
v -0.006200 0.006109 0.038503
v -0.006200 -0.002253 0.038503
v -0.003400 -0.020559 0.030503
v -0.003400 -0.020559 0.167803
v -0.003000 0.006109 0.029503
v -0.003000 -0.002253 0.029503
v -0.009032 0.027579 0.031710
v -0.008776 0.027579 0.031486
v -0.006207 0.027579 0.030858
v -0.005876 0.027579 0.030939
v -0.006545 0.027579 0.030813
v -0.004231 0.027579 0.035911
v -0.004449 0.027579 0.036173
v -0.004693 0.027579 0.036411
v -0.004961 0.027579 0.036621
v -0.005249 0.027579 0.036802
v -0.007225 0.027579 0.037174
v -0.007559 0.027579 0.037111
v -0.007886 0.027579 0.037013
v -0.008199 0.027579 0.036880
v -0.009640 0.027579 0.035478
v -0.009780 0.027579 0.035168
v -0.009887 0.027579 0.034845
v -0.009263 0.027579 0.031960
v -0.003600 0.027579 0.034003
v -0.008497 0.027579 0.036715
v -0.008776 0.027579 0.036520
v -0.009032 0.027579 0.036295
v -0.009995 0.027579 0.033832
v -0.009959 0.027579 0.033494
v -0.009887 0.027579 0.033161
v -0.009780 0.027579 0.032837
v -0.008497 0.027579 0.031290
v -0.008199 0.027579 0.031125
v -0.007886 0.027579 0.030992
v -0.003672 0.027579 0.034679
v -0.003762 0.027579 0.035008
v -0.003886 0.027579 0.035325
v -0.004043 0.027579 0.035627
v -0.009263 0.027579 0.036045
v -0.009467 0.027579 0.035772
v -0.009959 0.027579 0.034512
v -0.009995 0.027579 0.034173
v -0.010000 0.027579 0.034003
v -0.009640 0.027579 0.032527
v -0.009467 0.027579 0.032234
v -0.007559 0.027579 0.030894
v -0.007225 0.027579 0.030831
v -0.006885 0.027579 0.030804
v -0.005556 0.027579 0.031054
v -0.005249 0.027579 0.031203
v -0.004961 0.027579 0.031384
v -0.003762 0.027579 0.032998
v -0.003672 0.027579 0.033326
v -0.003618 0.027579 0.034343
v -0.005556 0.027579 0.036951
v -0.005876 0.027579 0.037066
v -0.006885 0.027579 0.037202
v -0.006545 0.027579 0.037192
v -0.006207 0.027579 0.037147
v -0.004693 0.027579 0.031594
v -0.004449 0.027579 0.031832
v -0.004231 0.027579 0.032094
v -0.003618 0.027579 0.033662
v -0.004043 0.027579 0.032378
v -0.003886 0.027579 0.032680
v -0.003905 0.005883 0.162673
v -0.003905 0.005883 0.162332
v -0.003941 0.005883 0.161994
v -0.004013 0.005883 0.161661
v -0.004120 0.005883 0.161337
v -0.004260 0.005883 0.161027
v -0.004433 0.005883 0.160734
v -0.004637 0.005883 0.160460
v -0.004868 0.005883 0.160210
v -0.005124 0.005883 0.159986
v -0.005403 0.005883 0.159790
v -0.005701 0.005883 0.159625
v -0.006014 0.005883 0.159492
v -0.006341 0.005883 0.159394
v -0.006675 0.005883 0.159331
v -0.007015 0.005883 0.159304
v -0.007355 0.005883 0.159313
v -0.007693 0.005883 0.159358
v -0.008024 0.005883 0.159439
v -0.008344 0.005883 0.159554
v -0.008651 0.005883 0.159703
v -0.008939 0.005883 0.159884
v -0.009207 0.005883 0.160094
v -0.009451 0.005883 0.160332
v -0.009669 0.005883 0.160594
v -0.009857 0.005883 0.160878
v -0.010014 0.005883 0.161180
v -0.010138 0.005883 0.161498
v -0.010228 0.005883 0.161826
v -0.010282 0.005883 0.162162
v -0.010300 0.005883 0.162503
v -0.010282 0.005883 0.162843
v -0.010228 0.005883 0.163179
v -0.010138 0.005883 0.163508
v -0.010014 0.005883 0.163825
v -0.009857 0.005883 0.164127
v -0.009669 0.005883 0.164411
v -0.009451 0.005883 0.164673
v -0.009207 0.005883 0.164911
v -0.008939 0.005883 0.165121
v -0.008651 0.005883 0.165302
v -0.008344 0.005883 0.165451
v -0.008024 0.005883 0.165566
v -0.007693 0.005883 0.165647
v -0.007355 0.005883 0.165692
v -0.007015 0.005883 0.165701
v -0.006675 0.005883 0.165674
v -0.006341 0.005883 0.165611
v -0.006014 0.005883 0.165513
v -0.005701 0.005883 0.165380
v -0.005403 0.005883 0.165215
v -0.005124 0.005883 0.165020
v -0.004868 0.005883 0.164795
v -0.004637 0.005883 0.164545
v -0.004433 0.005883 0.164272
v -0.004260 0.005883 0.163978
v -0.004120 0.005883 0.163668
v -0.004013 0.005883 0.163345
v -0.003941 0.005883 0.163012
v -0.003400 -0.026887 0.167803
v -0.003400 -0.026887 0.009503
v -0.009600 -0.026887 0.167803
v -0.009600 -0.026887 0.009503
v -0.004142 -0.004739 0.034638
v -0.004215 -0.004739 0.034737
v -0.004947 -0.004739 0.032863
v -0.004827 -0.004739 0.032885
v -0.004390 -0.004739 0.033098
v -0.004490 -0.004739 0.033028
v -0.004597 -0.004739 0.032968
v -0.004298 -0.004739 0.033179
v -0.004215 -0.004739 0.033269
v -0.004142 -0.004739 0.033367
v -0.004298 -0.004739 0.034827
v -0.004390 -0.004739 0.034907
v -0.004490 -0.004739 0.034978
v -0.004710 -0.004739 0.032921
v -0.004827 -0.004739 0.035120
v -0.004710 -0.004739 0.035084
v -0.004597 -0.004739 0.035037
v -0.004080 -0.004739 0.033472
v -0.004029 -0.004739 0.033584
v -0.003991 -0.004739 0.033700
v -0.003965 -0.004739 0.034186
v -0.003991 -0.004739 0.034305
v -0.004029 -0.004739 0.034421
v -0.004080 -0.004739 0.034533
v -0.004947 -0.004739 0.035142
v -0.005069 -0.004739 0.035152
v -0.005192 -0.004739 0.035149
v -0.005313 -0.004739 0.035133
v -0.005432 -0.004739 0.035104
v -0.005547 -0.004739 0.035062
v -0.005657 -0.004739 0.035009
v -0.005761 -0.004739 0.034944
v -0.005857 -0.004739 0.034868
v -0.005945 -0.004739 0.034783
v -0.006023 -0.004739 0.034688
v -0.006091 -0.004739 0.034586
v -0.006147 -0.004739 0.034478
v -0.006192 -0.004739 0.034364
v -0.006224 -0.004739 0.034246
v -0.006243 -0.004739 0.034125
v -0.006250 -0.004739 0.034003
v -0.006243 -0.004739 0.033880
v -0.006224 -0.004739 0.033760
v -0.006192 -0.004739 0.033641
v -0.006147 -0.004739 0.033527
v -0.006091 -0.004739 0.033419
v -0.006023 -0.004739 0.033317
v -0.005945 -0.004739 0.033223
v -0.005857 -0.004739 0.033137
v -0.005761 -0.004739 0.033062
v -0.005657 -0.004739 0.032997
v -0.005547 -0.004739 0.032943
v -0.005432 -0.004739 0.032902
v -0.005313 -0.004739 0.032873
v -0.005192 -0.004739 0.032856
v -0.005069 -0.004739 0.032853
v -0.003965 -0.004739 0.033820
v -0.003952 -0.004739 0.033941
v -0.003952 -0.004739 0.034064
v -0.003965 -0.011971 0.034186
v -0.003952 -0.011971 0.034064
v -0.005100 -0.011971 0.034003
v -0.003950 -0.011971 0.034003
v -0.003952 -0.011971 0.033941
v -0.004080 -0.011971 0.034533
v -0.004029 -0.011971 0.034421
v -0.003991 -0.011971 0.034305
v -0.004298 -0.011971 0.034827
v -0.004215 -0.011971 0.034737
v -0.004142 -0.011971 0.034638
v -0.004597 -0.011971 0.035037
v -0.004490 -0.011971 0.034978
v -0.004390 -0.011971 0.034907
v -0.004947 -0.011971 0.035142
v -0.004827 -0.011971 0.035120
v -0.004710 -0.011971 0.035084
v -0.005313 -0.011971 0.035133
v -0.005192 -0.011971 0.035149
v -0.005069 -0.011971 0.035152
v -0.005657 -0.011971 0.035009
v -0.005547 -0.011971 0.035062
v -0.005432 -0.011971 0.035104
v -0.005945 -0.011971 0.034783
v -0.005857 -0.011971 0.034868
v -0.005761 -0.011971 0.034944
v -0.006147 -0.011971 0.034478
v -0.006091 -0.011971 0.034586
v -0.006023 -0.011971 0.034688
v -0.006243 -0.011971 0.034125
v -0.006224 -0.011971 0.034246
v -0.006192 -0.011971 0.034364
v -0.006224 -0.011971 0.033760
v -0.006243 -0.011971 0.033880
v -0.006250 -0.011971 0.034003
v -0.006091 -0.011971 0.033419
v -0.006147 -0.011971 0.033527
v -0.006192 -0.011971 0.033641
v -0.005857 -0.011971 0.033137
v -0.005945 -0.011971 0.033223
v -0.006023 -0.011971 0.033317
v -0.005547 -0.011971 0.032943
v -0.005657 -0.011971 0.032997
v -0.005761 -0.011971 0.033062
v -0.005192 -0.011971 0.032856
v -0.005313 -0.011971 0.032873
v -0.005432 -0.011971 0.032902
v -0.004827 -0.011971 0.032885
v -0.004947 -0.011971 0.032863
v -0.005069 -0.011971 0.032853
v -0.004490 -0.011971 0.033028
v -0.004597 -0.011971 0.032968
v -0.004710 -0.011971 0.032921
v -0.004215 -0.011971 0.033269
v -0.004298 -0.011971 0.033179
v -0.004390 -0.011971 0.033098
v -0.004029 -0.011971 0.033584
v -0.004080 -0.011971 0.033472
v -0.004142 -0.011971 0.033367
v -0.003965 -0.011971 0.033820
v -0.003991 -0.011971 0.033700
v -0.007100 -0.007225 0.160803
v -0.007100 -0.004739 0.160803
v -0.007278 -0.007225 0.160812
v -0.007278 -0.004739 0.160812
v -0.007453 -0.007225 0.160840
v -0.007453 -0.004739 0.160840
v -0.007625 -0.007225 0.160886
v -0.007625 -0.004739 0.160886
v -0.007791 -0.007225 0.160950
v -0.007791 -0.004739 0.160950
v -0.007950 -0.007225 0.161030
v -0.007950 -0.004739 0.161030
v -0.008099 -0.007225 0.161127
v -0.008099 -0.004739 0.161127
v -0.008238 -0.007225 0.161239
v -0.008238 -0.004739 0.161239
v -0.008363 -0.007225 0.161365
v -0.008363 -0.004739 0.161365
v -0.008475 -0.007225 0.161503
v -0.008475 -0.004739 0.161503
v -0.008572 -0.007225 0.161653
v -0.008572 -0.004739 0.161653
v -0.008653 -0.007225 0.161811
v -0.008653 -0.004739 0.161811
v -0.008717 -0.007225 0.161977
v -0.008717 -0.004739 0.161977
v -0.008763 -0.007225 0.162149
v -0.008763 -0.004739 0.162149
v -0.008791 -0.007225 0.162325
v -0.008791 -0.004739 0.162325
v -0.008800 -0.007225 0.162503
v -0.008800 -0.004739 0.162503
v -0.008791 -0.007225 0.162680
v -0.008791 -0.004739 0.162680
v -0.008763 -0.007225 0.162856
v -0.008763 -0.004739 0.162856
v -0.008717 -0.007225 0.163028
v -0.008717 -0.004739 0.163028
v -0.008653 -0.007225 0.163194
v -0.008653 -0.004739 0.163194
v -0.008572 -0.007225 0.163353
v -0.008572 -0.004739 0.163353
v -0.008475 -0.007225 0.163502
v -0.008475 -0.004739 0.163502
v -0.008363 -0.007225 0.163640
v -0.008363 -0.004739 0.163640
v -0.008238 -0.007225 0.163766
v -0.008238 -0.004739 0.163766
v -0.008099 -0.007225 0.163878
v -0.008099 -0.004739 0.163878
v -0.007950 -0.007225 0.163975
v -0.007950 -0.004739 0.163975
v -0.007791 -0.007225 0.164056
v -0.007791 -0.004739 0.164056
v -0.007625 -0.007225 0.164119
v -0.007625 -0.004739 0.164119
v -0.007453 -0.007225 0.164165
v -0.007453 -0.004739 0.164165
v -0.007278 -0.007225 0.164193
v -0.007278 -0.004739 0.164193
v -0.007100 -0.007225 0.164203
v -0.007100 -0.004739 0.164203
v -0.003400 -0.023949 0.009503
v -0.003400 -0.021124 0.030503
v -0.003400 -0.021689 0.029129
v -0.003000 -0.013327 0.030503
v -0.003000 -0.018299 0.030503
v -0.009640 0.025997 0.035478
v -0.009780 0.025997 0.035168
v -0.009887 0.025997 0.034845
v -0.009959 0.025997 0.034512
v -0.009995 0.025997 0.034173
v -0.009995 0.025997 0.033832
v -0.009959 0.025997 0.033494
v -0.009887 0.025997 0.033161
v -0.009780 0.025997 0.032837
v -0.009640 0.025997 0.032527
vn -0.0000 -0.0000 -1.0000
vn -1.0000 -0.0000 -0.0000
vn -0.0000 -0.0000 1.0000
vn -0.0000 -1.0000 -0.0000
vn -0.0000 1.0000 -0.0000
vn 0.7489 -0.6627 -0.0000
vn 1.0000 -0.0000 -0.0000
vn 0.0523 -0.0000 0.9986
vn 0.1564 -0.0000 0.9877
vn 0.2588 -0.0000 0.9659
vn 0.3584 -0.0000 0.9336
vn 0.4540 -0.0000 0.8910
vn 0.5447 -0.0000 0.8387
vn 0.5446 -0.0000 0.8387
vn 0.6293 -0.0000 0.7771
vn 0.6293 -0.0000 0.7772
vn 0.7071 -0.0000 0.7071
vn 0.7771 -0.0000 0.6293
vn 0.8387 -0.0000 0.5446
vn 0.8910 -0.0000 0.4540
vn 0.9336 -0.0000 0.3584
vn 0.9659 -0.0000 0.2588
vn 0.9877 -0.0000 0.1564
vn 0.9986 -0.0000 0.0523
vn 0.9986 -0.0000 -0.0523
vn 0.9877 -0.0000 -0.1564
vn 0.9659 -0.0000 -0.2588
vn 0.9336 -0.0000 -0.3584
vn 0.8910 -0.0000 -0.4540
vn 0.8387 -0.0000 -0.5446
vn 0.7771 -0.0000 -0.6293
vn 0.7071 -0.0000 -0.7071
vn 0.6293 -0.0000 -0.7771
vn 0.5447 -0.0000 -0.8387
vn 0.4540 -0.0000 -0.8910
vn 0.3583 -0.0000 -0.9336
vn 0.2588 -0.0000 -0.9659
vn 0.1564 -0.0000 -0.9877
vn 0.0523 -0.0000 -0.9986
vn 0.7698 -0.0025 0.6383
vn 0.7585 -0.0000 0.6517
vn 0.6976 -0.0000 0.7165
vn 0.6977 -0.0000 0.7164
vn 0.6175 -0.0000 0.7865
vn 0.6175 -0.0000 0.7866
vn 0.5304 -0.0000 0.8477
vn 0.4373 -0.0000 0.8993
vn 0.3392 -0.0000 0.9407
vn 0.2374 -0.0000 0.9714
vn 0.2373 -0.0000 0.9714
vn 0.1327 -0.0000 0.9912
vn 0.0266 -0.0000 0.9996
vn -0.0797 -0.0000 0.9968
vn -0.0798 -0.0000 0.9968
vn -0.1853 -0.0000 0.9827
vn -0.2887 -0.0000 0.9574
vn -0.2886 -0.0000 0.9574
vn -0.3888 -0.0000 0.9213
vn -0.4846 -0.0000 0.8747
vn -0.4845 -0.0000 0.8748
vn -0.5748 -0.0000 0.8183
vn -0.6585 -0.0000 0.7526
vn -0.7348 -0.0000 0.6783
vn -0.8027 -0.0000 0.5964
vn -0.8027 -0.0000 0.5963
vn -0.8615 -0.0000 0.5077
vn -0.8616 -0.0000 0.5077
vn -0.9106 -0.0000 0.4132
vn -0.9494 -0.0000 0.3141
vn -0.9774 -0.0000 0.2114
vn -0.9943 -0.0000 0.1063
vn -0.9943 -0.0000 -0.1063
vn -0.9774 -0.0000 -0.2114
vn -0.9494 -0.0000 -0.3141
vn -0.9106 -0.0000 -0.4132
vn -0.8615 -0.0000 -0.5077
vn -0.8027 -0.0000 -0.5964
vn -0.8027 -0.0000 -0.5963
vn -0.7348 -0.0000 -0.6783
vn -0.6585 -0.0000 -0.7526
vn -0.5748 -0.0000 -0.8183
vn -0.4846 -0.0000 -0.8747
vn -0.4845 -0.0000 -0.8748
vn -0.3888 -0.0000 -0.9213
vn -0.2887 -0.0000 -0.9574
vn -0.1853 -0.0000 -0.9827
vn -0.0797 -0.0000 -0.9968
vn -0.0798 -0.0000 -0.9968
vn 0.0266 -0.0000 -0.9996
vn 0.1327 -0.0000 -0.9912
vn 0.2374 -0.0000 -0.9714
vn 0.3392 -0.0000 -0.9407
vn 0.4373 -0.0000 -0.8993
vn 0.5304 -0.0000 -0.8477
vn 0.5305 -0.0000 -0.8477
vn 0.6175 -0.0000 -0.7865
vn 0.6175 -0.0000 -0.7866
vn 0.6976 -0.0000 -0.7165
vn 0.6977 -0.0000 -0.7164
vn 0.7585 -0.0000 -0.6517
vn 0.7698 -0.0025 -0.6382
vn 0.7921 -0.0000 -0.6104
vn 0.8333 -0.0000 -0.5528
vn 0.8873 -0.0000 -0.4611
vn 0.8874 -0.0000 -0.4611
vn 0.9313 -0.0000 -0.3642
vn 0.9648 -0.0000 -0.2631
vn 0.9873 -0.0000 -0.1591
vn 0.9986 -0.0000 -0.0532
vn 0.9986 -0.0000 0.0532
vn 0.9873 -0.0000 0.1591
vn 0.9648 -0.0000 0.2631
vn 0.9313 -0.0000 0.3642
vn 0.8874 -0.0000 0.4611
vn 0.8333 -0.0000 0.5528
vn 0.7921 -0.0000 0.6103
vn -0.9986 -0.0000 -0.0532
vn -0.9873 -0.0000 -0.1591
vn -0.9648 -0.0000 -0.2631
vn -0.9313 -0.0000 -0.3641
vn -0.8874 -0.0000 -0.4611
vn -0.8873 -0.0000 -0.4611
vn -0.8333 -0.0000 -0.5528
vn -0.7699 -0.0000 -0.6382
vn -0.7698 -0.0000 -0.6383
vn -0.6976 -0.0000 -0.7165
vn -0.6175 -0.0000 -0.7865
vn -0.5304 -0.0000 -0.8477
vn -0.4373 -0.0000 -0.8993
vn -0.3393 -0.0000 -0.9407
vn -0.2372 -0.0000 -0.9715
vn -0.2374 -0.0000 -0.9714
vn -0.1326 -0.0000 -0.9912
vn -0.1328 -0.0000 -0.9911
vn -0.0266 -0.0000 -0.9996
vn -0.0268 -0.0000 -0.9996
vn 0.0799 -0.0000 -0.9968
vn 0.0797 -0.0000 -0.9968
vn 0.1852 -0.0000 -0.9827
vn 0.1854 -0.0000 -0.9827
vn 0.2886 -0.0000 -0.9574
vn 0.2888 -0.0000 -0.9574
vn 0.3889 -0.0000 -0.9213
vn 0.3888 -0.0000 -0.9213
vn 0.4845 -0.0000 -0.8748
vn 0.5748 -0.0000 -0.8183
vn 0.6586 -0.0000 -0.7525
vn 0.6585 -0.0000 -0.7526
vn 0.7348 -0.0000 -0.6782
vn 0.7347 -0.0000 -0.6783
vn 0.8027 -0.0000 -0.5963
vn 0.8027 -0.0000 -0.5964
vn 0.8615 -0.0000 -0.5077
vn 0.8616 -0.0000 -0.5076
vn 0.9106 -0.0000 -0.4132
vn 0.9107 -0.0000 -0.4132
vn 0.9494 -0.0000 -0.3141
vn 0.9494 -0.0000 -0.3140
vn 0.9774 -0.0000 -0.2114
vn 0.9943 -0.0000 -0.1063
vn 0.9996 -0.0000 -0.0266
vn 0.9996 -0.0000 0.0266
vn 0.9943 -0.0000 0.1063
vn 0.9774 -0.0000 0.2114
vn 0.9494 -0.0000 0.3141
vn 0.9106 -0.0000 0.4132
vn 0.9107 -0.0000 0.4132
vn 0.8615 -0.0000 0.5077
vn 0.8616 -0.0000 0.5076
vn 0.8027 -0.0000 0.5963
vn 0.8027 -0.0000 0.5964
vn 0.7348 -0.0000 0.6782
vn 0.7347 -0.0000 0.6783
vn 0.6586 -0.0000 0.7525
vn 0.6585 -0.0000 0.7526
vn 0.5748 -0.0000 0.8183
vn 0.4845 -0.0000 0.8748
vn 0.3889 -0.0000 0.9213
vn 0.3888 -0.0000 0.9213
vn 0.2886 -0.0000 0.9574
vn 0.2888 -0.0000 0.9574
vn 0.1852 -0.0000 0.9827
vn 0.1854 -0.0000 0.9827
vn 0.0799 -0.0000 0.9968
vn 0.0797 -0.0000 0.9968
vn -0.0266 -0.0000 0.9996
vn -0.0268 -0.0000 0.9996
vn -0.1326 -0.0000 0.9912
vn -0.1328 -0.0000 0.9911
vn -0.2372 -0.0000 0.9715
vn -0.2374 -0.0000 0.9714
vn -0.3393 -0.0000 0.9407
vn -0.4373 -0.0000 0.8993
vn -0.5304 -0.0000 0.8477
vn -0.6175 -0.0000 0.7865
vn -0.6976 -0.0000 0.7165
vn -0.7699 -0.0000 0.6382
vn -0.7698 -0.0000 0.6383
vn -0.8333 -0.0000 0.5528
vn -0.8874 -0.0000 0.4611
vn -0.8873 -0.0000 0.4611
vn -0.9313 -0.0000 0.3642
vn -0.9313 -0.0000 0.3641
vn -0.9648 -0.0000 0.2631
vn -0.9873 -0.0000 0.1591
vn -0.9986 -0.0000 0.0532
vn 1.0000 0.0009 -0.0000
vn 0.7348 -0.0000 -0.6783
vn 0.5747 -0.0000 -0.8183
vn 0.4846 -0.0000 -0.8748
vn 0.2887 -0.0000 -0.9574
vn 0.1853 -0.0000 -0.9827
vn 0.0798 -0.0000 -0.9968
vn -0.1327 -0.0000 -0.9912
vn -0.2373 -0.0000 -0.9714
vn -0.3392 -0.0000 -0.9407
vn -0.5304 -0.0000 -0.8478
vn -0.7698 -0.0000 -0.6382
vn -0.9313 -0.0000 -0.3642
vn -0.6977 -0.0000 0.7164
vn -0.6175 -0.0000 0.7866
vn -0.5305 -0.0000 0.8477
vn -0.3392 -0.0000 0.9407
vn -0.2373 -0.0000 0.9714
vn -0.1327 -0.0000 0.9912
vn 0.0798 -0.0000 0.9968
vn 0.1853 -0.0000 0.9827
vn 0.2887 -0.0000 0.9574
vn 0.4846 -0.0000 0.8748
vn 0.7348 -0.0000 0.6783
vn 0.8616 -0.0000 0.5077
vn -0.0000 -1.0000 0.0001
vn -0.9996 -0.0000 -0.0266
vn -1.0000 0.0006 -0.0000
vn -0.9996 -0.0000 0.0266
vn -0.1852 -0.0000 0.9827
vn 0.0267 -0.0000 0.9996
vn 0.1328 -0.0000 0.9911
vn 0.6176 -0.0000 0.7865
vn 0.6976 -0.0000 0.7164
vn 0.7698 -0.0000 0.6383
vn 0.7699 -0.0000 0.6382
vn 0.7698 -0.0000 -0.6383
vn 0.7699 -0.0000 -0.6382
vn 0.6976 -0.0000 -0.7164
vn 0.6176 -0.0000 -0.7865
vn 0.2373 -0.0000 -0.9714
vn 0.1328 -0.0000 -0.9911
vn 0.0267 -0.0000 -0.9996
vn -0.1852 -0.0000 -0.9827
vn -0.8616 -0.0000 -0.5077
vn -0.0000 1.0000 0.0001
vn -0.0000 1.0000 -0.0001
vn -1.0000 -0.0002 -0.0000
vn -0.6586 -0.0000 -0.7525
vn -0.2888 -0.0000 -0.9574
vn 0.0265 -0.0000 -0.9996
vn 0.2372 -0.0000 -0.9715
vn 0.3393 -0.0000 -0.9407
vn 0.7698 -0.0000 0.6382
vn 0.5304 -0.0000 0.8478
vn 0.4374 -0.0000 0.8993
vn 0.3393 -0.0000 0.9407
vn 0.2372 -0.0000 0.9715
vn 0.0265 -0.0000 0.9996
vn -0.2888 -0.0000 0.9574
vn -0.5747 -0.0000 0.8184
vn -0.6586 -0.0000 0.7525
vn -0.8616 -0.0000 0.5076
vn -0.9106 -0.0000 0.4133
vn -0.9494 -0.0000 0.3140
vn 0.0524 -0.0000 0.9986
vn 0.0525 -0.0000 0.9986
vn 0.3583 -0.0000 0.9336
vn 0.4539 -0.0000 0.8911
vn 0.4541 -0.0000 0.8909
vn 0.5447 -0.0000 0.8386
vn 0.5445 -0.0000 0.8388
vn 0.6294 -0.0000 0.7771
vn 0.7072 -0.0000 0.7071
vn 0.7772 -0.0000 0.6293
vn 0.7771 -0.0000 0.6294
vn 0.9336 -0.0000 0.3583
vn 0.9336 -0.0000 -0.3583
vn 0.7772 -0.0000 -0.6293
vn 0.6293 -0.0000 -0.7772
vn 0.6294 -0.0000 -0.7771
vn 0.5447 -0.0000 -0.8386
vn 0.5445 -0.0000 -0.8388
vn 0.4541 -0.0000 -0.8909
vn 0.3584 -0.0000 -0.9336
vn 0.2587 -0.0000 -0.9660
vn 0.1565 -0.0000 -0.9877
vn 0.0522 -0.0000 -0.9986
vn 0.0525 -0.0000 -0.9986
vn -0.0000 1.0000 0.0002
vn 0.8616 -0.0021 -0.5077
vn 0.8812 -0.0000 -0.4727
vn 1.0000 0.0029 -0.0000
vn 0.8813 -0.0000 0.4726
vn 0.8616 -0.0021 0.5077
vn 0.8548 -0.0000 0.5189
vn -0.7698 -0.0000 0.6382
vn -0.6976 -0.0000 -0.7164
vn -0.6175 -0.0000 -0.7866
vn 0.8549 -0.0000 -0.5189
vn 0.7489 0.6627 -0.0000
vn -0.0000 -0.9248 0.3804
vn -0.0000 0.9248 0.3804
s 0
f 1//1 2//1 3//1
f 4//1 5//1 6//1
f 6//1 5//1 7//1
f 6//1 7//1 3//1
f 3//1 7//1 8//1
f 3//1 8//1 1//1
f 9//1 10//1 11//1
f 11//1 10//1 12//1
f 11//1 12//1 13//1
f 13//1 12//1 2//1
f 13//1 2//1 14//1
f 14//1 2//1 1//1
f 15//2 16//2 17//2
f 17//2 16//2 18//2
f 17//2 18//2 19//2
f 19//2 18//2 20//2
f 19//2 20//2 21//2
f 21//2 20//2 22//2
f 18//3 23//3 20//3
f 20//3 23//3 24//3
f 25//1 26//1 27//1
f 27//1 26//1 28//1
f 29//2 30//2 4//2
f 4//2 30//2 31//2
f 32//2 33//2 34//2
f 34//2 33//2 29//2
f 34//2 29//2 35//2
f 35//2 29//2 4//2
f 35//2 4//2 6//2
f 19//4 21//4 36//4
f 36//4 21//4 37//4
f 38//5 39//5 40//5
f 40//5 39//5 41//5
f 42//5 43//5 44//5
f 44//5 43//5 45//5
f 46//5 40//5 47//5
f 47//5 40//5 48//5
f 47//5 48//5 49//5
f 41//5 50//5 40//5
f 40//5 50//5 51//5
f 40//5 51//5 52//5
f 52//5 53//5 40//5
f 40//5 53//5 54//5
f 40//5 54//5 43//5
f 43//5 54//5 55//5
f 43//5 55//5 45//5
f 42//5 56//5 43//5
f 43//5 56//5 57//5
f 43//5 57//5 58//5
f 59//5 60//5 61//5
f 46//5 62//5 40//5
f 40//5 62//5 63//5
f 40//5 63//5 64//5
f 64//5 65//5 40//5
f 40//5 65//5 66//5
f 40//5 66//5 38//5
f 67//5 68//5 48//5
f 48//5 68//5 69//5
f 48//5 69//5 70//5
f 71//5 72//5 61//5
f 61//5 72//5 73//5
f 61//5 73//5 59//5
f 74//5 61//5 75//5
f 75//5 61//5 76//5
f 70//5 77//5 48//5
f 48//5 77//5 78//5
f 48//5 78//5 49//5
f 58//5 79//5 43//5
f 43//5 79//5 80//5
f 43//5 80//5 81//5
f 81//5 82//5 43//5
f 43//5 82//5 83//5
f 43//5 83//5 84//5
f 60//5 85//5 61//5
f 61//5 85//5 86//5
f 61//5 86//5 87//5
f 87//5 88//5 61//5
f 61//5 88//5 89//5
f 61//5 89//5 76//5
f 90//5 91//5 48//5
f 48//5 91//5 92//5
f 48//5 92//5 93//5
f 93//5 94//5 48//5
f 48//5 94//5 95//5
f 48//5 95//5 67//5
f 84//5 96//5 43//5
f 43//5 96//5 97//5
f 43//5 97//5 61//5
f 61//5 97//5 98//5
f 61//5 98//5 71//5
f 74//5 99//5 61//5
f 61//5 99//5 100//5
f 61//5 100//5 48//5
f 48//5 100//5 101//5
f 48//5 101//5 90//5
f 102//4 103//4 104//4
f 104//4 105//4 102//4
f 102//4 105//4 106//4
f 102//4 106//4 107//4
f 108//4 109//4 30//4
f 107//4 110//4 102//4
f 102//4 110//4 111//4
f 102//4 111//4 112//4
f 113//4 114//4 115//4
f 115//4 114//4 116//4
f 117//4 29//4 118//4
f 118//4 29//4 102//4
f 118//4 102//4 119//4
f 119//4 102//4 112//4
f 117//4 120//4 29//4
f 29//4 120//4 121//4
f 29//4 121//4 122//4
f 115//4 123//4 124//4
f 122//4 125//4 29//4
f 29//4 125//4 126//4
f 29//4 126//4 127//4
f 128//4 129//4 130//4
f 131//4 132//4 133//4
f 130//4 129//4 134//4
f 135//4 136//4 137//4
f 124//4 138//4 115//4
f 115//4 138//4 139//4
f 115//4 139//4 113//4
f 116//4 140//4 115//4
f 115//4 140//4 141//4
f 115//4 141//4 142//4
f 143//4 144//4 133//4
f 133//4 144//4 137//4
f 133//4 137//4 145//4
f 109//4 146//4 30//4
f 30//4 146//4 147//4
f 30//4 147//4 115//4
f 115//4 147//4 148//4
f 115//4 148//4 123//4
f 149//4 150//4 130//4
f 130//4 150//4 151//4
f 130//4 151//4 128//4
f 152//4 153//4 133//4
f 133//4 153//4 154//4
f 133//4 154//4 131//4
f 132//4 155//4 133//4
f 133//4 155//4 156//4
f 133//4 156//4 143//4
f 157//4 158//4 159//4
f 30//4 160//4 161//4
f 134//4 129//4 162//4
f 162//4 129//4 163//4
f 162//4 163//4 159//4
f 164//4 165//4 137//4
f 137//4 165//4 166//4
f 137//4 166//4 135//4
f 159//4 167//4 168//4
f 136//4 169//4 137//4
f 137//4 169//4 170//4
f 137//4 170//4 145//4
f 127//4 171//4 29//4
f 29//4 171//4 172//4
f 29//4 172//4 173//4
f 30//4 174//4 175//4
f 161//4 176//4 30//4
f 30//4 176//4 177//4
f 30//4 177//4 108//4
f 157//4 159//4 178//4
f 158//4 179//4 159//4
f 159//4 179//4 180//4
f 159//4 180//4 181//4
f 181//4 182//4 159//4
f 159//4 182//4 183//4
f 159//4 183//4 167//4
f 184//4 185//4 30//4
f 30//4 185//4 186//4
f 30//4 186//4 187//4
f 173//4 188//4 29//4
f 29//4 188//4 189//4
f 29//4 189//4 190//4
f 174//4 30//4 191//4
f 187//4 192//4 130//4
f 130//4 192//4 193//4
f 130//4 193//4 149//4
f 168//4 194//4 159//4
f 159//4 194//4 195//4
f 159//4 195//4 162//4
f 190//4 196//4 29//4
f 29//4 196//4 197//4
f 29//4 197//4 30//4
f 30//4 197//4 198//4
f 30//4 198//4 184//4
f 187//4 130//4 30//4
f 30//4 130//4 199//4
f 30//4 199//4 191//4
f 175//4 200//4 30//4
f 30//4 200//4 201//4
f 30//4 201//4 160//4
f 164//4 137//4 159//4
f 159//4 137//4 202//4
f 159//4 202//4 178//4
f 103//6 102//6 36//6
f 115//6 142//6 37//6
f 37//6 142//6 152//6
f 37//6 152//6 36//6
f 36//6 152//6 133//6
f 36//6 133//6 103//6
f 32//3 34//3 203//3
f 204//3 205//3 206//3
f 206//3 205//3 207//3
f 206//3 207//3 208//3
f 209//3 210//3 208//3
f 208//3 210//3 32//3
f 208//3 32//3 206//3
f 206//3 32//3 203//3
f 211//1 212//1 213//1
f 43//1 214//1 40//1
f 40//1 214//1 215//1
f 216//1 217//1 218//1
f 219//1 40//1 220//1
f 220//1 40//1 215//1
f 220//1 215//1 218//1
f 218//1 215//1 211//1
f 218//1 211//1 216//1
f 216//1 211//1 213//1
f 221//2 222//2 223//2
f 223//2 222//2 224//2
f 2//2 225//2 226//2
f 227//2 228//2 229//2
f 229//2 228//2 206//2
f 229//2 206//2 203//2
f 226//2 223//2 2//2
f 2//2 223//2 224//2
f 2//2 224//2 3//2
f 3//2 224//2 229//2
f 3//2 229//2 230//2
f 230//2 229//2 203//2
f 231//7 24//7 23//7
f 23//7 232//7 9//7
f 9//7 232//7 233//7
f 212//7 234//7 213//7
f 213//7 234//7 235//7
f 213//7 235//7 231//7
f 231//7 235//7 236//7
f 11//7 237//7 9//7
f 9//7 237//7 238//7
f 9//7 238//7 23//7
f 23//7 238//7 239//7
f 23//7 239//7 231//7
f 26//7 214//7 43//7
f 61//7 240//7 24//7
f 43//7 61//7 26//7
f 26//7 61//7 24//7
f 26//7 24//7 28//7
f 28//7 24//7 231//7
f 28//7 231//7 241//7
f 241//7 231//7 236//7
f 209//7 7//7 210//7
f 210//7 7//7 5//7
f 242//7 243//7 5//7
f 5//7 243//7 24//7
f 5//7 24//7 210//7
f 210//7 24//7 240//7
f 244//8 245//8 246//8
f 246//8 245//8 247//8
f 246//9 247//9 248//9
f 248//9 247//9 249//9
f 248//10 249//10 250//10
f 250//10 249//10 251//10
f 250//11 251//11 252//11
f 252//11 251//11 253//11
f 252//12 253//12 254//12
f 254//12 253//12 255//12
f 254//13 255//13 256//13
f 256//14 255//14 257//14
f 256//15 257//15 258//15
f 258//16 257//16 259//16
f 258//17 259//17 260//17
f 260//17 259//17 261//17
f 260//18 261//18 262//18
f 262//18 261//18 263//18
f 262//19 263//19 264//19
f 264//19 263//19 265//19
f 264//20 265//20 266//20
f 266//20 265//20 267//20
f 266//21 267//21 268//21
f 268//21 267//21 269//21
f 268//22 269//22 270//22
f 270//22 269//22 271//22
f 270//23 271//23 272//23
f 272//23 271//23 273//23
f 272//24 273//24 274//24
f 274//24 273//24 275//24
f 274//25 275//25 276//25
f 276//25 275//25 277//25
f 276//26 277//26 278//26
f 278//26 277//26 279//26
f 278//27 279//27 280//27
f 280//27 279//27 281//27
f 280//28 281//28 282//28
f 282//28 281//28 283//28
f 282//29 283//29 284//29
f 284//29 283//29 285//29
f 284//30 285//30 286//30
f 286//30 285//30 287//30
f 286//31 287//31 288//31
f 288//31 287//31 289//31
f 288//32 289//32 290//32
f 290//32 289//32 291//32
f 290//33 291//33 292//33
f 292//33 291//33 293//33
f 292//34 293//34 294//34
f 294//34 293//34 295//34
f 294//35 295//35 296//35
f 296//35 295//35 297//35
f 296//36 297//36 298//36
f 298//36 297//36 299//36
f 298//37 299//37 300//37
f 300//37 299//37 301//37
f 300//38 301//38 302//38
f 302//38 301//38 303//38
f 302//39 303//39 304//39
f 304//39 303//39 305//39
f 306//3 245//3 307//3
f 307//3 245//3 244//3
f 308//1 304//1 309//1
f 309//1 304//1 305//1
f 310//3 222//3 221//3
f 228//3 227//3 311//3
f 311//3 227//3 312//3
f 313//3 314//3 315//3
f 316//3 311//3 317//3
f 317//3 311//3 312//3
f 317//3 312//3 315//3
f 315//3 312//3 310//3
f 315//3 310//3 313//3
f 313//3 310//3 221//3
f 217//2 216//2 27//2
f 27//2 216//2 318//2
f 27//2 318//2 25//2
f 25//2 318//2 48//2
f 25//2 48//2 219//2
f 219//2 48//2 40//2
f 319//5 320//5 17//5
f 17//5 320//5 15//5
f 321//40 133//40 322//40
f 322//41 133//41 145//41
f 322//42 145//42 323//42
f 323//43 145//43 170//43
f 323//44 170//44 324//44
f 324//45 170//45 169//45
f 324//46 169//46 325//46
f 325//46 169//46 136//46
f 325//47 136//47 326//47
f 326//47 136//47 135//47
f 326//48 135//48 327//48
f 327//48 135//48 166//48
f 327//49 166//49 328//49
f 328//50 166//50 165//50
f 328//51 165//51 329//51
f 329//51 165//51 164//51
f 329//52 164//52 330//52
f 330//52 164//52 159//52
f 330//53 159//53 331//53
f 331//54 159//54 163//54
f 331//55 163//55 332//55
f 332//55 163//55 129//55
f 332//56 129//56 333//56
f 333//57 129//57 128//57
f 333//58 128//58 334//58
f 334//58 128//58 151//58
f 334//59 151//59 335//59
f 335//60 151//60 150//60
f 335//61 150//61 336//61
f 336//61 150//61 149//61
f 336//62 149//62 337//62
f 337//62 149//62 193//62
f 337//63 193//63 338//63
f 338//63 193//63 192//63
f 338//64 192//64 339//64
f 339//65 192//65 187//65
f 339//66 187//66 340//66
f 340//67 187//67 186//67
f 340//68 186//68 341//68
f 341//68 186//68 185//68
f 341//69 185//69 342//69
f 342//69 185//69 184//69
f 342//70 184//70 343//70
f 343//70 184//70 198//70
f 343//71 198//71 344//71
f 344//71 198//71 197//71
f 344//2 197//2 345//2
f 345//2 197//2 196//2
f 345//72 196//72 346//72
f 346//72 196//72 190//72
f 346//73 190//73 347//73
f 347//73 190//73 189//73
f 347//74 189//74 348//74
f 348//74 189//74 188//74
f 348//75 188//75 349//75
f 349//75 188//75 173//75
f 349//76 173//76 350//76
f 350//76 173//76 172//76
f 350//77 172//77 351//77
f 351//78 172//78 171//78
f 351//79 171//79 352//79
f 352//79 171//79 127//79
f 352//80 127//80 353//80
f 353//80 127//80 126//80
f 353//81 126//81 354//81
f 354//81 126//81 125//81
f 354//82 125//82 355//82
f 355//83 125//83 122//83
f 355//84 122//84 356//84
f 356//84 122//84 121//84
f 356//85 121//85 357//85
f 357//85 121//85 120//85
f 357//86 120//86 358//86
f 358//86 120//86 117//86
f 358//87 117//87 359//87
f 359//88 117//88 118//88
f 359//89 118//89 360//89
f 360//89 118//89 119//89
f 360//90 119//90 361//90
f 361//90 119//90 112//90
f 361//91 112//91 362//91
f 362//91 112//91 111//91
f 362//92 111//92 363//92
f 363//92 111//92 110//92
f 363//93 110//93 364//93
f 364//93 110//93 107//93
f 364//94 107//94 365//94
f 365//95 107//95 106//95
f 365//96 106//96 366//96
f 366//97 106//97 105//97
f 366//98 105//98 367//98
f 105//99 104//99 367//99
f 367//100 104//100 103//100
f 367//101 103//101 368//101
f 368//102 103//102 369//102
f 368//103 369//103 370//103
f 370//103 369//103 371//103
f 370//104 371//104 372//104
f 372//105 371//105 373//105
f 372//106 373//106 374//106
f 374//106 373//106 375//106
f 374//107 375//107 376//107
f 376//107 375//107 377//107
f 376//108 377//108 378//108
f 378//108 377//108 379//108
f 378//109 379//109 380//109
f 380//109 379//109 381//109
f 380//110 381//110 382//110
f 382//110 381//110 383//110
f 382//111 383//111 384//111
f 384//111 383//111 385//111
f 384//112 385//112 386//112
f 386//112 385//112 387//112
f 386//113 387//113 388//113
f 388//113 387//113 389//113
f 388//114 389//114 390//114
f 390//114 389//114 391//114
f 390//115 391//115 321//115
f 321//115 391//115 392//115
f 321//116 392//116 133//116
f 393//117 394//117 395//117
f 395//117 394//117 396//117
f 395//118 396//118 397//118
f 397//118 396//118 398//118
f 397//119 398//119 399//119
f 399//119 398//119 400//119
f 399//120 400//120 401//120
f 401//120 400//120 402//120
f 401//121 402//121 403//121
f 403//122 402//122 404//122
f 403//123 404//123 405//123
f 405//123 404//123 406//123
f 405//124 406//124 407//124
f 407//125 406//125 408//125
f 407//126 408//126 409//126
f 409//126 408//126 410//126
f 409//127 410//127 411//127
f 411//127 410//127 412//127
f 411//128 412//128 413//128
f 413//128 412//128 414//128
f 413//129 414//129 415//129
f 415//129 414//129 416//129
f 415//130 416//130 417//130
f 417//130 416//130 418//130
f 417//131 418//131 419//131
f 419//132 418//132 420//132
f 419//133 420//133 421//133
f 421//134 420//134 422//134
f 421//135 422//135 423//135
f 423//136 422//136 424//136
f 423//137 424//137 425//137
f 425//138 424//138 426//138
f 425//139 426//139 427//139
f 427//140 426//140 428//140
f 427//141 428//141 429//141
f 429//142 428//142 430//142
f 429//143 430//143 431//143
f 431//144 430//144 432//144
f 431//145 432//145 433//145
f 433//145 432//145 434//145
f 433//146 434//146 435//146
f 435//146 434//146 436//146
f 435//147 436//147 437//147
f 437//148 436//148 438//148
f 437//149 438//149 439//149
f 439//150 438//150 440//150
f 439//151 440//151 441//151
f 441//152 440//152 442//152
f 441//153 442//153 443//153
f 443//154 442//154 444//154
f 443//155 444//155 445//155
f 445//156 444//156 446//156
f 445//157 446//157 447//157
f 447//158 446//158 448//158
f 447//159 448//159 449//159
f 449//159 448//159 450//159
f 449//160 450//160 451//160
f 451//160 450//160 452//160
f 451//161 452//161 453//161
f 453//161 452//161 454//161
f 453//162 454//162 455//162
f 455//162 454//162 456//162
f 455//163 456//163 457//163
f 457//163 456//163 458//163
f 457//164 458//164 459//164
f 459//164 458//164 460//164
f 459//165 460//165 461//165
f 461//165 460//165 462//165
f 461//166 462//166 463//166
f 463//167 462//167 464//167
f 463//168 464//168 465//168
f 465//169 464//169 466//169
f 465//170 466//170 467//170
f 467//171 466//171 468//171
f 467//172 468//172 469//172
f 469//173 468//173 470//173
f 469//174 470//174 471//174
f 471//175 470//175 472//175
f 471//176 472//176 473//176
f 473//176 472//176 474//176
f 473//177 474//177 475//177
f 475//177 474//177 476//177
f 475//178 476//178 477//178
f 477//179 476//179 478//179
f 477//180 478//180 479//180
f 479//181 478//181 480//181
f 479//182 480//182 481//182
f 481//183 480//183 482//183
f 481//184 482//184 483//184
f 483//185 482//185 484//185
f 483//186 484//186 485//186
f 485//187 484//187 486//187
f 485//188 486//188 487//188
f 487//189 486//189 488//189
f 487//190 488//190 489//190
f 489//191 488//191 490//191
f 489//192 490//192 491//192
f 491//192 490//192 492//192
f 491//193 492//193 493//193
f 493//193 492//193 494//193
f 493//194 494//194 495//194
f 495//194 494//194 496//194
f 495//195 496//195 497//195
f 497//195 496//195 498//195
f 497//196 498//196 499//196
f 499//196 498//196 500//196
f 499//197 500//197 501//197
f 501//198 500//198 502//198
f 501//199 502//199 503//199
f 503//199 502//199 504//199
f 503//200 504//200 505//200
f 505//201 504//201 506//201
f 505//202 506//202 507//202
f 507//203 506//203 508//203
f 507//204 508//204 509//204
f 509//204 508//204 510//204
f 509//205 510//205 511//205
f 511//205 510//205 512//205
f 511//206 512//206 393//206
f 393//206 512//206 394//206
f 513//163 514//163 515//163
f 515//162 514//162 516//162
f 515//207 516//207 517//207
f 517//161 516//161 518//161
f 517//160 518//160 519//160
f 519//160 518//160 520//160
f 519//159 520//159 521//159
f 521//159 520//159 522//159
f 521//157 522//157 523//157
f 523//157 522//157 524//157
f 523//155 524//155 525//155
f 525//155 524//155 526//155
f 525//153 526//153 527//153
f 527//153 526//153 528//153
f 527//152 528//152 529//152
f 529//152 528//152 530//152
f 529//208 530//208 531//208
f 531//208 530//208 532//208
f 531//148 532//148 533//148
f 533//148 532//148 534//148
f 533//209 534//209 535//209
f 535//209 534//209 536//209
f 535//210 536//210 537//210
f 537//145 536//145 538//145
f 537//143 538//143 539//143
f 539//143 538//143 540//143
f 539//211 540//211 541//211
f 541//211 540//211 542//211
f 541//212 542//212 543//212
f 543//212 542//212 544//212
f 543//213 544//213 545//213
f 545//213 544//213 546//213
f 545//135 546//135 547//135
f 547//135 546//135 548//135
f 547//214 548//214 549//214
f 549//214 548//214 550//214
f 549//215 550//215 551//215
f 551//215 550//215 552//215
f 551//130 552//130 553//130
f 553//216 552//216 554//216
f 553//129 554//129 555//129
f 555//129 554//129 556//129
f 555//217 556//217 557//217
f 557//217 556//217 558//217
f 557//127 558//127 559//127
f 559//127 558//127 560//127
f 559//126 560//126 561//126
f 561//126 560//126 562//126
f 561//218 562//218 563//218
f 563//218 562//218 564//218
f 563//123 564//123 565//123
f 565//123 564//123 566//123
f 565//121 566//121 567//121
f 567//121 566//121 568//121
f 567//219 568//219 569//219
f 569//219 568//219 570//219
f 569//119 570//119 571//119
f 571//119 570//119 572//119
f 571//118 572//118 573//118
f 573//118 572//118 574//118
f 573//117 574//117 575//117
f 575//117 574//117 576//117
f 575//206 576//206 577//206
f 577//206 576//206 578//206
f 577//205 578//205 579//205
f 579//205 578//205 580//205
f 579//204 580//204 581//204
f 581//204 580//204 582//204
f 581//203 582//203 583//203
f 583//203 582//203 584//203
f 583//200 584//200 585//200
f 585//200 584//200 586//200
f 585//199 586//199 587//199
f 587//199 586//199 588//199
f 587//198 588//198 589//198
f 589//198 588//198 590//198
f 589//220 590//220 591//220
f 591//220 590//220 592//220
f 591//221 592//221 593//221
f 593//221 592//221 594//221
f 593//222 594//222 595//222
f 595//222 594//222 596//222
f 595//193 596//193 597//193
f 597//193 596//193 598//193
f 597//192 598//192 599//192
f 599//223 598//223 600//223
f 599//224 600//224 601//224
f 601//224 600//224 602//224
f 601//225 602//225 603//225
f 603//225 602//225 604//225
f 603//186 604//186 605//186
f 605//186 604//186 606//186
f 605//226 606//226 607//226
f 607//226 606//226 608//226
f 607//227 608//227 609//227
f 609//227 608//227 610//227
f 609//228 610//228 611//228
f 611//228 610//228 612//228
f 611//179 612//179 613//179
f 613//179 612//179 614//179
f 613//229 614//229 615//229
f 615//177 614//177 616//177
f 615//176 616//176 617//176
f 617//176 616//176 618//176
f 617//175 618//175 619//175
f 619//175 618//175 620//175
f 619//230 620//230 621//230
f 621//230 620//230 622//230
f 621//171 622//171 623//171
f 623//171 622//171 624//171
f 623//231 624//231 625//231
f 625//169 624//169 626//169
f 625//166 626//166 627//166
f 627//166 626//166 628//166
f 627//165 628//165 629//165
f 629//165 628//165 630//165
f 629//164 630//164 631//164
f 631//164 630//164 513//164
f 631//163 513//163 515//163
f 632//3 633//3 634//3
f 634//3 633//3 635//3
f 636//1 637//1 638//1
f 638//1 637//1 639//1
f 238//5 640//5 239//5
f 239//5 640//5 641//5
f 642//3 229//3 643//3
f 643//3 229//3 224//3
f 316//4 317//4 636//4
f 312//4 227//4 638//4
f 638//4 227//4 229//4
f 609//4 611//4 229//4
f 531//4 533//4 636//4
f 636//4 533//4 535//4
f 636//4 541//4 543//4
f 591//4 593//4 642//4
f 642//4 599//4 601//4
f 625//4 627//4 229//4
f 535//4 537//4 636//4
f 636//4 537//4 539//4
f 636//4 539//4 541//4
f 543//4 545//4 636//4
f 636//4 545//4 547//4
f 636//4 547//4 549//4
f 593//4 595//4 642//4
f 642//4 595//4 597//4
f 642//4 597//4 599//4
f 601//4 603//4 642//4
f 642//4 603//4 605//4
f 642//4 605//4 229//4
f 229//4 605//4 607//4
f 229//4 607//4 609//4
f 229//4 617//4 619//4
f 571//4 636//4 569//4
f 569//4 636//4 567//4
f 571//4 573//4 636//4
f 636//4 573//4 642//4
f 636//4 642//4 316//4
f 573//4 575//4 642//4
f 642//4 575//4 577//4
f 642//4 577//4 579//4
f 611//4 613//4 229//4
f 229//4 613//4 615//4
f 229//4 615//4 617//4
f 619//4 621//4 229//4
f 229//4 621//4 623//4
f 229//4 623//4 625//4
f 549//4 551//4 636//4
f 636//4 551//4 553//4
f 636//4 553//4 555//4
f 555//4 557//4 636//4
f 636//4 557//4 559//4
f 636//4 559//4 561//4
f 561//4 563//4 636//4
f 636//4 563//4 565//4
f 636//4 565//4 567//4
f 579//4 581//4 642//4
f 642//4 581//4 583//4
f 642//4 583//4 585//4
f 585//4 587//4 642//4
f 642//4 587//4 589//4
f 642//4 589//4 591//4
f 523//4 525//4 638//4
f 638//4 525//4 527//4
f 638//4 527//4 636//4
f 636//4 527//4 529//4
f 636//4 529//4 531//4
f 627//4 629//4 229//4
f 229//4 629//4 631//4
f 229//4 631//4 515//4
f 515//4 517//4 229//4
f 229//4 517//4 519//4
f 229//4 519//4 638//4
f 638//4 519//4 521//4
f 638//4 521//4 523//4
f 219//4 220//4 25//4
f 25//4 220//4 635//4
f 396//4 394//4 26//4
f 215//4 214//4 633//4
f 633//4 214//4 26//4
f 500//4 498//4 633//4
f 414//4 412//4 26//4
f 26//4 412//4 410//4
f 26//4 410//4 408//4
f 484//4 482//4 635//4
f 635//4 482//4 480//4
f 635//4 480//4 478//4
f 408//4 406//4 26//4
f 26//4 406//4 404//4
f 26//4 404//4 402//4
f 402//4 400//4 26//4
f 26//4 400//4 398//4
f 26//4 398//4 396//4
f 506//4 504//4 633//4
f 633//4 504//4 502//4
f 633//4 502//4 500//4
f 498//4 496//4 633//4
f 633//4 496//4 494//4
f 633//4 494//4 492//4
f 492//4 490//4 633//4
f 633//4 490//4 488//4
f 633//4 488//4 635//4
f 635//4 488//4 486//4
f 635//4 486//4 484//4
f 450//4 448//4 25//4
f 25//4 448//4 446//4
f 25//4 446//4 444//4
f 394//4 512//4 26//4
f 26//4 512//4 510//4
f 26//4 510//4 633//4
f 633//4 510//4 508//4
f 633//4 508//4 506//4
f 478//4 476//4 635//4
f 635//4 476//4 474//4
f 635//4 474//4 472//4
f 472//4 470//4 635//4
f 635//4 470//4 468//4
f 635//4 468//4 466//4
f 25//4 458//4 456//4
f 428//4 25//4 430//4
f 430//4 25//4 432//4
f 466//4 464//4 635//4
f 635//4 464//4 462//4
f 635//4 462//4 25//4
f 25//4 462//4 460//4
f 25//4 460//4 458//4
f 444//4 442//4 25//4
f 25//4 442//4 440//4
f 25//4 440//4 438//4
f 438//4 436//4 25//4
f 25//4 436//4 434//4
f 25//4 434//4 432//4
f 456//232 454//232 25//232
f 25//4 454//4 452//4
f 25//4 452//4 450//4
f 428//4 426//4 25//4
f 25//4 426//4 424//4
f 25//4 424//4 26//4
f 26//4 424//4 422//4
f 26//4 422//4 420//4
f 420//4 418//4 26//4
f 26//4 418//4 416//4
f 26//4 416//4 414//4
f 318//4 216//4 231//4
f 231//4 216//4 213//4
f 315//7 637//7 317//7
f 317//7 637//7 636//7
f 310//2 312//2 639//2
f 639//2 312//2 638//2
f 633//7 632//7 215//7
f 215//7 632//7 211//7
f 220//2 218//2 635//2
f 635//2 218//2 634//2
f 542//5 540//5 228//5
f 626//5 624//5 206//5
f 618//5 616//5 206//5
f 206//5 616//5 614//5
f 206//5 614//5 612//5
f 311//5 552//5 550//5
f 540//5 538//5 228//5
f 228//5 538//5 536//5
f 228//5 536//5 534//5
f 514//5 513//5 206//5
f 604//5 602//5 204//5
f 204//5 602//5 600//5
f 204//5 600//5 598//5
f 560//5 558//5 311//5
f 550//5 548//5 311//5
f 311//5 548//5 546//5
f 311//5 546//5 228//5
f 228//5 546//5 544//5
f 228//5 544//5 542//5
f 513//5 630//5 206//5
f 206//5 630//5 628//5
f 206//5 628//5 626//5
f 624//5 622//5 206//5
f 206//5 622//5 620//5
f 206//5 620//5 618//5
f 612//5 610//5 206//5
f 206//5 610//5 608//5
f 206//5 608//5 204//5
f 204//5 608//5 606//5
f 204//5 606//5 604//5
f 558//5 556//5 311//5
f 311//5 556//5 554//5
f 311//5 554//5 552//5
f 598//5 596//5 204//5
f 204//5 596//5 594//5
f 204//5 594//5 592//5
f 534//5 532//5 228//5
f 228//5 532//5 530//5
f 228//5 530//5 528//5
f 528//5 526//5 228//5
f 228//5 526//5 524//5
f 228//5 524//5 522//5
f 580//5 578//5 204//5
f 204//5 578//5 576//5
f 204//5 576//5 311//5
f 311//5 576//5 574//5
f 311//5 574//5 572//5
f 572//5 570//5 311//5
f 311//5 570//5 568//5
f 311//5 568//5 566//5
f 566//5 564//5 311//5
f 311//5 564//5 562//5
f 311//5 562//5 560//5
f 522//5 520//5 228//5
f 228//5 520//5 518//5
f 228//5 518//5 206//5
f 206//5 518//5 516//5
f 206//5 516//5 514//5
f 592//5 590//5 204//5
f 204//5 590//5 588//5
f 204//5 588//5 586//5
f 586//5 584//5 204//5
f 204//5 584//5 582//5
f 204//5 582//5 580//5
f 232//4 23//4 16//4
f 16//4 23//4 18//4
f 361//5 362//5 20//5
f 353//5 354//5 24//5
f 644//5 645//5 22//5
f 646//5 647//5 243//5
f 362//5 363//5 20//5
f 20//5 363//5 364//5
f 20//5 364//5 365//5
f 365//5 366//5 20//5
f 20//5 366//5 367//5
f 20//5 367//5 368//5
f 368//5 370//5 20//5
f 20//5 370//5 372//5
f 20//5 372//5 374//5
f 646//5 243//5 648//5
f 374//5 376//5 20//5
f 20//5 376//5 378//5
f 20//5 378//5 380//5
f 649//5 650//5 327//5
f 650//5 651//5 327//5
f 327//5 651//5 652//5
f 327//5 652//5 653//5
f 654//5 655//5 20//5
f 20//5 655//5 656//5
f 20//5 656//5 657//5
f 658//5 659//5 20//5
f 20//5 659//5 660//5
f 644//5 22//5 661//5
f 328//5 329//5 662//5
f 353//5 24//5 352//5
f 354//5 355//5 24//5
f 24//5 355//5 356//5
f 24//5 356//5 357//5
f 357//5 358//5 24//5
f 24//5 358//5 359//5
f 24//5 359//5 20//5
f 20//5 359//5 360//5
f 20//5 360//5 361//5
f 657//5 663//5 20//5
f 20//5 663//5 664//5
f 20//5 664//5 665//5
f 666//5 667//5 22//5
f 22//5 667//5 668//5
f 22//5 668//5 669//5
f 645//5 670//5 22//5
f 22//5 670//5 671//5
f 22//5 671//5 672//5
f 673//5 674//5 327//5
f 674//5 675//5 327//5
f 327//5 675//5 676//5
f 327//5 676//5 649//5
f 654//5 322//5 323//5
f 665//5 677//5 20//5
f 20//5 677//5 678//5
f 20//5 678//5 658//5
f 660//5 679//5 20//5
f 20//5 679//5 680//5
f 20//5 680//5 22//5
f 22//5 680//5 681//5
f 22//5 681//5 666//5
f 669//5 682//5 22//5
f 22//5 682//5 683//5
f 22//5 683//5 661//5
f 672//5 684//5 22//5
f 22//5 684//5 685//5
f 22//5 685//5 243//5
f 243//5 685//5 686//5
f 243//5 686//5 648//5
f 647//5 687//5 243//5
f 243//5 687//5 688//5
f 243//5 688//5 689//5
f 690//5 691//5 243//5
f 328//5 662//5 327//5
f 327//5 662//5 692//5
f 327//5 692//5 673//5
f 380//5 382//5 20//5
f 20//5 382//5 384//5
f 20//5 384//5 654//5
f 654//5 384//5 386//5
f 654//5 386//5 388//5
f 388//5 390//5 654//5
f 654//5 390//5 321//5
f 654//5 321//5 322//5
f 653//5 693//5 327//5
f 327//5 693//5 694//5
f 327//5 694//5 326//5
f 323//5 324//5 654//5
f 654//5 324//5 325//5
f 654//5 325//5 695//5
f 695//5 325//5 696//5
f 330//5 331//5 243//5
f 331//5 332//5 243//5
f 243//5 332//5 333//5
f 243//5 333//5 334//5
f 334//5 335//5 243//5
f 243//5 335//5 336//5
f 243//5 336//5 337//5
f 326//5 694//5 325//5
f 325//5 694//5 697//5
f 325//5 697//5 696//5
f 689//5 698//5 243//5
f 243//5 698//5 699//5
f 243//5 699//5 700//5
f 691//5 701//5 243//5
f 243//5 701//5 662//5
f 243//5 662//5 330//5
f 330//5 662//5 329//5
f 337//5 338//5 243//5
f 243//5 338//5 339//5
f 243//5 339//5 340//5
f 24//5 348//5 349//5
f 340//5 341//5 243//5
f 243//5 341//5 342//5
f 243//5 342//5 24//5
f 342//5 343//5 24//5
f 24//5 343//5 344//5
f 24//5 344//5 345//5
f 349//5 350//5 24//5
f 24//5 350//5 351//5
f 24//5 351//5 352//5
f 700//5 702//5 243//5
f 243//5 702//5 703//5
f 243//5 703//5 690//5
f 345//5 346//5 24//5
f 24//5 346//5 347//5
f 24//5 347//5 348//5
f 72//72 71//72 704//72
f 704//233 71//233 98//233
f 704//234 98//234 705//234
f 705//235 98//235 97//235
f 705//71 97//71 706//71
f 706//71 97//71 96//71
f 706//70 96//70 707//70
f 707//70 96//70 84//70
f 707//69 84//69 708//69
f 708//69 84//69 83//69
f 708//68 83//68 709//68
f 709//68 83//68 82//68
f 709//66 82//66 710//66
f 710//67 82//67 81//67
f 710//65 81//65 711//65
f 711//64 81//64 80//64
f 711//63 80//63 712//63
f 712//63 80//63 79//63
f 712//62 79//62 713//62
f 713//62 79//62 58//62
f 713//61 58//61 714//61
f 714//61 58//61 57//61
f 714//60 57//60 715//60
f 715//59 57//59 56//59
f 715//58 56//58 716//58
f 716//58 56//58 42//58
f 716//56 42//56 717//56
f 717//56 42//56 44//56
f 717//236 44//236 718//236
f 718//55 44//55 45//55
f 718//54 45//54 719//54
f 719//53 45//53 55//53
f 719//52 55//52 720//52
f 720//237 55//237 54//237
f 720//238 54//238 721//238
f 721//51 54//51 53//51
f 721//49 53//49 722//49
f 722//50 53//50 52//50
f 722//48 52//48 723//48
f 723//48 52//48 51//48
f 723//47 51//47 724//47
f 724//47 51//47 50//47
f 724//46 50//46 725//46
f 725//46 50//46 41//46
f 725//45 41//45 726//45
f 726//239 41//239 39//239
f 726//240 39//240 727//240
f 727//42 39//42 38//42
f 727//241 38//241 728//241
f 728//242 38//242 66//242
f 728//115 66//115 729//115
f 729//115 66//115 65//115
f 729//114 65//114 730//114
f 730//114 65//114 64//114
f 730//113 64//113 731//113
f 731//113 64//113 63//113
f 731//112 63//112 732//112
f 732//112 63//112 62//112
f 732//111 62//111 733//111
f 733//111 62//111 46//111
f 733//110 46//110 734//110
f 734//110 46//110 47//110
f 734//109 47//109 735//109
f 735//109 47//109 49//109
f 735//108 49//108 736//108
f 736//108 49//108 78//108
f 736//107 78//107 737//107
f 737//107 78//107 77//107
f 737//106 77//106 738//106
f 738//106 77//106 70//106
f 738//105 70//105 739//105
f 739//105 70//105 69//105
f 739//103 69//103 740//103
f 740//103 69//103 68//103
f 740//243 68//243 741//243
f 741//244 68//244 67//244
f 741//245 67//245 742//245
f 742//98 67//98 95//98
f 742//97 95//97 743//97
f 743//246 95//246 94//246
f 743//94 94//94 744//94
f 744//94 94//94 93//94
f 744//93 93//93 745//93
f 745//93 93//93 92//93
f 745//92 92//92 746//92
f 746//92 92//92 91//92
f 746//247 91//247 747//247
f 747//91 91//91 90//91
f 747//248 90//248 748//248
f 748//90 90//90 101//90
f 748//249 101//249 749//249
f 749//89 101//89 100//89
f 749//88 100//88 750//88
f 750//87 100//87 99//87
f 750//86 99//86 751//86
f 751//250 99//250 74//250
f 751//85 74//85 752//85
f 752//85 74//85 75//85
f 752//84 75//84 753//84
f 753//84 75//84 76//84
f 753//83 76//83 754//83
f 754//82 76//82 89//82
f 754//81 89//81 755//81
f 755//81 89//81 88//81
f 755//80 88//80 756//80
f 756//80 88//80 87//80
f 756//79 87//79 757//79
f 757//79 87//79 86//79
f 757//78 86//78 758//78
f 758//77 86//77 85//77
f 758//251 85//251 759//251
f 759//76 85//76 60//76
f 759//75 60//75 760//75
f 760//75 60//75 59//75
f 760//74 59//74 761//74
f 761//74 59//74 73//74
f 761//73 73//73 762//73
f 762//73 73//73 72//73
f 762//72 72//72 704//72
f 726//5 727//5 467//5
f 467//5 727//5 465//5
f 465//5 727//5 728//5
f 465//5 728//5 463//5
f 467//5 469//5 726//5
f 726//5 469//5 471//5
f 726//5 471//5 725//5
f 725//5 471//5 473//5
f 725//5 473//5 724//5
f 724//5 473//5 723//5
f 473//5 475//5 723//5
f 723//5 475//5 477//5
f 723//5 477//5 722//5
f 722//5 477//5 479//5
f 722//5 479//5 721//5
f 721//5 479//5 481//5
f 721//5 481//5 720//5
f 720//5 481//5 483//5
f 720//5 483//5 719//5
f 719//5 483//5 485//5
f 719//5 485//5 718//5
f 733//5 457//5 732//5
f 732//5 457//5 459//5
f 732//5 459//5 731//5
f 731//5 459//5 461//5
f 731//5 461//5 730//5
f 730//5 461//5 463//5
f 730//5 463//5 729//5
f 729//5 463//5 728//5
f 718//5 485//5 717//5
f 717//5 485//5 487//5
f 717//5 487//5 716//5
f 499//5 501//5 710//5
f 447//5 449//5 735//5
f 735//5 449//5 451//5
f 735//5 451//5 734//5
f 734//5 451//5 453//5
f 734//5 453//5 733//5
f 733//5 453//5 455//5
f 733//5 455//5 457//5
f 710//5 501//5 709//5
f 441//5 443//5 738//5
f 738//5 443//5 445//5
f 738//5 445//5 737//5
f 737//5 445//5 447//5
f 737//5 447//5 736//5
f 736//5 447//5 735//5
f 487//5 489//5 716//5
f 716//5 489//5 491//5
f 716//5 491//5 715//5
f 715//5 491//5 493//5
f 715//5 493//5 714//5
f 714//5 493//5 495//5
f 714//5 495//5 713//5
f 713//5 495//5 497//5
f 713//5 497//5 712//5
f 712//5 497//5 499//5
f 712//5 499//5 711//5
f 711//5 499//5 710//5
f 501//5 503//5 709//5
f 709//5 503//5 505//5
f 709//5 505//5 708//5
f 708//5 505//5 507//5
f 708//5 507//5 707//5
f 707//5 507//5 509//5
f 707//5 509//5 706//5
f 706//5 509//5 705//5
f 742//5 743//5 433//5
f 433//5 743//5 744//5
f 433//5 744//5 431//5
f 431//5 744//5 745//5
f 431//5 745//5 429//5
f 429//5 745//5 746//5
f 429//5 746//5 427//5
f 751//5 419//5 750//5
f 750//5 419//5 421//5
f 427//5 746//5 425//5
f 425//5 746//5 747//5
f 425//5 747//5 423//5
f 423//5 747//5 748//5
f 423//5 748//5 421//5
f 421//5 748//5 749//5
f 421//5 749//5 750//5
f 433//5 435//5 742//5
f 742//5 435//5 437//5
f 742//5 437//5 741//5
f 741//5 437//5 439//5
f 741//5 439//5 740//5
f 740//5 439//5 441//5
f 740//5 441//5 739//5
f 739//5 441//5 738//5
f 509//5 511//5 705//5
f 705//5 511//5 393//5
f 705//5 393//5 704//5
f 704//5 393//5 395//5
f 704//5 395//5 762//5
f 762//5 395//5 397//5
f 762//5 397//5 761//5
f 761//5 397//5 399//5
f 761//5 399//5 760//5
f 760//5 399//5 401//5
f 760//5 401//5 759//5
f 759//5 401//5 403//5
f 759//5 403//5 758//5
f 758//5 403//5 405//5
f 758//5 405//5 757//5
f 757//5 405//5 407//5
f 757//5 407//5 756//5
f 756//5 407//5 409//5
f 756//5 409//5 755//5
f 755//5 409//5 411//5
f 755//5 411//5 754//5
f 754//5 411//5 413//5
f 754//5 413//5 753//5
f 753//5 413//5 752//5
f 752//5 413//5 415//5
f 752//5 415//5 751//5
f 751//5 415//5 417//5
f 751//5 417//5 419//5
f 1//7 8//7 207//7
f 207//7 8//7 208//7
f 763//5 764//5 765//5
f 765//5 764//5 766//5
f 767//5 768//5 308//5
f 244//5 769//5 770//5
f 771//5 307//5 772//5
f 772//252 307//252 773//252
f 771//5 774//5 307//5
f 307//5 774//5 775//5
f 307//5 775//5 776//5
f 768//5 777//5 308//5
f 308//5 777//5 778//5
f 308//5 778//5 779//5
f 244//5 770//5 307//5
f 307//5 770//5 780//5
f 307//5 780//5 773//5
f 781//5 304//5 782//5
f 782//5 304//5 308//5
f 782//5 308//5 783//5
f 783//253 308//253 779//253
f 776//5 784//5 307//5
f 307//5 784//5 785//5
f 307//5 785//5 786//5
f 308//5 787//5 788//5
f 788//5 789//5 308//5
f 308//5 789//5 790//5
f 308//5 790//5 767//5
f 781//5 791//5 304//5
f 304//5 791//5 792//5
f 304//5 792//5 302//5
f 302//5 792//5 793//5
f 302//5 793//5 300//5
f 300//5 793//5 794//5
f 300//5 794//5 298//5
f 298//5 794//5 795//5
f 298//5 795//5 296//5
f 296//5 795//5 796//5
f 296//5 796//5 294//5
f 294//5 796//5 797//5
f 294//5 797//5 292//5
f 292//5 797//5 798//5
f 292//5 798//5 290//5
f 290//5 798//5 799//5
f 290//5 799//5 288//5
f 288//5 799//5 800//5
f 288//5 800//5 286//5
f 286//5 800//5 801//5
f 286//5 801//5 284//5
f 284//5 801//5 802//5
f 284//5 802//5 282//5
f 282//5 802//5 803//5
f 282//5 803//5 280//5
f 280//5 803//5 804//5
f 280//5 804//5 278//5
f 278//5 804//5 805//5
f 278//5 805//5 276//5
f 276//5 805//5 806//5
f 276//5 806//5 274//5
f 274//5 806//5 807//5
f 274//5 807//5 272//5
f 272//5 807//5 808//5
f 272//5 808//5 270//5
f 270//5 808//5 809//5
f 270//5 809//5 268//5
f 268//5 809//5 810//5
f 268//5 810//5 266//5
f 266//5 810//5 811//5
f 266//5 811//5 264//5
f 264//5 811//5 812//5
f 264//5 812//5 262//5
f 262//5 812//5 813//5
f 262//5 813//5 260//5
f 260//5 813//5 814//5
f 260//5 814//5 258//5
f 258//5 814//5 815//5
f 258//5 815//5 256//5
f 256//5 815//5 816//5
f 256//5 816//5 254//5
f 254//5 816//5 817//5
f 254//5 817//5 252//5
f 252//5 817//5 818//5
f 252//5 818//5 250//5
f 250//5 818//5 819//5
f 250//5 819//5 248//5
f 248//5 819//5 820//5
f 248//5 820//5 246//5
f 246//5 820//5 821//5
f 246//5 821//5 244//5
f 244//5 821//5 822//5
f 244//5 822//5 769//5
f 786//5 823//5 307//5
f 307//5 823//5 824//5
f 307//5 824//5 308//5
f 308//5 824//5 825//5
f 308//5 825//5 787//5
f 826//5 827//5 828//5
f 828//5 827//5 829//5
f 828//5 829//5 830//5
f 831//5 832//5 828//5
f 828//5 832//5 833//5
f 828//5 833//5 826//5
f 834//5 835//5 828//5
f 828//5 835//5 836//5
f 828//5 836//5 831//5
f 837//5 838//5 828//5
f 828//5 838//5 839//5
f 828//5 839//5 834//5
f 840//5 841//5 828//5
f 828//5 841//5 842//5
f 828//5 842//5 837//5
f 843//5 844//5 828//5
f 828//5 844//5 845//5
f 828//5 845//5 840//5
f 846//5 847//5 828//5
f 828//5 847//5 848//5
f 828//5 848//5 843//5
f 849//5 850//5 828//5
f 828//5 850//5 851//5
f 828//5 851//5 846//5
f 852//5 853//5 828//5
f 828//5 853//5 854//5
f 828//5 854//5 849//5
f 855//5 856//5 828//5
f 828//5 856//5 857//5
f 828//5 857//5 852//5
f 858//5 859//5 828//5
f 828//5 859//5 860//5
f 828//5 860//5 855//5
f 861//5 862//5 828//5
f 828//5 862//5 863//5
f 828//5 863//5 858//5
f 864//5 865//5 828//5
f 828//5 865//5 866//5
f 828//5 866//5 861//5
f 867//5 868//5 828//5
f 828//5 868//5 869//5
f 828//5 869//5 864//5
f 870//5 871//5 828//5
f 828//5 871//5 872//5
f 828//5 872//5 867//5
f 873//5 874//5 828//5
f 828//5 874//5 875//5
f 828//5 875//5 870//5
f 876//5 877//5 828//5
f 828//5 877//5 878//5
f 828//5 878//5 873//5
f 879//5 880//5 828//5
f 828//5 880//5 881//5
f 828//5 881//5 876//5
f 882//5 883//5 828//5
f 828//5 883//5 884//5
f 828//5 884//5 879//5
f 830//5 885//5 828//5
f 828//5 885//5 886//5
f 828//5 886//5 882//5
f 885//71 830//71 824//71
f 824//235 830//235 829//235
f 824//254 829//254 825//254
f 825//233 829//233 827//233
f 825//72 827//72 787//72
f 787//72 827//72 826//72
f 787//73 826//73 788//73
f 788//73 826//73 833//73
f 788//74 833//74 789//74
f 789//74 833//74 832//74
f 789//75 832//75 790//75
f 790//75 832//75 831//75
f 790//76 831//76 767//76
f 767//76 831//76 836//76
f 767//77 836//77 768//77
f 768//77 836//77 835//77
f 768//79 835//79 777//79
f 777//79 835//79 834//79
f 777//255 834//255 778//255
f 778//80 834//80 839//80
f 778//81 839//81 779//81
f 779//81 839//81 838//81
f 779//83 838//83 783//83
f 783//83 838//83 837//83
f 783//84 837//84 782//84
f 782//84 837//84 842//84
f 782//256 842//256 781//256
f 781//85 842//85 841//85
f 781//86 841//86 791//86
f 791//86 841//86 840//86
f 791//87 840//87 792//87
f 792//87 840//87 845//87
f 792//257 845//257 793//257
f 793//257 845//257 844//257
f 793//248 844//248 794//248
f 794//248 844//248 843//248
f 794//258 843//258 795//258
f 795//247 843//247 848//247
f 795//92 848//92 796//92
f 796//259 848//259 847//259
f 796//93 847//93 797//93
f 797//93 847//93 846//93
f 797//95 846//95 798//95
f 798//95 846//95 851//95
f 798//96 851//96 799//96
f 799//96 851//96 850//96
f 799//98 850//98 800//98
f 800//98 850//98 849//98
f 800//244 849//244 801//244
f 801//244 849//244 854//244
f 801//103 854//103 802//103
f 802//103 854//103 853//103
f 802//105 853//105 803//105
f 803//105 853//105 852//105
f 803//106 852//106 804//106
f 804//106 852//106 857//106
f 804//107 857//107 805//107
f 805//107 857//107 856//107
f 805//108 856//108 806//108
f 806//108 856//108 855//108
f 806//109 855//109 807//109
f 807//109 855//109 860//109
f 807//110 860//110 808//110
f 808//110 860//110 859//110
f 808//111 859//111 809//111
f 809//111 859//111 858//111
f 809//112 858//112 810//112
f 810//112 858//112 863//112
f 810//113 863//113 811//113
f 811//113 863//113 862//113
f 811//114 862//114 812//114
f 812//114 862//114 861//114
f 812//115 861//115 813//115
f 813//115 861//115 866//115
f 813//241 866//241 814//241
f 814//260 866//260 865//260
f 814//42 865//42 815//42
f 815//240 865//240 864//240
f 815//44 864//44 816//44
f 816//44 864//44 869//44
f 816//46 869//46 817//46
f 817//261 869//261 868//261
f 817//262 868//262 818//262
f 818//262 868//262 867//262
f 818//48 867//48 819//48
f 819//263 867//263 872//263
f 819//264 872//264 820//264
f 820//50 872//50 871//50
f 820//238 871//238 821//238
f 821//238 871//238 870//238
f 821//265 870//265 822//265
f 822//265 870//265 875//265
f 822//53 875//53 769//53
f 769//53 875//53 874//53
f 769//55 874//55 770//55
f 770//55 874//55 873//55
f 770//266 873//266 780//266
f 780//56 873//56 878//56
f 780//58 878//58 773//58
f 773//58 878//58 877//58
f 773//59 877//59 772//59
f 772//59 877//59 876//59
f 772//267 876//267 771//267
f 771//267 876//267 881//267
f 771//268 881//268 774//268
f 774//62 881//62 880//62
f 774//63 880//63 775//63
f 775//63 880//63 879//63
f 775//64 879//64 776//64
f 776//64 879//64 884//64
f 776//67 884//67 784//67
f 784//269 884//269 883//269
f 784//68 883//68 785//68
f 785//270 883//270 882//270
f 785//271 882//271 786//271
f 786//271 882//271 886//271
f 786//70 886//70 823//70
f 823//70 886//70 885//70
f 823//71 885//71 824//71
f 887//272 888//272 889//272
f 889//273 888//273 890//273
f 889//9 890//9 891//9
f 891//9 890//9 892//9
f 891//10 892//10 893//10
f 893//10 892//10 894//10
f 893//11 894//11 895//11
f 895//274 894//274 896//274
f 895//275 896//275 897//275
f 897//276 896//276 898//276
f 897//277 898//277 899//277
f 899//278 898//278 900//278
f 899//16 900//16 901//16
f 901//279 900//279 902//279
f 901//17 902//17 903//17
f 903//280 902//280 904//280
f 903//281 904//281 905//281
f 905//282 904//282 906//282
f 905//19 906//19 907//19
f 907//19 906//19 908//19
f 907//20 908//20 909//20
f 909//20 908//20 910//20
f 909//283 910//283 911//283
f 911//21 910//21 912//21
f 911//22 912//22 913//22
f 913//22 912//22 914//22
f 913//23 914//23 915//23
f 915//23 914//23 916//23
f 915//24 916//24 917//24
f 917//24 916//24 918//24
f 917//25 918//25 919//25
f 919//25 918//25 920//25
f 919//26 920//26 921//26
f 921//26 920//26 922//26
f 921//27 922//27 923//27
f 923//27 922//27 924//27
f 923//284 924//284 925//284
f 925//28 924//28 926//28
f 925//29 926//29 927//29
f 927//29 926//29 928//29
f 927//30 928//30 929//30
f 929//30 928//30 930//30
f 929//285 930//285 931//285
f 931//285 930//285 932//285
f 931//32 932//32 933//32
f 933//32 932//32 934//32
f 933//286 934//286 935//286
f 935//287 934//287 936//287
f 935//288 936//288 937//288
f 937//289 936//289 938//289
f 937//35 938//35 939//35
f 939//290 938//290 940//290
f 939//291 940//291 941//291
f 941//36 940//36 942//36
f 941//292 942//292 943//292
f 943//37 942//37 944//37
f 943//293 944//293 945//293
f 945//38 944//38 946//38
f 945//294 946//294 947//294
f 947//295 946//295 948//295
f 888//3 887//3 234//3
f 234//3 887//3 235//3
f 241//1 236//1 948//1
f 948//1 236//1 947//1
f 947//5 236//5 235//5
f 915//5 917//5 947//5
f 903//5 905//5 947//5
f 947//5 905//5 907//5
f 947//5 907//5 909//5
f 235//5 887//5 947//5
f 947//5 887//5 889//5
f 947//5 889//5 891//5
f 909//5 911//5 947//5
f 947//5 911//5 913//5
f 947//5 913//5 915//5
f 917//5 919//5 947//5
f 947//5 919//5 921//5
f 947//5 921//5 923//5
f 935//5 937//5 947//5
f 923//5 925//5 947//5
f 947//5 925//5 927//5
f 947//5 927//5 929//5
f 891//5 893//5 947//5
f 947//5 893//5 895//5
f 947//5 895//5 897//5
f 897//5 899//5 947//5
f 947//5 899//5 901//5
f 947//5 901//5 903//5
f 929//253 931//253 947//253
f 947//5 931//5 933//5
f 947//252 933//252 935//252
f 937//5 939//5 947//5
f 947//253 939//253 941//253
f 947//296 941//296 945//296
f 945//5 941//5 943//5
f 949//2 764//2 10//2
f 10//2 764//2 763//2
f 641//2 640//2 763//2
f 763//2 640//2 950//2
f 763//2 950//2 10//2
f 10//2 950//2 951//2
f 10//2 951//2 12//2
f 313//4 221//4 952//4
f 952//4 221//4 223//4
f 226//3 950//3 223//3
f 223//3 950//3 640//3
f 952//3 223//3 953//3
f 953//3 223//3 640//3
f 953//3 640//3 237//3
f 237//3 640//3 238//3
f 678//297 152//297 658//297
f 658//298 152//298 954//298
f 658//155 954//155 659//155
f 659//155 954//155 955//155
f 659//157 955//157 660//157
f 660//157 955//157 956//157
f 660//159 956//159 679//159
f 679//159 956//159 957//159
f 679//160 957//160 680//160
f 680//160 957//160 958//160
f 680//161 958//161 681//161
f 681//299 958//299 959//299
f 681//162 959//162 666//162
f 666//163 959//163 667//163
f 667//163 959//163 960//163
f 667//164 960//164 668//164
f 668//164 960//164 961//164
f 668//165 961//165 669//165
f 669//165 961//165 962//165
f 669//166 962//166 682//166
f 962//166 963//166 682//166
f 682//300 963//300 142//300
f 682//301 142//301 683//301
f 683//302 142//302 141//302
f 683//171 141//171 661//171
f 661//171 141//171 140//171
f 661//230 140//230 644//230
f 644//230 140//230 116//230
f 644//175 116//175 645//175
f 645//175 116//175 114//175
f 645//176 114//176 670//176
f 670//176 114//176 113//176
f 670//177 113//177 671//177
f 671//229 113//229 139//229
f 671//179 139//179 672//179
f 672//179 139//179 138//179
f 672//228 138//228 684//228
f 684//228 138//228 124//228
f 684//227 124//227 685//227
f 685//227 124//227 123//227
f 685//226 123//226 686//226
f 686//226 123//226 148//226
f 686//186 148//186 648//186
f 648//186 148//186 147//186
f 648//225 147//225 646//225
f 646//225 147//225 146//225
f 646//224 146//224 647//224
f 647//224 146//224 109//224
f 647//223 109//223 687//223
f 687//223 109//223 108//223
f 687//193 108//193 688//193
f 688//193 108//193 177//193
f 688//194 177//194 689//194
f 689//194 177//194 176//194
f 689//221 176//221 698//221
f 698//195 176//195 161//195
f 698//196 161//196 699//196
f 699//196 161//196 160//196
f 699//303 160//303 700//303
f 700//303 160//303 201//303
f 700//199 201//199 702//199
f 702//199 201//199 200//199
f 702//200 200//200 703//200
f 703//200 200//200 175//200
f 703//202 175//202 690//202
f 690//202 175//202 174//202
f 690//204 174//204 691//204
f 691//204 174//204 191//204
f 691//205 191//205 701//205
f 701//205 191//205 199//205
f 701//206 199//206 662//206
f 662//206 199//206 130//206
f 662//117 130//117 692//117
f 692//117 130//117 134//117
f 692//118 134//118 673//118
f 673//118 134//118 162//118
f 673//119 162//119 674//119
f 674//119 162//119 195//119
f 674//219 195//219 675//219
f 675//219 195//219 194//219
f 675//121 194//121 676//121
f 676//121 194//121 168//121
f 676//123 168//123 649//123
f 649//123 168//123 167//123
f 649//125 167//125 650//125
f 650//125 167//125 183//125
f 650//304 183//304 651//304
f 651//126 183//126 182//126
f 651//305 182//305 652//305
f 652//305 182//305 181//305
f 652//128 181//128 653//128
f 653//128 181//128 180//128
f 653//129 180//129 693//129
f 693//129 180//129 179//129
f 693//216 179//216 694//216
f 694//216 179//216 158//216
f 694//215 158//215 697//215
f 697//215 158//215 157//215
f 697//214 157//214 696//214
f 696//214 157//214 178//214
f 696//135 178//135 695//135
f 695//135 178//135 202//135
f 695//213 202//213 654//213
f 654//213 202//213 137//213
f 654//212 137//212 655//212
f 655//212 137//212 144//212
f 655//211 144//211 656//211
f 656//211 144//211 143//211
f 656//143 143//143 657//143
f 657//143 143//143 156//143
f 657//145 156//145 663//145
f 663//145 156//145 155//145
f 663//146 155//146 664//146
f 664//146 155//146 132//146
f 664//148 132//148 665//148
f 665//148 132//148 131//148
f 665//208 131//208 677//208
f 677//208 131//208 154//208
f 677//152 154//152 678//152
f 678//152 154//152 153//152
f 678//306 153//306 152//306
f 224//5 222//5 639//5
f 639//5 222//5 310//5
f 303//5 301//5 639//5
f 224//5 249//5 247//5
f 315//5 314//5 637//5
f 637//5 314//5 309//5
f 637//5 309//5 639//5
f 639//5 309//5 305//5
f 639//5 305//5 303//5
f 224//5 247//5 643//5
f 643//5 247//5 245//5
f 643//5 245//5 306//5
f 301//5 299//5 639//5
f 639//5 299//5 297//5
f 639//5 297//5 295//5
f 224//5 257//5 255//5
f 263//5 261//5 224//5
f 224//5 261//5 259//5
f 224//5 259//5 257//5
f 295//5 293//5 639//5
f 639//5 293//5 291//5
f 639//5 291//5 289//5
f 255//5 253//5 224//5
f 224//5 253//5 251//5
f 224//5 251//5 249//5
f 289//5 287//5 639//5
f 639//5 287//5 285//5
f 639//5 285//5 283//5
f 275//5 273//5 224//5
f 224//5 273//5 271//5
f 224//5 271//5 269//5
f 269//5 267//5 224//5
f 224//5 267//5 265//5
f 224//5 265//5 263//5
f 283//5 281//5 639//5
f 639//5 281//5 279//5
f 639//5 279//5 224//5
f 224//5 279//5 277//5
f 224//5 277//5 275//5
f 218//5 217//5 634//5
f 634//5 217//5 27//5
f 906//5 904//5 634//5
f 934//5 932//5 27//5
f 920//5 918//5 27//5
f 27//5 918//5 916//5
f 27//5 916//5 914//5
f 932//5 930//5 27//5
f 27//5 930//5 928//5
f 27//5 928//5 926//5
f 926//5 924//5 27//5
f 27//5 924//5 922//5
f 27//5 922//5 920//5
f 914//5 912//5 27//5
f 27//5 912//5 910//5
f 27//5 910//5 634//5
f 634//5 910//5 908//5
f 634//5 908//5 906//5
f 904//5 902//5 634//5
f 634//5 902//5 900//5
f 634//5 900//5 898//5
f 898//5 896//5 634//5
f 634//5 896//5 894//5
f 634//5 894//5 892//5
f 212//5 211//5 234//5
f 234//5 211//5 632//5
f 234//5 632//5 888//5
f 888//5 632//5 634//5
f 888//5 634//5 890//5
f 890//5 634//5 892//5
f 28//5 241//5 27//5
f 27//5 241//5 948//5
f 27//5 948//5 946//5
f 946//252 944//252 27//252
f 27//5 944//5 942//5
f 27//5 942//5 940//5
f 940//5 938//5 27//5
f 27//5 938//5 936//5
f 27//5 936//5 934//5
f 103//5 133//5 369//5
f 369//5 133//5 392//5
f 369//5 392//5 371//5
f 389//5 387//5 373//5
f 371//5 392//5 373//5
f 373//5 392//5 391//5
f 373//5 391//5 389//5
f 379//5 377//5 381//5
f 381//5 377//5 383//5
f 387//5 385//5 373//5
f 373//5 385//5 383//5
f 373//5 383//5 375//5
f 375//5 383//5 377//5
f 954//5 152//5 963//5
f 963//5 152//5 142//5
f 963//5 962//5 954//5
f 954//5 962//5 961//5
f 954//5 961//5 960//5
f 958//5 957//5 956//5
f 960//5 959//5 954//5
f 954//5 959//5 958//5
f 954//5 958//5 955//5
f 955//5 958//5 956//5
f 766//307 320//307 765//307
f 765//307 320//307 319//307
f 35//5 6//5 230//5
f 230//5 6//5 3//5
f 225//4 2//4 951//4
f 951//4 2//4 12//4
f 33//4 32//4 240//4
f 240//4 32//4 210//4
f 7//6 209//6 8//6
f 8//6 209//6 208//6
f 14//307 1//307 205//307
f 205//307 1//307 207//307
f 226//308 225//308 950//308
f 950//308 225//308 951//308
f 230//309 203//309 35//309
f 35//309 203//309 34//309
f 14//7 205//7 204//7
f 311//7 316//7 204//7
f 204//7 316//7 642//7
f 204//7 642//7 14//7
f 14//7 642//7 643//7
f 14//7 643//7 13//7
f 13//7 643//7 306//7
f 13//7 306//7 307//7
f 953//7 13//7 952//7
f 952//7 13//7 307//7
f 952//7 307//7 313//7
f 313//7 307//7 308//7
f 313//7 308//7 314//7
f 314//7 308//7 309//7
f 233//5 949//5 9//5
f 9//5 949//5 10//5
f 949//1 233//1 764//1
f 764//1 233//1 232//1
f 764//1 232//1 766//1
f 766//1 232//1 16//1
f 766//1 16//1 320//1
f 320//1 16//1 15//1
f 31//4 242//4 4//4
f 4//4 242//4 5//4
f 37//1 21//1 115//1
f 115//1 21//1 22//1
f 115//1 22//1 30//1
f 30//1 22//1 243//1
f 30//1 243//1 31//1
f 31//1 243//1 242//1
f 11//307 13//307 237//307
f 237//307 13//307 953//307
f 319//1 17//1 318//1
f 318//1 17//1 48//1
f 240//1 61//1 33//1
f 33//1 61//1 48//1
f 231//1 239//1 318//1
f 318//1 239//1 641//1
f 17//1 19//1 48//1
f 48//1 19//1 36//1
f 48//1 36//1 33//1
f 33//1 36//1 102//1
f 33//1 102//1 29//1
f 319//1 318//1 765//1
f 765//1 318//1 641//1
f 765//1 641//1 763//1
