# Blender 5.1.1
# www.blender.org
mtllib puzzlebot_caster_wheel.mtl
o puzzlebot_caster_wheel
v 0.001250 0.000406 0.012921
v 0.000000 -0.000000 0.013063
v 0.001186 -0.000605 0.012921
v -0.001250 -0.000406 0.012921
v -0.001186 0.000605 0.012921
v -0.002277 -0.001315 0.012501
v -0.002615 -0.000275 0.012501
v -0.000725 -0.001116 0.012921
v -0.001545 -0.002127 0.012501
v -0.000547 -0.002572 0.012501
v 0.000000 -0.001344 0.012921
v 0.000547 -0.002572 0.012501
v 0.000604 -0.001186 0.012921
v 0.001322 -0.002290 0.012501
v 0.001954 -0.001759 0.012501
v 0.002501 -0.000812 0.012501
v 0.002615 0.000275 0.012501
v 0.002277 0.001315 0.012501
v 0.000725 0.001116 0.012921
v 0.001545 0.002127 0.012501
v 0.000547 0.002572 0.012501
v 0.000000 0.001344 0.012921
v -0.000547 0.002572 0.012501
v -0.000604 0.001186 0.012921
v -0.001322 0.002290 0.012501
v -0.001954 0.001759 0.012501
v -0.002501 0.000812 0.012501
v -0.003614 -0.001174 0.011822
v -0.003779 0.000397 0.011822
v -0.003091 -0.002246 0.011822
v -0.002556 -0.002839 0.011822
v -0.001910 -0.003309 0.011822
v -0.001181 -0.003634 0.011822
v -0.000399 -0.003800 0.011822
v 0.000399 -0.003800 0.011822
v 0.001181 -0.003634 0.011822
v 0.001910 -0.003309 0.011822
v 0.002556 -0.002839 0.011822
v 0.003091 -0.002246 0.011822
v 0.003490 -0.001554 0.011822
v 0.003779 -0.000397 0.011822
v 0.003614 0.001174 0.011822
v 0.003091 0.002246 0.011822
v 0.002556 0.002839 0.011822
v 0.001910 0.003309 0.011822
v 0.001181 0.003634 0.011822
v 0.000399 0.003800 0.011822
v -0.000399 0.003800 0.011822
v -0.001181 0.003634 0.011822
v -0.001910 0.003309 0.011822
v -0.002556 0.002839 0.011822
v -0.003091 0.002246 0.011822
v -0.003490 0.001554 0.011822
v -0.004830 -0.000000 0.010913
v -0.004725 -0.001004 0.010913
v -0.004413 -0.001965 0.010913
v -0.003908 -0.002839 0.010913
v -0.003232 -0.003590 0.010913
v -0.002415 -0.004183 0.010913
v -0.001493 -0.004594 0.010913
v -0.000505 -0.004804 0.010913
v 0.000505 -0.004804 0.010913
v 0.001493 -0.004594 0.010913
v 0.002415 -0.004183 0.010913
v 0.003232 -0.003590 0.010913
v 0.003908 -0.002839 0.010913
v 0.004413 -0.001965 0.010913
v 0.004725 -0.001004 0.010913
v 0.004830 -0.000000 0.010913
v 0.004725 0.001004 0.010913
v 0.004413 0.001965 0.010913
v 0.003908 0.002839 0.010913
v 0.003232 0.003590 0.010913
v 0.002415 0.004183 0.010913
v 0.001493 0.004594 0.010913
v 0.000505 0.004804 0.010913
v -0.000505 0.004804 0.010913
v -0.001493 0.004594 0.010913
v -0.002415 0.004183 0.010913
v -0.003232 0.003590 0.010913
v -0.003908 0.002839 0.010913
v -0.004413 0.001965 0.010913
v -0.004725 0.001004 0.010913
v -0.005629 -0.000000 0.009813
v -0.005506 -0.001170 0.009813
v -0.005142 -0.002290 0.009813
v -0.004554 -0.003309 0.009813
v -0.003767 -0.004183 0.009813
v -0.002815 -0.004875 0.009813
v -0.001740 -0.005354 0.009813
v -0.000588 -0.005598 0.009813
v 0.000588 -0.005598 0.009813
v 0.001740 -0.005354 0.009813
v 0.002815 -0.004875 0.009813
v 0.003767 -0.004183 0.009813
v 0.004554 -0.003309 0.009813
v 0.005142 -0.002290 0.009813
v 0.005506 -0.001170 0.009813
v 0.005629 -0.000000 0.009813
v 0.005506 0.001170 0.009813
v 0.005142 0.002290 0.009813
v 0.004554 0.003309 0.009813
v 0.003767 0.004183 0.009813
v 0.002815 0.004875 0.009813
v 0.001740 0.005354 0.009813
v 0.000588 0.005598 0.009813
v -0.000588 0.005598 0.009813
v -0.001740 0.005354 0.009813
v -0.002815 0.004875 0.009813
v -0.003767 0.004183 0.009813
v -0.004554 0.003309 0.009813
v -0.005142 0.002290 0.009813
v -0.005506 0.001170 0.009813
v -0.006182 -0.000000 0.008572
v -0.006047 -0.001285 0.008572
v -0.005647 -0.002514 0.008572
v -0.005001 -0.003634 0.008572
v -0.004136 -0.004594 0.008572
v -0.003091 -0.005354 0.008572
v -0.001910 -0.005879 0.008572
v -0.000646 -0.006148 0.008572
v 0.000646 -0.006148 0.008572
v 0.001910 -0.005879 0.008572
v 0.003091 -0.005354 0.008572
v 0.004136 -0.004594 0.008572
v 0.005001 -0.003634 0.008572
v 0.005647 -0.002514 0.008572
v 0.006047 -0.001285 0.008572
v 0.006182 -0.000000 0.008572
v 0.006047 0.001285 0.008572
v 0.005647 0.002514 0.008572
v 0.005001 0.003634 0.008572
v 0.004136 0.004594 0.008572
v 0.003091 0.005354 0.008572
v 0.001910 0.005879 0.008572
v 0.000646 0.006148 0.008572
v -0.000646 0.006148 0.008572
v -0.001910 0.005879 0.008572
v -0.003091 0.005354 0.008572
v -0.004136 0.004594 0.008572
v -0.005001 0.003634 0.008572
v -0.005647 0.002514 0.008572
v -0.006047 0.001285 0.008572
v -0.006464 -0.000000 0.007243
v -0.006323 -0.001344 0.007243
v -0.005906 -0.002629 0.007243
v -0.005230 -0.003800 0.007243
v -0.004326 -0.004804 0.007243
v -0.003232 -0.005598 0.007243
v -0.001998 -0.006148 0.007243
v -0.000676 -0.006429 0.007243
v 0.000676 -0.006429 0.007243
v 0.001998 -0.006148 0.007243
v 0.003232 -0.005598 0.007243
v 0.004326 -0.004804 0.007243
v 0.005230 -0.003800 0.007243
v 0.005906 -0.002629 0.007243
v 0.006323 -0.001344 0.007243
v 0.006464 -0.000000 0.007243
v 0.006323 0.001344 0.007243
v 0.005906 0.002629 0.007243
v 0.005230 0.003800 0.007243
v 0.004326 0.004804 0.007243
v 0.003232 0.005598 0.007243
v 0.001998 0.006148 0.007243
v 0.000676 0.006429 0.007243
v -0.000676 0.006429 0.007243
v -0.001998 0.006148 0.007243
v -0.003232 0.005598 0.007243
v -0.004326 0.004804 0.007243
v -0.005230 0.003800 0.007243
v -0.005906 0.002629 0.007243
v -0.006323 0.001344 0.007243
v -0.006464 -0.000000 0.005884
v -0.006323 -0.001344 0.005884
v -0.005906 -0.002629 0.005884
v -0.005230 -0.003800 0.005884
v -0.004326 -0.004804 0.005884
v -0.003232 -0.005598 0.005884
v -0.001998 -0.006148 0.005884
v -0.000676 -0.006429 0.005884
v 0.000676 -0.006429 0.005884
v 0.001998 -0.006148 0.005884
v 0.003232 -0.005598 0.005884
v 0.004326 -0.004804 0.005884
v 0.005230 -0.003800 0.005884
v 0.005906 -0.002629 0.005884
v 0.006323 -0.001344 0.005884
v 0.006464 -0.000000 0.005884
v 0.006323 0.001344 0.005884
v 0.005906 0.002629 0.005884
v 0.005230 0.003800 0.005884
v 0.004326 0.004804 0.005884
v 0.003232 0.005598 0.005884
v 0.001998 0.006148 0.005884
v 0.000676 0.006429 0.005884
v -0.000676 0.006429 0.005884
v -0.001998 0.006148 0.005884
v -0.003232 0.005598 0.005884
v -0.004326 0.004804 0.005884
v -0.005230 0.003800 0.005884
v -0.005906 0.002629 0.005884
v -0.006323 0.001344 0.005884
v -0.006182 -0.000000 0.004555
v -0.006047 -0.001285 0.004555
v -0.005647 -0.002514 0.004555
v -0.005001 -0.003634 0.004555
v -0.004136 -0.004594 0.004555
v -0.003091 -0.005354 0.004555
v -0.001910 -0.005879 0.004555
v -0.000646 -0.006148 0.004555
v 0.000646 -0.006148 0.004555
v 0.001910 -0.005879 0.004555
v 0.003091 -0.005354 0.004555
v 0.004136 -0.004594 0.004555
v 0.005001 -0.003634 0.004555
v 0.005647 -0.002514 0.004555
v 0.006047 -0.001285 0.004555
v 0.006182 -0.000000 0.004555
v 0.006047 0.001285 0.004555
v 0.005647 0.002514 0.004555
v 0.005001 0.003634 0.004555
v 0.004136 0.004594 0.004555
v 0.003091 0.005354 0.004555
v 0.001910 0.005879 0.004555
v 0.000646 0.006148 0.004555
v -0.000646 0.006148 0.004555
v -0.001910 0.005879 0.004555
v -0.003091 0.005354 0.004555
v -0.004136 0.004594 0.004555
v -0.005001 0.003634 0.004555
v -0.005647 0.002514 0.004555
v -0.006047 0.001285 0.004555
v -0.005629 -0.000000 0.003313
v -0.005506 -0.001170 0.003313
v -0.005142 -0.002290 0.003313
v -0.004554 -0.003309 0.003313
v -0.003767 -0.004183 0.003313
v -0.002815 -0.004875 0.003313
v -0.001740 -0.005354 0.003313
v -0.000588 -0.005598 0.003313
v 0.000588 -0.005598 0.003313
v 0.001740 -0.005354 0.003313
v 0.002815 -0.004875 0.003313
v 0.003767 -0.004183 0.003313
v 0.004554 -0.003309 0.003313
v 0.005142 -0.002290 0.003313
v 0.005506 -0.001170 0.003313
v 0.005629 -0.000000 0.003313
v 0.005506 0.001170 0.003313
v 0.005142 0.002290 0.003313
v 0.004554 0.003309 0.003313
v 0.003767 0.004183 0.003313
v 0.002815 0.004875 0.003313
v 0.001740 0.005354 0.003313
v 0.000588 0.005598 0.003313
v -0.000588 0.005598 0.003313
v -0.001740 0.005354 0.003313
v -0.002815 0.004875 0.003313
v -0.003767 0.004183 0.003313
v -0.004554 0.003309 0.003313
v -0.005142 0.002290 0.003313
v -0.005506 0.001170 0.003313
v -0.004830 -0.000000 0.002214
v -0.004725 -0.001004 0.002214
v -0.004413 -0.001965 0.002214
v -0.003908 -0.002839 0.002214
v -0.003232 -0.003590 0.002214
v -0.002415 -0.004183 0.002214
v -0.001493 -0.004594 0.002214
v -0.000505 -0.004804 0.002214
v 0.000505 -0.004804 0.002214
v 0.001493 -0.004594 0.002214
v 0.002415 -0.004183 0.002214
v 0.003232 -0.003590 0.002214
v 0.003908 -0.002839 0.002214
v 0.004413 -0.001965 0.002214
v 0.004725 -0.001004 0.002214
v 0.004830 -0.000000 0.002214
v 0.004725 0.001004 0.002214
v 0.004413 0.001965 0.002214
v 0.003908 0.002839 0.002214
v 0.003232 0.003590 0.002214
v 0.002415 0.004183 0.002214
v 0.001493 0.004594 0.002214
v 0.000505 0.004804 0.002214
v -0.000505 0.004804 0.002214
v -0.001493 0.004594 0.002214
v -0.002415 0.004183 0.002214
v -0.003232 0.003590 0.002214
v -0.003908 0.002839 0.002214
v -0.004413 0.001965 0.002214
v -0.004725 0.001004 0.002214
v -0.003779 0.000397 0.001305
v -0.003614 -0.001174 0.001305
v -0.003091 -0.002246 0.001305
v -0.002233 -0.003074 0.001305
v -0.000790 -0.003717 0.001305
v 0.000399 -0.003800 0.001305
v 0.001545 -0.003471 0.001305
v 0.002556 -0.002839 0.001305
v 0.003291 -0.001900 0.001305
v 0.003779 -0.000397 0.001305
v 0.003614 0.001174 0.001305
v 0.003091 0.002246 0.001305
v 0.002233 0.003074 0.001305
v 0.000790 0.003717 0.001305
v -0.000399 0.003800 0.001305
v -0.001545 0.003471 0.001305
v -0.002556 0.002839 0.001305
v -0.003291 0.001900 0.001305
v -0.002615 0.000275 0.000625
v -0.002501 -0.000812 0.000625
v -0.001954 -0.001759 0.000625
v -0.001069 -0.002402 0.000625
v 0.000000 -0.002629 0.000625
v 0.001069 -0.002402 0.000625
v 0.001954 -0.001759 0.000625
v 0.002415 -0.001075 0.000625
v 0.002615 -0.000275 0.000625
v 0.002501 0.000812 0.000625
v 0.001954 0.001759 0.000625
v 0.001069 0.002402 0.000625
v 0.000000 0.002629 0.000625
v -0.001069 0.002402 0.000625
v -0.001954 0.001759 0.000625
v -0.002415 0.001075 0.000625
v -0.001286 -0.000345 0.000205
v -0.000999 -0.000899 0.000205
v -0.000344 -0.001286 0.000205
v 0.000478 -0.001243 0.000205
v 0.001139 -0.000657 0.000205
v 0.001286 0.000345 0.000205
v 0.000999 0.000899 0.000205
v 0.000344 0.001286 0.000205
v -0.000478 0.001243 0.000205
v -0.001139 0.000657 0.000205
v 0.000000 -0.000000 0.000063
v 0.006370 0.004752 0.002863
v 0.004001 0.004398 0.002863
v 0.004147 0.006779 0.002863
v 0.005262 0.002848 0.002863
v 0.007680 0.002044 0.002863
v 0.005764 0.001605 0.002863
v 0.005977 0.000282 0.002863
v 0.007890 -0.000956 0.002863
v 0.005890 -0.001055 0.002863
v 0.005507 -0.002339 0.002863
v 0.006969 -0.003820 0.002863
v 0.004849 -0.003506 0.002863
v 0.005050 -0.006137 0.002863
v 0.003947 -0.004497 0.002863
v 0.002848 -0.005262 0.002863
v 0.002407 -0.007574 0.002863
v 0.000944 -0.005870 0.002863
v -0.000580 -0.007926 0.002863
v -0.001697 -0.005699 0.002863
v -0.003484 -0.007143 0.002863
v -0.004001 -0.004398 0.002863
v -0.005380 -0.005899 0.002863
v -0.006399 -0.004774 0.002863
v -0.005262 -0.002848 0.002863
v -0.007187 -0.003477 0.002863
v -0.005764 -0.001605 0.002863
v -0.007715 -0.002054 0.002863
v -0.007964 -0.000557 0.002863
v -0.005977 -0.000282 0.002863
v -0.007925 0.000961 0.002863
v -0.005890 0.001055 0.002863
v -0.007600 0.002443 0.002863
v -0.005507 0.002339 0.002863
v -0.006574 0.004465 0.002863
v -0.004849 0.003506 0.002863
v -0.003950 0.004500 0.002863
v -0.004444 0.006589 0.002863
v -0.002848 0.005262 0.002863
v -0.001677 0.007768 0.002863
v -0.000944 0.005870 0.002863
v 0.001331 0.007835 0.002863
v 0.001697 0.005699 0.002863
v 0.002224 -0.006373 0.005363
v 0.002224 -0.006373 0.013063
v 0.003500 -0.005772 0.013063
v 0.000850 -0.006696 0.005363
v 0.000850 -0.006696 0.013063
v -0.000561 -0.006727 0.005363
v -0.000561 -0.006727 0.013063
v -0.001947 -0.006463 0.005363
v -0.001947 -0.006463 0.013063
v -0.003248 -0.005917 0.005363
v -0.003248 -0.005917 0.013063
v -0.004408 -0.005112 0.005363
v -0.004408 -0.005112 0.013063
v -0.005374 -0.004084 0.005363
v -0.005374 -0.004084 0.013063
v -0.006106 -0.002878 0.005363
v -0.006106 -0.002878 0.013063
v -0.006571 -0.001545 0.005363
v -0.006571 -0.001545 0.013063
v -0.006748 -0.000145 0.005363
v -0.006748 -0.000145 0.013063
v -0.006631 0.001261 0.005363
v -0.006631 0.001261 0.013063
v -0.006224 0.002612 0.005363
v -0.006224 0.002612 0.013063
v -0.005545 0.003849 0.005363
v -0.005545 0.003849 0.013063
v -0.004624 0.004918 0.005363
v -0.004624 0.004918 0.013063
v -0.003500 0.005772 0.005363
v -0.003500 0.005772 0.013063
v -0.002224 0.006373 0.005363
v -0.002224 0.006373 0.013063
v -0.000850 0.006696 0.005363
v -0.000850 0.006696 0.013063
v 0.000561 0.006727 0.005363
v 0.000561 0.006727 0.013063
v 0.001947 0.006463 0.005363
v 0.001947 0.006463 0.013063
v 0.003248 0.005917 0.005363
v 0.003248 0.005917 0.013063
v 0.004408 0.005112 0.005363
v 0.004408 0.005112 0.013063
v 0.005374 0.004084 0.005363
v 0.005374 0.004084 0.013063
v 0.006106 0.002878 0.005363
v 0.006106 0.002878 0.013063
v 0.006571 0.001545 0.005363
v 0.006571 0.001545 0.013063
v 0.006748 0.000145 0.005363
v 0.006748 0.000145 0.013063
v 0.006631 -0.001261 0.005363
v 0.006631 -0.001261 0.013063
v 0.006224 -0.002612 0.005363
v 0.006224 -0.002612 0.013063
v 0.005545 -0.003849 0.005363
v 0.005545 -0.003849 0.013063
v 0.004624 -0.004918 0.005363
v 0.004624 -0.004918 0.013063
v 0.003500 -0.005772 0.005363
v -0.003614 0.007934 0.013063
v -0.006602 0.005742 0.013063
v -0.002641 0.010297 0.013063
v -0.000744 0.008686 0.013063
v 0.000984 0.011359 0.013063
v -0.000984 0.011359 0.013063
v -0.000000 0.011500 0.013063
v 0.002641 0.010297 0.013063
v 0.003614 0.007934 0.013063
v 0.006602 0.005742 0.013063
v 0.001489 0.008622 0.013063
v -0.008384 0.002504 0.005363
v -0.007781 0.004002 0.005363
v -0.006913 0.005364 0.005363
v -0.005810 0.006543 0.005363
v -0.004509 0.007499 0.005363
v -0.003054 0.008200 0.005363
v -0.001495 0.008621 0.005363
v 0.000114 0.008749 0.005363
v 0.001720 0.008579 0.005363
v 0.003267 0.008117 0.005363
v 0.004703 0.007379 0.005363
v 0.005979 0.006389 0.005363
v 0.007051 0.005181 0.005363
v 0.007883 0.003798 0.005363
v 0.008447 0.002284 0.005363
v 0.008722 0.000693 0.005363
v 0.008701 -0.000921 0.005363
v 0.008384 -0.002504 0.005363
v 0.007781 -0.004002 0.005363
v 0.006913 -0.005364 0.005363
v 0.005810 -0.006543 0.005363
v 0.004509 -0.007499 0.005363
v 0.003054 -0.008200 0.005363
v 0.001495 -0.008621 0.005363
v -0.000114 -0.008749 0.005363
v -0.001720 -0.008579 0.005363
v -0.003267 -0.008117 0.005363
v -0.004703 -0.007379 0.005363
v -0.005979 -0.006389 0.005363
v -0.007051 -0.005181 0.005363
v -0.007883 -0.003798 0.005363
v -0.008447 -0.002284 0.005363
v -0.008722 -0.000693 0.005363
v -0.008701 0.000921 0.005363
v -0.000984 -0.011359 0.013063
v 0.000984 -0.011359 0.013063
v -0.000000 -0.011500 0.013063
v 0.002641 -0.010297 0.013063
v -0.002641 -0.010297 0.013063
v 0.003614 -0.007934 0.013063
v 0.006602 -0.005742 0.013063
v 0.000744 -0.008686 0.013063
v -0.001489 -0.008622 0.013063
v -0.003614 -0.007934 0.013063
v -0.006602 -0.005742 0.013063
v -0.006602 -0.005742 0.024213
v -0.008403 -0.002311 0.024213
v -0.008680 0.000779 0.024213
v -0.008195 0.003065 0.024213
v -0.006602 0.005742 0.024213
v 0.006602 0.005742 0.024213
v 0.008403 0.002311 0.024213
v 0.008680 -0.000779 0.024213
v 0.008195 -0.003065 0.024213
v 0.006602 -0.005742 0.024213
v -0.002641 0.010297 0.024213
v -0.000984 0.011359 0.024213
v -0.000000 0.011500 0.024213
v 0.000984 0.011359 0.024213
v 0.002641 0.010297 0.024213
v -0.002641 -0.010297 0.024213
v 0.002641 -0.010297 0.024213
v 0.000984 -0.011359 0.024213
v -0.000000 -0.011500 0.024213
v -0.000984 -0.011359 0.024213
vn 0.1152 -0.0074 0.9933
vn -0.1152 0.0074 0.9933
vn -0.3013 -0.0979 0.9485
vn -0.2363 -0.1747 0.9558
vn -0.2307 -0.2077 0.9506
vn -0.1289 -0.2894 0.9485
vn -0.0899 -0.2862 0.9539
vn -0.0000 -0.3236 0.9462
vn 0.0763 -0.2921 0.9533
vn 0.1065 -0.2924 0.9503
vn 0.1966 -0.2344 0.9521
vn 0.2086 -0.2087 0.9555
vn 0.2773 -0.1601 0.9474
vn 0.3014 -0.0192 0.9533
vn 0.2913 -0.0306 0.9561
vn 0.3013 0.0979 0.9485
vn 0.2363 0.1747 0.9558
vn 0.2307 0.2077 0.9506
vn 0.1289 0.2894 0.9485
vn 0.0899 0.2862 0.9539
vn -0.0000 0.3236 0.9462
vn -0.0763 0.2921 0.9533
vn -0.1065 0.2924 0.9503
vn -0.1966 0.2344 0.9521
vn -0.2086 0.2087 0.9555
vn -0.2773 0.1601 0.9474
vn -0.3014 0.0192 0.9533
vn -0.2913 0.0306 0.9561
vn -0.5270 -0.0554 0.8481
vn -0.4605 -0.1496 0.8750
vn -0.4602 -0.2245 0.8590
vn -0.3598 -0.3240 0.8750
vn -0.2951 -0.4062 0.8648
vn -0.1969 -0.4423 0.8750
vn -0.1044 -0.4911 0.8648
vn -0.0000 -0.4842 0.8750
vn 0.1044 -0.4911 0.8648
vn 0.1670 -0.4587 0.8727
vn 0.2042 -0.4587 0.8648
vn 0.3250 -0.3875 0.8627
vn 0.2846 -0.3917 0.8750
vn 0.3731 -0.3359 0.8648
vn 0.4193 -0.2421 0.8750
vn 0.4968 -0.1239 0.8590
vn 0.4815 -0.0506 0.8750
vn 0.5270 0.0554 0.8481
vn 0.4605 0.1496 0.8750
vn 0.4602 0.2245 0.8590
vn 0.3598 0.3240 0.8750
vn 0.2951 0.4062 0.8648
vn 0.1969 0.4423 0.8750
vn 0.1044 0.4911 0.8648
vn -0.0000 0.4842 0.8750
vn -0.1044 0.4911 0.8648
vn -0.1670 0.4587 0.8727
vn -0.2042 0.4587 0.8648
vn -0.3250 0.3875 0.8627
vn -0.2846 0.3917 0.8750
vn -0.3731 0.3359 0.8648
vn -0.4193 0.2421 0.8750
vn -0.4968 0.1239 0.8590
vn -0.4815 0.0506 0.8750
vn -0.6380 -0.0671 0.7671
vn -0.6383 -0.2074 0.7413
vn -0.5836 -0.2847 0.7605
vn -0.5812 -0.3356 0.7413
vn -0.4988 -0.4491 0.7413
vn -0.3945 -0.5430 0.7413
vn -0.2730 -0.6131 0.7413
vn -0.1395 -0.6565 0.7413
vn -0.0000 -0.6712 0.7413
vn 0.1395 -0.6565 0.7413
vn 0.2730 -0.6131 0.7413
vn 0.3945 -0.5430 0.7413
vn 0.4988 -0.4491 0.7413
vn 0.5812 -0.3356 0.7413
vn 0.6547 -0.1633 0.7380
vn 0.6101 -0.1982 0.7671
vn 0.6675 -0.0702 0.7413
vn 0.6380 0.0671 0.7671
vn 0.6383 0.2074 0.7413
vn 0.5836 0.2847 0.7605
vn 0.5812 0.3356 0.7413
vn 0.4988 0.4491 0.7413
vn 0.3945 0.5430 0.7413
vn 0.2730 0.6131 0.7413
vn 0.1395 0.6565 0.7413
vn -0.0000 0.6712 0.7413
vn -0.1395 0.6565 0.7413
vn -0.2730 0.6131 0.7413
vn -0.3945 0.5430 0.7413
vn -0.4988 0.4491 0.7413
vn -0.5812 0.3356 0.7413
vn -0.6547 0.1633 0.7380
vn -0.6101 0.1982 0.7671
vn -0.6675 0.0702 0.7413
vn -0.8061 -0.0847 0.5857
vn -0.7709 -0.2505 0.5857
vn -0.7020 -0.4053 0.5857
vn -0.6024 -0.5424 0.5857
vn -0.4764 -0.6557 0.5857
vn -0.3297 -0.7405 0.5857
vn -0.1685 -0.7928 0.5857
vn -0.0000 -0.8105 0.5857
vn 0.1685 -0.7928 0.5857
vn 0.3297 -0.7405 0.5857
vn 0.4764 -0.6557 0.5857
vn 0.6024 -0.5424 0.5857
vn 0.7020 -0.4053 0.5857
vn 0.7709 -0.2505 0.5857
vn 0.8061 -0.0847 0.5857
vn 0.8061 0.0847 0.5857
vn 0.7709 0.2505 0.5857
vn 0.7020 0.4053 0.5857
vn 0.6024 0.5424 0.5857
vn 0.4764 0.6557 0.5857
vn 0.3297 0.7405 0.5857
vn 0.1685 0.7928 0.5857
vn -0.0000 0.8105 0.5857
vn -0.1685 0.7928 0.5857
vn -0.3297 0.7405 0.5857
vn -0.4764 0.6557 0.5857
vn -0.6024 0.5424 0.5857
vn -0.7020 0.4053 0.5857
vn -0.7709 0.2505 0.5857
vn -0.8061 0.0847 0.5857
vn -0.9094 -0.0956 0.4049
vn -0.8696 -0.2826 0.4049
vn -0.7919 -0.4572 0.4049
vn -0.6795 -0.6118 0.4049
vn -0.5375 -0.7397 0.4049
vn -0.3719 -0.8353 0.4049
vn -0.1901 -0.8944 0.4049
vn -0.0000 -0.9144 0.4049
vn 0.1901 -0.8944 0.4049
vn 0.3719 -0.8353 0.4049
vn 0.5375 -0.7397 0.4049
vn 0.6795 -0.6118 0.4049
vn 0.7919 -0.4572 0.4049
vn 0.8696 -0.2826 0.4049
vn 0.9094 -0.0956 0.4049
vn 0.9094 0.0956 0.4049
vn 0.8696 0.2826 0.4049
vn 0.7919 0.4572 0.4049
vn 0.6795 0.6118 0.4049
vn 0.5375 0.7397 0.4049
vn 0.3719 0.8353 0.4049
vn 0.1901 0.8944 0.4049
vn -0.0000 0.9144 0.4049
vn -0.1901 0.8944 0.4049
vn -0.3719 0.8353 0.4049
vn -0.5375 0.7397 0.4049
vn -0.6795 0.6118 0.4049
vn -0.7919 0.4572 0.4049
vn -0.8696 0.2826 0.4049
vn -0.9094 0.0956 0.4049
vn -0.9730 -0.1023 0.2068
vn -0.9305 -0.3023 0.2068
vn -0.8473 -0.4892 0.2068
vn -0.7271 -0.6547 0.2068
vn -0.5751 -0.7915 0.2068
vn -0.3979 -0.8938 0.2068
vn -0.2034 -0.9570 0.2068
vn -0.0000 -0.9784 0.2068
vn 0.2034 -0.9570 0.2068
vn 0.3979 -0.8938 0.2068
vn 0.5751 -0.7915 0.2068
vn 0.7271 -0.6547 0.2068
vn 0.8473 -0.4892 0.2068
vn 0.9305 -0.3023 0.2068
vn 0.9730 -0.1023 0.2068
vn 0.9730 0.1023 0.2068
vn 0.9305 0.3023 0.2068
vn 0.8473 0.4892 0.2068
vn 0.7271 0.6547 0.2068
vn 0.5751 0.7915 0.2068
vn 0.3979 0.8938 0.2068
vn 0.2034 0.9570 0.2068
vn -0.0000 0.9784 0.2068
vn -0.2034 0.9570 0.2068
vn -0.3979 0.8938 0.2068
vn -0.5751 0.7915 0.2068
vn -0.7271 0.6547 0.2068
vn -0.8473 0.4892 0.2068
vn -0.9305 0.3023 0.2068
vn -0.9730 0.1023 0.2068
vn -0.9945 -0.1045 -0.0000
vn -0.9511 -0.3090 -0.0000
vn -0.8660 -0.5000 -0.0000
vn -0.7431 -0.6691 -0.0000
vn -0.5878 -0.8090 -0.0000
vn -0.4067 -0.9135 -0.0000
vn -0.2079 -0.9781 -0.0000
vn -0.0000 -1.0000 -0.0000
vn 0.2079 -0.9781 -0.0000
vn 0.4067 -0.9135 -0.0000
vn 0.5878 -0.8090 -0.0000
vn 0.7431 -0.6691 -0.0000
vn 0.8660 -0.5000 -0.0000
vn 0.9511 -0.3090 -0.0000
vn 0.9945 -0.1045 -0.0000
vn 0.9945 0.1045 -0.0000
vn 0.9511 0.3090 -0.0000
vn 0.8660 0.5000 -0.0000
vn 0.7431 0.6691 -0.0000
vn 0.5878 0.8090 -0.0000
vn 0.4067 0.9135 -0.0000
vn 0.2079 0.9781 -0.0000
vn -0.0000 1.0000 -0.0000
vn -0.2079 0.9781 -0.0000
vn -0.4067 0.9135 -0.0000
vn -0.5878 0.8090 -0.0000
vn -0.7431 0.6691 -0.0000
vn -0.8660 0.5000 -0.0000
vn -0.9511 0.3090 -0.0000
vn -0.9945 0.1045 -0.0000
vn -0.9730 -0.1023 -0.2068
vn -0.9305 -0.3023 -0.2068
vn -0.8473 -0.4892 -0.2068
vn -0.7271 -0.6547 -0.2068
vn -0.5751 -0.7915 -0.2068
vn -0.3979 -0.8938 -0.2068
vn -0.2034 -0.9570 -0.2068
vn -0.0000 -0.9784 -0.2068
vn 0.2034 -0.9570 -0.2068
vn 0.3979 -0.8938 -0.2068
vn 0.5751 -0.7915 -0.2068
vn 0.7271 -0.6547 -0.2068
vn 0.8473 -0.4892 -0.2068
vn 0.9305 -0.3023 -0.2068
vn 0.9730 -0.1023 -0.2068
vn 0.9730 0.1023 -0.2068
vn 0.9305 0.3023 -0.2068
vn 0.8473 0.4892 -0.2068
vn 0.7271 0.6547 -0.2068
vn 0.5751 0.7915 -0.2068
vn 0.3979 0.8938 -0.2068
vn 0.2034 0.9570 -0.2068
vn -0.0000 0.9784 -0.2068
vn -0.2034 0.9570 -0.2068
vn -0.3979 0.8938 -0.2068
vn -0.5751 0.7915 -0.2068
vn -0.7271 0.6547 -0.2068
vn -0.8473 0.4892 -0.2068
vn -0.9305 0.3023 -0.2068
vn -0.9730 0.1023 -0.2068
vn -0.9094 -0.0956 -0.4049
vn -0.8696 -0.2826 -0.4049
vn -0.7919 -0.4572 -0.4049
vn -0.6795 -0.6118 -0.4049
vn -0.5375 -0.7397 -0.4049
vn -0.3719 -0.8353 -0.4049
vn -0.1901 -0.8944 -0.4049
vn -0.0000 -0.9144 -0.4049
vn 0.1901 -0.8944 -0.4049
vn 0.3719 -0.8353 -0.4049
vn 0.5375 -0.7397 -0.4049
vn 0.6795 -0.6118 -0.4049
vn 0.7919 -0.4572 -0.4049
vn 0.8696 -0.2826 -0.4049
vn 0.9094 -0.0956 -0.4049
vn 0.9094 0.0956 -0.4049
vn 0.8696 0.2826 -0.4049
vn 0.7919 0.4572 -0.4049
vn 0.6795 0.6118 -0.4049
vn 0.5375 0.7397 -0.4049
vn 0.3719 0.8353 -0.4049
vn 0.1901 0.8944 -0.4049
vn -0.0000 0.9144 -0.4049
vn -0.1901 0.8944 -0.4049
vn -0.3719 0.8353 -0.4049
vn -0.5375 0.7397 -0.4049
vn -0.6795 0.6118 -0.4049
vn -0.7919 0.4572 -0.4049
vn -0.8696 0.2826 -0.4049
vn -0.9094 0.0956 -0.4049
vn -0.8061 -0.0847 -0.5857
vn -0.7709 -0.2505 -0.5857
vn -0.7020 -0.4053 -0.5857
vn -0.6024 -0.5424 -0.5857
vn -0.4764 -0.6557 -0.5857
vn -0.3297 -0.7405 -0.5857
vn -0.1685 -0.7928 -0.5857
vn -0.0000 -0.8105 -0.5857
vn 0.1685 -0.7928 -0.5857
vn 0.3297 -0.7405 -0.5857
vn 0.4764 -0.6557 -0.5857
vn 0.6024 -0.5424 -0.5857
vn 0.7020 -0.4053 -0.5857
vn 0.7709 -0.2505 -0.5857
vn 0.8061 -0.0847 -0.5857
vn 0.8061 0.0847 -0.5857
vn 0.7709 0.2505 -0.5857
vn 0.7020 0.4053 -0.5857
vn 0.6024 0.5424 -0.5857
vn 0.4764 0.6557 -0.5857
vn 0.3297 0.7405 -0.5857
vn 0.1685 0.7928 -0.5857
vn -0.0000 0.8105 -0.5857
vn -0.1685 0.7928 -0.5857
vn -0.3297 0.7405 -0.5857
vn -0.4764 0.6557 -0.5857
vn -0.6024 0.5424 -0.5857
vn -0.7020 0.4053 -0.5857
vn -0.7709 0.2505 -0.5857
vn -0.8061 0.0847 -0.5857
vn -0.6380 -0.0671 -0.7671
vn -0.6383 -0.2074 -0.7413
vn -0.5555 -0.3207 -0.7671
vn -0.6064 -0.2959 -0.7380
vn -0.4988 -0.4491 -0.7413
vn -0.4511 -0.4671 -0.7605
vn -0.3945 -0.5430 -0.7413
vn -0.2609 -0.5860 -0.7671
vn -0.1395 -0.6565 -0.7413
vn -0.0000 -0.6415 -0.7671
vn -0.0470 -0.6731 -0.7380
vn 0.1395 -0.6565 -0.7413
vn 0.1789 -0.6242 -0.7605
vn 0.2730 -0.6131 -0.7413
vn 0.3771 -0.5190 -0.7671
vn 0.3576 -0.5722 -0.7380
vn 0.4988 -0.4491 -0.7413
vn 0.5117 -0.3998 -0.7605
vn 0.5812 -0.3356 -0.7413
vn 0.6101 -0.1982 -0.7671
vn 0.6675 -0.0702 -0.7413
vn 0.6380 0.0671 -0.7671
vn 0.6383 0.2074 -0.7413
vn 0.5555 0.3207 -0.7671
vn 0.6064 0.2959 -0.7380
vn 0.4988 0.4491 -0.7413
vn 0.4511 0.4671 -0.7605
vn 0.3945 0.5430 -0.7413
vn 0.2609 0.5860 -0.7671
vn 0.1395 0.6565 -0.7413
vn -0.0000 0.6415 -0.7671
vn 0.0470 0.6731 -0.7380
vn -0.1395 0.6565 -0.7413
vn -0.1789 0.6242 -0.7605
vn -0.2730 0.6131 -0.7413
vn -0.3771 0.5190 -0.7671
vn -0.3576 0.5722 -0.7380
vn -0.4988 0.4491 -0.7413
vn -0.5117 0.3998 -0.7605
vn -0.5812 0.3356 -0.7413
vn -0.6101 0.1982 -0.7671
vn -0.6675 0.0702 -0.7413
vn -0.5076 -0.0533 -0.8599
vn -0.4545 -0.2218 -0.8627
vn -0.4193 -0.2421 -0.8750
vn -0.3557 -0.3683 -0.8590
vn -0.2846 -0.3917 -0.8750
vn -0.2155 -0.4841 -0.8481
vn -0.1007 -0.4736 -0.8750
vn -0.0357 -0.5108 -0.8590
vn 0.1328 -0.4633 -0.8762
vn 0.1061 -0.4992 -0.8599
vn 0.2681 -0.4289 -0.8627
vn 0.2846 -0.3917 -0.8750
vn 0.4035 -0.3153 -0.8590
vn 0.4119 -0.2778 -0.8678
vn 0.5040 -0.1638 -0.8481
vn 0.4907 -0.1224 -0.8627
vn 0.5076 0.0533 -0.8599
vn 0.4545 0.2218 -0.8627
vn 0.4193 0.2421 -0.8750
vn 0.3557 0.3683 -0.8590
vn 0.2846 0.3917 -0.8750
vn 0.2155 0.4841 -0.8481
vn 0.1007 0.4736 -0.8750
vn 0.0357 0.5108 -0.8590
vn -0.1328 0.4633 -0.8762
vn -0.1061 0.4992 -0.8599
vn -0.2681 0.4289 -0.8627
vn -0.2846 0.3917 -0.8750
vn -0.4035 0.3153 -0.8590
vn -0.4119 0.2778 -0.8678
vn -0.5040 0.1638 -0.8481
vn -0.4907 0.1224 -0.8627
vn -0.3151 -0.0331 -0.9485
vn -0.2688 -0.1552 -0.9506
vn -0.2841 -0.1470 -0.9474
vn -0.1862 -0.2563 -0.9485
vn -0.1531 -0.2593 -0.9536
vn -0.0666 -0.3132 -0.9474
vn 0.0156 -0.2947 -0.9555
vn 0.0659 -0.3099 -0.9485
vn 0.1825 -0.2511 -0.9506
vn 0.1948 -0.2201 -0.9558
vn 0.2562 -0.1728 -0.9510
vn 0.2902 -0.0724 -0.9542
vn 0.2833 -0.0416 -0.9581
vn 0.3151 0.0331 -0.9485
vn 0.2688 0.1552 -0.9506
vn 0.2841 0.1470 -0.9474
vn 0.1862 0.2563 -0.9485
vn 0.1531 0.2593 -0.9536
vn 0.0666 0.3132 -0.9474
vn -0.0156 0.2947 -0.9555
vn -0.0659 0.3099 -0.9485
vn -0.1825 0.2511 -0.9506
vn -0.1948 0.2201 -0.9558
vn -0.2562 0.1728 -0.9510
vn -0.2902 0.0724 -0.9542
vn -0.2833 0.0416 -0.9581
vn -0.0910 -0.0673 0.9936
vn -0.0330 -0.1050 0.9939
vn 0.0274 -0.1051 0.9941
vn 0.0788 -0.0789 0.9938
vn 0.1142 -0.0168 -0.9933
vn 0.0750 -0.0847 -0.9936
vn 0.0059 -0.1113 -0.9938
vn -0.0560 -0.0948 -0.9939
vn -0.0964 -0.0499 -0.9941
vn -0.1142 0.0168 -0.9933
vn -0.0750 0.0847 -0.9936
vn -0.0059 0.1113 -0.9938
vn 0.0560 0.0948 -0.9939
vn 0.0964 0.0499 -0.9941
vn 0.0910 0.0673 0.9936
vn 0.0330 0.1050 0.9939
vn -0.0274 0.1051 0.9941
vn -0.0788 0.0789 0.9938
vn -0.0000 -0.0000 -1.0000
vn -0.4263 0.9046 -0.0000
vn -0.2289 0.9734 -0.0000
vn -0.0215 0.9998 -0.0000
vn 0.1868 0.9824 -0.0000
vn 0.3870 0.9221 -0.0000
vn 0.5702 0.8215 -0.0000
vn 0.7286 0.6850 -0.0000
vn 0.8551 0.5185 -0.0000
vn 0.9442 0.3294 -0.0000
vn 0.9920 0.1259 -0.0000
vn 0.9965 -0.0831 -0.0000
vn 0.9575 -0.2885 -0.0000
vn 0.8766 -0.4813 -0.0000
vn 0.7574 -0.6530 -0.0000
vn 0.6051 -0.7962 -0.0000
vn 0.4263 -0.9046 -0.0000
vn 0.2289 -0.9734 -0.0000
vn 0.0215 -0.9998 -0.0000
vn -0.1868 -0.9824 -0.0000
vn -0.3870 -0.9221 -0.0000
vn -0.5702 -0.8215 -0.0000
vn -0.7286 -0.6850 -0.0000
vn -0.8551 -0.5185 -0.0000
vn -0.9442 -0.3294 -0.0000
vn -0.9920 -0.1259 -0.0000
vn -0.9965 0.0831 -0.0000
vn -0.9575 0.2885 -0.0000
vn -0.8766 0.4813 -0.0000
vn -0.7574 0.6530 -0.0000
vn -0.6051 0.7962 -0.0000
vn -0.9326 0.2045 -0.2973
vn -0.8886 0.3577 -0.2873
vn -0.8426 0.4276 -0.3275
vn -0.8060 0.5138 -0.2939
vn -0.6903 0.6460 -0.3258
vn -0.6615 0.6637 -0.3493
vn -0.5658 0.7700 -0.2950
vn -0.4110 0.8531 -0.3213
vn -0.3672 0.8614 -0.3509
vn -0.2493 0.9219 -0.2964
vn -0.0752 0.9454 -0.3171
vn -0.0207 0.9357 -0.3522
vn 0.1005 0.9492 -0.2982
vn 0.2718 0.9100 -0.3132
vn 0.3284 0.8760 -0.3532
vn 0.4363 0.8482 -0.3003
vn 0.5829 0.7512 -0.3097
vn 0.6303 0.6911 -0.3538
vn 0.7127 0.6328 -0.3028
vn 0.8158 0.4905 -0.3064
vn 0.8419 0.4073 -0.3540
vn 0.8923 0.3323 -0.3056
vn 0.9388 0.1628 -0.3036
vn 0.9330 0.0652 -0.3539
vn 0.9511 -0.0124 -0.3087
vn 0.9350 -0.1875 -0.3010
vn 0.8906 -0.2863 -0.3534
vn 0.8813 -0.3547 -0.3121
vn 0.8047 -0.5129 -0.2988
vn 0.7206 -0.5970 -0.3526
vn 0.6927 -0.6483 -0.3159
vn 0.5655 -0.7695 -0.2969
vn 0.4474 -0.8224 -0.3514
vn 0.4112 -0.8535 -0.3200
vn 0.2494 -0.9222 -0.2954
vn 0.1097 -0.9304 -0.3498
vn 0.0750 -0.9429 -0.3244
vn -0.1006 -0.9504 -0.2942
vn -0.2441 -0.9052 -0.3479
vn -0.2703 -0.9048 -0.3292
vn -0.4373 -0.8501 -0.2934
vn -0.5185 -0.7899 -0.3273
vn -0.5869 -0.7564 -0.2889
vn -0.7080 -0.6415 -0.2954
vn -0.7156 -0.6354 -0.2902
vn -0.8170 -0.4961 -0.2940
vn -0.8198 -0.4929 -0.2916
vn -0.8961 -0.3338 -0.2924
vn -0.8963 -0.3327 -0.2931
vn -0.9426 -0.1635 -0.2910
vn -0.9426 -0.1569 -0.2946
vn -0.9570 0.0125 -0.2897
vn -0.9549 0.0243 -0.2960
vn -0.9388 0.1882 -0.2884
vn 0.9160 -0.2727 0.2942
vn 0.9539 -0.0795 0.2895
vn 0.9527 -0.0620 0.2975
vn 0.9504 0.1206 0.2867
vn 0.9418 0.1514 0.3003
vn 0.9052 0.3158 0.2845
vn 0.8838 0.3569 0.3025
vn 0.8202 0.4974 0.2827
vn 0.7329 0.5962 0.3277
vn 0.6951 0.6535 0.2997
vn 0.5419 0.7807 0.3111
vn 0.4592 0.8138 0.3561
vn 0.3685 0.8780 0.3054
vn 0.1780 0.9359 0.3040
vn 0.0607 0.9325 0.3559
vn -0.0204 0.9496 0.3129
vn -0.2185 0.9290 0.2987
vn -0.2874 0.8998 0.3281
vn -0.4088 0.8675 0.2834
vn -0.5448 0.7825 0.3016
vn -0.5799 0.7631 0.2854
vn -0.7058 0.6421 0.2991
vn -0.7253 0.6253 0.2879
vn -0.8318 0.4694 0.2961
vn -0.8387 0.4605 0.2908
vn -0.9156 0.2759 0.2926
vn -0.9160 0.2727 0.2942
vn -0.9539 0.0795 0.2895
vn -0.9527 0.0620 0.2975
vn -0.9504 -0.1206 0.2867
vn -0.9418 -0.1514 0.3003
vn -0.9052 -0.3158 0.2845
vn -0.8838 -0.3569 0.3025
vn -0.8202 -0.4974 0.2827
vn -0.7329 -0.5962 0.3277
vn -0.6951 -0.6535 0.2997
vn -0.5419 -0.7807 0.3111
vn -0.4592 -0.8138 0.3561
vn -0.3685 -0.8780 0.3054
vn -0.1780 -0.9359 0.3040
vn -0.0607 -0.9325 0.3559
vn 0.0204 -0.9496 0.3129
vn 0.2185 -0.9290 0.2987
vn 0.2874 -0.8998 0.3281
vn 0.4088 -0.8675 0.2834
vn 0.9156 -0.2759 0.2926
vn 0.8387 -0.4605 0.2908
vn 0.8318 -0.4694 0.2961
vn 0.7253 -0.6253 0.2879
vn 0.7080 -0.6403 0.2979
vn 0.5801 -0.7634 0.2840
vn 0.5425 -0.7841 0.3013
vn -0.8570 -0.5153 0.0051
vn -0.8854 -0.4647 0.0122
vn -0.9371 -0.3490 0.0017
vn -0.9853 -0.1709 0.0020
vn -0.9960 -0.0894 0.0092
vn -0.9999 0.0131 0.0012
vn -0.9805 0.1966 0.0026
vn -0.9783 0.2073 0.0036
vn -0.9277 0.3734 -0.0018
vn -0.8593 0.5114 0.0065
vn -0.8433 0.5375 0.0031
vn -0.7726 0.6349 -0.0000
vn -0.7301 0.6833 -0.0041
vn -0.5920 0.8056 0.0228
vn -0.5912 0.8062 0.0232
vn -0.4340 0.9009 -0.0004
vn -0.2610 0.9652 0.0144
vn -0.2536 0.9672 0.0166
vn -0.0793 0.9969 -0.0007
vn 0.0286 0.9995 0.0114
vn 0.1053 0.9944 -0.0024
vn 0.3083 0.9513 0.0039
vn 0.2862 0.9581 0.0099
vn 0.4574 0.8893 0.0006
vn 0.5912 0.8061 0.0255
vn 0.6129 0.7900 0.0167
vn 0.7477 0.6640 -0.0048
vn 0.7808 0.6247 -0.0000
vn 0.8570 0.5153 0.0051
vn 0.8854 0.4647 0.0122
vn 0.9371 0.3490 0.0017
vn 0.9853 0.1709 0.0020
vn 0.9960 0.0894 0.0092
vn 0.9999 -0.0131 0.0012
vn 0.9805 -0.1966 0.0026
vn 0.9783 -0.2073 0.0036
vn 0.9277 -0.3734 -0.0018
vn 0.8593 -0.5114 0.0065
vn 0.8433 -0.5375 0.0031
vn 0.7726 -0.6349 -0.0000
vn 0.7301 -0.6833 -0.0041
vn 0.5920 -0.8056 0.0228
vn 0.5912 -0.8062 0.0232
vn 0.4340 -0.9009 -0.0004
vn 0.2610 -0.9652 0.0144
vn 0.2536 -0.9672 0.0166
vn 0.0793 -0.9969 -0.0007
vn -0.0286 -0.9995 0.0114
vn -0.1053 -0.9944 -0.0024
vn -0.3083 -0.9513 0.0039
vn -0.2862 -0.9581 0.0099
vn -0.4574 -0.8893 0.0006
vn -0.5912 -0.8061 0.0255
vn -0.6129 -0.7900 0.0167
vn -0.7477 -0.6640 -0.0048
vn -0.7808 -0.6247 -0.0000
vn -0.7545 0.6562 -0.0000
vn -0.5396 0.8419 -0.0000
vn -0.1420 0.9899 -0.0000
vn 0.1420 0.9899 -0.0000
vn 0.5396 0.8419 -0.0000
vn -0.7545 -0.6562 -0.0000
vn 0.5396 -0.8419 -0.0000
vn 0.1420 -0.9899 -0.0000
vn -0.1420 -0.9899 -0.0000
vn -0.5396 -0.8419 -0.0000
vn 0.7545 -0.6562 -0.0000
vn 0.7545 0.6562 -0.0000
vn -0.0000 -0.0000 1.0000
s 0
f 1//1 2//1 3//1
f 4//2 2//2 5//2
f 6//3 4//3 7//3
f 6//4 8//4 4//4
f 9//5 8//5 6//5
f 10//6 8//6 9//6
f 10//7 11//7 8//7
f 12//8 11//8 10//8
f 12//9 13//9 11//9
f 14//10 13//10 12//10
f 15//11 13//11 14//11
f 15//12 3//12 13//12
f 16//13 3//13 15//13
f 16//14 1//14 3//14
f 17//15 1//15 16//15
f 18//16 1//16 17//16
f 18//17 19//17 1//17
f 20//18 19//18 18//18
f 21//19 19//19 20//19
f 21//20 22//20 19//20
f 23//21 22//21 21//21
f 23//22 24//22 22//22
f 25//23 24//23 23//23
f 26//24 24//24 25//24
f 26//25 5//25 24//25
f 27//26 5//26 26//26
f 27//27 4//27 5//27
f 7//28 4//28 27//28
f 28//29 7//29 29//29
f 28//30 6//30 7//30
f 30//31 6//31 28//31
f 30//32 9//32 6//32
f 31//32 9//32 30//32
f 32//33 9//33 31//33
f 32//34 10//34 9//34
f 33//34 10//34 32//34
f 34//35 10//35 33//35
f 34//36 12//36 10//36
f 35//36 12//36 34//36
f 36//37 12//37 35//37
f 36//38 14//38 12//38
f 37//39 14//39 36//39
f 37//40 15//40 14//40
f 38//41 15//41 37//41
f 39//42 15//42 38//42
f 39//43 16//43 15//43
f 40//43 16//43 39//43
f 41//44 16//44 40//44
f 41//45 17//45 16//45
f 42//46 17//46 41//46
f 42//47 18//47 17//47
f 43//48 18//48 42//48
f 43//49 20//49 18//49
f 44//49 20//49 43//49
f 45//50 20//50 44//50
f 45//51 21//51 20//51
f 46//51 21//51 45//51
f 47//52 21//52 46//52
f 47//53 23//53 21//53
f 48//53 23//53 47//53
f 49//54 23//54 48//54
f 49//55 25//55 23//55
f 50//56 25//56 49//56
f 50//57 26//57 25//57
f 51//58 26//58 50//58
f 52//59 26//59 51//59
f 52//60 27//60 26//60
f 53//60 27//60 52//60
f 29//61 27//61 53//61
f 29//62 7//62 27//62
f 54//63 28//63 29//63
f 55//63 28//63 54//63
f 56//64 28//64 55//64
f 56//65 30//65 28//65
f 57//66 30//66 56//66
f 57//67 31//67 30//67
f 58//67 31//67 57//67
f 58//68 32//68 31//68
f 59//68 32//68 58//68
f 59//69 33//69 32//69
f 60//69 33//69 59//69
f 60//70 34//70 33//70
f 61//70 34//70 60//70
f 61//71 35//71 34//71
f 62//71 35//71 61//71
f 62//72 36//72 35//72
f 63//72 36//72 62//72
f 63//73 37//73 36//73
f 64//73 37//73 63//73
f 64//74 38//74 37//74
f 65//74 38//74 64//74
f 65//75 39//75 38//75
f 66//75 39//75 65//75
f 66//76 40//76 39//76
f 67//76 40//76 66//76
f 67//77 41//77 40//77
f 68//78 41//78 67//78
f 69//79 41//79 68//79
f 69//80 42//80 41//80
f 70//80 42//80 69//80
f 71//81 42//81 70//81
f 71//82 43//82 42//82
f 72//83 43//83 71//83
f 72//84 44//84 43//84
f 73//84 44//84 72//84
f 73//85 45//85 44//85
f 74//85 45//85 73//85
f 74//86 46//86 45//86
f 75//86 46//86 74//86
f 75//87 47//87 46//87
f 76//87 47//87 75//87
f 76//88 48//88 47//88
f 77//88 48//88 76//88
f 77//89 49//89 48//89
f 78//89 49//89 77//89
f 78//90 50//90 49//90
f 79//90 50//90 78//90
f 79//91 51//91 50//91
f 80//91 51//91 79//91
f 80//92 52//92 51//92
f 81//92 52//92 80//92
f 81//93 53//93 52//93
f 82//93 53//93 81//93
f 82//94 29//94 53//94
f 83//95 29//95 82//95
f 54//96 29//96 83//96
f 84//97 55//97 54//97
f 85//97 55//97 84//97
f 85//98 56//98 55//98
f 86//98 56//98 85//98
f 86//99 57//99 56//99
f 87//99 57//99 86//99
f 87//100 58//100 57//100
f 88//100 58//100 87//100
f 88//101 59//101 58//101
f 89//101 59//101 88//101
f 89//102 60//102 59//102
f 90//102 60//102 89//102
f 90//103 61//103 60//103
f 91//103 61//103 90//103
f 91//104 62//104 61//104
f 92//104 62//104 91//104
f 92//105 63//105 62//105
f 93//105 63//105 92//105
f 93//106 64//106 63//106
f 94//106 64//106 93//106
f 94//107 65//107 64//107
f 95//107 65//107 94//107
f 95//108 66//108 65//108
f 96//108 66//108 95//108
f 96//109 67//109 66//109
f 97//109 67//109 96//109
f 97//110 68//110 67//110
f 98//110 68//110 97//110
f 98//111 69//111 68//111
f 99//111 69//111 98//111
f 99//112 70//112 69//112
f 100//112 70//112 99//112
f 100//113 71//113 70//113
f 101//113 71//113 100//113
f 101//114 72//114 71//114
f 102//114 72//114 101//114
f 102//115 73//115 72//115
f 103//115 73//115 102//115
f 103//116 74//116 73//116
f 104//116 74//116 103//116
f 104//117 75//117 74//117
f 105//117 75//117 104//117
f 105//118 76//118 75//118
f 106//118 76//118 105//118
f 106//119 77//119 76//119
f 107//119 77//119 106//119
f 107//120 78//120 77//120
f 108//120 78//120 107//120
f 108//121 79//121 78//121
f 109//121 79//121 108//121
f 109//122 80//122 79//122
f 110//122 80//122 109//122
f 110//123 81//123 80//123
f 111//123 81//123 110//123
f 111//124 82//124 81//124
f 112//124 82//124 111//124
f 112//125 83//125 82//125
f 113//125 83//125 112//125
f 113//126 54//126 83//126
f 84//126 54//126 113//126
f 114//127 85//127 84//127
f 115//127 85//127 114//127
f 115//128 86//128 85//128
f 116//128 86//128 115//128
f 116//129 87//129 86//129
f 117//129 87//129 116//129
f 117//130 88//130 87//130
f 118//130 88//130 117//130
f 118//131 89//131 88//131
f 119//131 89//131 118//131
f 119//132 90//132 89//132
f 120//132 90//132 119//132
f 120//133 91//133 90//133
f 121//133 91//133 120//133
f 121//134 92//134 91//134
f 122//134 92//134 121//134
f 122//135 93//135 92//135
f 123//135 93//135 122//135
f 123//136 94//136 93//136
f 124//136 94//136 123//136
f 124//137 95//137 94//137
f 125//137 95//137 124//137
f 125//138 96//138 95//138
f 126//138 96//138 125//138
f 126//139 97//139 96//139
f 127//139 97//139 126//139
f 127//140 98//140 97//140
f 128//140 98//140 127//140
f 128//141 99//141 98//141
f 129//141 99//141 128//141
f 129//142 100//142 99//142
f 130//142 100//142 129//142
f 130//143 101//143 100//143
f 131//143 101//143 130//143
f 131//144 102//144 101//144
f 132//144 102//144 131//144
f 132//145 103//145 102//145
f 133//145 103//145 132//145
f 133//146 104//146 103//146
f 134//146 104//146 133//146
f 134//147 105//147 104//147
f 135//147 105//147 134//147
f 135//148 106//148 105//148
f 136//148 106//148 135//148
f 136//149 107//149 106//149
f 137//149 107//149 136//149
f 137//150 108//150 107//150
f 138//150 108//150 137//150
f 138//151 109//151 108//151
f 139//151 109//151 138//151
f 139//152 110//152 109//152
f 140//152 110//152 139//152
f 140//153 111//153 110//153
f 141//153 111//153 140//153
f 141//154 112//154 111//154
f 142//154 112//154 141//154
f 142//155 113//155 112//155
f 143//155 113//155 142//155
f 143//156 84//156 113//156
f 114//156 84//156 143//156
f 144//157 115//157 114//157
f 145//157 115//157 144//157
f 145//158 116//158 115//158
f 146//158 116//158 145//158
f 146//159 117//159 116//159
f 147//159 117//159 146//159
f 147//160 118//160 117//160
f 148//160 118//160 147//160
f 148//161 119//161 118//161
f 149//161 119//161 148//161
f 149//162 120//162 119//162
f 150//162 120//162 149//162
f 150//163 121//163 120//163
f 151//163 121//163 150//163
f 151//164 122//164 121//164
f 152//164 122//164 151//164
f 152//165 123//165 122//165
f 153//165 123//165 152//165
f 153//166 124//166 123//166
f 154//166 124//166 153//166
f 154//167 125//167 124//167
f 155//167 125//167 154//167
f 155//168 126//168 125//168
f 156//168 126//168 155//168
f 156//169 127//169 126//169
f 157//169 127//169 156//169
f 157//170 128//170 127//170
f 158//170 128//170 157//170
f 158//171 129//171 128//171
f 159//171 129//171 158//171
f 159//172 130//172 129//172
f 160//172 130//172 159//172
f 160//173 131//173 130//173
f 161//173 131//173 160//173
f 161//174 132//174 131//174
f 162//174 132//174 161//174
f 162//175 133//175 132//175
f 163//175 133//175 162//175
f 163//176 134//176 133//176
f 164//176 134//176 163//176
f 164//177 135//177 134//177
f 165//177 135//177 164//177
f 165//178 136//178 135//178
f 166//178 136//178 165//178
f 166//179 137//179 136//179
f 167//179 137//179 166//179
f 167//180 138//180 137//180
f 168//180 138//180 167//180
f 168//181 139//181 138//181
f 169//181 139//181 168//181
f 169//182 140//182 139//182
f 170//182 140//182 169//182
f 170//183 141//183 140//183
f 171//183 141//183 170//183
f 171//184 142//184 141//184
f 172//184 142//184 171//184
f 172//185 143//185 142//185
f 173//185 143//185 172//185
f 173//186 114//186 143//186
f 144//186 114//186 173//186
f 174//187 145//187 144//187
f 175//187 145//187 174//187
f 175//188 146//188 145//188
f 176//188 146//188 175//188
f 176//189 147//189 146//189
f 177//189 147//189 176//189
f 177//190 148//190 147//190
f 178//190 148//190 177//190
f 178//191 149//191 148//191
f 179//191 149//191 178//191
f 179//192 150//192 149//192
f 180//192 150//192 179//192
f 180//193 151//193 150//193
f 181//193 151//193 180//193
f 181//194 152//194 151//194
f 182//194 152//194 181//194
f 182//195 153//195 152//195
f 183//195 153//195 182//195
f 183//196 154//196 153//196
f 184//196 154//196 183//196
f 184//197 155//197 154//197
f 185//197 155//197 184//197
f 185//198 156//198 155//198
f 186//198 156//198 185//198
f 186//199 157//199 156//199
f 187//199 157//199 186//199
f 187//200 158//200 157//200
f 188//200 158//200 187//200
f 188//201 159//201 158//201
f 189//201 159//201 188//201
f 189//202 160//202 159//202
f 190//202 160//202 189//202
f 190//203 161//203 160//203
f 191//203 161//203 190//203
f 191//204 162//204 161//204
f 192//204 162//204 191//204
f 192//205 163//205 162//205
f 193//205 163//205 192//205
f 193//206 164//206 163//206
f 194//206 164//206 193//206
f 194//207 165//207 164//207
f 195//207 165//207 194//207
f 195//208 166//208 165//208
f 196//208 166//208 195//208
f 196//209 167//209 166//209
f 197//209 167//209 196//209
f 197//210 168//210 167//210
f 198//210 168//210 197//210
f 198//211 169//211 168//211
f 199//211 169//211 198//211
f 199//212 170//212 169//212
f 200//212 170//212 199//212
f 200//213 171//213 170//213
f 201//213 171//213 200//213
f 201//214 172//214 171//214
f 202//214 172//214 201//214
f 202//215 173//215 172//215
f 203//215 173//215 202//215
f 203//216 144//216 173//216
f 174//216 144//216 203//216
f 204//217 175//217 174//217
f 205//217 175//217 204//217
f 205//218 176//218 175//218
f 206//218 176//218 205//218
f 206//219 177//219 176//219
f 207//219 177//219 206//219
f 207//220 178//220 177//220
f 208//220 178//220 207//220
f 208//221 179//221 178//221
f 209//221 179//221 208//221
f 209//222 180//222 179//222
f 210//222 180//222 209//222
f 210//223 181//223 180//223
f 211//223 181//223 210//223
f 211//224 182//224 181//224
f 212//224 182//224 211//224
f 212//225 183//225 182//225
f 213//225 183//225 212//225
f 213//226 184//226 183//226
f 214//226 184//226 213//226
f 214//227 185//227 184//227
f 215//227 185//227 214//227
f 215//228 186//228 185//228
f 216//228 186//228 215//228
f 216//229 187//229 186//229
f 217//229 187//229 216//229
f 217//230 188//230 187//230
f 218//230 188//230 217//230
f 218//231 189//231 188//231
f 219//231 189//231 218//231
f 219//232 190//232 189//232
f 220//232 190//232 219//232
f 220//233 191//233 190//233
f 221//233 191//233 220//233
f 221//234 192//234 191//234
f 222//234 192//234 221//234
f 222//235 193//235 192//235
f 223//235 193//235 222//235
f 223//236 194//236 193//236
f 224//236 194//236 223//236
f 224//237 195//237 194//237
f 225//237 195//237 224//237
f 225//238 196//238 195//238
f 226//238 196//238 225//238
f 226//239 197//239 196//239
f 227//239 197//239 226//239
f 227//240 198//240 197//240
f 228//240 198//240 227//240
f 228//241 199//241 198//241
f 229//241 199//241 228//241
f 229//242 200//242 199//242
f 230//242 200//242 229//242
f 230//243 201//243 200//243
f 231//243 201//243 230//243
f 231//244 202//244 201//244
f 232//244 202//244 231//244
f 232//245 203//245 202//245
f 233//245 203//245 232//245
f 233//246 174//246 203//246
f 204//246 174//246 233//246
f 234//247 205//247 204//247
f 235//247 205//247 234//247
f 235//248 206//248 205//248
f 236//248 206//248 235//248
f 236//249 207//249 206//249
f 237//249 207//249 236//249
f 237//250 208//250 207//250
f 238//250 208//250 237//250
f 238//251 209//251 208//251
f 239//251 209//251 238//251
f 239//252 210//252 209//252
f 240//252 210//252 239//252
f 240//253 211//253 210//253
f 241//253 211//253 240//253
f 241//254 212//254 211//254
f 242//254 212//254 241//254
f 242//255 213//255 212//255
f 243//255 213//255 242//255
f 243//256 214//256 213//256
f 244//256 214//256 243//256
f 244//257 215//257 214//257
f 245//257 215//257 244//257
f 245//258 216//258 215//258
f 246//258 216//258 245//258
f 246//259 217//259 216//259
f 247//259 217//259 246//259
f 247//260 218//260 217//260
f 248//260 218//260 247//260
f 248//261 219//261 218//261
f 249//261 219//261 248//261
f 249//262 220//262 219//262
f 250//262 220//262 249//262
f 250//263 221//263 220//263
f 251//263 221//263 250//263
f 251//264 222//264 221//264
f 252//264 222//264 251//264
f 252//265 223//265 222//265
f 253//265 223//265 252//265
f 253//266 224//266 223//266
f 254//266 224//266 253//266
f 254//267 225//267 224//267
f 255//267 225//267 254//267
f 255//268 226//268 225//268
f 256//268 226//268 255//268
f 256//269 227//269 226//269
f 257//269 227//269 256//269
f 257//270 228//270 227//270
f 258//270 228//270 257//270
f 258//271 229//271 228//271
f 259//271 229//271 258//271
f 259//272 230//272 229//272
f 260//272 230//272 259//272
f 260//273 231//273 230//273
f 261//273 231//273 260//273
f 261//274 232//274 231//274
f 262//274 232//274 261//274
f 262//275 233//275 232//275
f 263//275 233//275 262//275
f 263//276 204//276 233//276
f 234//276 204//276 263//276
f 264//277 235//277 234//277
f 265//277 235//277 264//277
f 265//278 236//278 235//278
f 266//278 236//278 265//278
f 266//279 237//279 236//279
f 267//279 237//279 266//279
f 267//280 238//280 237//280
f 268//280 238//280 267//280
f 268//281 239//281 238//281
f 269//281 239//281 268//281
f 269//282 240//282 239//282
f 270//282 240//282 269//282
f 270//283 241//283 240//283
f 271//283 241//283 270//283
f 271//284 242//284 241//284
f 272//284 242//284 271//284
f 272//285 243//285 242//285
f 273//285 243//285 272//285
f 273//286 244//286 243//286
f 274//286 244//286 273//286
f 274//287 245//287 244//287
f 275//287 245//287 274//287
f 275//288 246//288 245//288
f 276//288 246//288 275//288
f 276//289 247//289 246//289
f 277//289 247//289 276//289
f 277//290 248//290 247//290
f 278//290 248//290 277//290
f 278//291 249//291 248//291
f 279//291 249//291 278//291
f 279//292 250//292 249//292
f 280//292 250//292 279//292
f 280//293 251//293 250//293
f 281//293 251//293 280//293
f 281//294 252//294 251//294
f 282//294 252//294 281//294
f 282//295 253//295 252//295
f 283//295 253//295 282//295
f 283//296 254//296 253//296
f 284//296 254//296 283//296
f 284//297 255//297 254//297
f 285//297 255//297 284//297
f 285//298 256//298 255//298
f 286//298 256//298 285//298
f 286//299 257//299 256//299
f 287//299 257//299 286//299
f 287//300 258//300 257//300
f 288//300 258//300 287//300
f 288//301 259//301 258//301
f 289//301 259//301 288//301
f 289//302 260//302 259//302
f 290//302 260//302 289//302
f 290//303 261//303 260//303
f 291//303 261//303 290//303
f 291//304 262//304 261//304
f 292//304 262//304 291//304
f 292//305 263//305 262//305
f 293//305 263//305 292//305
f 293//306 234//306 263//306
f 264//306 234//306 293//306
f 294//307 265//307 264//307
f 295//307 265//307 294//307
f 295//308 266//308 265//308
f 295//309 267//309 266//309
f 296//310 267//310 295//310
f 296//311 268//311 267//311
f 297//312 268//312 296//312
f 297//313 269//313 268//313
f 297//314 270//314 269//314
f 298//314 270//314 297//314
f 298//315 271//315 270//315
f 298//316 272//316 271//316
f 299//317 272//317 298//317
f 299//318 273//318 272//318
f 300//319 273//319 299//319
f 300//320 274//320 273//320
f 300//321 275//321 274//321
f 301//322 275//322 300//322
f 301//323 276//323 275//323
f 302//324 276//324 301//324
f 302//325 277//325 276//325
f 302//326 278//326 277//326
f 303//326 278//326 302//326
f 303//327 279//327 278//327
f 303//328 280//328 279//328
f 304//328 280//328 303//328
f 304//329 281//329 280//329
f 304//330 282//330 281//330
f 305//331 282//331 304//331
f 305//332 283//332 282//332
f 306//333 283//333 305//333
f 306//334 284//334 283//334
f 306//335 285//335 284//335
f 307//335 285//335 306//335
f 307//336 286//336 285//336
f 307//337 287//337 286//337
f 308//338 287//338 307//338
f 308//339 288//339 287//339
f 309//340 288//340 308//340
f 309//341 289//341 288//341
f 309//342 290//342 289//342
f 310//343 290//343 309//343
f 310//344 291//344 290//344
f 311//345 291//345 310//345
f 311//346 292//346 291//346
f 311//347 293//347 292//347
f 294//347 293//347 311//347
f 294//348 264//348 293//348
f 312//349 295//349 294//349
f 313//349 295//349 312//349
f 313//350 296//350 295//350
f 314//351 296//351 313//351
f 314//352 297//352 296//352
f 315//353 297//353 314//353
f 315//354 298//354 297//354
f 316//355 298//355 315//355
f 316//356 299//356 298//356
f 316//357 300//357 299//357
f 317//358 300//358 316//358
f 317//359 301//359 300//359
f 318//360 301//360 317//360
f 318//361 302//361 301//361
f 319//362 302//362 318//362
f 319//363 303//363 302//363
f 320//364 303//364 319//364
f 320//365 304//365 303//365
f 321//365 304//365 320//365
f 321//366 305//366 304//366
f 322//367 305//367 321//367
f 322//368 306//368 305//368
f 323//369 306//369 322//369
f 323//370 307//370 306//370
f 324//371 307//371 323//371
f 324//372 308//372 307//372
f 324//373 309//373 308//373
f 325//374 309//374 324//374
f 325//375 310//375 309//375
f 326//376 310//376 325//376
f 326//377 311//377 310//377
f 327//378 311//378 326//378
f 327//379 294//379 311//379
f 312//380 294//380 327//380
f 328//381 313//381 312//381
f 328//382 314//382 313//382
f 329//383 314//383 328//383
f 329//384 315//384 314//384
f 330//385 315//385 329//385
f 330//386 316//386 315//386
f 331//387 316//387 330//387
f 331//388 317//388 316//388
f 331//389 318//389 317//389
f 332//390 318//390 331//390
f 332//391 319//391 318//391
f 332//392 320//392 319//392
f 333//393 320//393 332//393
f 333//394 321//394 320//394
f 333//395 322//395 321//395
f 334//396 322//396 333//396
f 334//397 323//397 322//397
f 335//398 323//398 334//398
f 335//399 324//399 323//399
f 336//400 324//400 335//400
f 336//401 325//401 324//401
f 336//402 326//402 325//402
f 337//403 326//403 336//403
f 337//404 327//404 326//404
f 337//405 312//405 327//405
f 328//406 312//406 337//406
f 8//407 2//407 4//407
f 11//408 2//408 8//408
f 13//409 2//409 11//409
f 3//410 2//410 13//410
f 332//411 338//411 333//411
f 331//412 338//412 332//412
f 330//413 338//413 331//413
f 329//414 338//414 330//414
f 328//415 338//415 329//415
f 337//416 338//416 328//416
f 336//417 338//417 337//417
f 335//418 338//418 336//418
f 334//419 338//419 335//419
f 333//420 338//420 334//420
f 19//421 2//421 1//421
f 22//422 2//422 19//422
f 24//423 2//423 22//423
f 5//424 2//424 24//424
f 339//425 340//425 341//425
f 339//425 342//425 340//425
f 343//425 342//425 339//425
f 343//425 344//425 342//425
f 343//425 345//425 344//425
f 346//425 345//425 343//425
f 346//425 347//425 345//425
f 346//425 348//425 347//425
f 349//425 348//425 346//425
f 349//425 350//425 348//425
f 351//425 350//425 349//425
f 351//425 352//425 350//425
f 351//425 353//425 352//425
f 354//425 353//425 351//425
f 354//425 355//425 353//425
f 356//425 355//425 354//425
f 356//425 357//425 355//425
f 358//425 357//425 356//425
f 358//425 359//425 357//425
f 360//425 359//425 358//425
f 361//425 359//425 360//425
f 361//425 362//425 359//425
f 363//425 362//425 361//425
f 363//425 364//425 362//425
f 365//425 364//425 363//425
f 366//425 364//425 365//425
f 366//425 367//425 364//425
f 368//425 367//425 366//425
f 368//425 369//425 367//425
f 370//425 369//425 368//425
f 370//425 371//425 369//425
f 372//425 371//425 370//425
f 372//425 373//425 371//425
f 372//425 374//425 373//425
f 375//425 374//425 372//425
f 375//425 376//425 374//425
f 377//425 376//425 375//425
f 377//425 378//425 376//425
f 379//425 378//425 377//425
f 379//425 380//425 378//425
f 341//425 380//425 379//425
f 341//425 340//425 380//425
f 381//426 382//426 383//426
f 384//427 382//427 381//427
f 384//427 385//427 382//427
f 386//428 385//428 384//428
f 386//428 387//428 385//428
f 388//429 387//429 386//429
f 388//429 389//429 387//429
f 390//430 389//430 388//430
f 390//430 391//430 389//430
f 392//431 391//431 390//431
f 392//431 393//431 391//431
f 394//432 393//432 392//432
f 394//432 395//432 393//432
f 396//433 395//433 394//433
f 396//433 397//433 395//433
f 398//434 397//434 396//434
f 398//434 399//434 397//434
f 400//435 399//435 398//435
f 400//435 401//435 399//435
f 402//436 401//436 400//436
f 402//436 403//436 401//436
f 404//437 403//437 402//437
f 404//437 405//437 403//437
f 406//438 405//438 404//438
f 406//438 407//438 405//438
f 408//439 407//439 406//439
f 408//439 409//439 407//439
f 410//440 409//440 408//440
f 410//440 411//440 409//440
f 412//441 411//441 410//441
f 412//441 413//441 411//441
f 414//442 413//442 412//442
f 414//442 415//442 413//442
f 416//443 415//443 414//443
f 416//443 417//443 415//443
f 418//444 417//444 416//444
f 418//444 419//444 417//444
f 420//445 419//445 418//445
f 420//445 421//445 419//445
f 422//446 421//446 420//446
f 422//446 423//446 421//446
f 424//447 423//447 422//447
f 424//447 425//447 423//447
f 426//448 425//448 424//448
f 426//448 427//448 425//448
f 428//449 427//449 426//449
f 428//449 429//449 427//449
f 430//450 429//450 428//450
f 430//450 431//450 429//450
f 432//451 431//451 430//451
f 432//451 433//451 431//451
f 434//452 433//452 432//452
f 434//452 435//452 433//452
f 436//453 435//453 434//453
f 436//453 437//453 435//453
f 438//454 437//454 436//454
f 438//454 439//454 437//454
f 440//455 439//455 438//455
f 440//455 383//455 439//455
f 381//426 383//426 440//426
f 441//425 442//425 443//425
f 443//425 444//425 441//425
f 445//425 446//425 447//425
f 445//425 443//425 446//425
f 448//425 443//425 445//425
f 449//425 448//425 450//425
f 451//425 448//425 449//425
f 444//425 448//425 451//425
f 443//425 448//425 444//425
f 452//456 370//456 368//456
f 453//457 370//457 452//457
f 453//458 372//458 370//458
f 454//459 372//459 453//459
f 455//460 372//460 454//460
f 455//461 375//461 372//461
f 456//462 375//462 455//462
f 457//463 375//463 456//463
f 457//464 377//464 375//464
f 458//465 377//465 457//465
f 459//466 377//466 458//466
f 459//467 379//467 377//467
f 460//468 379//468 459//468
f 461//469 379//469 460//469
f 461//470 341//470 379//470
f 462//471 341//471 461//471
f 463//472 341//472 462//472
f 463//473 339//473 341//473
f 464//474 339//474 463//474
f 465//475 339//475 464//475
f 465//476 343//476 339//476
f 466//477 343//477 465//477
f 467//478 343//478 466//478
f 467//479 346//479 343//479
f 468//480 346//480 467//480
f 469//481 346//481 468//481
f 469//482 349//482 346//482
f 470//483 349//483 469//483
f 471//484 349//484 470//484
f 471//485 351//485 349//485
f 472//486 351//486 471//486
f 473//487 351//487 472//487
f 473//488 354//488 351//488
f 474//489 354//489 473//489
f 475//490 354//490 474//490
f 475//491 356//491 354//491
f 476//492 356//492 475//492
f 477//493 356//493 476//493
f 477//494 358//494 356//494
f 478//495 358//495 477//495
f 479//496 358//496 478//496
f 479//497 360//497 358//497
f 480//498 360//498 479//498
f 480//499 361//499 360//499
f 481//500 361//500 480//500
f 481//501 363//501 361//501
f 482//502 363//502 481//502
f 483//503 363//503 482//503
f 483//504 365//504 363//504
f 484//505 365//505 483//505
f 484//506 366//506 365//506
f 485//507 366//507 484//507
f 485//508 368//508 366//508
f 452//509 368//509 485//509
f 402//510 369//510 371//510
f 400//511 369//511 402//511
f 400//512 367//512 369//512
f 398//513 367//513 400//513
f 398//514 364//514 367//514
f 396//515 364//515 398//515
f 396//516 362//516 364//516
f 394//517 362//517 396//517
f 394//518 359//518 362//518
f 392//519 359//519 394//519
f 390//520 359//520 392//520
f 390//521 357//521 359//521
f 388//522 357//522 390//522
f 386//523 357//523 388//523
f 386//524 355//524 357//524
f 384//525 355//525 386//525
f 381//526 355//526 384//526
f 381//527 353//527 355//527
f 440//528 353//528 381//528
f 440//529 352//529 353//529
f 438//530 352//530 440//530
f 438//531 350//531 352//531
f 436//532 350//532 438//532
f 436//533 348//533 350//533
f 434//534 348//534 436//534
f 432//535 348//535 434//535
f 432//536 347//536 348//536
f 430//537 347//537 432//537
f 430//538 345//538 347//538
f 428//539 345//539 430//539
f 428//540 344//540 345//540
f 426//541 344//541 428//541
f 426//542 342//542 344//542
f 424//543 342//543 426//543
f 424//544 340//544 342//544
f 422//545 340//545 424//545
f 420//546 340//546 422//546
f 420//547 380//547 340//547
f 418//548 380//548 420//548
f 416//549 380//549 418//549
f 416//550 378//550 380//550
f 414//551 378//551 416//551
f 412//552 378//552 414//552
f 412//553 376//553 378//553
f 410//554 376//554 412//554
f 371//555 404//555 402//555
f 371//556 406//556 404//556
f 373//557 406//557 371//557
f 373//558 408//558 406//558
f 374//559 408//559 373//559
f 374//560 410//560 408//560
f 376//561 410//561 374//561
f 486//425 487//425 488//425
f 486//425 489//425 487//425
f 490//425 489//425 486//425
f 489//425 491//425 492//425
f 489//425 493//425 491//425
f 490//425 493//425 489//425
f 490//425 494//425 493//425
f 495//425 494//425 490//425
f 490//425 496//425 495//425
f 389//425 385//425 387//425
f 389//425 382//425 385//425
f 391//425 382//425 389//425
f 419//425 415//425 417//425
f 419//425 413//425 415//425
f 421//425 413//425 419//425
f 421//425 411//425 413//425
f 423//425 411//425 421//425
f 423//425 409//425 411//425
f 425//425 409//425 423//425
f 425//425 407//425 409//425
f 427//425 407//425 425//425
f 427//425 405//425 407//425
f 429//425 405//425 427//425
f 429//425 403//425 405//425
f 431//425 403//425 429//425
f 431//425 401//425 403//425
f 433//425 401//425 431//425
f 433//425 399//425 401//425
f 435//425 399//425 433//425
f 435//425 397//425 399//425
f 437//425 397//425 435//425
f 437//425 395//425 397//425
f 439//425 395//425 437//425
f 439//425 393//425 395//425
f 383//425 393//425 439//425
f 383//425 391//425 393//425
f 382//425 391//425 383//425
f 497//562 482//562 481//562
f 498//563 482//563 497//563
f 498//564 483//564 482//564
f 498//565 484//565 483//565
f 499//566 484//566 498//566
f 499//567 485//567 484//567
f 499//568 452//568 485//568
f 500//569 452//569 499//569
f 500//570 453//570 452//570
f 501//571 453//571 500//571
f 501//572 454//572 453//572
f 442//573 454//573 501//573
f 442//574 455//574 454//574
f 442//575 456//575 455//575
f 441//576 456//576 442//576
f 441//577 457//577 456//577
f 441//578 458//578 457//578
f 444//579 458//579 441//579
f 444//580 459//580 458//580
f 451//581 459//581 444//581
f 451//582 460//582 459//582
f 449//583 460//583 451//583
f 449//584 461//584 460//584
f 449//585 462//585 461//585
f 450//586 462//586 449//586
f 450//587 463//587 462//587
f 450//588 464//588 463//588
f 502//589 464//589 450//589
f 502//590 465//590 464//590
f 503//591 465//591 502//591
f 503//592 466//592 465//592
f 503//593 467//593 466//593
f 504//594 467//594 503//594
f 504//595 468//595 467//595
f 504//596 469//596 468//596
f 505//597 469//597 504//597
f 505//598 470//598 469//598
f 506//599 470//599 505//599
f 506//600 471//600 470//600
f 492//601 471//601 506//601
f 492//602 472//602 471//602
f 492//603 473//603 472//603
f 491//604 473//604 492//604
f 491//605 474//605 473//605
f 491//606 475//606 474//606
f 493//607 475//607 491//607
f 493//608 476//608 475//608
f 494//609 476//609 493//609
f 494//610 477//610 476//610
f 495//611 477//611 494//611
f 495//612 478//612 477//612
f 495//613 479//613 478//613
f 496//614 479//614 495//614
f 496//615 480//615 479//615
f 496//616 481//616 480//616
f 497//617 481//617 496//617
f 507//618 442//618 501//618
f 443//618 442//618 507//618
f 507//619 446//619 443//619
f 508//619 446//619 507//619
f 508//620 447//620 446//620
f 509//620 447//620 508//620
f 509//621 445//621 447//621
f 510//621 445//621 509//621
f 510//622 448//622 445//622
f 511//622 448//622 510//622
f 497//623 490//623 512//623
f 496//623 490//623 497//623
f 513//624 487//624 489//624
f 514//624 487//624 513//624
f 514//625 488//625 487//625
f 515//625 488//625 514//625
f 515//626 486//626 488//626
f 516//626 486//626 515//626
f 516//627 490//627 486//627
f 512//627 490//627 516//627
f 513//628 492//628 506//628
f 489//628 492//628 513//628
f 502//629 448//629 511//629
f 450//629 448//629 502//629
f 503//630 505//630 504//630
f 503//630 506//630 505//630
f 502//630 506//630 503//630
f 506//630 502//630 511//630
f 498//630 500//630 499//630
f 497//630 500//630 498//630
f 497//630 501//630 500//630
f 512//630 501//630 497//630
f 515//630 512//630 516//630
f 514//630 512//630 515//630
f 513//630 512//630 514//630
f 513//630 501//630 512//630
f 506//630 501//630 513//630
f 506//630 507//630 501//630
f 511//630 507//630 506//630
f 508//630 507//630 511//630
f 511//630 509//630 508//630
f 511//630 510//630 509//630
